G04 #@! TF.FileFunction,Legend,Bot*
%FSLAX46Y46*%
G04 Gerber Fmt 4.6, Leading zero omitted, Abs format (unit mm)*
G04 Created by KiCad (PCBNEW 4.0.7) date 06/06/18 10:15:49*
%MOMM*%
%LPD*%
G01*
G04 APERTURE LIST*
%ADD10C,0.100000*%
%ADD11C,0.300000*%
%ADD12C,0.120000*%
%ADD13C,0.152400*%
%ADD14C,0.150000*%
G04 APERTURE END LIST*
D10*
D11*
X150192857Y-150810000D02*
X150335714Y-150738571D01*
X150550000Y-150738571D01*
X150764285Y-150810000D01*
X150907143Y-150952857D01*
X150978571Y-151095714D01*
X151050000Y-151381429D01*
X151050000Y-151595714D01*
X150978571Y-151881429D01*
X150907143Y-152024286D01*
X150764285Y-152167143D01*
X150550000Y-152238571D01*
X150407143Y-152238571D01*
X150192857Y-152167143D01*
X150121428Y-152095714D01*
X150121428Y-151595714D01*
X150407143Y-151595714D01*
X149478571Y-152238571D02*
X149478571Y-150738571D01*
X148621428Y-152238571D01*
X148621428Y-150738571D01*
X147907142Y-152238571D02*
X147907142Y-150738571D01*
X147549999Y-150738571D01*
X147335714Y-150810000D01*
X147192856Y-150952857D01*
X147121428Y-151095714D01*
X147049999Y-151381429D01*
X147049999Y-151595714D01*
X147121428Y-151881429D01*
X147192856Y-152024286D01*
X147335714Y-152167143D01*
X147549999Y-152238571D01*
X147907142Y-152238571D01*
X158711428Y-118828571D02*
X158711428Y-117328571D01*
X157997142Y-117828571D02*
X157997142Y-118828571D01*
X157997142Y-117971429D02*
X157925714Y-117900000D01*
X157782856Y-117828571D01*
X157568571Y-117828571D01*
X157425714Y-117900000D01*
X157354285Y-118042857D01*
X157354285Y-118828571D01*
X155711428Y-117828571D02*
X155139999Y-117828571D01*
X155497142Y-118828571D02*
X155497142Y-117542857D01*
X155425714Y-117400000D01*
X155282856Y-117328571D01*
X155139999Y-117328571D01*
X154639999Y-118828571D02*
X154639999Y-117828571D01*
X154639999Y-118114286D02*
X154568571Y-117971429D01*
X154497142Y-117900000D01*
X154354285Y-117828571D01*
X154211428Y-117828571D01*
X153497142Y-118828571D02*
X153640000Y-118757143D01*
X153711428Y-118685714D01*
X153782857Y-118542857D01*
X153782857Y-118114286D01*
X153711428Y-117971429D01*
X153640000Y-117900000D01*
X153497142Y-117828571D01*
X153282857Y-117828571D01*
X153140000Y-117900000D01*
X153068571Y-117971429D01*
X152997142Y-118114286D01*
X152997142Y-118542857D01*
X153068571Y-118685714D01*
X153140000Y-118757143D01*
X153282857Y-118828571D01*
X153497142Y-118828571D01*
X152354285Y-118828571D02*
X152354285Y-117828571D01*
X152354285Y-117971429D02*
X152282857Y-117900000D01*
X152139999Y-117828571D01*
X151925714Y-117828571D01*
X151782857Y-117900000D01*
X151711428Y-118042857D01*
X151711428Y-118828571D01*
X151711428Y-118042857D02*
X151639999Y-117900000D01*
X151497142Y-117828571D01*
X151282857Y-117828571D01*
X151139999Y-117900000D01*
X151068571Y-118042857D01*
X151068571Y-118828571D01*
X149282857Y-118400000D02*
X148568571Y-118400000D01*
X149425714Y-118828571D02*
X148925714Y-117328571D01*
X148425714Y-118828571D01*
X147925714Y-118828571D02*
X147925714Y-117828571D01*
X147925714Y-118114286D02*
X147854286Y-117971429D01*
X147782857Y-117900000D01*
X147640000Y-117828571D01*
X147497143Y-117828571D01*
X146354286Y-118828571D02*
X146354286Y-117328571D01*
X146354286Y-118757143D02*
X146497143Y-118828571D01*
X146782857Y-118828571D01*
X146925715Y-118757143D01*
X146997143Y-118685714D01*
X147068572Y-118542857D01*
X147068572Y-118114286D01*
X146997143Y-117971429D01*
X146925715Y-117900000D01*
X146782857Y-117828571D01*
X146497143Y-117828571D01*
X146354286Y-117900000D01*
X144997143Y-117828571D02*
X144997143Y-118828571D01*
X145640000Y-117828571D02*
X145640000Y-118614286D01*
X145568572Y-118757143D01*
X145425714Y-118828571D01*
X145211429Y-118828571D01*
X145068572Y-118757143D01*
X144997143Y-118685714D01*
X144282857Y-118828571D02*
X144282857Y-117828571D01*
X144282857Y-117328571D02*
X144354286Y-117400000D01*
X144282857Y-117471429D01*
X144211429Y-117400000D01*
X144282857Y-117328571D01*
X144282857Y-117471429D01*
X143568571Y-117828571D02*
X143568571Y-118828571D01*
X143568571Y-117971429D02*
X143497143Y-117900000D01*
X143354285Y-117828571D01*
X143140000Y-117828571D01*
X142997143Y-117900000D01*
X142925714Y-118042857D01*
X142925714Y-118828571D01*
X141997142Y-118828571D02*
X142140000Y-118757143D01*
X142211428Y-118685714D01*
X142282857Y-118542857D01*
X142282857Y-118114286D01*
X142211428Y-117971429D01*
X142140000Y-117900000D01*
X141997142Y-117828571D01*
X141782857Y-117828571D01*
X141640000Y-117900000D01*
X141568571Y-117971429D01*
X141497142Y-118114286D01*
X141497142Y-118542857D01*
X141568571Y-118685714D01*
X141640000Y-118757143D01*
X141782857Y-118828571D01*
X141997142Y-118828571D01*
X176888572Y-117238571D02*
X176602858Y-117238571D01*
X176460000Y-117310000D01*
X176317143Y-117452857D01*
X176245715Y-117738571D01*
X176245715Y-118238571D01*
X176317143Y-118524286D01*
X176460000Y-118667143D01*
X176602858Y-118738571D01*
X176888572Y-118738571D01*
X177031429Y-118667143D01*
X177174286Y-118524286D01*
X177245715Y-118238571D01*
X177245715Y-117738571D01*
X177174286Y-117452857D01*
X177031429Y-117310000D01*
X176888572Y-117238571D01*
X174960000Y-117738571D02*
X174960000Y-118738571D01*
X175602857Y-117738571D02*
X175602857Y-118524286D01*
X175531429Y-118667143D01*
X175388571Y-118738571D01*
X175174286Y-118738571D01*
X175031429Y-118667143D01*
X174960000Y-118595714D01*
X174460000Y-117738571D02*
X173888571Y-117738571D01*
X174245714Y-117238571D02*
X174245714Y-118524286D01*
X174174286Y-118667143D01*
X174031428Y-118738571D01*
X173888571Y-118738571D01*
X172460000Y-117738571D02*
X171888571Y-117738571D01*
X172245714Y-117238571D02*
X172245714Y-118524286D01*
X172174286Y-118667143D01*
X172031428Y-118738571D01*
X171888571Y-118738571D01*
X171174285Y-118738571D02*
X171317143Y-118667143D01*
X171388571Y-118595714D01*
X171460000Y-118452857D01*
X171460000Y-118024286D01*
X171388571Y-117881429D01*
X171317143Y-117810000D01*
X171174285Y-117738571D01*
X170960000Y-117738571D01*
X170817143Y-117810000D01*
X170745714Y-117881429D01*
X170674285Y-118024286D01*
X170674285Y-118452857D01*
X170745714Y-118595714D01*
X170817143Y-118667143D01*
X170960000Y-118738571D01*
X171174285Y-118738571D01*
X168960000Y-118310000D02*
X168245714Y-118310000D01*
X169102857Y-118738571D02*
X168602857Y-117238571D01*
X168102857Y-118738571D01*
X167602857Y-118738571D02*
X167602857Y-117738571D01*
X167602857Y-118024286D02*
X167531429Y-117881429D01*
X167460000Y-117810000D01*
X167317143Y-117738571D01*
X167174286Y-117738571D01*
X166031429Y-118738571D02*
X166031429Y-117238571D01*
X166031429Y-118667143D02*
X166174286Y-118738571D01*
X166460000Y-118738571D01*
X166602858Y-118667143D01*
X166674286Y-118595714D01*
X166745715Y-118452857D01*
X166745715Y-118024286D01*
X166674286Y-117881429D01*
X166602858Y-117810000D01*
X166460000Y-117738571D01*
X166174286Y-117738571D01*
X166031429Y-117810000D01*
X164674286Y-117738571D02*
X164674286Y-118738571D01*
X165317143Y-117738571D02*
X165317143Y-118524286D01*
X165245715Y-118667143D01*
X165102857Y-118738571D01*
X164888572Y-118738571D01*
X164745715Y-118667143D01*
X164674286Y-118595714D01*
X163960000Y-118738571D02*
X163960000Y-117738571D01*
X163960000Y-117238571D02*
X164031429Y-117310000D01*
X163960000Y-117381429D01*
X163888572Y-117310000D01*
X163960000Y-117238571D01*
X163960000Y-117381429D01*
X163245714Y-117738571D02*
X163245714Y-118738571D01*
X163245714Y-117881429D02*
X163174286Y-117810000D01*
X163031428Y-117738571D01*
X162817143Y-117738571D01*
X162674286Y-117810000D01*
X162602857Y-117952857D01*
X162602857Y-118738571D01*
X161674285Y-118738571D02*
X161817143Y-118667143D01*
X161888571Y-118595714D01*
X161960000Y-118452857D01*
X161960000Y-118024286D01*
X161888571Y-117881429D01*
X161817143Y-117810000D01*
X161674285Y-117738571D01*
X161460000Y-117738571D01*
X161317143Y-117810000D01*
X161245714Y-117881429D01*
X161174285Y-118024286D01*
X161174285Y-118452857D01*
X161245714Y-118595714D01*
X161317143Y-118667143D01*
X161460000Y-118738571D01*
X161674285Y-118738571D01*
D12*
X181430000Y-126090000D02*
X186630000Y-126090000D01*
X181430000Y-138850000D02*
X181430000Y-126090000D01*
X186630000Y-141450000D02*
X186630000Y-126090000D01*
X181430000Y-138850000D02*
X184030000Y-138850000D01*
X184030000Y-138850000D02*
X184030000Y-141450000D01*
X184030000Y-141450000D02*
X186630000Y-141450000D01*
X181430000Y-140120000D02*
X181430000Y-141450000D01*
X181430000Y-141450000D02*
X182760000Y-141450000D01*
X123050000Y-30360000D02*
X125870000Y-30360000D01*
X125870000Y-30360000D02*
X125870000Y-35680000D01*
X125870000Y-35680000D02*
X123050000Y-35680000D01*
X123050000Y-35680000D02*
X123050000Y-30360000D01*
X124460000Y-29220000D02*
X124460000Y-30360000D01*
X124460000Y-36820000D02*
X124460000Y-35680000D01*
X123050000Y-31200000D02*
X125870000Y-31200000D01*
X130670000Y-30360000D02*
X133490000Y-30360000D01*
X133490000Y-30360000D02*
X133490000Y-35680000D01*
X133490000Y-35680000D02*
X130670000Y-35680000D01*
X130670000Y-35680000D02*
X130670000Y-30360000D01*
X132080000Y-29220000D02*
X132080000Y-30360000D01*
X132080000Y-36820000D02*
X132080000Y-35680000D01*
X130670000Y-31200000D02*
X133490000Y-31200000D01*
X138290000Y-30360000D02*
X141110000Y-30360000D01*
X141110000Y-30360000D02*
X141110000Y-35680000D01*
X141110000Y-35680000D02*
X138290000Y-35680000D01*
X138290000Y-35680000D02*
X138290000Y-30360000D01*
X139700000Y-29220000D02*
X139700000Y-30360000D01*
X139700000Y-36820000D02*
X139700000Y-35680000D01*
X138290000Y-31200000D02*
X141110000Y-31200000D01*
X145910000Y-30360000D02*
X148730000Y-30360000D01*
X148730000Y-30360000D02*
X148730000Y-35680000D01*
X148730000Y-35680000D02*
X145910000Y-35680000D01*
X145910000Y-35680000D02*
X145910000Y-30360000D01*
X147320000Y-29220000D02*
X147320000Y-30360000D01*
X147320000Y-36820000D02*
X147320000Y-35680000D01*
X145910000Y-31200000D02*
X148730000Y-31200000D01*
X153530000Y-30360000D02*
X156350000Y-30360000D01*
X156350000Y-30360000D02*
X156350000Y-35680000D01*
X156350000Y-35680000D02*
X153530000Y-35680000D01*
X153530000Y-35680000D02*
X153530000Y-30360000D01*
X154940000Y-29220000D02*
X154940000Y-30360000D01*
X154940000Y-36820000D02*
X154940000Y-35680000D01*
X153530000Y-31200000D02*
X156350000Y-31200000D01*
X161150000Y-30360000D02*
X163970000Y-30360000D01*
X163970000Y-30360000D02*
X163970000Y-35680000D01*
X163970000Y-35680000D02*
X161150000Y-35680000D01*
X161150000Y-35680000D02*
X161150000Y-30360000D01*
X162560000Y-29220000D02*
X162560000Y-30360000D01*
X162560000Y-36820000D02*
X162560000Y-35680000D01*
X161150000Y-31200000D02*
X163970000Y-31200000D01*
X123050000Y-45600000D02*
X125870000Y-45600000D01*
X125870000Y-45600000D02*
X125870000Y-50920000D01*
X125870000Y-50920000D02*
X123050000Y-50920000D01*
X123050000Y-50920000D02*
X123050000Y-45600000D01*
X124460000Y-44460000D02*
X124460000Y-45600000D01*
X124460000Y-52060000D02*
X124460000Y-50920000D01*
X123050000Y-46440000D02*
X125870000Y-46440000D01*
X130670000Y-45600000D02*
X133490000Y-45600000D01*
X133490000Y-45600000D02*
X133490000Y-50920000D01*
X133490000Y-50920000D02*
X130670000Y-50920000D01*
X130670000Y-50920000D02*
X130670000Y-45600000D01*
X132080000Y-44460000D02*
X132080000Y-45600000D01*
X132080000Y-52060000D02*
X132080000Y-50920000D01*
X130670000Y-46440000D02*
X133490000Y-46440000D01*
X138290000Y-45600000D02*
X141110000Y-45600000D01*
X141110000Y-45600000D02*
X141110000Y-50920000D01*
X141110000Y-50920000D02*
X138290000Y-50920000D01*
X138290000Y-50920000D02*
X138290000Y-45600000D01*
X139700000Y-44460000D02*
X139700000Y-45600000D01*
X139700000Y-52060000D02*
X139700000Y-50920000D01*
X138290000Y-46440000D02*
X141110000Y-46440000D01*
X145910000Y-45600000D02*
X148730000Y-45600000D01*
X148730000Y-45600000D02*
X148730000Y-50920000D01*
X148730000Y-50920000D02*
X145910000Y-50920000D01*
X145910000Y-50920000D02*
X145910000Y-45600000D01*
X147320000Y-44460000D02*
X147320000Y-45600000D01*
X147320000Y-52060000D02*
X147320000Y-50920000D01*
X145910000Y-46440000D02*
X148730000Y-46440000D01*
X153530000Y-45600000D02*
X156350000Y-45600000D01*
X156350000Y-45600000D02*
X156350000Y-50920000D01*
X156350000Y-50920000D02*
X153530000Y-50920000D01*
X153530000Y-50920000D02*
X153530000Y-45600000D01*
X154940000Y-44460000D02*
X154940000Y-45600000D01*
X154940000Y-52060000D02*
X154940000Y-50920000D01*
X153530000Y-46440000D02*
X156350000Y-46440000D01*
X161150000Y-45600000D02*
X163970000Y-45600000D01*
X163970000Y-45600000D02*
X163970000Y-50920000D01*
X163970000Y-50920000D02*
X161150000Y-50920000D01*
X161150000Y-50920000D02*
X161150000Y-45600000D01*
X162560000Y-44460000D02*
X162560000Y-45600000D01*
X162560000Y-52060000D02*
X162560000Y-50920000D01*
X161150000Y-46440000D02*
X163970000Y-46440000D01*
X123050000Y-60840000D02*
X125870000Y-60840000D01*
X125870000Y-60840000D02*
X125870000Y-66160000D01*
X125870000Y-66160000D02*
X123050000Y-66160000D01*
X123050000Y-66160000D02*
X123050000Y-60840000D01*
X124460000Y-59700000D02*
X124460000Y-60840000D01*
X124460000Y-67300000D02*
X124460000Y-66160000D01*
X123050000Y-61680000D02*
X125870000Y-61680000D01*
X130670000Y-60840000D02*
X133490000Y-60840000D01*
X133490000Y-60840000D02*
X133490000Y-66160000D01*
X133490000Y-66160000D02*
X130670000Y-66160000D01*
X130670000Y-66160000D02*
X130670000Y-60840000D01*
X132080000Y-59700000D02*
X132080000Y-60840000D01*
X132080000Y-67300000D02*
X132080000Y-66160000D01*
X130670000Y-61680000D02*
X133490000Y-61680000D01*
X138290000Y-60840000D02*
X141110000Y-60840000D01*
X141110000Y-60840000D02*
X141110000Y-66160000D01*
X141110000Y-66160000D02*
X138290000Y-66160000D01*
X138290000Y-66160000D02*
X138290000Y-60840000D01*
X139700000Y-59700000D02*
X139700000Y-60840000D01*
X139700000Y-67300000D02*
X139700000Y-66160000D01*
X138290000Y-61680000D02*
X141110000Y-61680000D01*
X145910000Y-60840000D02*
X148730000Y-60840000D01*
X148730000Y-60840000D02*
X148730000Y-66160000D01*
X148730000Y-66160000D02*
X145910000Y-66160000D01*
X145910000Y-66160000D02*
X145910000Y-60840000D01*
X147320000Y-59700000D02*
X147320000Y-60840000D01*
X147320000Y-67300000D02*
X147320000Y-66160000D01*
X145910000Y-61680000D02*
X148730000Y-61680000D01*
X153530000Y-60840000D02*
X156350000Y-60840000D01*
X156350000Y-60840000D02*
X156350000Y-66160000D01*
X156350000Y-66160000D02*
X153530000Y-66160000D01*
X153530000Y-66160000D02*
X153530000Y-60840000D01*
X154940000Y-59700000D02*
X154940000Y-60840000D01*
X154940000Y-67300000D02*
X154940000Y-66160000D01*
X153530000Y-61680000D02*
X156350000Y-61680000D01*
X161150000Y-60840000D02*
X163970000Y-60840000D01*
X163970000Y-60840000D02*
X163970000Y-66160000D01*
X163970000Y-66160000D02*
X161150000Y-66160000D01*
X161150000Y-66160000D02*
X161150000Y-60840000D01*
X162560000Y-59700000D02*
X162560000Y-60840000D01*
X162560000Y-67300000D02*
X162560000Y-66160000D01*
X161150000Y-61680000D02*
X163970000Y-61680000D01*
X123050000Y-76080000D02*
X125870000Y-76080000D01*
X125870000Y-76080000D02*
X125870000Y-81400000D01*
X125870000Y-81400000D02*
X123050000Y-81400000D01*
X123050000Y-81400000D02*
X123050000Y-76080000D01*
X124460000Y-74940000D02*
X124460000Y-76080000D01*
X124460000Y-82540000D02*
X124460000Y-81400000D01*
X123050000Y-76920000D02*
X125870000Y-76920000D01*
X130670000Y-76080000D02*
X133490000Y-76080000D01*
X133490000Y-76080000D02*
X133490000Y-81400000D01*
X133490000Y-81400000D02*
X130670000Y-81400000D01*
X130670000Y-81400000D02*
X130670000Y-76080000D01*
X132080000Y-74940000D02*
X132080000Y-76080000D01*
X132080000Y-82540000D02*
X132080000Y-81400000D01*
X130670000Y-76920000D02*
X133490000Y-76920000D01*
X138290000Y-76080000D02*
X141110000Y-76080000D01*
X141110000Y-76080000D02*
X141110000Y-81400000D01*
X141110000Y-81400000D02*
X138290000Y-81400000D01*
X138290000Y-81400000D02*
X138290000Y-76080000D01*
X139700000Y-74940000D02*
X139700000Y-76080000D01*
X139700000Y-82540000D02*
X139700000Y-81400000D01*
X138290000Y-76920000D02*
X141110000Y-76920000D01*
X145910000Y-76080000D02*
X148730000Y-76080000D01*
X148730000Y-76080000D02*
X148730000Y-81400000D01*
X148730000Y-81400000D02*
X145910000Y-81400000D01*
X145910000Y-81400000D02*
X145910000Y-76080000D01*
X147320000Y-74940000D02*
X147320000Y-76080000D01*
X147320000Y-82540000D02*
X147320000Y-81400000D01*
X145910000Y-76920000D02*
X148730000Y-76920000D01*
X153530000Y-76080000D02*
X156350000Y-76080000D01*
X156350000Y-76080000D02*
X156350000Y-81400000D01*
X156350000Y-81400000D02*
X153530000Y-81400000D01*
X153530000Y-81400000D02*
X153530000Y-76080000D01*
X154940000Y-74940000D02*
X154940000Y-76080000D01*
X154940000Y-82540000D02*
X154940000Y-81400000D01*
X153530000Y-76920000D02*
X156350000Y-76920000D01*
X161150000Y-76080000D02*
X163970000Y-76080000D01*
X163970000Y-76080000D02*
X163970000Y-81400000D01*
X163970000Y-81400000D02*
X161150000Y-81400000D01*
X161150000Y-81400000D02*
X161150000Y-76080000D01*
X162560000Y-74940000D02*
X162560000Y-76080000D01*
X162560000Y-82540000D02*
X162560000Y-81400000D01*
X161150000Y-76920000D02*
X163970000Y-76920000D01*
X123050000Y-91320000D02*
X125870000Y-91320000D01*
X125870000Y-91320000D02*
X125870000Y-96640000D01*
X125870000Y-96640000D02*
X123050000Y-96640000D01*
X123050000Y-96640000D02*
X123050000Y-91320000D01*
X124460000Y-90180000D02*
X124460000Y-91320000D01*
X124460000Y-97780000D02*
X124460000Y-96640000D01*
X123050000Y-92160000D02*
X125870000Y-92160000D01*
X130670000Y-91320000D02*
X133490000Y-91320000D01*
X133490000Y-91320000D02*
X133490000Y-96640000D01*
X133490000Y-96640000D02*
X130670000Y-96640000D01*
X130670000Y-96640000D02*
X130670000Y-91320000D01*
X132080000Y-90180000D02*
X132080000Y-91320000D01*
X132080000Y-97780000D02*
X132080000Y-96640000D01*
X130670000Y-92160000D02*
X133490000Y-92160000D01*
X138290000Y-91320000D02*
X141110000Y-91320000D01*
X141110000Y-91320000D02*
X141110000Y-96640000D01*
X141110000Y-96640000D02*
X138290000Y-96640000D01*
X138290000Y-96640000D02*
X138290000Y-91320000D01*
X139700000Y-90180000D02*
X139700000Y-91320000D01*
X139700000Y-97780000D02*
X139700000Y-96640000D01*
X138290000Y-92160000D02*
X141110000Y-92160000D01*
X145910000Y-91320000D02*
X148730000Y-91320000D01*
X148730000Y-91320000D02*
X148730000Y-96640000D01*
X148730000Y-96640000D02*
X145910000Y-96640000D01*
X145910000Y-96640000D02*
X145910000Y-91320000D01*
X147320000Y-90180000D02*
X147320000Y-91320000D01*
X147320000Y-97780000D02*
X147320000Y-96640000D01*
X145910000Y-92160000D02*
X148730000Y-92160000D01*
X153530000Y-91320000D02*
X156350000Y-91320000D01*
X156350000Y-91320000D02*
X156350000Y-96640000D01*
X156350000Y-96640000D02*
X153530000Y-96640000D01*
X153530000Y-96640000D02*
X153530000Y-91320000D01*
X154940000Y-90180000D02*
X154940000Y-91320000D01*
X154940000Y-97780000D02*
X154940000Y-96640000D01*
X153530000Y-92160000D02*
X156350000Y-92160000D01*
X161150000Y-91320000D02*
X163970000Y-91320000D01*
X163970000Y-91320000D02*
X163970000Y-96640000D01*
X163970000Y-96640000D02*
X161150000Y-96640000D01*
X161150000Y-96640000D02*
X161150000Y-91320000D01*
X162560000Y-90180000D02*
X162560000Y-91320000D01*
X162560000Y-97780000D02*
X162560000Y-96640000D01*
X161150000Y-92160000D02*
X163970000Y-92160000D01*
X123050000Y-106560000D02*
X125870000Y-106560000D01*
X125870000Y-106560000D02*
X125870000Y-111880000D01*
X125870000Y-111880000D02*
X123050000Y-111880000D01*
X123050000Y-111880000D02*
X123050000Y-106560000D01*
X124460000Y-105420000D02*
X124460000Y-106560000D01*
X124460000Y-113020000D02*
X124460000Y-111880000D01*
X123050000Y-107400000D02*
X125870000Y-107400000D01*
X130670000Y-106560000D02*
X133490000Y-106560000D01*
X133490000Y-106560000D02*
X133490000Y-111880000D01*
X133490000Y-111880000D02*
X130670000Y-111880000D01*
X130670000Y-111880000D02*
X130670000Y-106560000D01*
X132080000Y-105420000D02*
X132080000Y-106560000D01*
X132080000Y-113020000D02*
X132080000Y-111880000D01*
X130670000Y-107400000D02*
X133490000Y-107400000D01*
X138290000Y-106560000D02*
X141110000Y-106560000D01*
X141110000Y-106560000D02*
X141110000Y-111880000D01*
X141110000Y-111880000D02*
X138290000Y-111880000D01*
X138290000Y-111880000D02*
X138290000Y-106560000D01*
X139700000Y-105420000D02*
X139700000Y-106560000D01*
X139700000Y-113020000D02*
X139700000Y-111880000D01*
X138290000Y-107400000D02*
X141110000Y-107400000D01*
X145910000Y-106560000D02*
X148730000Y-106560000D01*
X148730000Y-106560000D02*
X148730000Y-111880000D01*
X148730000Y-111880000D02*
X145910000Y-111880000D01*
X145910000Y-111880000D02*
X145910000Y-106560000D01*
X147320000Y-105420000D02*
X147320000Y-106560000D01*
X147320000Y-113020000D02*
X147320000Y-111880000D01*
X145910000Y-107400000D02*
X148730000Y-107400000D01*
X153530000Y-106560000D02*
X156350000Y-106560000D01*
X156350000Y-106560000D02*
X156350000Y-111880000D01*
X156350000Y-111880000D02*
X153530000Y-111880000D01*
X153530000Y-111880000D02*
X153530000Y-106560000D01*
X154940000Y-105420000D02*
X154940000Y-106560000D01*
X154940000Y-113020000D02*
X154940000Y-111880000D01*
X153530000Y-107400000D02*
X156350000Y-107400000D01*
X161150000Y-106560000D02*
X163970000Y-106560000D01*
X163970000Y-106560000D02*
X163970000Y-111880000D01*
X163970000Y-111880000D02*
X161150000Y-111880000D01*
X161150000Y-111880000D02*
X161150000Y-106560000D01*
X162560000Y-105420000D02*
X162560000Y-106560000D01*
X162560000Y-113020000D02*
X162560000Y-111880000D01*
X161150000Y-107400000D02*
X163970000Y-107400000D01*
D13*
X134458600Y-155048000D02*
G75*
G02X133458600Y-154048000I0J1000000D01*
G01*
X142458600Y-154048000D02*
G75*
G02X141458600Y-155048000I-1000000J0D01*
G01*
X142458600Y-154048000D02*
X142458600Y-141048000D01*
X142458600Y-141048000D02*
X136458600Y-141048000D01*
X136458600Y-141048000D02*
X136458600Y-139798000D01*
X136458600Y-139798000D02*
X133458600Y-139798000D01*
X133458600Y-139798000D02*
X133458600Y-154248000D01*
X134458600Y-155048000D02*
X141458600Y-155048000D01*
D12*
X175140000Y-33060000D02*
X175140000Y-22820000D01*
X191030000Y-33060000D02*
X191030000Y-22820000D01*
X191030000Y-33060000D02*
X175140000Y-33060000D01*
X191030000Y-22820000D02*
X175140000Y-22820000D01*
X175140000Y-30480000D02*
X172500000Y-30480000D01*
X175140000Y-27940000D02*
X172516000Y-27940000D01*
X175140000Y-25400000D02*
X172516000Y-25400000D01*
X175140000Y-48300000D02*
X175140000Y-38060000D01*
X191030000Y-48300000D02*
X191030000Y-38060000D01*
X191030000Y-48300000D02*
X175140000Y-48300000D01*
X191030000Y-38060000D02*
X175140000Y-38060000D01*
X175140000Y-45720000D02*
X172500000Y-45720000D01*
X175140000Y-43180000D02*
X172516000Y-43180000D01*
X175140000Y-40640000D02*
X172516000Y-40640000D01*
X175140000Y-63540000D02*
X175140000Y-53300000D01*
X191030000Y-63540000D02*
X191030000Y-53300000D01*
X191030000Y-63540000D02*
X175140000Y-63540000D01*
X191030000Y-53300000D02*
X175140000Y-53300000D01*
X175140000Y-60960000D02*
X172500000Y-60960000D01*
X175140000Y-58420000D02*
X172516000Y-58420000D01*
X175140000Y-55880000D02*
X172516000Y-55880000D01*
X174990000Y-78780000D02*
X174990000Y-68540000D01*
X190880000Y-78780000D02*
X190880000Y-68540000D01*
X190880000Y-78780000D02*
X174990000Y-78780000D01*
X190880000Y-68540000D02*
X174990000Y-68540000D01*
X174990000Y-76200000D02*
X172350000Y-76200000D01*
X174990000Y-73660000D02*
X172366000Y-73660000D01*
X174990000Y-71120000D02*
X172366000Y-71120000D01*
X174990000Y-94020000D02*
X174990000Y-83780000D01*
X190880000Y-94020000D02*
X190880000Y-83780000D01*
X190880000Y-94020000D02*
X174990000Y-94020000D01*
X190880000Y-83780000D02*
X174990000Y-83780000D01*
X174990000Y-91440000D02*
X172350000Y-91440000D01*
X174990000Y-88900000D02*
X172366000Y-88900000D01*
X174990000Y-86360000D02*
X172366000Y-86360000D01*
X175140000Y-109260000D02*
X175140000Y-99020000D01*
X191030000Y-109260000D02*
X191030000Y-99020000D01*
X191030000Y-109260000D02*
X175140000Y-109260000D01*
X191030000Y-99020000D02*
X175140000Y-99020000D01*
X175140000Y-106680000D02*
X172500000Y-106680000D01*
X175140000Y-104140000D02*
X172516000Y-104140000D01*
X175140000Y-101600000D02*
X172516000Y-101600000D01*
X31360000Y-117990000D02*
X41600000Y-117990000D01*
X31360000Y-133880000D02*
X41600000Y-133880000D01*
X31360000Y-133880000D02*
X31360000Y-117990000D01*
X41600000Y-133880000D02*
X41600000Y-117990000D01*
X33940000Y-117990000D02*
X33940000Y-115350000D01*
X36480000Y-117990000D02*
X36480000Y-115366000D01*
X39020000Y-117990000D02*
X39020000Y-115366000D01*
X44695000Y-117990000D02*
X54935000Y-117990000D01*
X44695000Y-133880000D02*
X54935000Y-133880000D01*
X44695000Y-133880000D02*
X44695000Y-117990000D01*
X54935000Y-133880000D02*
X54935000Y-117990000D01*
X47275000Y-117990000D02*
X47275000Y-115350000D01*
X49815000Y-117990000D02*
X49815000Y-115366000D01*
X52355000Y-117990000D02*
X52355000Y-115366000D01*
X58030000Y-117990000D02*
X68270000Y-117990000D01*
X58030000Y-133880000D02*
X68270000Y-133880000D01*
X58030000Y-133880000D02*
X58030000Y-117990000D01*
X68270000Y-133880000D02*
X68270000Y-117990000D01*
X60610000Y-117990000D02*
X60610000Y-115350000D01*
X63150000Y-117990000D02*
X63150000Y-115366000D01*
X65690000Y-117990000D02*
X65690000Y-115366000D01*
X71365000Y-117990000D02*
X81605000Y-117990000D01*
X71365000Y-133880000D02*
X81605000Y-133880000D01*
X71365000Y-133880000D02*
X71365000Y-117990000D01*
X81605000Y-133880000D02*
X81605000Y-117990000D01*
X73945000Y-117990000D02*
X73945000Y-115350000D01*
X76485000Y-117990000D02*
X76485000Y-115366000D01*
X79025000Y-117990000D02*
X79025000Y-115366000D01*
X84700000Y-117840000D02*
X94940000Y-117840000D01*
X84700000Y-133730000D02*
X94940000Y-133730000D01*
X84700000Y-133730000D02*
X84700000Y-117840000D01*
X94940000Y-133730000D02*
X94940000Y-117840000D01*
X87280000Y-117840000D02*
X87280000Y-115200000D01*
X89820000Y-117840000D02*
X89820000Y-115216000D01*
X92360000Y-117840000D02*
X92360000Y-115216000D01*
X98035000Y-117990000D02*
X108275000Y-117990000D01*
X98035000Y-133880000D02*
X108275000Y-133880000D01*
X98035000Y-133880000D02*
X98035000Y-117990000D01*
X108275000Y-133880000D02*
X108275000Y-117990000D01*
X100615000Y-117990000D02*
X100615000Y-115350000D01*
X103155000Y-117990000D02*
X103155000Y-115366000D01*
X105695000Y-117990000D02*
X105695000Y-115366000D01*
D14*
X184839523Y-141902381D02*
X184839523Y-142616667D01*
X184887143Y-142759524D01*
X184982381Y-142854762D01*
X185125238Y-142902381D01*
X185220476Y-142902381D01*
X184458571Y-141902381D02*
X183839523Y-141902381D01*
X184172857Y-142283333D01*
X184029999Y-142283333D01*
X183934761Y-142330952D01*
X183887142Y-142378571D01*
X183839523Y-142473810D01*
X183839523Y-142711905D01*
X183887142Y-142807143D01*
X183934761Y-142854762D01*
X184029999Y-142902381D01*
X184315714Y-142902381D01*
X184410952Y-142854762D01*
X184458571Y-142807143D01*
X183268095Y-142330952D02*
X183363333Y-142283333D01*
X183410952Y-142235714D01*
X183458571Y-142140476D01*
X183458571Y-142092857D01*
X183410952Y-141997619D01*
X183363333Y-141950000D01*
X183268095Y-141902381D01*
X183077618Y-141902381D01*
X182982380Y-141950000D01*
X182934761Y-141997619D01*
X182887142Y-142092857D01*
X182887142Y-142140476D01*
X182934761Y-142235714D01*
X182982380Y-142283333D01*
X183077618Y-142330952D01*
X183268095Y-142330952D01*
X183363333Y-142378571D01*
X183410952Y-142426190D01*
X183458571Y-142521429D01*
X183458571Y-142711905D01*
X183410952Y-142807143D01*
X183363333Y-142854762D01*
X183268095Y-142902381D01*
X183077618Y-142902381D01*
X182982380Y-142854762D01*
X182934761Y-142807143D01*
X182887142Y-142711905D01*
X182887142Y-142521429D01*
X182934761Y-142426190D01*
X182982380Y-142378571D01*
X183077618Y-142330952D01*
X186809523Y-150452381D02*
X186809523Y-151166667D01*
X186857143Y-151309524D01*
X186952381Y-151404762D01*
X187095238Y-151452381D01*
X187190476Y-151452381D01*
X185904761Y-150785714D02*
X185904761Y-151452381D01*
X186142857Y-150404762D02*
X186380952Y-151119048D01*
X185761904Y-151119048D01*
X185428571Y-150547619D02*
X185380952Y-150500000D01*
X185285714Y-150452381D01*
X185047618Y-150452381D01*
X184952380Y-150500000D01*
X184904761Y-150547619D01*
X184857142Y-150642857D01*
X184857142Y-150738095D01*
X184904761Y-150880952D01*
X185476190Y-151452381D01*
X184857142Y-151452381D01*
X122502381Y-32281905D02*
X121502381Y-32281905D01*
X121502381Y-32520000D01*
X121550000Y-32662858D01*
X121645238Y-32758096D01*
X121740476Y-32805715D01*
X121930952Y-32853334D01*
X122073810Y-32853334D01*
X122264286Y-32805715D01*
X122359524Y-32758096D01*
X122454762Y-32662858D01*
X122502381Y-32520000D01*
X122502381Y-32281905D01*
X122502381Y-33805715D02*
X122502381Y-33234286D01*
X122502381Y-33520000D02*
X121502381Y-33520000D01*
X121645238Y-33424762D01*
X121740476Y-33329524D01*
X121788095Y-33234286D01*
X130122381Y-32281905D02*
X129122381Y-32281905D01*
X129122381Y-32520000D01*
X129170000Y-32662858D01*
X129265238Y-32758096D01*
X129360476Y-32805715D01*
X129550952Y-32853334D01*
X129693810Y-32853334D01*
X129884286Y-32805715D01*
X129979524Y-32758096D01*
X130074762Y-32662858D01*
X130122381Y-32520000D01*
X130122381Y-32281905D01*
X129217619Y-33234286D02*
X129170000Y-33281905D01*
X129122381Y-33377143D01*
X129122381Y-33615239D01*
X129170000Y-33710477D01*
X129217619Y-33758096D01*
X129312857Y-33805715D01*
X129408095Y-33805715D01*
X129550952Y-33758096D01*
X130122381Y-33186667D01*
X130122381Y-33805715D01*
X137742381Y-32281905D02*
X136742381Y-32281905D01*
X136742381Y-32520000D01*
X136790000Y-32662858D01*
X136885238Y-32758096D01*
X136980476Y-32805715D01*
X137170952Y-32853334D01*
X137313810Y-32853334D01*
X137504286Y-32805715D01*
X137599524Y-32758096D01*
X137694762Y-32662858D01*
X137742381Y-32520000D01*
X137742381Y-32281905D01*
X136742381Y-33186667D02*
X136742381Y-33805715D01*
X137123333Y-33472381D01*
X137123333Y-33615239D01*
X137170952Y-33710477D01*
X137218571Y-33758096D01*
X137313810Y-33805715D01*
X137551905Y-33805715D01*
X137647143Y-33758096D01*
X137694762Y-33710477D01*
X137742381Y-33615239D01*
X137742381Y-33329524D01*
X137694762Y-33234286D01*
X137647143Y-33186667D01*
X145362381Y-32281905D02*
X144362381Y-32281905D01*
X144362381Y-32520000D01*
X144410000Y-32662858D01*
X144505238Y-32758096D01*
X144600476Y-32805715D01*
X144790952Y-32853334D01*
X144933810Y-32853334D01*
X145124286Y-32805715D01*
X145219524Y-32758096D01*
X145314762Y-32662858D01*
X145362381Y-32520000D01*
X145362381Y-32281905D01*
X144695714Y-33710477D02*
X145362381Y-33710477D01*
X144314762Y-33472381D02*
X145029048Y-33234286D01*
X145029048Y-33853334D01*
X152982381Y-32281905D02*
X151982381Y-32281905D01*
X151982381Y-32520000D01*
X152030000Y-32662858D01*
X152125238Y-32758096D01*
X152220476Y-32805715D01*
X152410952Y-32853334D01*
X152553810Y-32853334D01*
X152744286Y-32805715D01*
X152839524Y-32758096D01*
X152934762Y-32662858D01*
X152982381Y-32520000D01*
X152982381Y-32281905D01*
X151982381Y-33758096D02*
X151982381Y-33281905D01*
X152458571Y-33234286D01*
X152410952Y-33281905D01*
X152363333Y-33377143D01*
X152363333Y-33615239D01*
X152410952Y-33710477D01*
X152458571Y-33758096D01*
X152553810Y-33805715D01*
X152791905Y-33805715D01*
X152887143Y-33758096D01*
X152934762Y-33710477D01*
X152982381Y-33615239D01*
X152982381Y-33377143D01*
X152934762Y-33281905D01*
X152887143Y-33234286D01*
X160602381Y-32281905D02*
X159602381Y-32281905D01*
X159602381Y-32520000D01*
X159650000Y-32662858D01*
X159745238Y-32758096D01*
X159840476Y-32805715D01*
X160030952Y-32853334D01*
X160173810Y-32853334D01*
X160364286Y-32805715D01*
X160459524Y-32758096D01*
X160554762Y-32662858D01*
X160602381Y-32520000D01*
X160602381Y-32281905D01*
X159602381Y-33710477D02*
X159602381Y-33520000D01*
X159650000Y-33424762D01*
X159697619Y-33377143D01*
X159840476Y-33281905D01*
X160030952Y-33234286D01*
X160411905Y-33234286D01*
X160507143Y-33281905D01*
X160554762Y-33329524D01*
X160602381Y-33424762D01*
X160602381Y-33615239D01*
X160554762Y-33710477D01*
X160507143Y-33758096D01*
X160411905Y-33805715D01*
X160173810Y-33805715D01*
X160078571Y-33758096D01*
X160030952Y-33710477D01*
X159983333Y-33615239D01*
X159983333Y-33424762D01*
X160030952Y-33329524D01*
X160078571Y-33281905D01*
X160173810Y-33234286D01*
X122502381Y-47521905D02*
X121502381Y-47521905D01*
X121502381Y-47760000D01*
X121550000Y-47902858D01*
X121645238Y-47998096D01*
X121740476Y-48045715D01*
X121930952Y-48093334D01*
X122073810Y-48093334D01*
X122264286Y-48045715D01*
X122359524Y-47998096D01*
X122454762Y-47902858D01*
X122502381Y-47760000D01*
X122502381Y-47521905D01*
X121502381Y-48426667D02*
X121502381Y-49093334D01*
X122502381Y-48664762D01*
X130122381Y-47521905D02*
X129122381Y-47521905D01*
X129122381Y-47760000D01*
X129170000Y-47902858D01*
X129265238Y-47998096D01*
X129360476Y-48045715D01*
X129550952Y-48093334D01*
X129693810Y-48093334D01*
X129884286Y-48045715D01*
X129979524Y-47998096D01*
X130074762Y-47902858D01*
X130122381Y-47760000D01*
X130122381Y-47521905D01*
X129550952Y-48664762D02*
X129503333Y-48569524D01*
X129455714Y-48521905D01*
X129360476Y-48474286D01*
X129312857Y-48474286D01*
X129217619Y-48521905D01*
X129170000Y-48569524D01*
X129122381Y-48664762D01*
X129122381Y-48855239D01*
X129170000Y-48950477D01*
X129217619Y-48998096D01*
X129312857Y-49045715D01*
X129360476Y-49045715D01*
X129455714Y-48998096D01*
X129503333Y-48950477D01*
X129550952Y-48855239D01*
X129550952Y-48664762D01*
X129598571Y-48569524D01*
X129646190Y-48521905D01*
X129741429Y-48474286D01*
X129931905Y-48474286D01*
X130027143Y-48521905D01*
X130074762Y-48569524D01*
X130122381Y-48664762D01*
X130122381Y-48855239D01*
X130074762Y-48950477D01*
X130027143Y-48998096D01*
X129931905Y-49045715D01*
X129741429Y-49045715D01*
X129646190Y-48998096D01*
X129598571Y-48950477D01*
X129550952Y-48855239D01*
X137742381Y-47521905D02*
X136742381Y-47521905D01*
X136742381Y-47760000D01*
X136790000Y-47902858D01*
X136885238Y-47998096D01*
X136980476Y-48045715D01*
X137170952Y-48093334D01*
X137313810Y-48093334D01*
X137504286Y-48045715D01*
X137599524Y-47998096D01*
X137694762Y-47902858D01*
X137742381Y-47760000D01*
X137742381Y-47521905D01*
X137742381Y-48569524D02*
X137742381Y-48760000D01*
X137694762Y-48855239D01*
X137647143Y-48902858D01*
X137504286Y-48998096D01*
X137313810Y-49045715D01*
X136932857Y-49045715D01*
X136837619Y-48998096D01*
X136790000Y-48950477D01*
X136742381Y-48855239D01*
X136742381Y-48664762D01*
X136790000Y-48569524D01*
X136837619Y-48521905D01*
X136932857Y-48474286D01*
X137170952Y-48474286D01*
X137266190Y-48521905D01*
X137313810Y-48569524D01*
X137361429Y-48664762D01*
X137361429Y-48855239D01*
X137313810Y-48950477D01*
X137266190Y-48998096D01*
X137170952Y-49045715D01*
X145362381Y-47045714D02*
X144362381Y-47045714D01*
X144362381Y-47283809D01*
X144410000Y-47426667D01*
X144505238Y-47521905D01*
X144600476Y-47569524D01*
X144790952Y-47617143D01*
X144933810Y-47617143D01*
X145124286Y-47569524D01*
X145219524Y-47521905D01*
X145314762Y-47426667D01*
X145362381Y-47283809D01*
X145362381Y-47045714D01*
X145362381Y-48569524D02*
X145362381Y-47998095D01*
X145362381Y-48283809D02*
X144362381Y-48283809D01*
X144505238Y-48188571D01*
X144600476Y-48093333D01*
X144648095Y-47998095D01*
X144362381Y-49188571D02*
X144362381Y-49283810D01*
X144410000Y-49379048D01*
X144457619Y-49426667D01*
X144552857Y-49474286D01*
X144743333Y-49521905D01*
X144981429Y-49521905D01*
X145171905Y-49474286D01*
X145267143Y-49426667D01*
X145314762Y-49379048D01*
X145362381Y-49283810D01*
X145362381Y-49188571D01*
X145314762Y-49093333D01*
X145267143Y-49045714D01*
X145171905Y-48998095D01*
X144981429Y-48950476D01*
X144743333Y-48950476D01*
X144552857Y-48998095D01*
X144457619Y-49045714D01*
X144410000Y-49093333D01*
X144362381Y-49188571D01*
X152982381Y-47045714D02*
X151982381Y-47045714D01*
X151982381Y-47283809D01*
X152030000Y-47426667D01*
X152125238Y-47521905D01*
X152220476Y-47569524D01*
X152410952Y-47617143D01*
X152553810Y-47617143D01*
X152744286Y-47569524D01*
X152839524Y-47521905D01*
X152934762Y-47426667D01*
X152982381Y-47283809D01*
X152982381Y-47045714D01*
X152982381Y-48569524D02*
X152982381Y-47998095D01*
X152982381Y-48283809D02*
X151982381Y-48283809D01*
X152125238Y-48188571D01*
X152220476Y-48093333D01*
X152268095Y-47998095D01*
X152982381Y-49521905D02*
X152982381Y-48950476D01*
X152982381Y-49236190D02*
X151982381Y-49236190D01*
X152125238Y-49140952D01*
X152220476Y-49045714D01*
X152268095Y-48950476D01*
X160602381Y-47045714D02*
X159602381Y-47045714D01*
X159602381Y-47283809D01*
X159650000Y-47426667D01*
X159745238Y-47521905D01*
X159840476Y-47569524D01*
X160030952Y-47617143D01*
X160173810Y-47617143D01*
X160364286Y-47569524D01*
X160459524Y-47521905D01*
X160554762Y-47426667D01*
X160602381Y-47283809D01*
X160602381Y-47045714D01*
X160602381Y-48569524D02*
X160602381Y-47998095D01*
X160602381Y-48283809D02*
X159602381Y-48283809D01*
X159745238Y-48188571D01*
X159840476Y-48093333D01*
X159888095Y-47998095D01*
X159697619Y-48950476D02*
X159650000Y-48998095D01*
X159602381Y-49093333D01*
X159602381Y-49331429D01*
X159650000Y-49426667D01*
X159697619Y-49474286D01*
X159792857Y-49521905D01*
X159888095Y-49521905D01*
X160030952Y-49474286D01*
X160602381Y-48902857D01*
X160602381Y-49521905D01*
X122502381Y-62285714D02*
X121502381Y-62285714D01*
X121502381Y-62523809D01*
X121550000Y-62666667D01*
X121645238Y-62761905D01*
X121740476Y-62809524D01*
X121930952Y-62857143D01*
X122073810Y-62857143D01*
X122264286Y-62809524D01*
X122359524Y-62761905D01*
X122454762Y-62666667D01*
X122502381Y-62523809D01*
X122502381Y-62285714D01*
X122502381Y-63809524D02*
X122502381Y-63238095D01*
X122502381Y-63523809D02*
X121502381Y-63523809D01*
X121645238Y-63428571D01*
X121740476Y-63333333D01*
X121788095Y-63238095D01*
X121502381Y-64142857D02*
X121502381Y-64761905D01*
X121883333Y-64428571D01*
X121883333Y-64571429D01*
X121930952Y-64666667D01*
X121978571Y-64714286D01*
X122073810Y-64761905D01*
X122311905Y-64761905D01*
X122407143Y-64714286D01*
X122454762Y-64666667D01*
X122502381Y-64571429D01*
X122502381Y-64285714D01*
X122454762Y-64190476D01*
X122407143Y-64142857D01*
X130122381Y-62285714D02*
X129122381Y-62285714D01*
X129122381Y-62523809D01*
X129170000Y-62666667D01*
X129265238Y-62761905D01*
X129360476Y-62809524D01*
X129550952Y-62857143D01*
X129693810Y-62857143D01*
X129884286Y-62809524D01*
X129979524Y-62761905D01*
X130074762Y-62666667D01*
X130122381Y-62523809D01*
X130122381Y-62285714D01*
X130122381Y-63809524D02*
X130122381Y-63238095D01*
X130122381Y-63523809D02*
X129122381Y-63523809D01*
X129265238Y-63428571D01*
X129360476Y-63333333D01*
X129408095Y-63238095D01*
X129455714Y-64666667D02*
X130122381Y-64666667D01*
X129074762Y-64428571D02*
X129789048Y-64190476D01*
X129789048Y-64809524D01*
X137742381Y-62285714D02*
X136742381Y-62285714D01*
X136742381Y-62523809D01*
X136790000Y-62666667D01*
X136885238Y-62761905D01*
X136980476Y-62809524D01*
X137170952Y-62857143D01*
X137313810Y-62857143D01*
X137504286Y-62809524D01*
X137599524Y-62761905D01*
X137694762Y-62666667D01*
X137742381Y-62523809D01*
X137742381Y-62285714D01*
X137742381Y-63809524D02*
X137742381Y-63238095D01*
X137742381Y-63523809D02*
X136742381Y-63523809D01*
X136885238Y-63428571D01*
X136980476Y-63333333D01*
X137028095Y-63238095D01*
X136742381Y-64714286D02*
X136742381Y-64238095D01*
X137218571Y-64190476D01*
X137170952Y-64238095D01*
X137123333Y-64333333D01*
X137123333Y-64571429D01*
X137170952Y-64666667D01*
X137218571Y-64714286D01*
X137313810Y-64761905D01*
X137551905Y-64761905D01*
X137647143Y-64714286D01*
X137694762Y-64666667D01*
X137742381Y-64571429D01*
X137742381Y-64333333D01*
X137694762Y-64238095D01*
X137647143Y-64190476D01*
X145362381Y-62285714D02*
X144362381Y-62285714D01*
X144362381Y-62523809D01*
X144410000Y-62666667D01*
X144505238Y-62761905D01*
X144600476Y-62809524D01*
X144790952Y-62857143D01*
X144933810Y-62857143D01*
X145124286Y-62809524D01*
X145219524Y-62761905D01*
X145314762Y-62666667D01*
X145362381Y-62523809D01*
X145362381Y-62285714D01*
X145362381Y-63809524D02*
X145362381Y-63238095D01*
X145362381Y-63523809D02*
X144362381Y-63523809D01*
X144505238Y-63428571D01*
X144600476Y-63333333D01*
X144648095Y-63238095D01*
X144362381Y-64666667D02*
X144362381Y-64476190D01*
X144410000Y-64380952D01*
X144457619Y-64333333D01*
X144600476Y-64238095D01*
X144790952Y-64190476D01*
X145171905Y-64190476D01*
X145267143Y-64238095D01*
X145314762Y-64285714D01*
X145362381Y-64380952D01*
X145362381Y-64571429D01*
X145314762Y-64666667D01*
X145267143Y-64714286D01*
X145171905Y-64761905D01*
X144933810Y-64761905D01*
X144838571Y-64714286D01*
X144790952Y-64666667D01*
X144743333Y-64571429D01*
X144743333Y-64380952D01*
X144790952Y-64285714D01*
X144838571Y-64238095D01*
X144933810Y-64190476D01*
X152982381Y-62285714D02*
X151982381Y-62285714D01*
X151982381Y-62523809D01*
X152030000Y-62666667D01*
X152125238Y-62761905D01*
X152220476Y-62809524D01*
X152410952Y-62857143D01*
X152553810Y-62857143D01*
X152744286Y-62809524D01*
X152839524Y-62761905D01*
X152934762Y-62666667D01*
X152982381Y-62523809D01*
X152982381Y-62285714D01*
X152982381Y-63809524D02*
X152982381Y-63238095D01*
X152982381Y-63523809D02*
X151982381Y-63523809D01*
X152125238Y-63428571D01*
X152220476Y-63333333D01*
X152268095Y-63238095D01*
X151982381Y-64142857D02*
X151982381Y-64809524D01*
X152982381Y-64380952D01*
X160602381Y-62285714D02*
X159602381Y-62285714D01*
X159602381Y-62523809D01*
X159650000Y-62666667D01*
X159745238Y-62761905D01*
X159840476Y-62809524D01*
X160030952Y-62857143D01*
X160173810Y-62857143D01*
X160364286Y-62809524D01*
X160459524Y-62761905D01*
X160554762Y-62666667D01*
X160602381Y-62523809D01*
X160602381Y-62285714D01*
X160602381Y-63809524D02*
X160602381Y-63238095D01*
X160602381Y-63523809D02*
X159602381Y-63523809D01*
X159745238Y-63428571D01*
X159840476Y-63333333D01*
X159888095Y-63238095D01*
X160030952Y-64380952D02*
X159983333Y-64285714D01*
X159935714Y-64238095D01*
X159840476Y-64190476D01*
X159792857Y-64190476D01*
X159697619Y-64238095D01*
X159650000Y-64285714D01*
X159602381Y-64380952D01*
X159602381Y-64571429D01*
X159650000Y-64666667D01*
X159697619Y-64714286D01*
X159792857Y-64761905D01*
X159840476Y-64761905D01*
X159935714Y-64714286D01*
X159983333Y-64666667D01*
X160030952Y-64571429D01*
X160030952Y-64380952D01*
X160078571Y-64285714D01*
X160126190Y-64238095D01*
X160221429Y-64190476D01*
X160411905Y-64190476D01*
X160507143Y-64238095D01*
X160554762Y-64285714D01*
X160602381Y-64380952D01*
X160602381Y-64571429D01*
X160554762Y-64666667D01*
X160507143Y-64714286D01*
X160411905Y-64761905D01*
X160221429Y-64761905D01*
X160126190Y-64714286D01*
X160078571Y-64666667D01*
X160030952Y-64571429D01*
X122502381Y-77525714D02*
X121502381Y-77525714D01*
X121502381Y-77763809D01*
X121550000Y-77906667D01*
X121645238Y-78001905D01*
X121740476Y-78049524D01*
X121930952Y-78097143D01*
X122073810Y-78097143D01*
X122264286Y-78049524D01*
X122359524Y-78001905D01*
X122454762Y-77906667D01*
X122502381Y-77763809D01*
X122502381Y-77525714D01*
X122502381Y-79049524D02*
X122502381Y-78478095D01*
X122502381Y-78763809D02*
X121502381Y-78763809D01*
X121645238Y-78668571D01*
X121740476Y-78573333D01*
X121788095Y-78478095D01*
X122502381Y-79525714D02*
X122502381Y-79716190D01*
X122454762Y-79811429D01*
X122407143Y-79859048D01*
X122264286Y-79954286D01*
X122073810Y-80001905D01*
X121692857Y-80001905D01*
X121597619Y-79954286D01*
X121550000Y-79906667D01*
X121502381Y-79811429D01*
X121502381Y-79620952D01*
X121550000Y-79525714D01*
X121597619Y-79478095D01*
X121692857Y-79430476D01*
X121930952Y-79430476D01*
X122026190Y-79478095D01*
X122073810Y-79525714D01*
X122121429Y-79620952D01*
X122121429Y-79811429D01*
X122073810Y-79906667D01*
X122026190Y-79954286D01*
X121930952Y-80001905D01*
X130122381Y-77525714D02*
X129122381Y-77525714D01*
X129122381Y-77763809D01*
X129170000Y-77906667D01*
X129265238Y-78001905D01*
X129360476Y-78049524D01*
X129550952Y-78097143D01*
X129693810Y-78097143D01*
X129884286Y-78049524D01*
X129979524Y-78001905D01*
X130074762Y-77906667D01*
X130122381Y-77763809D01*
X130122381Y-77525714D01*
X129217619Y-78478095D02*
X129170000Y-78525714D01*
X129122381Y-78620952D01*
X129122381Y-78859048D01*
X129170000Y-78954286D01*
X129217619Y-79001905D01*
X129312857Y-79049524D01*
X129408095Y-79049524D01*
X129550952Y-79001905D01*
X130122381Y-78430476D01*
X130122381Y-79049524D01*
X129122381Y-79668571D02*
X129122381Y-79763810D01*
X129170000Y-79859048D01*
X129217619Y-79906667D01*
X129312857Y-79954286D01*
X129503333Y-80001905D01*
X129741429Y-80001905D01*
X129931905Y-79954286D01*
X130027143Y-79906667D01*
X130074762Y-79859048D01*
X130122381Y-79763810D01*
X130122381Y-79668571D01*
X130074762Y-79573333D01*
X130027143Y-79525714D01*
X129931905Y-79478095D01*
X129741429Y-79430476D01*
X129503333Y-79430476D01*
X129312857Y-79478095D01*
X129217619Y-79525714D01*
X129170000Y-79573333D01*
X129122381Y-79668571D01*
X137742381Y-77525714D02*
X136742381Y-77525714D01*
X136742381Y-77763809D01*
X136790000Y-77906667D01*
X136885238Y-78001905D01*
X136980476Y-78049524D01*
X137170952Y-78097143D01*
X137313810Y-78097143D01*
X137504286Y-78049524D01*
X137599524Y-78001905D01*
X137694762Y-77906667D01*
X137742381Y-77763809D01*
X137742381Y-77525714D01*
X136837619Y-78478095D02*
X136790000Y-78525714D01*
X136742381Y-78620952D01*
X136742381Y-78859048D01*
X136790000Y-78954286D01*
X136837619Y-79001905D01*
X136932857Y-79049524D01*
X137028095Y-79049524D01*
X137170952Y-79001905D01*
X137742381Y-78430476D01*
X137742381Y-79049524D01*
X137742381Y-80001905D02*
X137742381Y-79430476D01*
X137742381Y-79716190D02*
X136742381Y-79716190D01*
X136885238Y-79620952D01*
X136980476Y-79525714D01*
X137028095Y-79430476D01*
X145362381Y-77525714D02*
X144362381Y-77525714D01*
X144362381Y-77763809D01*
X144410000Y-77906667D01*
X144505238Y-78001905D01*
X144600476Y-78049524D01*
X144790952Y-78097143D01*
X144933810Y-78097143D01*
X145124286Y-78049524D01*
X145219524Y-78001905D01*
X145314762Y-77906667D01*
X145362381Y-77763809D01*
X145362381Y-77525714D01*
X144457619Y-78478095D02*
X144410000Y-78525714D01*
X144362381Y-78620952D01*
X144362381Y-78859048D01*
X144410000Y-78954286D01*
X144457619Y-79001905D01*
X144552857Y-79049524D01*
X144648095Y-79049524D01*
X144790952Y-79001905D01*
X145362381Y-78430476D01*
X145362381Y-79049524D01*
X144457619Y-79430476D02*
X144410000Y-79478095D01*
X144362381Y-79573333D01*
X144362381Y-79811429D01*
X144410000Y-79906667D01*
X144457619Y-79954286D01*
X144552857Y-80001905D01*
X144648095Y-80001905D01*
X144790952Y-79954286D01*
X145362381Y-79382857D01*
X145362381Y-80001905D01*
X152982381Y-77525714D02*
X151982381Y-77525714D01*
X151982381Y-77763809D01*
X152030000Y-77906667D01*
X152125238Y-78001905D01*
X152220476Y-78049524D01*
X152410952Y-78097143D01*
X152553810Y-78097143D01*
X152744286Y-78049524D01*
X152839524Y-78001905D01*
X152934762Y-77906667D01*
X152982381Y-77763809D01*
X152982381Y-77525714D01*
X152077619Y-78478095D02*
X152030000Y-78525714D01*
X151982381Y-78620952D01*
X151982381Y-78859048D01*
X152030000Y-78954286D01*
X152077619Y-79001905D01*
X152172857Y-79049524D01*
X152268095Y-79049524D01*
X152410952Y-79001905D01*
X152982381Y-78430476D01*
X152982381Y-79049524D01*
X151982381Y-79382857D02*
X151982381Y-80001905D01*
X152363333Y-79668571D01*
X152363333Y-79811429D01*
X152410952Y-79906667D01*
X152458571Y-79954286D01*
X152553810Y-80001905D01*
X152791905Y-80001905D01*
X152887143Y-79954286D01*
X152934762Y-79906667D01*
X152982381Y-79811429D01*
X152982381Y-79525714D01*
X152934762Y-79430476D01*
X152887143Y-79382857D01*
X160602381Y-77525714D02*
X159602381Y-77525714D01*
X159602381Y-77763809D01*
X159650000Y-77906667D01*
X159745238Y-78001905D01*
X159840476Y-78049524D01*
X160030952Y-78097143D01*
X160173810Y-78097143D01*
X160364286Y-78049524D01*
X160459524Y-78001905D01*
X160554762Y-77906667D01*
X160602381Y-77763809D01*
X160602381Y-77525714D01*
X159697619Y-78478095D02*
X159650000Y-78525714D01*
X159602381Y-78620952D01*
X159602381Y-78859048D01*
X159650000Y-78954286D01*
X159697619Y-79001905D01*
X159792857Y-79049524D01*
X159888095Y-79049524D01*
X160030952Y-79001905D01*
X160602381Y-78430476D01*
X160602381Y-79049524D01*
X159935714Y-79906667D02*
X160602381Y-79906667D01*
X159554762Y-79668571D02*
X160269048Y-79430476D01*
X160269048Y-80049524D01*
X122502381Y-92765714D02*
X121502381Y-92765714D01*
X121502381Y-93003809D01*
X121550000Y-93146667D01*
X121645238Y-93241905D01*
X121740476Y-93289524D01*
X121930952Y-93337143D01*
X122073810Y-93337143D01*
X122264286Y-93289524D01*
X122359524Y-93241905D01*
X122454762Y-93146667D01*
X122502381Y-93003809D01*
X122502381Y-92765714D01*
X121597619Y-93718095D02*
X121550000Y-93765714D01*
X121502381Y-93860952D01*
X121502381Y-94099048D01*
X121550000Y-94194286D01*
X121597619Y-94241905D01*
X121692857Y-94289524D01*
X121788095Y-94289524D01*
X121930952Y-94241905D01*
X122502381Y-93670476D01*
X122502381Y-94289524D01*
X121502381Y-95194286D02*
X121502381Y-94718095D01*
X121978571Y-94670476D01*
X121930952Y-94718095D01*
X121883333Y-94813333D01*
X121883333Y-95051429D01*
X121930952Y-95146667D01*
X121978571Y-95194286D01*
X122073810Y-95241905D01*
X122311905Y-95241905D01*
X122407143Y-95194286D01*
X122454762Y-95146667D01*
X122502381Y-95051429D01*
X122502381Y-94813333D01*
X122454762Y-94718095D01*
X122407143Y-94670476D01*
X130122381Y-92765714D02*
X129122381Y-92765714D01*
X129122381Y-93003809D01*
X129170000Y-93146667D01*
X129265238Y-93241905D01*
X129360476Y-93289524D01*
X129550952Y-93337143D01*
X129693810Y-93337143D01*
X129884286Y-93289524D01*
X129979524Y-93241905D01*
X130074762Y-93146667D01*
X130122381Y-93003809D01*
X130122381Y-92765714D01*
X129217619Y-93718095D02*
X129170000Y-93765714D01*
X129122381Y-93860952D01*
X129122381Y-94099048D01*
X129170000Y-94194286D01*
X129217619Y-94241905D01*
X129312857Y-94289524D01*
X129408095Y-94289524D01*
X129550952Y-94241905D01*
X130122381Y-93670476D01*
X130122381Y-94289524D01*
X129122381Y-95146667D02*
X129122381Y-94956190D01*
X129170000Y-94860952D01*
X129217619Y-94813333D01*
X129360476Y-94718095D01*
X129550952Y-94670476D01*
X129931905Y-94670476D01*
X130027143Y-94718095D01*
X130074762Y-94765714D01*
X130122381Y-94860952D01*
X130122381Y-95051429D01*
X130074762Y-95146667D01*
X130027143Y-95194286D01*
X129931905Y-95241905D01*
X129693810Y-95241905D01*
X129598571Y-95194286D01*
X129550952Y-95146667D01*
X129503333Y-95051429D01*
X129503333Y-94860952D01*
X129550952Y-94765714D01*
X129598571Y-94718095D01*
X129693810Y-94670476D01*
X137742381Y-92765714D02*
X136742381Y-92765714D01*
X136742381Y-93003809D01*
X136790000Y-93146667D01*
X136885238Y-93241905D01*
X136980476Y-93289524D01*
X137170952Y-93337143D01*
X137313810Y-93337143D01*
X137504286Y-93289524D01*
X137599524Y-93241905D01*
X137694762Y-93146667D01*
X137742381Y-93003809D01*
X137742381Y-92765714D01*
X136837619Y-93718095D02*
X136790000Y-93765714D01*
X136742381Y-93860952D01*
X136742381Y-94099048D01*
X136790000Y-94194286D01*
X136837619Y-94241905D01*
X136932857Y-94289524D01*
X137028095Y-94289524D01*
X137170952Y-94241905D01*
X137742381Y-93670476D01*
X137742381Y-94289524D01*
X136742381Y-94622857D02*
X136742381Y-95289524D01*
X137742381Y-94860952D01*
X145362381Y-92765714D02*
X144362381Y-92765714D01*
X144362381Y-93003809D01*
X144410000Y-93146667D01*
X144505238Y-93241905D01*
X144600476Y-93289524D01*
X144790952Y-93337143D01*
X144933810Y-93337143D01*
X145124286Y-93289524D01*
X145219524Y-93241905D01*
X145314762Y-93146667D01*
X145362381Y-93003809D01*
X145362381Y-92765714D01*
X144457619Y-93718095D02*
X144410000Y-93765714D01*
X144362381Y-93860952D01*
X144362381Y-94099048D01*
X144410000Y-94194286D01*
X144457619Y-94241905D01*
X144552857Y-94289524D01*
X144648095Y-94289524D01*
X144790952Y-94241905D01*
X145362381Y-93670476D01*
X145362381Y-94289524D01*
X144790952Y-94860952D02*
X144743333Y-94765714D01*
X144695714Y-94718095D01*
X144600476Y-94670476D01*
X144552857Y-94670476D01*
X144457619Y-94718095D01*
X144410000Y-94765714D01*
X144362381Y-94860952D01*
X144362381Y-95051429D01*
X144410000Y-95146667D01*
X144457619Y-95194286D01*
X144552857Y-95241905D01*
X144600476Y-95241905D01*
X144695714Y-95194286D01*
X144743333Y-95146667D01*
X144790952Y-95051429D01*
X144790952Y-94860952D01*
X144838571Y-94765714D01*
X144886190Y-94718095D01*
X144981429Y-94670476D01*
X145171905Y-94670476D01*
X145267143Y-94718095D01*
X145314762Y-94765714D01*
X145362381Y-94860952D01*
X145362381Y-95051429D01*
X145314762Y-95146667D01*
X145267143Y-95194286D01*
X145171905Y-95241905D01*
X144981429Y-95241905D01*
X144886190Y-95194286D01*
X144838571Y-95146667D01*
X144790952Y-95051429D01*
X152982381Y-92765714D02*
X151982381Y-92765714D01*
X151982381Y-93003809D01*
X152030000Y-93146667D01*
X152125238Y-93241905D01*
X152220476Y-93289524D01*
X152410952Y-93337143D01*
X152553810Y-93337143D01*
X152744286Y-93289524D01*
X152839524Y-93241905D01*
X152934762Y-93146667D01*
X152982381Y-93003809D01*
X152982381Y-92765714D01*
X152077619Y-93718095D02*
X152030000Y-93765714D01*
X151982381Y-93860952D01*
X151982381Y-94099048D01*
X152030000Y-94194286D01*
X152077619Y-94241905D01*
X152172857Y-94289524D01*
X152268095Y-94289524D01*
X152410952Y-94241905D01*
X152982381Y-93670476D01*
X152982381Y-94289524D01*
X152982381Y-94765714D02*
X152982381Y-94956190D01*
X152934762Y-95051429D01*
X152887143Y-95099048D01*
X152744286Y-95194286D01*
X152553810Y-95241905D01*
X152172857Y-95241905D01*
X152077619Y-95194286D01*
X152030000Y-95146667D01*
X151982381Y-95051429D01*
X151982381Y-94860952D01*
X152030000Y-94765714D01*
X152077619Y-94718095D01*
X152172857Y-94670476D01*
X152410952Y-94670476D01*
X152506190Y-94718095D01*
X152553810Y-94765714D01*
X152601429Y-94860952D01*
X152601429Y-95051429D01*
X152553810Y-95146667D01*
X152506190Y-95194286D01*
X152410952Y-95241905D01*
X160602381Y-92765714D02*
X159602381Y-92765714D01*
X159602381Y-93003809D01*
X159650000Y-93146667D01*
X159745238Y-93241905D01*
X159840476Y-93289524D01*
X160030952Y-93337143D01*
X160173810Y-93337143D01*
X160364286Y-93289524D01*
X160459524Y-93241905D01*
X160554762Y-93146667D01*
X160602381Y-93003809D01*
X160602381Y-92765714D01*
X159602381Y-93670476D02*
X159602381Y-94289524D01*
X159983333Y-93956190D01*
X159983333Y-94099048D01*
X160030952Y-94194286D01*
X160078571Y-94241905D01*
X160173810Y-94289524D01*
X160411905Y-94289524D01*
X160507143Y-94241905D01*
X160554762Y-94194286D01*
X160602381Y-94099048D01*
X160602381Y-93813333D01*
X160554762Y-93718095D01*
X160507143Y-93670476D01*
X159602381Y-94908571D02*
X159602381Y-95003810D01*
X159650000Y-95099048D01*
X159697619Y-95146667D01*
X159792857Y-95194286D01*
X159983333Y-95241905D01*
X160221429Y-95241905D01*
X160411905Y-95194286D01*
X160507143Y-95146667D01*
X160554762Y-95099048D01*
X160602381Y-95003810D01*
X160602381Y-94908571D01*
X160554762Y-94813333D01*
X160507143Y-94765714D01*
X160411905Y-94718095D01*
X160221429Y-94670476D01*
X159983333Y-94670476D01*
X159792857Y-94718095D01*
X159697619Y-94765714D01*
X159650000Y-94813333D01*
X159602381Y-94908571D01*
X122502381Y-108005714D02*
X121502381Y-108005714D01*
X121502381Y-108243809D01*
X121550000Y-108386667D01*
X121645238Y-108481905D01*
X121740476Y-108529524D01*
X121930952Y-108577143D01*
X122073810Y-108577143D01*
X122264286Y-108529524D01*
X122359524Y-108481905D01*
X122454762Y-108386667D01*
X122502381Y-108243809D01*
X122502381Y-108005714D01*
X121502381Y-108910476D02*
X121502381Y-109529524D01*
X121883333Y-109196190D01*
X121883333Y-109339048D01*
X121930952Y-109434286D01*
X121978571Y-109481905D01*
X122073810Y-109529524D01*
X122311905Y-109529524D01*
X122407143Y-109481905D01*
X122454762Y-109434286D01*
X122502381Y-109339048D01*
X122502381Y-109053333D01*
X122454762Y-108958095D01*
X122407143Y-108910476D01*
X122502381Y-110481905D02*
X122502381Y-109910476D01*
X122502381Y-110196190D02*
X121502381Y-110196190D01*
X121645238Y-110100952D01*
X121740476Y-110005714D01*
X121788095Y-109910476D01*
X130122381Y-108005714D02*
X129122381Y-108005714D01*
X129122381Y-108243809D01*
X129170000Y-108386667D01*
X129265238Y-108481905D01*
X129360476Y-108529524D01*
X129550952Y-108577143D01*
X129693810Y-108577143D01*
X129884286Y-108529524D01*
X129979524Y-108481905D01*
X130074762Y-108386667D01*
X130122381Y-108243809D01*
X130122381Y-108005714D01*
X129122381Y-108910476D02*
X129122381Y-109529524D01*
X129503333Y-109196190D01*
X129503333Y-109339048D01*
X129550952Y-109434286D01*
X129598571Y-109481905D01*
X129693810Y-109529524D01*
X129931905Y-109529524D01*
X130027143Y-109481905D01*
X130074762Y-109434286D01*
X130122381Y-109339048D01*
X130122381Y-109053333D01*
X130074762Y-108958095D01*
X130027143Y-108910476D01*
X129217619Y-109910476D02*
X129170000Y-109958095D01*
X129122381Y-110053333D01*
X129122381Y-110291429D01*
X129170000Y-110386667D01*
X129217619Y-110434286D01*
X129312857Y-110481905D01*
X129408095Y-110481905D01*
X129550952Y-110434286D01*
X130122381Y-109862857D01*
X130122381Y-110481905D01*
X137742381Y-108005714D02*
X136742381Y-108005714D01*
X136742381Y-108243809D01*
X136790000Y-108386667D01*
X136885238Y-108481905D01*
X136980476Y-108529524D01*
X137170952Y-108577143D01*
X137313810Y-108577143D01*
X137504286Y-108529524D01*
X137599524Y-108481905D01*
X137694762Y-108386667D01*
X137742381Y-108243809D01*
X137742381Y-108005714D01*
X136742381Y-108910476D02*
X136742381Y-109529524D01*
X137123333Y-109196190D01*
X137123333Y-109339048D01*
X137170952Y-109434286D01*
X137218571Y-109481905D01*
X137313810Y-109529524D01*
X137551905Y-109529524D01*
X137647143Y-109481905D01*
X137694762Y-109434286D01*
X137742381Y-109339048D01*
X137742381Y-109053333D01*
X137694762Y-108958095D01*
X137647143Y-108910476D01*
X136742381Y-109862857D02*
X136742381Y-110481905D01*
X137123333Y-110148571D01*
X137123333Y-110291429D01*
X137170952Y-110386667D01*
X137218571Y-110434286D01*
X137313810Y-110481905D01*
X137551905Y-110481905D01*
X137647143Y-110434286D01*
X137694762Y-110386667D01*
X137742381Y-110291429D01*
X137742381Y-110005714D01*
X137694762Y-109910476D01*
X137647143Y-109862857D01*
X145362381Y-108005714D02*
X144362381Y-108005714D01*
X144362381Y-108243809D01*
X144410000Y-108386667D01*
X144505238Y-108481905D01*
X144600476Y-108529524D01*
X144790952Y-108577143D01*
X144933810Y-108577143D01*
X145124286Y-108529524D01*
X145219524Y-108481905D01*
X145314762Y-108386667D01*
X145362381Y-108243809D01*
X145362381Y-108005714D01*
X144362381Y-108910476D02*
X144362381Y-109529524D01*
X144743333Y-109196190D01*
X144743333Y-109339048D01*
X144790952Y-109434286D01*
X144838571Y-109481905D01*
X144933810Y-109529524D01*
X145171905Y-109529524D01*
X145267143Y-109481905D01*
X145314762Y-109434286D01*
X145362381Y-109339048D01*
X145362381Y-109053333D01*
X145314762Y-108958095D01*
X145267143Y-108910476D01*
X144695714Y-110386667D02*
X145362381Y-110386667D01*
X144314762Y-110148571D02*
X145029048Y-109910476D01*
X145029048Y-110529524D01*
X152982381Y-108005714D02*
X151982381Y-108005714D01*
X151982381Y-108243809D01*
X152030000Y-108386667D01*
X152125238Y-108481905D01*
X152220476Y-108529524D01*
X152410952Y-108577143D01*
X152553810Y-108577143D01*
X152744286Y-108529524D01*
X152839524Y-108481905D01*
X152934762Y-108386667D01*
X152982381Y-108243809D01*
X152982381Y-108005714D01*
X151982381Y-108910476D02*
X151982381Y-109529524D01*
X152363333Y-109196190D01*
X152363333Y-109339048D01*
X152410952Y-109434286D01*
X152458571Y-109481905D01*
X152553810Y-109529524D01*
X152791905Y-109529524D01*
X152887143Y-109481905D01*
X152934762Y-109434286D01*
X152982381Y-109339048D01*
X152982381Y-109053333D01*
X152934762Y-108958095D01*
X152887143Y-108910476D01*
X151982381Y-110434286D02*
X151982381Y-109958095D01*
X152458571Y-109910476D01*
X152410952Y-109958095D01*
X152363333Y-110053333D01*
X152363333Y-110291429D01*
X152410952Y-110386667D01*
X152458571Y-110434286D01*
X152553810Y-110481905D01*
X152791905Y-110481905D01*
X152887143Y-110434286D01*
X152934762Y-110386667D01*
X152982381Y-110291429D01*
X152982381Y-110053333D01*
X152934762Y-109958095D01*
X152887143Y-109910476D01*
X160602381Y-108005714D02*
X159602381Y-108005714D01*
X159602381Y-108243809D01*
X159650000Y-108386667D01*
X159745238Y-108481905D01*
X159840476Y-108529524D01*
X160030952Y-108577143D01*
X160173810Y-108577143D01*
X160364286Y-108529524D01*
X160459524Y-108481905D01*
X160554762Y-108386667D01*
X160602381Y-108243809D01*
X160602381Y-108005714D01*
X159602381Y-108910476D02*
X159602381Y-109529524D01*
X159983333Y-109196190D01*
X159983333Y-109339048D01*
X160030952Y-109434286D01*
X160078571Y-109481905D01*
X160173810Y-109529524D01*
X160411905Y-109529524D01*
X160507143Y-109481905D01*
X160554762Y-109434286D01*
X160602381Y-109339048D01*
X160602381Y-109053333D01*
X160554762Y-108958095D01*
X160507143Y-108910476D01*
X159602381Y-110386667D02*
X159602381Y-110196190D01*
X159650000Y-110100952D01*
X159697619Y-110053333D01*
X159840476Y-109958095D01*
X160030952Y-109910476D01*
X160411905Y-109910476D01*
X160507143Y-109958095D01*
X160554762Y-110005714D01*
X160602381Y-110100952D01*
X160602381Y-110291429D01*
X160554762Y-110386667D01*
X160507143Y-110434286D01*
X160411905Y-110481905D01*
X160173810Y-110481905D01*
X160078571Y-110434286D01*
X160030952Y-110386667D01*
X159983333Y-110291429D01*
X159983333Y-110100952D01*
X160030952Y-110005714D01*
X160078571Y-109958095D01*
X160173810Y-109910476D01*
X143030981Y-138839477D02*
X143745267Y-138839477D01*
X143888124Y-138791857D01*
X143983362Y-138696619D01*
X144030981Y-138553762D01*
X144030981Y-138458524D01*
X143030981Y-139220429D02*
X143030981Y-139839477D01*
X143411933Y-139506143D01*
X143411933Y-139649001D01*
X143459552Y-139744239D01*
X143507171Y-139791858D01*
X143602410Y-139839477D01*
X143840505Y-139839477D01*
X143935743Y-139791858D01*
X143983362Y-139744239D01*
X144030981Y-139649001D01*
X144030981Y-139363286D01*
X143983362Y-139268048D01*
X143935743Y-139220429D01*
X143030981Y-140172810D02*
X143030981Y-140839477D01*
X144030981Y-140410905D01*
X191809523Y-22652381D02*
X191809523Y-23366667D01*
X191857143Y-23509524D01*
X191952381Y-23604762D01*
X192095238Y-23652381D01*
X192190476Y-23652381D01*
X191428571Y-22652381D02*
X190809523Y-22652381D01*
X191142857Y-23033333D01*
X190999999Y-23033333D01*
X190904761Y-23080952D01*
X190857142Y-23128571D01*
X190809523Y-23223810D01*
X190809523Y-23461905D01*
X190857142Y-23557143D01*
X190904761Y-23604762D01*
X190999999Y-23652381D01*
X191285714Y-23652381D01*
X191380952Y-23604762D01*
X191428571Y-23557143D01*
X190333333Y-23652381D02*
X190142857Y-23652381D01*
X190047618Y-23604762D01*
X189999999Y-23557143D01*
X189904761Y-23414286D01*
X189857142Y-23223810D01*
X189857142Y-22842857D01*
X189904761Y-22747619D01*
X189952380Y-22700000D01*
X190047618Y-22652381D01*
X190238095Y-22652381D01*
X190333333Y-22700000D01*
X190380952Y-22747619D01*
X190428571Y-22842857D01*
X190428571Y-23080952D01*
X190380952Y-23176190D01*
X190333333Y-23223810D01*
X190238095Y-23271429D01*
X190047618Y-23271429D01*
X189952380Y-23223810D01*
X189904761Y-23176190D01*
X189857142Y-23080952D01*
X29809523Y-22652381D02*
X29809523Y-23366667D01*
X29857143Y-23509524D01*
X29952381Y-23604762D01*
X30095238Y-23652381D01*
X30190476Y-23652381D01*
X28904761Y-22985714D02*
X28904761Y-23652381D01*
X29142857Y-22604762D02*
X29380952Y-23319048D01*
X28761904Y-23319048D01*
X28190476Y-22652381D02*
X28095237Y-22652381D01*
X27999999Y-22700000D01*
X27952380Y-22747619D01*
X27904761Y-22842857D01*
X27857142Y-23033333D01*
X27857142Y-23271429D01*
X27904761Y-23461905D01*
X27952380Y-23557143D01*
X27999999Y-23604762D01*
X28095237Y-23652381D01*
X28190476Y-23652381D01*
X28285714Y-23604762D01*
X28333333Y-23557143D01*
X28380952Y-23461905D01*
X28428571Y-23271429D01*
X28428571Y-23033333D01*
X28380952Y-22842857D01*
X28333333Y-22747619D01*
X28285714Y-22700000D01*
X28190476Y-22652381D01*
X34809523Y-150452381D02*
X34809523Y-151166667D01*
X34857143Y-151309524D01*
X34952381Y-151404762D01*
X35095238Y-151452381D01*
X35190476Y-151452381D01*
X33904761Y-150785714D02*
X33904761Y-151452381D01*
X34142857Y-150404762D02*
X34380952Y-151119048D01*
X33761904Y-151119048D01*
X32857142Y-151452381D02*
X33428571Y-151452381D01*
X33142857Y-151452381D02*
X33142857Y-150452381D01*
X33238095Y-150595238D01*
X33333333Y-150690476D01*
X33428571Y-150738095D01*
X192577619Y-27844762D02*
X192530000Y-27749524D01*
X192434762Y-27654286D01*
X192291905Y-27511429D01*
X192244286Y-27416190D01*
X192244286Y-27320952D01*
X192482381Y-27368571D02*
X192434762Y-27273333D01*
X192339524Y-27178095D01*
X192149048Y-27130476D01*
X191815714Y-27130476D01*
X191625238Y-27178095D01*
X191530000Y-27273333D01*
X191482381Y-27368571D01*
X191482381Y-27559048D01*
X191530000Y-27654286D01*
X191625238Y-27749524D01*
X191815714Y-27797143D01*
X192149048Y-27797143D01*
X192339524Y-27749524D01*
X192434762Y-27654286D01*
X192482381Y-27559048D01*
X192482381Y-27368571D01*
X192482381Y-28749524D02*
X192482381Y-28178095D01*
X192482381Y-28463809D02*
X191482381Y-28463809D01*
X191625238Y-28368571D01*
X191720476Y-28273333D01*
X191768095Y-28178095D01*
X192577619Y-43084762D02*
X192530000Y-42989524D01*
X192434762Y-42894286D01*
X192291905Y-42751429D01*
X192244286Y-42656190D01*
X192244286Y-42560952D01*
X192482381Y-42608571D02*
X192434762Y-42513333D01*
X192339524Y-42418095D01*
X192149048Y-42370476D01*
X191815714Y-42370476D01*
X191625238Y-42418095D01*
X191530000Y-42513333D01*
X191482381Y-42608571D01*
X191482381Y-42799048D01*
X191530000Y-42894286D01*
X191625238Y-42989524D01*
X191815714Y-43037143D01*
X192149048Y-43037143D01*
X192339524Y-42989524D01*
X192434762Y-42894286D01*
X192482381Y-42799048D01*
X192482381Y-42608571D01*
X191577619Y-43418095D02*
X191530000Y-43465714D01*
X191482381Y-43560952D01*
X191482381Y-43799048D01*
X191530000Y-43894286D01*
X191577619Y-43941905D01*
X191672857Y-43989524D01*
X191768095Y-43989524D01*
X191910952Y-43941905D01*
X192482381Y-43370476D01*
X192482381Y-43989524D01*
X192577619Y-58324762D02*
X192530000Y-58229524D01*
X192434762Y-58134286D01*
X192291905Y-57991429D01*
X192244286Y-57896190D01*
X192244286Y-57800952D01*
X192482381Y-57848571D02*
X192434762Y-57753333D01*
X192339524Y-57658095D01*
X192149048Y-57610476D01*
X191815714Y-57610476D01*
X191625238Y-57658095D01*
X191530000Y-57753333D01*
X191482381Y-57848571D01*
X191482381Y-58039048D01*
X191530000Y-58134286D01*
X191625238Y-58229524D01*
X191815714Y-58277143D01*
X192149048Y-58277143D01*
X192339524Y-58229524D01*
X192434762Y-58134286D01*
X192482381Y-58039048D01*
X192482381Y-57848571D01*
X191482381Y-58610476D02*
X191482381Y-59229524D01*
X191863333Y-58896190D01*
X191863333Y-59039048D01*
X191910952Y-59134286D01*
X191958571Y-59181905D01*
X192053810Y-59229524D01*
X192291905Y-59229524D01*
X192387143Y-59181905D01*
X192434762Y-59134286D01*
X192482381Y-59039048D01*
X192482381Y-58753333D01*
X192434762Y-58658095D01*
X192387143Y-58610476D01*
X192427619Y-73564762D02*
X192380000Y-73469524D01*
X192284762Y-73374286D01*
X192141905Y-73231429D01*
X192094286Y-73136190D01*
X192094286Y-73040952D01*
X192332381Y-73088571D02*
X192284762Y-72993333D01*
X192189524Y-72898095D01*
X191999048Y-72850476D01*
X191665714Y-72850476D01*
X191475238Y-72898095D01*
X191380000Y-72993333D01*
X191332381Y-73088571D01*
X191332381Y-73279048D01*
X191380000Y-73374286D01*
X191475238Y-73469524D01*
X191665714Y-73517143D01*
X191999048Y-73517143D01*
X192189524Y-73469524D01*
X192284762Y-73374286D01*
X192332381Y-73279048D01*
X192332381Y-73088571D01*
X191665714Y-74374286D02*
X192332381Y-74374286D01*
X191284762Y-74136190D02*
X191999048Y-73898095D01*
X191999048Y-74517143D01*
X192427619Y-88804762D02*
X192380000Y-88709524D01*
X192284762Y-88614286D01*
X192141905Y-88471429D01*
X192094286Y-88376190D01*
X192094286Y-88280952D01*
X192332381Y-88328571D02*
X192284762Y-88233333D01*
X192189524Y-88138095D01*
X191999048Y-88090476D01*
X191665714Y-88090476D01*
X191475238Y-88138095D01*
X191380000Y-88233333D01*
X191332381Y-88328571D01*
X191332381Y-88519048D01*
X191380000Y-88614286D01*
X191475238Y-88709524D01*
X191665714Y-88757143D01*
X191999048Y-88757143D01*
X192189524Y-88709524D01*
X192284762Y-88614286D01*
X192332381Y-88519048D01*
X192332381Y-88328571D01*
X191332381Y-89661905D02*
X191332381Y-89185714D01*
X191808571Y-89138095D01*
X191760952Y-89185714D01*
X191713333Y-89280952D01*
X191713333Y-89519048D01*
X191760952Y-89614286D01*
X191808571Y-89661905D01*
X191903810Y-89709524D01*
X192141905Y-89709524D01*
X192237143Y-89661905D01*
X192284762Y-89614286D01*
X192332381Y-89519048D01*
X192332381Y-89280952D01*
X192284762Y-89185714D01*
X192237143Y-89138095D01*
X192577619Y-104044762D02*
X192530000Y-103949524D01*
X192434762Y-103854286D01*
X192291905Y-103711429D01*
X192244286Y-103616190D01*
X192244286Y-103520952D01*
X192482381Y-103568571D02*
X192434762Y-103473333D01*
X192339524Y-103378095D01*
X192149048Y-103330476D01*
X191815714Y-103330476D01*
X191625238Y-103378095D01*
X191530000Y-103473333D01*
X191482381Y-103568571D01*
X191482381Y-103759048D01*
X191530000Y-103854286D01*
X191625238Y-103949524D01*
X191815714Y-103997143D01*
X192149048Y-103997143D01*
X192339524Y-103949524D01*
X192434762Y-103854286D01*
X192482381Y-103759048D01*
X192482381Y-103568571D01*
X191482381Y-104854286D02*
X191482381Y-104663809D01*
X191530000Y-104568571D01*
X191577619Y-104520952D01*
X191720476Y-104425714D01*
X191910952Y-104378095D01*
X192291905Y-104378095D01*
X192387143Y-104425714D01*
X192434762Y-104473333D01*
X192482381Y-104568571D01*
X192482381Y-104759048D01*
X192434762Y-104854286D01*
X192387143Y-104901905D01*
X192291905Y-104949524D01*
X192053810Y-104949524D01*
X191958571Y-104901905D01*
X191910952Y-104854286D01*
X191863333Y-104759048D01*
X191863333Y-104568571D01*
X191910952Y-104473333D01*
X191958571Y-104425714D01*
X192053810Y-104378095D01*
X36575238Y-135427619D02*
X36670476Y-135380000D01*
X36765714Y-135284762D01*
X36908571Y-135141905D01*
X37003810Y-135094286D01*
X37099048Y-135094286D01*
X37051429Y-135332381D02*
X37146667Y-135284762D01*
X37241905Y-135189524D01*
X37289524Y-134999048D01*
X37289524Y-134665714D01*
X37241905Y-134475238D01*
X37146667Y-134380000D01*
X37051429Y-134332381D01*
X36860952Y-134332381D01*
X36765714Y-134380000D01*
X36670476Y-134475238D01*
X36622857Y-134665714D01*
X36622857Y-134999048D01*
X36670476Y-135189524D01*
X36765714Y-135284762D01*
X36860952Y-135332381D01*
X37051429Y-135332381D01*
X36289524Y-134332381D02*
X35622857Y-134332381D01*
X36051429Y-135332381D01*
X49910238Y-135427619D02*
X50005476Y-135380000D01*
X50100714Y-135284762D01*
X50243571Y-135141905D01*
X50338810Y-135094286D01*
X50434048Y-135094286D01*
X50386429Y-135332381D02*
X50481667Y-135284762D01*
X50576905Y-135189524D01*
X50624524Y-134999048D01*
X50624524Y-134665714D01*
X50576905Y-134475238D01*
X50481667Y-134380000D01*
X50386429Y-134332381D01*
X50195952Y-134332381D01*
X50100714Y-134380000D01*
X50005476Y-134475238D01*
X49957857Y-134665714D01*
X49957857Y-134999048D01*
X50005476Y-135189524D01*
X50100714Y-135284762D01*
X50195952Y-135332381D01*
X50386429Y-135332381D01*
X49386429Y-134760952D02*
X49481667Y-134713333D01*
X49529286Y-134665714D01*
X49576905Y-134570476D01*
X49576905Y-134522857D01*
X49529286Y-134427619D01*
X49481667Y-134380000D01*
X49386429Y-134332381D01*
X49195952Y-134332381D01*
X49100714Y-134380000D01*
X49053095Y-134427619D01*
X49005476Y-134522857D01*
X49005476Y-134570476D01*
X49053095Y-134665714D01*
X49100714Y-134713333D01*
X49195952Y-134760952D01*
X49386429Y-134760952D01*
X49481667Y-134808571D01*
X49529286Y-134856190D01*
X49576905Y-134951429D01*
X49576905Y-135141905D01*
X49529286Y-135237143D01*
X49481667Y-135284762D01*
X49386429Y-135332381D01*
X49195952Y-135332381D01*
X49100714Y-135284762D01*
X49053095Y-135237143D01*
X49005476Y-135141905D01*
X49005476Y-134951429D01*
X49053095Y-134856190D01*
X49100714Y-134808571D01*
X49195952Y-134760952D01*
X63245238Y-135427619D02*
X63340476Y-135380000D01*
X63435714Y-135284762D01*
X63578571Y-135141905D01*
X63673810Y-135094286D01*
X63769048Y-135094286D01*
X63721429Y-135332381D02*
X63816667Y-135284762D01*
X63911905Y-135189524D01*
X63959524Y-134999048D01*
X63959524Y-134665714D01*
X63911905Y-134475238D01*
X63816667Y-134380000D01*
X63721429Y-134332381D01*
X63530952Y-134332381D01*
X63435714Y-134380000D01*
X63340476Y-134475238D01*
X63292857Y-134665714D01*
X63292857Y-134999048D01*
X63340476Y-135189524D01*
X63435714Y-135284762D01*
X63530952Y-135332381D01*
X63721429Y-135332381D01*
X62816667Y-135332381D02*
X62626191Y-135332381D01*
X62530952Y-135284762D01*
X62483333Y-135237143D01*
X62388095Y-135094286D01*
X62340476Y-134903810D01*
X62340476Y-134522857D01*
X62388095Y-134427619D01*
X62435714Y-134380000D01*
X62530952Y-134332381D01*
X62721429Y-134332381D01*
X62816667Y-134380000D01*
X62864286Y-134427619D01*
X62911905Y-134522857D01*
X62911905Y-134760952D01*
X62864286Y-134856190D01*
X62816667Y-134903810D01*
X62721429Y-134951429D01*
X62530952Y-134951429D01*
X62435714Y-134903810D01*
X62388095Y-134856190D01*
X62340476Y-134760952D01*
X77056428Y-135427619D02*
X77151666Y-135380000D01*
X77246904Y-135284762D01*
X77389761Y-135141905D01*
X77485000Y-135094286D01*
X77580238Y-135094286D01*
X77532619Y-135332381D02*
X77627857Y-135284762D01*
X77723095Y-135189524D01*
X77770714Y-134999048D01*
X77770714Y-134665714D01*
X77723095Y-134475238D01*
X77627857Y-134380000D01*
X77532619Y-134332381D01*
X77342142Y-134332381D01*
X77246904Y-134380000D01*
X77151666Y-134475238D01*
X77104047Y-134665714D01*
X77104047Y-134999048D01*
X77151666Y-135189524D01*
X77246904Y-135284762D01*
X77342142Y-135332381D01*
X77532619Y-135332381D01*
X76151666Y-135332381D02*
X76723095Y-135332381D01*
X76437381Y-135332381D02*
X76437381Y-134332381D01*
X76532619Y-134475238D01*
X76627857Y-134570476D01*
X76723095Y-134618095D01*
X75532619Y-134332381D02*
X75437380Y-134332381D01*
X75342142Y-134380000D01*
X75294523Y-134427619D01*
X75246904Y-134522857D01*
X75199285Y-134713333D01*
X75199285Y-134951429D01*
X75246904Y-135141905D01*
X75294523Y-135237143D01*
X75342142Y-135284762D01*
X75437380Y-135332381D01*
X75532619Y-135332381D01*
X75627857Y-135284762D01*
X75675476Y-135237143D01*
X75723095Y-135141905D01*
X75770714Y-134951429D01*
X75770714Y-134713333D01*
X75723095Y-134522857D01*
X75675476Y-134427619D01*
X75627857Y-134380000D01*
X75532619Y-134332381D01*
X90391428Y-135277619D02*
X90486666Y-135230000D01*
X90581904Y-135134762D01*
X90724761Y-134991905D01*
X90820000Y-134944286D01*
X90915238Y-134944286D01*
X90867619Y-135182381D02*
X90962857Y-135134762D01*
X91058095Y-135039524D01*
X91105714Y-134849048D01*
X91105714Y-134515714D01*
X91058095Y-134325238D01*
X90962857Y-134230000D01*
X90867619Y-134182381D01*
X90677142Y-134182381D01*
X90581904Y-134230000D01*
X90486666Y-134325238D01*
X90439047Y-134515714D01*
X90439047Y-134849048D01*
X90486666Y-135039524D01*
X90581904Y-135134762D01*
X90677142Y-135182381D01*
X90867619Y-135182381D01*
X89486666Y-135182381D02*
X90058095Y-135182381D01*
X89772381Y-135182381D02*
X89772381Y-134182381D01*
X89867619Y-134325238D01*
X89962857Y-134420476D01*
X90058095Y-134468095D01*
X88534285Y-135182381D02*
X89105714Y-135182381D01*
X88820000Y-135182381D02*
X88820000Y-134182381D01*
X88915238Y-134325238D01*
X89010476Y-134420476D01*
X89105714Y-134468095D01*
X103726428Y-135427619D02*
X103821666Y-135380000D01*
X103916904Y-135284762D01*
X104059761Y-135141905D01*
X104155000Y-135094286D01*
X104250238Y-135094286D01*
X104202619Y-135332381D02*
X104297857Y-135284762D01*
X104393095Y-135189524D01*
X104440714Y-134999048D01*
X104440714Y-134665714D01*
X104393095Y-134475238D01*
X104297857Y-134380000D01*
X104202619Y-134332381D01*
X104012142Y-134332381D01*
X103916904Y-134380000D01*
X103821666Y-134475238D01*
X103774047Y-134665714D01*
X103774047Y-134999048D01*
X103821666Y-135189524D01*
X103916904Y-135284762D01*
X104012142Y-135332381D01*
X104202619Y-135332381D01*
X102821666Y-135332381D02*
X103393095Y-135332381D01*
X103107381Y-135332381D02*
X103107381Y-134332381D01*
X103202619Y-134475238D01*
X103297857Y-134570476D01*
X103393095Y-134618095D01*
X102440714Y-134427619D02*
X102393095Y-134380000D01*
X102297857Y-134332381D01*
X102059761Y-134332381D01*
X101964523Y-134380000D01*
X101916904Y-134427619D01*
X101869285Y-134522857D01*
X101869285Y-134618095D01*
X101916904Y-134760952D01*
X102488333Y-135332381D01*
X101869285Y-135332381D01*
M02*
