M48
METRIC,LZ
T1C1.600
T2C1.800
T3C3.500
T4C5.100
%
G90
G05
T1
X137959Y-150048
T2
X137959Y-145548
T3
X03648Y-13096
X049815Y-13096
X06315Y-13096
X076485Y-13096
X08982Y-13081
X103155Y-13096
X18796Y-07366
X18796Y-0889
X18811Y-02794
X18811Y-04318
X18811Y-05842
X18811Y-10414
T4
X0381Y-03175
X0381Y-045085
X0381Y-05842
X0381Y-071755
X0381Y-08509
X0381Y-098425
X051435Y-03175
X051435Y-045085
X051435Y-05842
X051435Y-071755
X051435Y-08509
X051435Y-098425
X06477Y-03175
X06477Y-045085
X06477Y-05842
X06477Y-071755
X06477Y-08509
X06477Y-098425
X078105Y-03175
X078105Y-045085
X078105Y-05842
X078105Y-071755
X078105Y-08509
X078105Y-098425
X09144Y-03175
X09144Y-045085
X09144Y-05842
X09144Y-071755
X09144Y-08509
X09144Y-098425
X104775Y-03175
X104775Y-045085
X104775Y-05842
X104775Y-071755
X104775Y-08509
X104775Y-098425
T0
M30
