G04 #@! TF.FileFunction,Soldermask,Bot*
%FSLAX46Y46*%
G04 Gerber Fmt 4.6, Leading zero omitted, Abs format (unit mm)*
G04 Created by KiCad (PCBNEW 4.0.7) date 06/06/18 10:15:49*
%MOMM*%
%LPD*%
G01*
G04 APERTURE LIST*
%ADD10C,0.100000*%
%ADD11R,2.100000X2.100000*%
%ADD12O,2.100000X2.100000*%
%ADD13C,6.800000*%
%ADD14R,2.600000X2.600000*%
%ADD15O,2.600000X2.600000*%
%ADD16C,2.800000*%
%ADD17R,2.400000X2.800000*%
%ADD18C,2.900000*%
%ADD19C,5.500000*%
%ADD20C,1.924000*%
%ADD21O,3.900000X3.900000*%
%ADD22R,2.200000X2.200000*%
%ADD23O,2.200000X2.200000*%
G04 APERTURE END LIST*
D10*
D11*
X182760000Y-140120000D03*
D12*
X185300000Y-140120000D03*
X182760000Y-137580000D03*
X185300000Y-137580000D03*
X182760000Y-135040000D03*
X185300000Y-135040000D03*
X182760000Y-132500000D03*
X185300000Y-132500000D03*
X182760000Y-129960000D03*
X185300000Y-129960000D03*
X182760000Y-127420000D03*
X185300000Y-127420000D03*
D13*
X191000000Y-151000000D03*
D14*
X124460000Y-27940000D03*
D15*
X124460000Y-38100000D03*
D14*
X132080000Y-27940000D03*
D15*
X132080000Y-38100000D03*
D14*
X139700000Y-27940000D03*
D15*
X139700000Y-38100000D03*
D14*
X147320000Y-27940000D03*
D15*
X147320000Y-38100000D03*
D14*
X154940000Y-27940000D03*
D15*
X154940000Y-38100000D03*
D14*
X162560000Y-27940000D03*
D15*
X162560000Y-38100000D03*
D14*
X124460000Y-43180000D03*
D15*
X124460000Y-53340000D03*
D14*
X132080000Y-43180000D03*
D15*
X132080000Y-53340000D03*
D14*
X139700000Y-43180000D03*
D15*
X139700000Y-53340000D03*
D14*
X147320000Y-43180000D03*
D15*
X147320000Y-53340000D03*
D14*
X154940000Y-43180000D03*
D15*
X154940000Y-53340000D03*
D14*
X162560000Y-43180000D03*
D15*
X162560000Y-53340000D03*
D14*
X124460000Y-58420000D03*
D15*
X124460000Y-68580000D03*
D14*
X132080000Y-58420000D03*
D15*
X132080000Y-68580000D03*
D14*
X139700000Y-58420000D03*
D15*
X139700000Y-68580000D03*
D14*
X147320000Y-58420000D03*
D15*
X147320000Y-68580000D03*
D14*
X154940000Y-58420000D03*
D15*
X154940000Y-68580000D03*
D14*
X162560000Y-58420000D03*
D15*
X162560000Y-68580000D03*
D14*
X124460000Y-73660000D03*
D15*
X124460000Y-83820000D03*
D14*
X132080000Y-73660000D03*
D15*
X132080000Y-83820000D03*
D14*
X139700000Y-73660000D03*
D15*
X139700000Y-83820000D03*
D14*
X147320000Y-73660000D03*
D15*
X147320000Y-83820000D03*
D14*
X154940000Y-73660000D03*
D15*
X154940000Y-83820000D03*
D14*
X162560000Y-73660000D03*
D15*
X162560000Y-83820000D03*
D14*
X124460000Y-88900000D03*
D15*
X124460000Y-99060000D03*
D14*
X132080000Y-88900000D03*
D15*
X132080000Y-99060000D03*
D14*
X139700000Y-88900000D03*
D15*
X139700000Y-99060000D03*
D14*
X147320000Y-88900000D03*
D15*
X147320000Y-99060000D03*
D14*
X154940000Y-88900000D03*
D15*
X154940000Y-99060000D03*
D14*
X162560000Y-88900000D03*
D15*
X162560000Y-99060000D03*
D14*
X124460000Y-104140000D03*
D15*
X124460000Y-114300000D03*
D14*
X132080000Y-104140000D03*
D15*
X132080000Y-114300000D03*
D14*
X139700000Y-104140000D03*
D15*
X139700000Y-114300000D03*
D14*
X147320000Y-104140000D03*
D15*
X147320000Y-114300000D03*
D14*
X154940000Y-104140000D03*
D15*
X154940000Y-114300000D03*
D14*
X162560000Y-104140000D03*
D15*
X162560000Y-114300000D03*
D16*
X137958600Y-145548000D03*
D17*
X143458600Y-150048000D03*
X132458600Y-150048000D03*
X143458600Y-143848000D03*
X132458600Y-143848000D03*
D16*
X137958600Y-150048000D03*
D13*
X191000000Y-19000000D03*
X29000000Y-19000000D03*
X29000000Y-151000000D03*
D18*
X140716000Y-123444000D03*
X140716000Y-128044000D03*
D19*
X38100000Y-31750000D03*
D20*
X32800000Y-37050000D03*
X43400000Y-26450000D03*
D19*
X51435000Y-31750000D03*
D20*
X46135000Y-37050000D03*
X56735000Y-26450000D03*
D19*
X64770000Y-31750000D03*
D20*
X59470000Y-37050000D03*
X70070000Y-26450000D03*
D19*
X78105000Y-31750000D03*
D20*
X72805000Y-37050000D03*
X83405000Y-26450000D03*
D19*
X91440000Y-31750000D03*
D20*
X86140000Y-37050000D03*
X96740000Y-26450000D03*
D19*
X104775000Y-31750000D03*
D20*
X99475000Y-37050000D03*
X110075000Y-26450000D03*
D19*
X38100000Y-45085000D03*
D20*
X32800000Y-50385000D03*
X43400000Y-39785000D03*
D19*
X51435000Y-45085000D03*
D20*
X46135000Y-50385000D03*
X56735000Y-39785000D03*
D19*
X64770000Y-45085000D03*
D20*
X59470000Y-50385000D03*
X70070000Y-39785000D03*
D19*
X78105000Y-45085000D03*
D20*
X72805000Y-50385000D03*
X83405000Y-39785000D03*
D19*
X91440000Y-45085000D03*
D20*
X86140000Y-50385000D03*
X96740000Y-39785000D03*
D19*
X104775000Y-45085000D03*
D20*
X99475000Y-50385000D03*
X110075000Y-39785000D03*
D19*
X38100000Y-58420000D03*
D20*
X32800000Y-63720000D03*
X43400000Y-53120000D03*
D19*
X51435000Y-58420000D03*
D20*
X46135000Y-63720000D03*
X56735000Y-53120000D03*
D19*
X64770000Y-58420000D03*
D20*
X59470000Y-63720000D03*
X70070000Y-53120000D03*
D19*
X78105000Y-58420000D03*
D20*
X72805000Y-63720000D03*
X83405000Y-53120000D03*
D19*
X91440000Y-58420000D03*
D20*
X86140000Y-63720000D03*
X96740000Y-53120000D03*
D19*
X104775000Y-58420000D03*
D20*
X99475000Y-63720000D03*
X110075000Y-53120000D03*
D19*
X38100000Y-71755000D03*
D20*
X32800000Y-77055000D03*
X43400000Y-66455000D03*
D19*
X51435000Y-71755000D03*
D20*
X46135000Y-77055000D03*
X56735000Y-66455000D03*
D19*
X64770000Y-71755000D03*
D20*
X59470000Y-77055000D03*
X70070000Y-66455000D03*
D19*
X78105000Y-71755000D03*
D20*
X72805000Y-77055000D03*
X83405000Y-66455000D03*
D19*
X91440000Y-71755000D03*
D20*
X86140000Y-77055000D03*
X96740000Y-66455000D03*
D19*
X104775000Y-71755000D03*
D20*
X99475000Y-77055000D03*
X110075000Y-66455000D03*
D19*
X38100000Y-85090000D03*
D20*
X32800000Y-90390000D03*
X43400000Y-79790000D03*
D19*
X51435000Y-85090000D03*
D20*
X46135000Y-90390000D03*
X56735000Y-79790000D03*
D19*
X64770000Y-85090000D03*
D20*
X59470000Y-90390000D03*
X70070000Y-79790000D03*
D19*
X78105000Y-85090000D03*
D20*
X72805000Y-90390000D03*
X83405000Y-79790000D03*
D19*
X91440000Y-85090000D03*
D20*
X86140000Y-90390000D03*
X96740000Y-79790000D03*
D19*
X104775000Y-85090000D03*
D20*
X99475000Y-90390000D03*
X110075000Y-79790000D03*
D19*
X38100000Y-98425000D03*
D20*
X32800000Y-103725000D03*
X43400000Y-93125000D03*
D19*
X51435000Y-98425000D03*
D20*
X46135000Y-103725000D03*
X56735000Y-93125000D03*
D19*
X64770000Y-98425000D03*
D20*
X59470000Y-103725000D03*
X70070000Y-93125000D03*
D19*
X78105000Y-98425000D03*
D20*
X72805000Y-103725000D03*
X83405000Y-93125000D03*
D19*
X91440000Y-98425000D03*
D20*
X86140000Y-103725000D03*
X96740000Y-93125000D03*
D19*
X104775000Y-98425000D03*
D20*
X99475000Y-103725000D03*
X110075000Y-93125000D03*
D21*
X188110000Y-27940000D03*
D22*
X171450000Y-30480000D03*
D23*
X171450000Y-27940000D03*
X171450000Y-25400000D03*
D21*
X188110000Y-43180000D03*
D22*
X171450000Y-45720000D03*
D23*
X171450000Y-43180000D03*
X171450000Y-40640000D03*
D21*
X188110000Y-58420000D03*
D22*
X171450000Y-60960000D03*
D23*
X171450000Y-58420000D03*
X171450000Y-55880000D03*
D21*
X187960000Y-73660000D03*
D22*
X171300000Y-76200000D03*
D23*
X171300000Y-73660000D03*
X171300000Y-71120000D03*
D21*
X187960000Y-88900000D03*
D22*
X171300000Y-91440000D03*
D23*
X171300000Y-88900000D03*
X171300000Y-86360000D03*
D21*
X188110000Y-104140000D03*
D22*
X171450000Y-106680000D03*
D23*
X171450000Y-104140000D03*
X171450000Y-101600000D03*
D21*
X36480000Y-130960000D03*
D22*
X33940000Y-114300000D03*
D23*
X36480000Y-114300000D03*
X39020000Y-114300000D03*
D21*
X49815000Y-130960000D03*
D22*
X47275000Y-114300000D03*
D23*
X49815000Y-114300000D03*
X52355000Y-114300000D03*
D21*
X63150000Y-130960000D03*
D22*
X60610000Y-114300000D03*
D23*
X63150000Y-114300000D03*
X65690000Y-114300000D03*
D21*
X76485000Y-130960000D03*
D22*
X73945000Y-114300000D03*
D23*
X76485000Y-114300000D03*
X79025000Y-114300000D03*
D21*
X89820000Y-130810000D03*
D22*
X87280000Y-114150000D03*
D23*
X89820000Y-114150000D03*
X92360000Y-114150000D03*
D21*
X103155000Y-130960000D03*
D22*
X100615000Y-114300000D03*
D23*
X103155000Y-114300000D03*
X105695000Y-114300000D03*
D11*
X153030000Y-151520000D03*
D12*
X153030000Y-148980000D03*
X153030000Y-146440000D03*
X153030000Y-143900000D03*
X153030000Y-141360000D03*
X153030000Y-138820000D03*
X153030000Y-136280000D03*
X153030000Y-133740000D03*
X153030000Y-131200000D03*
X153030000Y-128660000D03*
X153030000Y-126120000D03*
X153030000Y-123580000D03*
X153030000Y-121040000D03*
D11*
X168270000Y-141350000D03*
D12*
X168270000Y-138810000D03*
X168270000Y-136270000D03*
X168270000Y-133730000D03*
X168270000Y-131190000D03*
X168270000Y-128650000D03*
X168270000Y-126110000D03*
X168270000Y-123570000D03*
X168270000Y-121030000D03*
M02*
