M48
METRIC,LZ
T1C1.600
T2C1.800
T3C3.600
T4C5.200
%
G90
G05
T1
X144882Y-162488
T2
X144882Y-157988
T3
X03556Y-1494
X05334Y-1494
X07112Y-1494
X0889Y-1494
X10668Y-1494
X12446Y-1494
X200031Y-0635
X200031Y-08128
X2002Y-02794
X2002Y-04572
X2002Y-09906
X2002Y-11684
T4
X039Y-039
X039Y-052
X039Y-065
X039Y-078
X039Y-091
X039Y-104
X052Y-039
X052Y-052
X052Y-065
X052Y-078363
X052Y-091
X052Y-104
X065Y-039
X065Y-052
X065Y-065
X065Y-078
X065Y-091
X065Y-104
X078Y-039
X078Y-052
X078Y-065
X078Y-078
X078Y-091
X078Y-104
X091Y-039
X091Y-052
X091Y-065
X091Y-078
X091Y-091
X091Y-104
X104Y-039
X104Y-052
X104Y-065
X104Y-078
X104Y-091
X104Y-104
T0
M30
