M48
METRIC,LZ
T1C0.400
T2C0.762
T3C1.000
T4C1.100
T5C1.650
T6C3.200
%
G90
G05
T1
X132371Y-143821
X132459Y-15045
T2
X0328Y-03705
X0328Y-050385
X0328Y-06372
X0328Y-077055
X0328Y-09039
X0328Y-103725
X0434Y-02645
X0434Y-039785
X0434Y-05312
X0434Y-066455
X0434Y-07979
X0434Y-093125
X046135Y-03705
X046135Y-050385
X046135Y-06372
X046135Y-077055
X046135Y-09039
X046135Y-103725
X056735Y-02645
X056735Y-039785
X056735Y-05312
X056735Y-066455
X056735Y-07979
X056735Y-093125
X05947Y-03705
X05947Y-050385
X05947Y-06372
X05947Y-077055
X05947Y-09039
X05947Y-103725
X07007Y-02645
X07007Y-039785
X07007Y-05312
X07007Y-066455
X07007Y-07979
X07007Y-093125
X072805Y-03705
X072805Y-050385
X072805Y-06372
X072805Y-077055
X072805Y-09039
X072805Y-103725
X083405Y-02645
X083405Y-039785
X083405Y-05312
X083405Y-066455
X083405Y-07979
X083405Y-093125
X08614Y-03705
X08614Y-050385
X08614Y-06372
X08614Y-077055
X08614Y-09039
X08614Y-103725
X09674Y-02645
X09674Y-039785
X09674Y-05312
X09674Y-066455
X09674Y-07979
X09674Y-093125
X099475Y-03705
X099475Y-050385
X099475Y-06372
X099475Y-077055
X099475Y-09039
X099475Y-103725
X110075Y-02645
X110075Y-039785
X110075Y-05312
X110075Y-066455
X110075Y-07979
X110075Y-093125
T3
X03394Y-1143
X03648Y-1143
X03902Y-1143
X047275Y-1143
X049815Y-1143
X052355Y-1143
X06061Y-1143
X06315Y-1143
X06569Y-1143
X073945Y-1143
X076485Y-1143
X079025Y-1143
X08728Y-11415
X08982Y-11415
X09236Y-11415
X100615Y-1143
X103155Y-1143
X105695Y-1143
X153035Y-118491
X153035Y-121031
X153035Y-123571
X153035Y-126111
X153035Y-128651
X153035Y-131191
X153035Y-133731
X153035Y-136271
X153035Y-138811
X153035Y-141351
X153035Y-143891
X153035Y-146431
X153035Y-148971
X153035Y-151511
X155575Y-118491
X158115Y-118491
X160655Y-118491
X163195Y-118491
X165735Y-118491
X165735Y-138811
X165735Y-141351
X165735Y-143891
X168275Y-118491
X168275Y-121031
X168275Y-123571
X168275Y-126111
X168275Y-128651
X168275Y-131191
X168275Y-133731
X168275Y-136271
X168275Y-138811
X168275Y-141351
X168275Y-143891
X168275Y-146431
X168275Y-148971
X168275Y-151511
X1713Y-07112
X1713Y-07366
X1713Y-0762
X1713Y-08636
X1713Y-0889
X1713Y-09144
X17145Y-0254
X17145Y-02794
X17145Y-03048
X17145Y-04064
X17145Y-04318
X17145Y-04572
X17145Y-05588
X17145Y-05842
X17145Y-06096
X17145Y-1016
X17145Y-10414
X17145Y-10668
X18276Y-12742
X18276Y-12996
X18276Y-1325
X18276Y-13504
X18276Y-13758
X18276Y-14012
X1853Y-12742
X1853Y-12996
X1853Y-1325
X1853Y-13504
X1853Y-13758
X1853Y-14012
T4
X12446Y-02794
X12446Y-0381
X12446Y-04318
X12446Y-05334
X12446Y-05842
X12446Y-06858
X12446Y-07366
X12446Y-08382
X12446Y-0889
X12446Y-09906
X12446Y-10414
X12446Y-1143
X13208Y-02794
X13208Y-0381
X13208Y-04318
X13208Y-05334
X13208Y-05842
X13208Y-06858
X13208Y-07366
X13208Y-08382
X13208Y-0889
X13208Y-09906
X13208Y-10414
X13208Y-1143
X1397Y-02794
X1397Y-0381
X1397Y-04318
X1397Y-05334
X1397Y-05842
X1397Y-06858
X1397Y-07366
X1397Y-08382
X1397Y-0889
X1397Y-09906
X1397Y-10414
X1397Y-1143
X14732Y-02794
X14732Y-0381
X14732Y-04318
X14732Y-05334
X14732Y-05842
X14732Y-06858
X14732Y-07366
X14732Y-08382
X14732Y-0889
X14732Y-09906
X14732Y-10414
X14732Y-1143
X15494Y-02794
X15494Y-0381
X15494Y-04318
X15494Y-05334
X15494Y-05842
X15494Y-06858
X15494Y-07366
X15494Y-08382
X15494Y-0889
X15494Y-09906
X15494Y-10414
X15494Y-1143
X16256Y-02794
X16256Y-0381
X16256Y-04318
X16256Y-05334
X16256Y-05842
X16256Y-06858
X16256Y-07366
X16256Y-08382
X16256Y-0889
X16256Y-09906
X16256Y-10414
X16256Y-1143
T5
X140716Y-123444
X140716Y-128044
T6
X029Y-019
X029Y-151
X191Y-019
X191Y-151
T0
M30
