G04 #@! TF.FileFunction,Legend,Bot*
%FSLAX46Y46*%
G04 Gerber Fmt 4.6, Leading zero omitted, Abs format (unit mm)*
G04 Created by KiCad (PCBNEW 4.0.6) date 04/26/18 13:40:25*
%MOMM*%
%LPD*%
G01*
G04 APERTURE LIST*
%ADD10C,0.100000*%
%ADD11C,0.120000*%
%ADD12C,0.152400*%
%ADD13C,0.150000*%
%ADD14C,0.125000*%
G04 APERTURE END LIST*
D10*
D11*
X123050000Y-30360000D02*
X125870000Y-30360000D01*
X125870000Y-30360000D02*
X125870000Y-35680000D01*
X125870000Y-35680000D02*
X123050000Y-35680000D01*
X123050000Y-35680000D02*
X123050000Y-30360000D01*
X124460000Y-29220000D02*
X124460000Y-30360000D01*
X124460000Y-36820000D02*
X124460000Y-35680000D01*
X123050000Y-31200000D02*
X125870000Y-31200000D01*
X130670000Y-30360000D02*
X133490000Y-30360000D01*
X133490000Y-30360000D02*
X133490000Y-35680000D01*
X133490000Y-35680000D02*
X130670000Y-35680000D01*
X130670000Y-35680000D02*
X130670000Y-30360000D01*
X132080000Y-29220000D02*
X132080000Y-30360000D01*
X132080000Y-36820000D02*
X132080000Y-35680000D01*
X130670000Y-31200000D02*
X133490000Y-31200000D01*
X138290000Y-30360000D02*
X141110000Y-30360000D01*
X141110000Y-30360000D02*
X141110000Y-35680000D01*
X141110000Y-35680000D02*
X138290000Y-35680000D01*
X138290000Y-35680000D02*
X138290000Y-30360000D01*
X139700000Y-29220000D02*
X139700000Y-30360000D01*
X139700000Y-36820000D02*
X139700000Y-35680000D01*
X138290000Y-31200000D02*
X141110000Y-31200000D01*
X145910000Y-30360000D02*
X148730000Y-30360000D01*
X148730000Y-30360000D02*
X148730000Y-35680000D01*
X148730000Y-35680000D02*
X145910000Y-35680000D01*
X145910000Y-35680000D02*
X145910000Y-30360000D01*
X147320000Y-29220000D02*
X147320000Y-30360000D01*
X147320000Y-36820000D02*
X147320000Y-35680000D01*
X145910000Y-31200000D02*
X148730000Y-31200000D01*
X153530000Y-30360000D02*
X156350000Y-30360000D01*
X156350000Y-30360000D02*
X156350000Y-35680000D01*
X156350000Y-35680000D02*
X153530000Y-35680000D01*
X153530000Y-35680000D02*
X153530000Y-30360000D01*
X154940000Y-29220000D02*
X154940000Y-30360000D01*
X154940000Y-36820000D02*
X154940000Y-35680000D01*
X153530000Y-31200000D02*
X156350000Y-31200000D01*
X161150000Y-30360000D02*
X163970000Y-30360000D01*
X163970000Y-30360000D02*
X163970000Y-35680000D01*
X163970000Y-35680000D02*
X161150000Y-35680000D01*
X161150000Y-35680000D02*
X161150000Y-30360000D01*
X162560000Y-29220000D02*
X162560000Y-30360000D01*
X162560000Y-36820000D02*
X162560000Y-35680000D01*
X161150000Y-31200000D02*
X163970000Y-31200000D01*
X123050000Y-45600000D02*
X125870000Y-45600000D01*
X125870000Y-45600000D02*
X125870000Y-50920000D01*
X125870000Y-50920000D02*
X123050000Y-50920000D01*
X123050000Y-50920000D02*
X123050000Y-45600000D01*
X124460000Y-44460000D02*
X124460000Y-45600000D01*
X124460000Y-52060000D02*
X124460000Y-50920000D01*
X123050000Y-46440000D02*
X125870000Y-46440000D01*
X130670000Y-45600000D02*
X133490000Y-45600000D01*
X133490000Y-45600000D02*
X133490000Y-50920000D01*
X133490000Y-50920000D02*
X130670000Y-50920000D01*
X130670000Y-50920000D02*
X130670000Y-45600000D01*
X132080000Y-44460000D02*
X132080000Y-45600000D01*
X132080000Y-52060000D02*
X132080000Y-50920000D01*
X130670000Y-46440000D02*
X133490000Y-46440000D01*
X138290000Y-45600000D02*
X141110000Y-45600000D01*
X141110000Y-45600000D02*
X141110000Y-50920000D01*
X141110000Y-50920000D02*
X138290000Y-50920000D01*
X138290000Y-50920000D02*
X138290000Y-45600000D01*
X139700000Y-44460000D02*
X139700000Y-45600000D01*
X139700000Y-52060000D02*
X139700000Y-50920000D01*
X138290000Y-46440000D02*
X141110000Y-46440000D01*
X145910000Y-45600000D02*
X148730000Y-45600000D01*
X148730000Y-45600000D02*
X148730000Y-50920000D01*
X148730000Y-50920000D02*
X145910000Y-50920000D01*
X145910000Y-50920000D02*
X145910000Y-45600000D01*
X147320000Y-44460000D02*
X147320000Y-45600000D01*
X147320000Y-52060000D02*
X147320000Y-50920000D01*
X145910000Y-46440000D02*
X148730000Y-46440000D01*
X153530000Y-45600000D02*
X156350000Y-45600000D01*
X156350000Y-45600000D02*
X156350000Y-50920000D01*
X156350000Y-50920000D02*
X153530000Y-50920000D01*
X153530000Y-50920000D02*
X153530000Y-45600000D01*
X154940000Y-44460000D02*
X154940000Y-45600000D01*
X154940000Y-52060000D02*
X154940000Y-50920000D01*
X153530000Y-46440000D02*
X156350000Y-46440000D01*
X161150000Y-45600000D02*
X163970000Y-45600000D01*
X163970000Y-45600000D02*
X163970000Y-50920000D01*
X163970000Y-50920000D02*
X161150000Y-50920000D01*
X161150000Y-50920000D02*
X161150000Y-45600000D01*
X162560000Y-44460000D02*
X162560000Y-45600000D01*
X162560000Y-52060000D02*
X162560000Y-50920000D01*
X161150000Y-46440000D02*
X163970000Y-46440000D01*
X123050000Y-60840000D02*
X125870000Y-60840000D01*
X125870000Y-60840000D02*
X125870000Y-66160000D01*
X125870000Y-66160000D02*
X123050000Y-66160000D01*
X123050000Y-66160000D02*
X123050000Y-60840000D01*
X124460000Y-59700000D02*
X124460000Y-60840000D01*
X124460000Y-67300000D02*
X124460000Y-66160000D01*
X123050000Y-61680000D02*
X125870000Y-61680000D01*
X130670000Y-60840000D02*
X133490000Y-60840000D01*
X133490000Y-60840000D02*
X133490000Y-66160000D01*
X133490000Y-66160000D02*
X130670000Y-66160000D01*
X130670000Y-66160000D02*
X130670000Y-60840000D01*
X132080000Y-59700000D02*
X132080000Y-60840000D01*
X132080000Y-67300000D02*
X132080000Y-66160000D01*
X130670000Y-61680000D02*
X133490000Y-61680000D01*
X138290000Y-60840000D02*
X141110000Y-60840000D01*
X141110000Y-60840000D02*
X141110000Y-66160000D01*
X141110000Y-66160000D02*
X138290000Y-66160000D01*
X138290000Y-66160000D02*
X138290000Y-60840000D01*
X139700000Y-59700000D02*
X139700000Y-60840000D01*
X139700000Y-67300000D02*
X139700000Y-66160000D01*
X138290000Y-61680000D02*
X141110000Y-61680000D01*
X145910000Y-60840000D02*
X148730000Y-60840000D01*
X148730000Y-60840000D02*
X148730000Y-66160000D01*
X148730000Y-66160000D02*
X145910000Y-66160000D01*
X145910000Y-66160000D02*
X145910000Y-60840000D01*
X147320000Y-59700000D02*
X147320000Y-60840000D01*
X147320000Y-67300000D02*
X147320000Y-66160000D01*
X145910000Y-61680000D02*
X148730000Y-61680000D01*
X153530000Y-60840000D02*
X156350000Y-60840000D01*
X156350000Y-60840000D02*
X156350000Y-66160000D01*
X156350000Y-66160000D02*
X153530000Y-66160000D01*
X153530000Y-66160000D02*
X153530000Y-60840000D01*
X154940000Y-59700000D02*
X154940000Y-60840000D01*
X154940000Y-67300000D02*
X154940000Y-66160000D01*
X153530000Y-61680000D02*
X156350000Y-61680000D01*
X161150000Y-60840000D02*
X163970000Y-60840000D01*
X163970000Y-60840000D02*
X163970000Y-66160000D01*
X163970000Y-66160000D02*
X161150000Y-66160000D01*
X161150000Y-66160000D02*
X161150000Y-60840000D01*
X162560000Y-59700000D02*
X162560000Y-60840000D01*
X162560000Y-67300000D02*
X162560000Y-66160000D01*
X161150000Y-61680000D02*
X163970000Y-61680000D01*
X123050000Y-76080000D02*
X125870000Y-76080000D01*
X125870000Y-76080000D02*
X125870000Y-81400000D01*
X125870000Y-81400000D02*
X123050000Y-81400000D01*
X123050000Y-81400000D02*
X123050000Y-76080000D01*
X124460000Y-74940000D02*
X124460000Y-76080000D01*
X124460000Y-82540000D02*
X124460000Y-81400000D01*
X123050000Y-76920000D02*
X125870000Y-76920000D01*
X130670000Y-76080000D02*
X133490000Y-76080000D01*
X133490000Y-76080000D02*
X133490000Y-81400000D01*
X133490000Y-81400000D02*
X130670000Y-81400000D01*
X130670000Y-81400000D02*
X130670000Y-76080000D01*
X132080000Y-74940000D02*
X132080000Y-76080000D01*
X132080000Y-82540000D02*
X132080000Y-81400000D01*
X130670000Y-76920000D02*
X133490000Y-76920000D01*
X138290000Y-76080000D02*
X141110000Y-76080000D01*
X141110000Y-76080000D02*
X141110000Y-81400000D01*
X141110000Y-81400000D02*
X138290000Y-81400000D01*
X138290000Y-81400000D02*
X138290000Y-76080000D01*
X139700000Y-74940000D02*
X139700000Y-76080000D01*
X139700000Y-82540000D02*
X139700000Y-81400000D01*
X138290000Y-76920000D02*
X141110000Y-76920000D01*
X145910000Y-76080000D02*
X148730000Y-76080000D01*
X148730000Y-76080000D02*
X148730000Y-81400000D01*
X148730000Y-81400000D02*
X145910000Y-81400000D01*
X145910000Y-81400000D02*
X145910000Y-76080000D01*
X147320000Y-74940000D02*
X147320000Y-76080000D01*
X147320000Y-82540000D02*
X147320000Y-81400000D01*
X145910000Y-76920000D02*
X148730000Y-76920000D01*
X153530000Y-76080000D02*
X156350000Y-76080000D01*
X156350000Y-76080000D02*
X156350000Y-81400000D01*
X156350000Y-81400000D02*
X153530000Y-81400000D01*
X153530000Y-81400000D02*
X153530000Y-76080000D01*
X154940000Y-74940000D02*
X154940000Y-76080000D01*
X154940000Y-82540000D02*
X154940000Y-81400000D01*
X153530000Y-76920000D02*
X156350000Y-76920000D01*
X161150000Y-76080000D02*
X163970000Y-76080000D01*
X163970000Y-76080000D02*
X163970000Y-81400000D01*
X163970000Y-81400000D02*
X161150000Y-81400000D01*
X161150000Y-81400000D02*
X161150000Y-76080000D01*
X162560000Y-74940000D02*
X162560000Y-76080000D01*
X162560000Y-82540000D02*
X162560000Y-81400000D01*
X161150000Y-76920000D02*
X163970000Y-76920000D01*
X123050000Y-91320000D02*
X125870000Y-91320000D01*
X125870000Y-91320000D02*
X125870000Y-96640000D01*
X125870000Y-96640000D02*
X123050000Y-96640000D01*
X123050000Y-96640000D02*
X123050000Y-91320000D01*
X124460000Y-90180000D02*
X124460000Y-91320000D01*
X124460000Y-97780000D02*
X124460000Y-96640000D01*
X123050000Y-92160000D02*
X125870000Y-92160000D01*
X130670000Y-91320000D02*
X133490000Y-91320000D01*
X133490000Y-91320000D02*
X133490000Y-96640000D01*
X133490000Y-96640000D02*
X130670000Y-96640000D01*
X130670000Y-96640000D02*
X130670000Y-91320000D01*
X132080000Y-90180000D02*
X132080000Y-91320000D01*
X132080000Y-97780000D02*
X132080000Y-96640000D01*
X130670000Y-92160000D02*
X133490000Y-92160000D01*
X138290000Y-91320000D02*
X141110000Y-91320000D01*
X141110000Y-91320000D02*
X141110000Y-96640000D01*
X141110000Y-96640000D02*
X138290000Y-96640000D01*
X138290000Y-96640000D02*
X138290000Y-91320000D01*
X139700000Y-90180000D02*
X139700000Y-91320000D01*
X139700000Y-97780000D02*
X139700000Y-96640000D01*
X138290000Y-92160000D02*
X141110000Y-92160000D01*
X145910000Y-91320000D02*
X148730000Y-91320000D01*
X148730000Y-91320000D02*
X148730000Y-96640000D01*
X148730000Y-96640000D02*
X145910000Y-96640000D01*
X145910000Y-96640000D02*
X145910000Y-91320000D01*
X147320000Y-90180000D02*
X147320000Y-91320000D01*
X147320000Y-97780000D02*
X147320000Y-96640000D01*
X145910000Y-92160000D02*
X148730000Y-92160000D01*
X153530000Y-91320000D02*
X156350000Y-91320000D01*
X156350000Y-91320000D02*
X156350000Y-96640000D01*
X156350000Y-96640000D02*
X153530000Y-96640000D01*
X153530000Y-96640000D02*
X153530000Y-91320000D01*
X154940000Y-90180000D02*
X154940000Y-91320000D01*
X154940000Y-97780000D02*
X154940000Y-96640000D01*
X153530000Y-92160000D02*
X156350000Y-92160000D01*
X161150000Y-91320000D02*
X163970000Y-91320000D01*
X163970000Y-91320000D02*
X163970000Y-96640000D01*
X163970000Y-96640000D02*
X161150000Y-96640000D01*
X161150000Y-96640000D02*
X161150000Y-91320000D01*
X162560000Y-90180000D02*
X162560000Y-91320000D01*
X162560000Y-97780000D02*
X162560000Y-96640000D01*
X161150000Y-92160000D02*
X163970000Y-92160000D01*
X123050000Y-106560000D02*
X125870000Y-106560000D01*
X125870000Y-106560000D02*
X125870000Y-111880000D01*
X125870000Y-111880000D02*
X123050000Y-111880000D01*
X123050000Y-111880000D02*
X123050000Y-106560000D01*
X124460000Y-105420000D02*
X124460000Y-106560000D01*
X124460000Y-113020000D02*
X124460000Y-111880000D01*
X123050000Y-107400000D02*
X125870000Y-107400000D01*
X130670000Y-106560000D02*
X133490000Y-106560000D01*
X133490000Y-106560000D02*
X133490000Y-111880000D01*
X133490000Y-111880000D02*
X130670000Y-111880000D01*
X130670000Y-111880000D02*
X130670000Y-106560000D01*
X132080000Y-105420000D02*
X132080000Y-106560000D01*
X132080000Y-113020000D02*
X132080000Y-111880000D01*
X130670000Y-107400000D02*
X133490000Y-107400000D01*
X138290000Y-106560000D02*
X141110000Y-106560000D01*
X141110000Y-106560000D02*
X141110000Y-111880000D01*
X141110000Y-111880000D02*
X138290000Y-111880000D01*
X138290000Y-111880000D02*
X138290000Y-106560000D01*
X139700000Y-105420000D02*
X139700000Y-106560000D01*
X139700000Y-113020000D02*
X139700000Y-111880000D01*
X138290000Y-107400000D02*
X141110000Y-107400000D01*
X145910000Y-106560000D02*
X148730000Y-106560000D01*
X148730000Y-106560000D02*
X148730000Y-111880000D01*
X148730000Y-111880000D02*
X145910000Y-111880000D01*
X145910000Y-111880000D02*
X145910000Y-106560000D01*
X147320000Y-105420000D02*
X147320000Y-106560000D01*
X147320000Y-113020000D02*
X147320000Y-111880000D01*
X145910000Y-107400000D02*
X148730000Y-107400000D01*
X153530000Y-106560000D02*
X156350000Y-106560000D01*
X156350000Y-106560000D02*
X156350000Y-111880000D01*
X156350000Y-111880000D02*
X153530000Y-111880000D01*
X153530000Y-111880000D02*
X153530000Y-106560000D01*
X154940000Y-105420000D02*
X154940000Y-106560000D01*
X154940000Y-113020000D02*
X154940000Y-111880000D01*
X153530000Y-107400000D02*
X156350000Y-107400000D01*
X161150000Y-106560000D02*
X163970000Y-106560000D01*
X163970000Y-106560000D02*
X163970000Y-111880000D01*
X163970000Y-111880000D02*
X161150000Y-111880000D01*
X161150000Y-111880000D02*
X161150000Y-106560000D01*
X162560000Y-105420000D02*
X162560000Y-106560000D01*
X162560000Y-113020000D02*
X162560000Y-111880000D01*
X161150000Y-107400000D02*
X163970000Y-107400000D01*
D10*
X45446402Y-39000000D02*
G75*
G03X45446402Y-39000000I-6446402J0D01*
G01*
X58446402Y-39000000D02*
G75*
G03X58446402Y-39000000I-6446402J0D01*
G01*
X71446402Y-39000000D02*
G75*
G03X71446402Y-39000000I-6446402J0D01*
G01*
X84446402Y-39000000D02*
G75*
G03X84446402Y-39000000I-6446402J0D01*
G01*
X97446402Y-39000000D02*
G75*
G03X97446402Y-39000000I-6446402J0D01*
G01*
X110446402Y-39000000D02*
G75*
G03X110446402Y-39000000I-6446402J0D01*
G01*
X45446402Y-52000000D02*
G75*
G03X45446402Y-52000000I-6446402J0D01*
G01*
X58446402Y-52000000D02*
G75*
G03X58446402Y-52000000I-6446402J0D01*
G01*
X71446402Y-52000000D02*
G75*
G03X71446402Y-52000000I-6446402J0D01*
G01*
X84446402Y-52000000D02*
G75*
G03X84446402Y-52000000I-6446402J0D01*
G01*
X97446402Y-52000000D02*
G75*
G03X97446402Y-52000000I-6446402J0D01*
G01*
X110446402Y-52000000D02*
G75*
G03X110446402Y-52000000I-6446402J0D01*
G01*
X45446402Y-65000000D02*
G75*
G03X45446402Y-65000000I-6446402J0D01*
G01*
X58446402Y-65000000D02*
G75*
G03X58446402Y-65000000I-6446402J0D01*
G01*
X71446402Y-65000000D02*
G75*
G03X71446402Y-65000000I-6446402J0D01*
G01*
X84446402Y-65000000D02*
G75*
G03X84446402Y-65000000I-6446402J0D01*
G01*
X97446402Y-65000000D02*
G75*
G03X97446402Y-65000000I-6446402J0D01*
G01*
X110446402Y-65000000D02*
G75*
G03X110446402Y-65000000I-6446402J0D01*
G01*
X45446402Y-78000000D02*
G75*
G03X45446402Y-78000000I-6446402J0D01*
G01*
X58446402Y-78362999D02*
G75*
G03X58446402Y-78362999I-6446402J0D01*
G01*
X71446402Y-78000000D02*
G75*
G03X71446402Y-78000000I-6446402J0D01*
G01*
X84446402Y-78000000D02*
G75*
G03X84446402Y-78000000I-6446402J0D01*
G01*
X97446402Y-78000000D02*
G75*
G03X97446402Y-78000000I-6446402J0D01*
G01*
X110446402Y-78000000D02*
G75*
G03X110446402Y-78000000I-6446402J0D01*
G01*
X45446402Y-91000000D02*
G75*
G03X45446402Y-91000000I-6446402J0D01*
G01*
X58446402Y-91000000D02*
G75*
G03X58446402Y-91000000I-6446402J0D01*
G01*
X71446402Y-91000000D02*
G75*
G03X71446402Y-91000000I-6446402J0D01*
G01*
X84446402Y-91000000D02*
G75*
G03X84446402Y-91000000I-6446402J0D01*
G01*
X97446402Y-91000000D02*
G75*
G03X97446402Y-91000000I-6446402J0D01*
G01*
X110446402Y-91000000D02*
G75*
G03X110446402Y-91000000I-6446402J0D01*
G01*
X45446402Y-104000000D02*
G75*
G03X45446402Y-104000000I-6446402J0D01*
G01*
X58446402Y-104000000D02*
G75*
G03X58446402Y-104000000I-6446402J0D01*
G01*
X71446402Y-104000000D02*
G75*
G03X71446402Y-104000000I-6446402J0D01*
G01*
X84446402Y-104000000D02*
G75*
G03X84446402Y-104000000I-6446402J0D01*
G01*
X97446402Y-104000000D02*
G75*
G03X97446402Y-104000000I-6446402J0D01*
G01*
X110446402Y-104000000D02*
G75*
G03X110446402Y-104000000I-6446402J0D01*
G01*
D12*
X141381600Y-167488000D02*
G75*
G02X140381600Y-166488000I0J1000000D01*
G01*
X149381600Y-166488000D02*
G75*
G02X148381600Y-167488000I-1000000J0D01*
G01*
X149381600Y-166488000D02*
X149381600Y-153488000D01*
X149381600Y-153488000D02*
X143381600Y-153488000D01*
X143381600Y-153488000D02*
X143381600Y-152238000D01*
X143381600Y-152238000D02*
X140381600Y-152238000D01*
X140381600Y-152238000D02*
X140381600Y-166688000D01*
X141381600Y-167488000D02*
X148381600Y-167488000D01*
D11*
X205680000Y-140275000D02*
X210880000Y-140275000D01*
X205680000Y-153035000D02*
X205680000Y-140275000D01*
X210880000Y-155635000D02*
X210880000Y-140275000D01*
X205680000Y-153035000D02*
X208280000Y-153035000D01*
X208280000Y-153035000D02*
X208280000Y-155635000D01*
X208280000Y-155635000D02*
X210880000Y-155635000D01*
X205680000Y-154305000D02*
X205680000Y-155635000D01*
X205680000Y-155635000D02*
X207010000Y-155635000D01*
X185300000Y-36010000D02*
X185300000Y-19870000D01*
X206490000Y-36010000D02*
X206490000Y-19870000D01*
X206490000Y-36010000D02*
X185300000Y-36010000D01*
X206490000Y-19870000D02*
X185300000Y-19870000D01*
X185300000Y-33390000D02*
X182740000Y-33390000D01*
X185300000Y-27940000D02*
X182740000Y-27940000D01*
X185300000Y-22490000D02*
X182740000Y-22490000D01*
X185300000Y-53790000D02*
X185300000Y-37650000D01*
X206490000Y-53790000D02*
X206490000Y-37650000D01*
X206490000Y-53790000D02*
X185300000Y-53790000D01*
X206490000Y-37650000D02*
X185300000Y-37650000D01*
X185300000Y-51170000D02*
X182740000Y-51170000D01*
X185300000Y-45720000D02*
X182740000Y-45720000D01*
X185300000Y-40270000D02*
X182740000Y-40270000D01*
X185131100Y-71570000D02*
X185131100Y-55430000D01*
X206321100Y-71570000D02*
X206321100Y-55430000D01*
X206321100Y-71570000D02*
X185131100Y-71570000D01*
X206321100Y-55430000D02*
X185131100Y-55430000D01*
X185131100Y-68950000D02*
X182571100Y-68950000D01*
X185131100Y-63500000D02*
X182571100Y-63500000D01*
X185131100Y-58050000D02*
X182571100Y-58050000D01*
X185131100Y-89350000D02*
X185131100Y-73210000D01*
X206321100Y-89350000D02*
X206321100Y-73210000D01*
X206321100Y-89350000D02*
X185131100Y-89350000D01*
X206321100Y-73210000D02*
X185131100Y-73210000D01*
X185131100Y-86730000D02*
X182571100Y-86730000D01*
X185131100Y-81280000D02*
X182571100Y-81280000D01*
X185131100Y-75830000D02*
X182571100Y-75830000D01*
X185300000Y-107130000D02*
X185300000Y-90990000D01*
X206490000Y-107130000D02*
X206490000Y-90990000D01*
X206490000Y-107130000D02*
X185300000Y-107130000D01*
X206490000Y-90990000D02*
X185300000Y-90990000D01*
X185300000Y-104510000D02*
X182740000Y-104510000D01*
X185300000Y-99060000D02*
X182740000Y-99060000D01*
X185300000Y-93610000D02*
X182740000Y-93610000D01*
X185300000Y-124910000D02*
X185300000Y-108770000D01*
X206490000Y-124910000D02*
X206490000Y-108770000D01*
X206490000Y-124910000D02*
X185300000Y-124910000D01*
X206490000Y-108770000D02*
X185300000Y-108770000D01*
X185300000Y-122290000D02*
X182740000Y-122290000D01*
X185300000Y-116840000D02*
X182740000Y-116840000D01*
X185300000Y-111390000D02*
X182740000Y-111390000D01*
X27490000Y-134500000D02*
X43630000Y-134500000D01*
X27490000Y-155690000D02*
X43630000Y-155690000D01*
X27490000Y-155690000D02*
X27490000Y-134500000D01*
X43630000Y-155690000D02*
X43630000Y-134500000D01*
X30110000Y-134500000D02*
X30110000Y-131940000D01*
X35560000Y-134500000D02*
X35560000Y-131940000D01*
X41010000Y-134500000D02*
X41010000Y-131940000D01*
X45270000Y-134500000D02*
X61410000Y-134500000D01*
X45270000Y-155690000D02*
X61410000Y-155690000D01*
X45270000Y-155690000D02*
X45270000Y-134500000D01*
X61410000Y-155690000D02*
X61410000Y-134500000D01*
X47890000Y-134500000D02*
X47890000Y-131940000D01*
X53340000Y-134500000D02*
X53340000Y-131940000D01*
X58790000Y-134500000D02*
X58790000Y-131940000D01*
X63050000Y-134500000D02*
X79190000Y-134500000D01*
X63050000Y-155690000D02*
X79190000Y-155690000D01*
X63050000Y-155690000D02*
X63050000Y-134500000D01*
X79190000Y-155690000D02*
X79190000Y-134500000D01*
X65670000Y-134500000D02*
X65670000Y-131940000D01*
X71120000Y-134500000D02*
X71120000Y-131940000D01*
X76570000Y-134500000D02*
X76570000Y-131940000D01*
X80830000Y-134500000D02*
X96970000Y-134500000D01*
X80830000Y-155690000D02*
X96970000Y-155690000D01*
X80830000Y-155690000D02*
X80830000Y-134500000D01*
X96970000Y-155690000D02*
X96970000Y-134500000D01*
X83450000Y-134500000D02*
X83450000Y-131940000D01*
X88900000Y-134500000D02*
X88900000Y-131940000D01*
X94350000Y-134500000D02*
X94350000Y-131940000D01*
X98610000Y-134500000D02*
X114750000Y-134500000D01*
X98610000Y-155690000D02*
X114750000Y-155690000D01*
X98610000Y-155690000D02*
X98610000Y-134500000D01*
X114750000Y-155690000D02*
X114750000Y-134500000D01*
X101230000Y-134500000D02*
X101230000Y-131940000D01*
X106680000Y-134500000D02*
X106680000Y-131940000D01*
X112130000Y-134500000D02*
X112130000Y-131940000D01*
X116390000Y-134500000D02*
X132530000Y-134500000D01*
X116390000Y-155690000D02*
X132530000Y-155690000D01*
X116390000Y-155690000D02*
X116390000Y-134500000D01*
X132530000Y-155690000D02*
X132530000Y-134500000D01*
X119010000Y-134500000D02*
X119010000Y-131940000D01*
X124460000Y-134500000D02*
X124460000Y-131940000D01*
X129910000Y-134500000D02*
X129910000Y-131940000D01*
D13*
X122502381Y-32281905D02*
X121502381Y-32281905D01*
X121502381Y-32520000D01*
X121550000Y-32662858D01*
X121645238Y-32758096D01*
X121740476Y-32805715D01*
X121930952Y-32853334D01*
X122073810Y-32853334D01*
X122264286Y-32805715D01*
X122359524Y-32758096D01*
X122454762Y-32662858D01*
X122502381Y-32520000D01*
X122502381Y-32281905D01*
X122502381Y-33805715D02*
X122502381Y-33234286D01*
X122502381Y-33520000D02*
X121502381Y-33520000D01*
X121645238Y-33424762D01*
X121740476Y-33329524D01*
X121788095Y-33234286D01*
X130122381Y-32281905D02*
X129122381Y-32281905D01*
X129122381Y-32520000D01*
X129170000Y-32662858D01*
X129265238Y-32758096D01*
X129360476Y-32805715D01*
X129550952Y-32853334D01*
X129693810Y-32853334D01*
X129884286Y-32805715D01*
X129979524Y-32758096D01*
X130074762Y-32662858D01*
X130122381Y-32520000D01*
X130122381Y-32281905D01*
X129217619Y-33234286D02*
X129170000Y-33281905D01*
X129122381Y-33377143D01*
X129122381Y-33615239D01*
X129170000Y-33710477D01*
X129217619Y-33758096D01*
X129312857Y-33805715D01*
X129408095Y-33805715D01*
X129550952Y-33758096D01*
X130122381Y-33186667D01*
X130122381Y-33805715D01*
X137742381Y-32281905D02*
X136742381Y-32281905D01*
X136742381Y-32520000D01*
X136790000Y-32662858D01*
X136885238Y-32758096D01*
X136980476Y-32805715D01*
X137170952Y-32853334D01*
X137313810Y-32853334D01*
X137504286Y-32805715D01*
X137599524Y-32758096D01*
X137694762Y-32662858D01*
X137742381Y-32520000D01*
X137742381Y-32281905D01*
X136742381Y-33186667D02*
X136742381Y-33805715D01*
X137123333Y-33472381D01*
X137123333Y-33615239D01*
X137170952Y-33710477D01*
X137218571Y-33758096D01*
X137313810Y-33805715D01*
X137551905Y-33805715D01*
X137647143Y-33758096D01*
X137694762Y-33710477D01*
X137742381Y-33615239D01*
X137742381Y-33329524D01*
X137694762Y-33234286D01*
X137647143Y-33186667D01*
X145362381Y-32281905D02*
X144362381Y-32281905D01*
X144362381Y-32520000D01*
X144410000Y-32662858D01*
X144505238Y-32758096D01*
X144600476Y-32805715D01*
X144790952Y-32853334D01*
X144933810Y-32853334D01*
X145124286Y-32805715D01*
X145219524Y-32758096D01*
X145314762Y-32662858D01*
X145362381Y-32520000D01*
X145362381Y-32281905D01*
X144695714Y-33710477D02*
X145362381Y-33710477D01*
X144314762Y-33472381D02*
X145029048Y-33234286D01*
X145029048Y-33853334D01*
X152982381Y-32281905D02*
X151982381Y-32281905D01*
X151982381Y-32520000D01*
X152030000Y-32662858D01*
X152125238Y-32758096D01*
X152220476Y-32805715D01*
X152410952Y-32853334D01*
X152553810Y-32853334D01*
X152744286Y-32805715D01*
X152839524Y-32758096D01*
X152934762Y-32662858D01*
X152982381Y-32520000D01*
X152982381Y-32281905D01*
X151982381Y-33758096D02*
X151982381Y-33281905D01*
X152458571Y-33234286D01*
X152410952Y-33281905D01*
X152363333Y-33377143D01*
X152363333Y-33615239D01*
X152410952Y-33710477D01*
X152458571Y-33758096D01*
X152553810Y-33805715D01*
X152791905Y-33805715D01*
X152887143Y-33758096D01*
X152934762Y-33710477D01*
X152982381Y-33615239D01*
X152982381Y-33377143D01*
X152934762Y-33281905D01*
X152887143Y-33234286D01*
X160602381Y-32281905D02*
X159602381Y-32281905D01*
X159602381Y-32520000D01*
X159650000Y-32662858D01*
X159745238Y-32758096D01*
X159840476Y-32805715D01*
X160030952Y-32853334D01*
X160173810Y-32853334D01*
X160364286Y-32805715D01*
X160459524Y-32758096D01*
X160554762Y-32662858D01*
X160602381Y-32520000D01*
X160602381Y-32281905D01*
X159602381Y-33710477D02*
X159602381Y-33520000D01*
X159650000Y-33424762D01*
X159697619Y-33377143D01*
X159840476Y-33281905D01*
X160030952Y-33234286D01*
X160411905Y-33234286D01*
X160507143Y-33281905D01*
X160554762Y-33329524D01*
X160602381Y-33424762D01*
X160602381Y-33615239D01*
X160554762Y-33710477D01*
X160507143Y-33758096D01*
X160411905Y-33805715D01*
X160173810Y-33805715D01*
X160078571Y-33758096D01*
X160030952Y-33710477D01*
X159983333Y-33615239D01*
X159983333Y-33424762D01*
X160030952Y-33329524D01*
X160078571Y-33281905D01*
X160173810Y-33234286D01*
X122502381Y-47521905D02*
X121502381Y-47521905D01*
X121502381Y-47760000D01*
X121550000Y-47902858D01*
X121645238Y-47998096D01*
X121740476Y-48045715D01*
X121930952Y-48093334D01*
X122073810Y-48093334D01*
X122264286Y-48045715D01*
X122359524Y-47998096D01*
X122454762Y-47902858D01*
X122502381Y-47760000D01*
X122502381Y-47521905D01*
X121502381Y-48426667D02*
X121502381Y-49093334D01*
X122502381Y-48664762D01*
X130122381Y-47521905D02*
X129122381Y-47521905D01*
X129122381Y-47760000D01*
X129170000Y-47902858D01*
X129265238Y-47998096D01*
X129360476Y-48045715D01*
X129550952Y-48093334D01*
X129693810Y-48093334D01*
X129884286Y-48045715D01*
X129979524Y-47998096D01*
X130074762Y-47902858D01*
X130122381Y-47760000D01*
X130122381Y-47521905D01*
X129550952Y-48664762D02*
X129503333Y-48569524D01*
X129455714Y-48521905D01*
X129360476Y-48474286D01*
X129312857Y-48474286D01*
X129217619Y-48521905D01*
X129170000Y-48569524D01*
X129122381Y-48664762D01*
X129122381Y-48855239D01*
X129170000Y-48950477D01*
X129217619Y-48998096D01*
X129312857Y-49045715D01*
X129360476Y-49045715D01*
X129455714Y-48998096D01*
X129503333Y-48950477D01*
X129550952Y-48855239D01*
X129550952Y-48664762D01*
X129598571Y-48569524D01*
X129646190Y-48521905D01*
X129741429Y-48474286D01*
X129931905Y-48474286D01*
X130027143Y-48521905D01*
X130074762Y-48569524D01*
X130122381Y-48664762D01*
X130122381Y-48855239D01*
X130074762Y-48950477D01*
X130027143Y-48998096D01*
X129931905Y-49045715D01*
X129741429Y-49045715D01*
X129646190Y-48998096D01*
X129598571Y-48950477D01*
X129550952Y-48855239D01*
X137742381Y-47521905D02*
X136742381Y-47521905D01*
X136742381Y-47760000D01*
X136790000Y-47902858D01*
X136885238Y-47998096D01*
X136980476Y-48045715D01*
X137170952Y-48093334D01*
X137313810Y-48093334D01*
X137504286Y-48045715D01*
X137599524Y-47998096D01*
X137694762Y-47902858D01*
X137742381Y-47760000D01*
X137742381Y-47521905D01*
X137742381Y-48569524D02*
X137742381Y-48760000D01*
X137694762Y-48855239D01*
X137647143Y-48902858D01*
X137504286Y-48998096D01*
X137313810Y-49045715D01*
X136932857Y-49045715D01*
X136837619Y-48998096D01*
X136790000Y-48950477D01*
X136742381Y-48855239D01*
X136742381Y-48664762D01*
X136790000Y-48569524D01*
X136837619Y-48521905D01*
X136932857Y-48474286D01*
X137170952Y-48474286D01*
X137266190Y-48521905D01*
X137313810Y-48569524D01*
X137361429Y-48664762D01*
X137361429Y-48855239D01*
X137313810Y-48950477D01*
X137266190Y-48998096D01*
X137170952Y-49045715D01*
X145362381Y-47045714D02*
X144362381Y-47045714D01*
X144362381Y-47283809D01*
X144410000Y-47426667D01*
X144505238Y-47521905D01*
X144600476Y-47569524D01*
X144790952Y-47617143D01*
X144933810Y-47617143D01*
X145124286Y-47569524D01*
X145219524Y-47521905D01*
X145314762Y-47426667D01*
X145362381Y-47283809D01*
X145362381Y-47045714D01*
X145362381Y-48569524D02*
X145362381Y-47998095D01*
X145362381Y-48283809D02*
X144362381Y-48283809D01*
X144505238Y-48188571D01*
X144600476Y-48093333D01*
X144648095Y-47998095D01*
X144362381Y-49188571D02*
X144362381Y-49283810D01*
X144410000Y-49379048D01*
X144457619Y-49426667D01*
X144552857Y-49474286D01*
X144743333Y-49521905D01*
X144981429Y-49521905D01*
X145171905Y-49474286D01*
X145267143Y-49426667D01*
X145314762Y-49379048D01*
X145362381Y-49283810D01*
X145362381Y-49188571D01*
X145314762Y-49093333D01*
X145267143Y-49045714D01*
X145171905Y-48998095D01*
X144981429Y-48950476D01*
X144743333Y-48950476D01*
X144552857Y-48998095D01*
X144457619Y-49045714D01*
X144410000Y-49093333D01*
X144362381Y-49188571D01*
X152982381Y-47045714D02*
X151982381Y-47045714D01*
X151982381Y-47283809D01*
X152030000Y-47426667D01*
X152125238Y-47521905D01*
X152220476Y-47569524D01*
X152410952Y-47617143D01*
X152553810Y-47617143D01*
X152744286Y-47569524D01*
X152839524Y-47521905D01*
X152934762Y-47426667D01*
X152982381Y-47283809D01*
X152982381Y-47045714D01*
X152982381Y-48569524D02*
X152982381Y-47998095D01*
X152982381Y-48283809D02*
X151982381Y-48283809D01*
X152125238Y-48188571D01*
X152220476Y-48093333D01*
X152268095Y-47998095D01*
X152982381Y-49521905D02*
X152982381Y-48950476D01*
X152982381Y-49236190D02*
X151982381Y-49236190D01*
X152125238Y-49140952D01*
X152220476Y-49045714D01*
X152268095Y-48950476D01*
X160602381Y-47045714D02*
X159602381Y-47045714D01*
X159602381Y-47283809D01*
X159650000Y-47426667D01*
X159745238Y-47521905D01*
X159840476Y-47569524D01*
X160030952Y-47617143D01*
X160173810Y-47617143D01*
X160364286Y-47569524D01*
X160459524Y-47521905D01*
X160554762Y-47426667D01*
X160602381Y-47283809D01*
X160602381Y-47045714D01*
X160602381Y-48569524D02*
X160602381Y-47998095D01*
X160602381Y-48283809D02*
X159602381Y-48283809D01*
X159745238Y-48188571D01*
X159840476Y-48093333D01*
X159888095Y-47998095D01*
X159697619Y-48950476D02*
X159650000Y-48998095D01*
X159602381Y-49093333D01*
X159602381Y-49331429D01*
X159650000Y-49426667D01*
X159697619Y-49474286D01*
X159792857Y-49521905D01*
X159888095Y-49521905D01*
X160030952Y-49474286D01*
X160602381Y-48902857D01*
X160602381Y-49521905D01*
X122502381Y-62285714D02*
X121502381Y-62285714D01*
X121502381Y-62523809D01*
X121550000Y-62666667D01*
X121645238Y-62761905D01*
X121740476Y-62809524D01*
X121930952Y-62857143D01*
X122073810Y-62857143D01*
X122264286Y-62809524D01*
X122359524Y-62761905D01*
X122454762Y-62666667D01*
X122502381Y-62523809D01*
X122502381Y-62285714D01*
X122502381Y-63809524D02*
X122502381Y-63238095D01*
X122502381Y-63523809D02*
X121502381Y-63523809D01*
X121645238Y-63428571D01*
X121740476Y-63333333D01*
X121788095Y-63238095D01*
X121502381Y-64142857D02*
X121502381Y-64761905D01*
X121883333Y-64428571D01*
X121883333Y-64571429D01*
X121930952Y-64666667D01*
X121978571Y-64714286D01*
X122073810Y-64761905D01*
X122311905Y-64761905D01*
X122407143Y-64714286D01*
X122454762Y-64666667D01*
X122502381Y-64571429D01*
X122502381Y-64285714D01*
X122454762Y-64190476D01*
X122407143Y-64142857D01*
X130122381Y-62285714D02*
X129122381Y-62285714D01*
X129122381Y-62523809D01*
X129170000Y-62666667D01*
X129265238Y-62761905D01*
X129360476Y-62809524D01*
X129550952Y-62857143D01*
X129693810Y-62857143D01*
X129884286Y-62809524D01*
X129979524Y-62761905D01*
X130074762Y-62666667D01*
X130122381Y-62523809D01*
X130122381Y-62285714D01*
X130122381Y-63809524D02*
X130122381Y-63238095D01*
X130122381Y-63523809D02*
X129122381Y-63523809D01*
X129265238Y-63428571D01*
X129360476Y-63333333D01*
X129408095Y-63238095D01*
X129455714Y-64666667D02*
X130122381Y-64666667D01*
X129074762Y-64428571D02*
X129789048Y-64190476D01*
X129789048Y-64809524D01*
X137742381Y-62285714D02*
X136742381Y-62285714D01*
X136742381Y-62523809D01*
X136790000Y-62666667D01*
X136885238Y-62761905D01*
X136980476Y-62809524D01*
X137170952Y-62857143D01*
X137313810Y-62857143D01*
X137504286Y-62809524D01*
X137599524Y-62761905D01*
X137694762Y-62666667D01*
X137742381Y-62523809D01*
X137742381Y-62285714D01*
X137742381Y-63809524D02*
X137742381Y-63238095D01*
X137742381Y-63523809D02*
X136742381Y-63523809D01*
X136885238Y-63428571D01*
X136980476Y-63333333D01*
X137028095Y-63238095D01*
X136742381Y-64714286D02*
X136742381Y-64238095D01*
X137218571Y-64190476D01*
X137170952Y-64238095D01*
X137123333Y-64333333D01*
X137123333Y-64571429D01*
X137170952Y-64666667D01*
X137218571Y-64714286D01*
X137313810Y-64761905D01*
X137551905Y-64761905D01*
X137647143Y-64714286D01*
X137694762Y-64666667D01*
X137742381Y-64571429D01*
X137742381Y-64333333D01*
X137694762Y-64238095D01*
X137647143Y-64190476D01*
X145362381Y-62285714D02*
X144362381Y-62285714D01*
X144362381Y-62523809D01*
X144410000Y-62666667D01*
X144505238Y-62761905D01*
X144600476Y-62809524D01*
X144790952Y-62857143D01*
X144933810Y-62857143D01*
X145124286Y-62809524D01*
X145219524Y-62761905D01*
X145314762Y-62666667D01*
X145362381Y-62523809D01*
X145362381Y-62285714D01*
X145362381Y-63809524D02*
X145362381Y-63238095D01*
X145362381Y-63523809D02*
X144362381Y-63523809D01*
X144505238Y-63428571D01*
X144600476Y-63333333D01*
X144648095Y-63238095D01*
X144362381Y-64666667D02*
X144362381Y-64476190D01*
X144410000Y-64380952D01*
X144457619Y-64333333D01*
X144600476Y-64238095D01*
X144790952Y-64190476D01*
X145171905Y-64190476D01*
X145267143Y-64238095D01*
X145314762Y-64285714D01*
X145362381Y-64380952D01*
X145362381Y-64571429D01*
X145314762Y-64666667D01*
X145267143Y-64714286D01*
X145171905Y-64761905D01*
X144933810Y-64761905D01*
X144838571Y-64714286D01*
X144790952Y-64666667D01*
X144743333Y-64571429D01*
X144743333Y-64380952D01*
X144790952Y-64285714D01*
X144838571Y-64238095D01*
X144933810Y-64190476D01*
X152982381Y-62285714D02*
X151982381Y-62285714D01*
X151982381Y-62523809D01*
X152030000Y-62666667D01*
X152125238Y-62761905D01*
X152220476Y-62809524D01*
X152410952Y-62857143D01*
X152553810Y-62857143D01*
X152744286Y-62809524D01*
X152839524Y-62761905D01*
X152934762Y-62666667D01*
X152982381Y-62523809D01*
X152982381Y-62285714D01*
X152982381Y-63809524D02*
X152982381Y-63238095D01*
X152982381Y-63523809D02*
X151982381Y-63523809D01*
X152125238Y-63428571D01*
X152220476Y-63333333D01*
X152268095Y-63238095D01*
X151982381Y-64142857D02*
X151982381Y-64809524D01*
X152982381Y-64380952D01*
X160602381Y-62285714D02*
X159602381Y-62285714D01*
X159602381Y-62523809D01*
X159650000Y-62666667D01*
X159745238Y-62761905D01*
X159840476Y-62809524D01*
X160030952Y-62857143D01*
X160173810Y-62857143D01*
X160364286Y-62809524D01*
X160459524Y-62761905D01*
X160554762Y-62666667D01*
X160602381Y-62523809D01*
X160602381Y-62285714D01*
X160602381Y-63809524D02*
X160602381Y-63238095D01*
X160602381Y-63523809D02*
X159602381Y-63523809D01*
X159745238Y-63428571D01*
X159840476Y-63333333D01*
X159888095Y-63238095D01*
X160030952Y-64380952D02*
X159983333Y-64285714D01*
X159935714Y-64238095D01*
X159840476Y-64190476D01*
X159792857Y-64190476D01*
X159697619Y-64238095D01*
X159650000Y-64285714D01*
X159602381Y-64380952D01*
X159602381Y-64571429D01*
X159650000Y-64666667D01*
X159697619Y-64714286D01*
X159792857Y-64761905D01*
X159840476Y-64761905D01*
X159935714Y-64714286D01*
X159983333Y-64666667D01*
X160030952Y-64571429D01*
X160030952Y-64380952D01*
X160078571Y-64285714D01*
X160126190Y-64238095D01*
X160221429Y-64190476D01*
X160411905Y-64190476D01*
X160507143Y-64238095D01*
X160554762Y-64285714D01*
X160602381Y-64380952D01*
X160602381Y-64571429D01*
X160554762Y-64666667D01*
X160507143Y-64714286D01*
X160411905Y-64761905D01*
X160221429Y-64761905D01*
X160126190Y-64714286D01*
X160078571Y-64666667D01*
X160030952Y-64571429D01*
X122502381Y-77525714D02*
X121502381Y-77525714D01*
X121502381Y-77763809D01*
X121550000Y-77906667D01*
X121645238Y-78001905D01*
X121740476Y-78049524D01*
X121930952Y-78097143D01*
X122073810Y-78097143D01*
X122264286Y-78049524D01*
X122359524Y-78001905D01*
X122454762Y-77906667D01*
X122502381Y-77763809D01*
X122502381Y-77525714D01*
X122502381Y-79049524D02*
X122502381Y-78478095D01*
X122502381Y-78763809D02*
X121502381Y-78763809D01*
X121645238Y-78668571D01*
X121740476Y-78573333D01*
X121788095Y-78478095D01*
X122502381Y-79525714D02*
X122502381Y-79716190D01*
X122454762Y-79811429D01*
X122407143Y-79859048D01*
X122264286Y-79954286D01*
X122073810Y-80001905D01*
X121692857Y-80001905D01*
X121597619Y-79954286D01*
X121550000Y-79906667D01*
X121502381Y-79811429D01*
X121502381Y-79620952D01*
X121550000Y-79525714D01*
X121597619Y-79478095D01*
X121692857Y-79430476D01*
X121930952Y-79430476D01*
X122026190Y-79478095D01*
X122073810Y-79525714D01*
X122121429Y-79620952D01*
X122121429Y-79811429D01*
X122073810Y-79906667D01*
X122026190Y-79954286D01*
X121930952Y-80001905D01*
X130122381Y-77525714D02*
X129122381Y-77525714D01*
X129122381Y-77763809D01*
X129170000Y-77906667D01*
X129265238Y-78001905D01*
X129360476Y-78049524D01*
X129550952Y-78097143D01*
X129693810Y-78097143D01*
X129884286Y-78049524D01*
X129979524Y-78001905D01*
X130074762Y-77906667D01*
X130122381Y-77763809D01*
X130122381Y-77525714D01*
X129217619Y-78478095D02*
X129170000Y-78525714D01*
X129122381Y-78620952D01*
X129122381Y-78859048D01*
X129170000Y-78954286D01*
X129217619Y-79001905D01*
X129312857Y-79049524D01*
X129408095Y-79049524D01*
X129550952Y-79001905D01*
X130122381Y-78430476D01*
X130122381Y-79049524D01*
X129122381Y-79668571D02*
X129122381Y-79763810D01*
X129170000Y-79859048D01*
X129217619Y-79906667D01*
X129312857Y-79954286D01*
X129503333Y-80001905D01*
X129741429Y-80001905D01*
X129931905Y-79954286D01*
X130027143Y-79906667D01*
X130074762Y-79859048D01*
X130122381Y-79763810D01*
X130122381Y-79668571D01*
X130074762Y-79573333D01*
X130027143Y-79525714D01*
X129931905Y-79478095D01*
X129741429Y-79430476D01*
X129503333Y-79430476D01*
X129312857Y-79478095D01*
X129217619Y-79525714D01*
X129170000Y-79573333D01*
X129122381Y-79668571D01*
X137742381Y-77525714D02*
X136742381Y-77525714D01*
X136742381Y-77763809D01*
X136790000Y-77906667D01*
X136885238Y-78001905D01*
X136980476Y-78049524D01*
X137170952Y-78097143D01*
X137313810Y-78097143D01*
X137504286Y-78049524D01*
X137599524Y-78001905D01*
X137694762Y-77906667D01*
X137742381Y-77763809D01*
X137742381Y-77525714D01*
X136837619Y-78478095D02*
X136790000Y-78525714D01*
X136742381Y-78620952D01*
X136742381Y-78859048D01*
X136790000Y-78954286D01*
X136837619Y-79001905D01*
X136932857Y-79049524D01*
X137028095Y-79049524D01*
X137170952Y-79001905D01*
X137742381Y-78430476D01*
X137742381Y-79049524D01*
X137742381Y-80001905D02*
X137742381Y-79430476D01*
X137742381Y-79716190D02*
X136742381Y-79716190D01*
X136885238Y-79620952D01*
X136980476Y-79525714D01*
X137028095Y-79430476D01*
X145362381Y-77525714D02*
X144362381Y-77525714D01*
X144362381Y-77763809D01*
X144410000Y-77906667D01*
X144505238Y-78001905D01*
X144600476Y-78049524D01*
X144790952Y-78097143D01*
X144933810Y-78097143D01*
X145124286Y-78049524D01*
X145219524Y-78001905D01*
X145314762Y-77906667D01*
X145362381Y-77763809D01*
X145362381Y-77525714D01*
X144457619Y-78478095D02*
X144410000Y-78525714D01*
X144362381Y-78620952D01*
X144362381Y-78859048D01*
X144410000Y-78954286D01*
X144457619Y-79001905D01*
X144552857Y-79049524D01*
X144648095Y-79049524D01*
X144790952Y-79001905D01*
X145362381Y-78430476D01*
X145362381Y-79049524D01*
X144457619Y-79430476D02*
X144410000Y-79478095D01*
X144362381Y-79573333D01*
X144362381Y-79811429D01*
X144410000Y-79906667D01*
X144457619Y-79954286D01*
X144552857Y-80001905D01*
X144648095Y-80001905D01*
X144790952Y-79954286D01*
X145362381Y-79382857D01*
X145362381Y-80001905D01*
X152982381Y-77525714D02*
X151982381Y-77525714D01*
X151982381Y-77763809D01*
X152030000Y-77906667D01*
X152125238Y-78001905D01*
X152220476Y-78049524D01*
X152410952Y-78097143D01*
X152553810Y-78097143D01*
X152744286Y-78049524D01*
X152839524Y-78001905D01*
X152934762Y-77906667D01*
X152982381Y-77763809D01*
X152982381Y-77525714D01*
X152077619Y-78478095D02*
X152030000Y-78525714D01*
X151982381Y-78620952D01*
X151982381Y-78859048D01*
X152030000Y-78954286D01*
X152077619Y-79001905D01*
X152172857Y-79049524D01*
X152268095Y-79049524D01*
X152410952Y-79001905D01*
X152982381Y-78430476D01*
X152982381Y-79049524D01*
X151982381Y-79382857D02*
X151982381Y-80001905D01*
X152363333Y-79668571D01*
X152363333Y-79811429D01*
X152410952Y-79906667D01*
X152458571Y-79954286D01*
X152553810Y-80001905D01*
X152791905Y-80001905D01*
X152887143Y-79954286D01*
X152934762Y-79906667D01*
X152982381Y-79811429D01*
X152982381Y-79525714D01*
X152934762Y-79430476D01*
X152887143Y-79382857D01*
X160602381Y-77525714D02*
X159602381Y-77525714D01*
X159602381Y-77763809D01*
X159650000Y-77906667D01*
X159745238Y-78001905D01*
X159840476Y-78049524D01*
X160030952Y-78097143D01*
X160173810Y-78097143D01*
X160364286Y-78049524D01*
X160459524Y-78001905D01*
X160554762Y-77906667D01*
X160602381Y-77763809D01*
X160602381Y-77525714D01*
X159697619Y-78478095D02*
X159650000Y-78525714D01*
X159602381Y-78620952D01*
X159602381Y-78859048D01*
X159650000Y-78954286D01*
X159697619Y-79001905D01*
X159792857Y-79049524D01*
X159888095Y-79049524D01*
X160030952Y-79001905D01*
X160602381Y-78430476D01*
X160602381Y-79049524D01*
X159935714Y-79906667D02*
X160602381Y-79906667D01*
X159554762Y-79668571D02*
X160269048Y-79430476D01*
X160269048Y-80049524D01*
X122502381Y-92765714D02*
X121502381Y-92765714D01*
X121502381Y-93003809D01*
X121550000Y-93146667D01*
X121645238Y-93241905D01*
X121740476Y-93289524D01*
X121930952Y-93337143D01*
X122073810Y-93337143D01*
X122264286Y-93289524D01*
X122359524Y-93241905D01*
X122454762Y-93146667D01*
X122502381Y-93003809D01*
X122502381Y-92765714D01*
X121597619Y-93718095D02*
X121550000Y-93765714D01*
X121502381Y-93860952D01*
X121502381Y-94099048D01*
X121550000Y-94194286D01*
X121597619Y-94241905D01*
X121692857Y-94289524D01*
X121788095Y-94289524D01*
X121930952Y-94241905D01*
X122502381Y-93670476D01*
X122502381Y-94289524D01*
X121502381Y-95194286D02*
X121502381Y-94718095D01*
X121978571Y-94670476D01*
X121930952Y-94718095D01*
X121883333Y-94813333D01*
X121883333Y-95051429D01*
X121930952Y-95146667D01*
X121978571Y-95194286D01*
X122073810Y-95241905D01*
X122311905Y-95241905D01*
X122407143Y-95194286D01*
X122454762Y-95146667D01*
X122502381Y-95051429D01*
X122502381Y-94813333D01*
X122454762Y-94718095D01*
X122407143Y-94670476D01*
X130122381Y-92765714D02*
X129122381Y-92765714D01*
X129122381Y-93003809D01*
X129170000Y-93146667D01*
X129265238Y-93241905D01*
X129360476Y-93289524D01*
X129550952Y-93337143D01*
X129693810Y-93337143D01*
X129884286Y-93289524D01*
X129979524Y-93241905D01*
X130074762Y-93146667D01*
X130122381Y-93003809D01*
X130122381Y-92765714D01*
X129217619Y-93718095D02*
X129170000Y-93765714D01*
X129122381Y-93860952D01*
X129122381Y-94099048D01*
X129170000Y-94194286D01*
X129217619Y-94241905D01*
X129312857Y-94289524D01*
X129408095Y-94289524D01*
X129550952Y-94241905D01*
X130122381Y-93670476D01*
X130122381Y-94289524D01*
X129122381Y-95146667D02*
X129122381Y-94956190D01*
X129170000Y-94860952D01*
X129217619Y-94813333D01*
X129360476Y-94718095D01*
X129550952Y-94670476D01*
X129931905Y-94670476D01*
X130027143Y-94718095D01*
X130074762Y-94765714D01*
X130122381Y-94860952D01*
X130122381Y-95051429D01*
X130074762Y-95146667D01*
X130027143Y-95194286D01*
X129931905Y-95241905D01*
X129693810Y-95241905D01*
X129598571Y-95194286D01*
X129550952Y-95146667D01*
X129503333Y-95051429D01*
X129503333Y-94860952D01*
X129550952Y-94765714D01*
X129598571Y-94718095D01*
X129693810Y-94670476D01*
X137742381Y-92765714D02*
X136742381Y-92765714D01*
X136742381Y-93003809D01*
X136790000Y-93146667D01*
X136885238Y-93241905D01*
X136980476Y-93289524D01*
X137170952Y-93337143D01*
X137313810Y-93337143D01*
X137504286Y-93289524D01*
X137599524Y-93241905D01*
X137694762Y-93146667D01*
X137742381Y-93003809D01*
X137742381Y-92765714D01*
X136837619Y-93718095D02*
X136790000Y-93765714D01*
X136742381Y-93860952D01*
X136742381Y-94099048D01*
X136790000Y-94194286D01*
X136837619Y-94241905D01*
X136932857Y-94289524D01*
X137028095Y-94289524D01*
X137170952Y-94241905D01*
X137742381Y-93670476D01*
X137742381Y-94289524D01*
X136742381Y-94622857D02*
X136742381Y-95289524D01*
X137742381Y-94860952D01*
X145362381Y-92765714D02*
X144362381Y-92765714D01*
X144362381Y-93003809D01*
X144410000Y-93146667D01*
X144505238Y-93241905D01*
X144600476Y-93289524D01*
X144790952Y-93337143D01*
X144933810Y-93337143D01*
X145124286Y-93289524D01*
X145219524Y-93241905D01*
X145314762Y-93146667D01*
X145362381Y-93003809D01*
X145362381Y-92765714D01*
X144457619Y-93718095D02*
X144410000Y-93765714D01*
X144362381Y-93860952D01*
X144362381Y-94099048D01*
X144410000Y-94194286D01*
X144457619Y-94241905D01*
X144552857Y-94289524D01*
X144648095Y-94289524D01*
X144790952Y-94241905D01*
X145362381Y-93670476D01*
X145362381Y-94289524D01*
X144790952Y-94860952D02*
X144743333Y-94765714D01*
X144695714Y-94718095D01*
X144600476Y-94670476D01*
X144552857Y-94670476D01*
X144457619Y-94718095D01*
X144410000Y-94765714D01*
X144362381Y-94860952D01*
X144362381Y-95051429D01*
X144410000Y-95146667D01*
X144457619Y-95194286D01*
X144552857Y-95241905D01*
X144600476Y-95241905D01*
X144695714Y-95194286D01*
X144743333Y-95146667D01*
X144790952Y-95051429D01*
X144790952Y-94860952D01*
X144838571Y-94765714D01*
X144886190Y-94718095D01*
X144981429Y-94670476D01*
X145171905Y-94670476D01*
X145267143Y-94718095D01*
X145314762Y-94765714D01*
X145362381Y-94860952D01*
X145362381Y-95051429D01*
X145314762Y-95146667D01*
X145267143Y-95194286D01*
X145171905Y-95241905D01*
X144981429Y-95241905D01*
X144886190Y-95194286D01*
X144838571Y-95146667D01*
X144790952Y-95051429D01*
X152982381Y-92765714D02*
X151982381Y-92765714D01*
X151982381Y-93003809D01*
X152030000Y-93146667D01*
X152125238Y-93241905D01*
X152220476Y-93289524D01*
X152410952Y-93337143D01*
X152553810Y-93337143D01*
X152744286Y-93289524D01*
X152839524Y-93241905D01*
X152934762Y-93146667D01*
X152982381Y-93003809D01*
X152982381Y-92765714D01*
X152077619Y-93718095D02*
X152030000Y-93765714D01*
X151982381Y-93860952D01*
X151982381Y-94099048D01*
X152030000Y-94194286D01*
X152077619Y-94241905D01*
X152172857Y-94289524D01*
X152268095Y-94289524D01*
X152410952Y-94241905D01*
X152982381Y-93670476D01*
X152982381Y-94289524D01*
X152982381Y-94765714D02*
X152982381Y-94956190D01*
X152934762Y-95051429D01*
X152887143Y-95099048D01*
X152744286Y-95194286D01*
X152553810Y-95241905D01*
X152172857Y-95241905D01*
X152077619Y-95194286D01*
X152030000Y-95146667D01*
X151982381Y-95051429D01*
X151982381Y-94860952D01*
X152030000Y-94765714D01*
X152077619Y-94718095D01*
X152172857Y-94670476D01*
X152410952Y-94670476D01*
X152506190Y-94718095D01*
X152553810Y-94765714D01*
X152601429Y-94860952D01*
X152601429Y-95051429D01*
X152553810Y-95146667D01*
X152506190Y-95194286D01*
X152410952Y-95241905D01*
X160602381Y-92765714D02*
X159602381Y-92765714D01*
X159602381Y-93003809D01*
X159650000Y-93146667D01*
X159745238Y-93241905D01*
X159840476Y-93289524D01*
X160030952Y-93337143D01*
X160173810Y-93337143D01*
X160364286Y-93289524D01*
X160459524Y-93241905D01*
X160554762Y-93146667D01*
X160602381Y-93003809D01*
X160602381Y-92765714D01*
X159602381Y-93670476D02*
X159602381Y-94289524D01*
X159983333Y-93956190D01*
X159983333Y-94099048D01*
X160030952Y-94194286D01*
X160078571Y-94241905D01*
X160173810Y-94289524D01*
X160411905Y-94289524D01*
X160507143Y-94241905D01*
X160554762Y-94194286D01*
X160602381Y-94099048D01*
X160602381Y-93813333D01*
X160554762Y-93718095D01*
X160507143Y-93670476D01*
X159602381Y-94908571D02*
X159602381Y-95003810D01*
X159650000Y-95099048D01*
X159697619Y-95146667D01*
X159792857Y-95194286D01*
X159983333Y-95241905D01*
X160221429Y-95241905D01*
X160411905Y-95194286D01*
X160507143Y-95146667D01*
X160554762Y-95099048D01*
X160602381Y-95003810D01*
X160602381Y-94908571D01*
X160554762Y-94813333D01*
X160507143Y-94765714D01*
X160411905Y-94718095D01*
X160221429Y-94670476D01*
X159983333Y-94670476D01*
X159792857Y-94718095D01*
X159697619Y-94765714D01*
X159650000Y-94813333D01*
X159602381Y-94908571D01*
X122502381Y-108005714D02*
X121502381Y-108005714D01*
X121502381Y-108243809D01*
X121550000Y-108386667D01*
X121645238Y-108481905D01*
X121740476Y-108529524D01*
X121930952Y-108577143D01*
X122073810Y-108577143D01*
X122264286Y-108529524D01*
X122359524Y-108481905D01*
X122454762Y-108386667D01*
X122502381Y-108243809D01*
X122502381Y-108005714D01*
X121502381Y-108910476D02*
X121502381Y-109529524D01*
X121883333Y-109196190D01*
X121883333Y-109339048D01*
X121930952Y-109434286D01*
X121978571Y-109481905D01*
X122073810Y-109529524D01*
X122311905Y-109529524D01*
X122407143Y-109481905D01*
X122454762Y-109434286D01*
X122502381Y-109339048D01*
X122502381Y-109053333D01*
X122454762Y-108958095D01*
X122407143Y-108910476D01*
X122502381Y-110481905D02*
X122502381Y-109910476D01*
X122502381Y-110196190D02*
X121502381Y-110196190D01*
X121645238Y-110100952D01*
X121740476Y-110005714D01*
X121788095Y-109910476D01*
X130122381Y-108005714D02*
X129122381Y-108005714D01*
X129122381Y-108243809D01*
X129170000Y-108386667D01*
X129265238Y-108481905D01*
X129360476Y-108529524D01*
X129550952Y-108577143D01*
X129693810Y-108577143D01*
X129884286Y-108529524D01*
X129979524Y-108481905D01*
X130074762Y-108386667D01*
X130122381Y-108243809D01*
X130122381Y-108005714D01*
X129122381Y-108910476D02*
X129122381Y-109529524D01*
X129503333Y-109196190D01*
X129503333Y-109339048D01*
X129550952Y-109434286D01*
X129598571Y-109481905D01*
X129693810Y-109529524D01*
X129931905Y-109529524D01*
X130027143Y-109481905D01*
X130074762Y-109434286D01*
X130122381Y-109339048D01*
X130122381Y-109053333D01*
X130074762Y-108958095D01*
X130027143Y-108910476D01*
X129217619Y-109910476D02*
X129170000Y-109958095D01*
X129122381Y-110053333D01*
X129122381Y-110291429D01*
X129170000Y-110386667D01*
X129217619Y-110434286D01*
X129312857Y-110481905D01*
X129408095Y-110481905D01*
X129550952Y-110434286D01*
X130122381Y-109862857D01*
X130122381Y-110481905D01*
X137742381Y-108005714D02*
X136742381Y-108005714D01*
X136742381Y-108243809D01*
X136790000Y-108386667D01*
X136885238Y-108481905D01*
X136980476Y-108529524D01*
X137170952Y-108577143D01*
X137313810Y-108577143D01*
X137504286Y-108529524D01*
X137599524Y-108481905D01*
X137694762Y-108386667D01*
X137742381Y-108243809D01*
X137742381Y-108005714D01*
X136742381Y-108910476D02*
X136742381Y-109529524D01*
X137123333Y-109196190D01*
X137123333Y-109339048D01*
X137170952Y-109434286D01*
X137218571Y-109481905D01*
X137313810Y-109529524D01*
X137551905Y-109529524D01*
X137647143Y-109481905D01*
X137694762Y-109434286D01*
X137742381Y-109339048D01*
X137742381Y-109053333D01*
X137694762Y-108958095D01*
X137647143Y-108910476D01*
X136742381Y-109862857D02*
X136742381Y-110481905D01*
X137123333Y-110148571D01*
X137123333Y-110291429D01*
X137170952Y-110386667D01*
X137218571Y-110434286D01*
X137313810Y-110481905D01*
X137551905Y-110481905D01*
X137647143Y-110434286D01*
X137694762Y-110386667D01*
X137742381Y-110291429D01*
X137742381Y-110005714D01*
X137694762Y-109910476D01*
X137647143Y-109862857D01*
X145362381Y-108005714D02*
X144362381Y-108005714D01*
X144362381Y-108243809D01*
X144410000Y-108386667D01*
X144505238Y-108481905D01*
X144600476Y-108529524D01*
X144790952Y-108577143D01*
X144933810Y-108577143D01*
X145124286Y-108529524D01*
X145219524Y-108481905D01*
X145314762Y-108386667D01*
X145362381Y-108243809D01*
X145362381Y-108005714D01*
X144362381Y-108910476D02*
X144362381Y-109529524D01*
X144743333Y-109196190D01*
X144743333Y-109339048D01*
X144790952Y-109434286D01*
X144838571Y-109481905D01*
X144933810Y-109529524D01*
X145171905Y-109529524D01*
X145267143Y-109481905D01*
X145314762Y-109434286D01*
X145362381Y-109339048D01*
X145362381Y-109053333D01*
X145314762Y-108958095D01*
X145267143Y-108910476D01*
X144695714Y-110386667D02*
X145362381Y-110386667D01*
X144314762Y-110148571D02*
X145029048Y-109910476D01*
X145029048Y-110529524D01*
X152982381Y-108005714D02*
X151982381Y-108005714D01*
X151982381Y-108243809D01*
X152030000Y-108386667D01*
X152125238Y-108481905D01*
X152220476Y-108529524D01*
X152410952Y-108577143D01*
X152553810Y-108577143D01*
X152744286Y-108529524D01*
X152839524Y-108481905D01*
X152934762Y-108386667D01*
X152982381Y-108243809D01*
X152982381Y-108005714D01*
X151982381Y-108910476D02*
X151982381Y-109529524D01*
X152363333Y-109196190D01*
X152363333Y-109339048D01*
X152410952Y-109434286D01*
X152458571Y-109481905D01*
X152553810Y-109529524D01*
X152791905Y-109529524D01*
X152887143Y-109481905D01*
X152934762Y-109434286D01*
X152982381Y-109339048D01*
X152982381Y-109053333D01*
X152934762Y-108958095D01*
X152887143Y-108910476D01*
X151982381Y-110434286D02*
X151982381Y-109958095D01*
X152458571Y-109910476D01*
X152410952Y-109958095D01*
X152363333Y-110053333D01*
X152363333Y-110291429D01*
X152410952Y-110386667D01*
X152458571Y-110434286D01*
X152553810Y-110481905D01*
X152791905Y-110481905D01*
X152887143Y-110434286D01*
X152934762Y-110386667D01*
X152982381Y-110291429D01*
X152982381Y-110053333D01*
X152934762Y-109958095D01*
X152887143Y-109910476D01*
X160602381Y-108005714D02*
X159602381Y-108005714D01*
X159602381Y-108243809D01*
X159650000Y-108386667D01*
X159745238Y-108481905D01*
X159840476Y-108529524D01*
X160030952Y-108577143D01*
X160173810Y-108577143D01*
X160364286Y-108529524D01*
X160459524Y-108481905D01*
X160554762Y-108386667D01*
X160602381Y-108243809D01*
X160602381Y-108005714D01*
X159602381Y-108910476D02*
X159602381Y-109529524D01*
X159983333Y-109196190D01*
X159983333Y-109339048D01*
X160030952Y-109434286D01*
X160078571Y-109481905D01*
X160173810Y-109529524D01*
X160411905Y-109529524D01*
X160507143Y-109481905D01*
X160554762Y-109434286D01*
X160602381Y-109339048D01*
X160602381Y-109053333D01*
X160554762Y-108958095D01*
X160507143Y-108910476D01*
X159602381Y-110386667D02*
X159602381Y-110196190D01*
X159650000Y-110100952D01*
X159697619Y-110053333D01*
X159840476Y-109958095D01*
X160030952Y-109910476D01*
X160411905Y-109910476D01*
X160507143Y-109958095D01*
X160554762Y-110005714D01*
X160602381Y-110100952D01*
X160602381Y-110291429D01*
X160554762Y-110386667D01*
X160507143Y-110434286D01*
X160411905Y-110481905D01*
X160173810Y-110481905D01*
X160078571Y-110434286D01*
X160030952Y-110386667D01*
X159983333Y-110291429D01*
X159983333Y-110100952D01*
X160030952Y-110005714D01*
X160078571Y-109958095D01*
X160173810Y-109910476D01*
X39333333Y-28927381D02*
X39333333Y-29641667D01*
X39380953Y-29784524D01*
X39476191Y-29879762D01*
X39619048Y-29927381D01*
X39714286Y-29927381D01*
X38333333Y-29927381D02*
X38904762Y-29927381D01*
X38619048Y-29927381D02*
X38619048Y-28927381D01*
X38714286Y-29070238D01*
X38809524Y-29165476D01*
X38904762Y-29213095D01*
X52333333Y-28927381D02*
X52333333Y-29641667D01*
X52380953Y-29784524D01*
X52476191Y-29879762D01*
X52619048Y-29927381D01*
X52714286Y-29927381D01*
X51904762Y-29022619D02*
X51857143Y-28975000D01*
X51761905Y-28927381D01*
X51523809Y-28927381D01*
X51428571Y-28975000D01*
X51380952Y-29022619D01*
X51333333Y-29117857D01*
X51333333Y-29213095D01*
X51380952Y-29355952D01*
X51952381Y-29927381D01*
X51333333Y-29927381D01*
X65333333Y-28927381D02*
X65333333Y-29641667D01*
X65380953Y-29784524D01*
X65476191Y-29879762D01*
X65619048Y-29927381D01*
X65714286Y-29927381D01*
X64952381Y-28927381D02*
X64333333Y-28927381D01*
X64666667Y-29308333D01*
X64523809Y-29308333D01*
X64428571Y-29355952D01*
X64380952Y-29403571D01*
X64333333Y-29498810D01*
X64333333Y-29736905D01*
X64380952Y-29832143D01*
X64428571Y-29879762D01*
X64523809Y-29927381D01*
X64809524Y-29927381D01*
X64904762Y-29879762D01*
X64952381Y-29832143D01*
X78333333Y-28927381D02*
X78333333Y-29641667D01*
X78380953Y-29784524D01*
X78476191Y-29879762D01*
X78619048Y-29927381D01*
X78714286Y-29927381D01*
X77428571Y-29260714D02*
X77428571Y-29927381D01*
X77666667Y-28879762D02*
X77904762Y-29594048D01*
X77285714Y-29594048D01*
X91333333Y-28927381D02*
X91333333Y-29641667D01*
X91380953Y-29784524D01*
X91476191Y-29879762D01*
X91619048Y-29927381D01*
X91714286Y-29927381D01*
X90380952Y-28927381D02*
X90857143Y-28927381D01*
X90904762Y-29403571D01*
X90857143Y-29355952D01*
X90761905Y-29308333D01*
X90523809Y-29308333D01*
X90428571Y-29355952D01*
X90380952Y-29403571D01*
X90333333Y-29498810D01*
X90333333Y-29736905D01*
X90380952Y-29832143D01*
X90428571Y-29879762D01*
X90523809Y-29927381D01*
X90761905Y-29927381D01*
X90857143Y-29879762D01*
X90904762Y-29832143D01*
X104333333Y-28927381D02*
X104333333Y-29641667D01*
X104380953Y-29784524D01*
X104476191Y-29879762D01*
X104619048Y-29927381D01*
X104714286Y-29927381D01*
X103428571Y-28927381D02*
X103619048Y-28927381D01*
X103714286Y-28975000D01*
X103761905Y-29022619D01*
X103857143Y-29165476D01*
X103904762Y-29355952D01*
X103904762Y-29736905D01*
X103857143Y-29832143D01*
X103809524Y-29879762D01*
X103714286Y-29927381D01*
X103523809Y-29927381D01*
X103428571Y-29879762D01*
X103380952Y-29832143D01*
X103333333Y-29736905D01*
X103333333Y-29498810D01*
X103380952Y-29403571D01*
X103428571Y-29355952D01*
X103523809Y-29308333D01*
X103714286Y-29308333D01*
X103809524Y-29355952D01*
X103857143Y-29403571D01*
X103904762Y-29498810D01*
X39333333Y-41927381D02*
X39333333Y-42641667D01*
X39380953Y-42784524D01*
X39476191Y-42879762D01*
X39619048Y-42927381D01*
X39714286Y-42927381D01*
X38952381Y-41927381D02*
X38285714Y-41927381D01*
X38714286Y-42927381D01*
X52333333Y-41927381D02*
X52333333Y-42641667D01*
X52380953Y-42784524D01*
X52476191Y-42879762D01*
X52619048Y-42927381D01*
X52714286Y-42927381D01*
X51714286Y-42355952D02*
X51809524Y-42308333D01*
X51857143Y-42260714D01*
X51904762Y-42165476D01*
X51904762Y-42117857D01*
X51857143Y-42022619D01*
X51809524Y-41975000D01*
X51714286Y-41927381D01*
X51523809Y-41927381D01*
X51428571Y-41975000D01*
X51380952Y-42022619D01*
X51333333Y-42117857D01*
X51333333Y-42165476D01*
X51380952Y-42260714D01*
X51428571Y-42308333D01*
X51523809Y-42355952D01*
X51714286Y-42355952D01*
X51809524Y-42403571D01*
X51857143Y-42451190D01*
X51904762Y-42546429D01*
X51904762Y-42736905D01*
X51857143Y-42832143D01*
X51809524Y-42879762D01*
X51714286Y-42927381D01*
X51523809Y-42927381D01*
X51428571Y-42879762D01*
X51380952Y-42832143D01*
X51333333Y-42736905D01*
X51333333Y-42546429D01*
X51380952Y-42451190D01*
X51428571Y-42403571D01*
X51523809Y-42355952D01*
X65333333Y-41927381D02*
X65333333Y-42641667D01*
X65380953Y-42784524D01*
X65476191Y-42879762D01*
X65619048Y-42927381D01*
X65714286Y-42927381D01*
X64809524Y-42927381D02*
X64619048Y-42927381D01*
X64523809Y-42879762D01*
X64476190Y-42832143D01*
X64380952Y-42689286D01*
X64333333Y-42498810D01*
X64333333Y-42117857D01*
X64380952Y-42022619D01*
X64428571Y-41975000D01*
X64523809Y-41927381D01*
X64714286Y-41927381D01*
X64809524Y-41975000D01*
X64857143Y-42022619D01*
X64904762Y-42117857D01*
X64904762Y-42355952D01*
X64857143Y-42451190D01*
X64809524Y-42498810D01*
X64714286Y-42546429D01*
X64523809Y-42546429D01*
X64428571Y-42498810D01*
X64380952Y-42451190D01*
X64333333Y-42355952D01*
X78809523Y-41927381D02*
X78809523Y-42641667D01*
X78857143Y-42784524D01*
X78952381Y-42879762D01*
X79095238Y-42927381D01*
X79190476Y-42927381D01*
X77809523Y-42927381D02*
X78380952Y-42927381D01*
X78095238Y-42927381D02*
X78095238Y-41927381D01*
X78190476Y-42070238D01*
X78285714Y-42165476D01*
X78380952Y-42213095D01*
X77190476Y-41927381D02*
X77095237Y-41927381D01*
X76999999Y-41975000D01*
X76952380Y-42022619D01*
X76904761Y-42117857D01*
X76857142Y-42308333D01*
X76857142Y-42546429D01*
X76904761Y-42736905D01*
X76952380Y-42832143D01*
X76999999Y-42879762D01*
X77095237Y-42927381D01*
X77190476Y-42927381D01*
X77285714Y-42879762D01*
X77333333Y-42832143D01*
X77380952Y-42736905D01*
X77428571Y-42546429D01*
X77428571Y-42308333D01*
X77380952Y-42117857D01*
X77333333Y-42022619D01*
X77285714Y-41975000D01*
X77190476Y-41927381D01*
X91809523Y-41927381D02*
X91809523Y-42641667D01*
X91857143Y-42784524D01*
X91952381Y-42879762D01*
X92095238Y-42927381D01*
X92190476Y-42927381D01*
X90809523Y-42927381D02*
X91380952Y-42927381D01*
X91095238Y-42927381D02*
X91095238Y-41927381D01*
X91190476Y-42070238D01*
X91285714Y-42165476D01*
X91380952Y-42213095D01*
X89857142Y-42927381D02*
X90428571Y-42927381D01*
X90142857Y-42927381D02*
X90142857Y-41927381D01*
X90238095Y-42070238D01*
X90333333Y-42165476D01*
X90428571Y-42213095D01*
X104809523Y-41927381D02*
X104809523Y-42641667D01*
X104857143Y-42784524D01*
X104952381Y-42879762D01*
X105095238Y-42927381D01*
X105190476Y-42927381D01*
X103809523Y-42927381D02*
X104380952Y-42927381D01*
X104095238Y-42927381D02*
X104095238Y-41927381D01*
X104190476Y-42070238D01*
X104285714Y-42165476D01*
X104380952Y-42213095D01*
X103428571Y-42022619D02*
X103380952Y-41975000D01*
X103285714Y-41927381D01*
X103047618Y-41927381D01*
X102952380Y-41975000D01*
X102904761Y-42022619D01*
X102857142Y-42117857D01*
X102857142Y-42213095D01*
X102904761Y-42355952D01*
X103476190Y-42927381D01*
X102857142Y-42927381D01*
X39809523Y-54927381D02*
X39809523Y-55641667D01*
X39857143Y-55784524D01*
X39952381Y-55879762D01*
X40095238Y-55927381D01*
X40190476Y-55927381D01*
X38809523Y-55927381D02*
X39380952Y-55927381D01*
X39095238Y-55927381D02*
X39095238Y-54927381D01*
X39190476Y-55070238D01*
X39285714Y-55165476D01*
X39380952Y-55213095D01*
X38476190Y-54927381D02*
X37857142Y-54927381D01*
X38190476Y-55308333D01*
X38047618Y-55308333D01*
X37952380Y-55355952D01*
X37904761Y-55403571D01*
X37857142Y-55498810D01*
X37857142Y-55736905D01*
X37904761Y-55832143D01*
X37952380Y-55879762D01*
X38047618Y-55927381D01*
X38333333Y-55927381D01*
X38428571Y-55879762D01*
X38476190Y-55832143D01*
X52809523Y-54927381D02*
X52809523Y-55641667D01*
X52857143Y-55784524D01*
X52952381Y-55879762D01*
X53095238Y-55927381D01*
X53190476Y-55927381D01*
X51809523Y-55927381D02*
X52380952Y-55927381D01*
X52095238Y-55927381D02*
X52095238Y-54927381D01*
X52190476Y-55070238D01*
X52285714Y-55165476D01*
X52380952Y-55213095D01*
X50952380Y-55260714D02*
X50952380Y-55927381D01*
X51190476Y-54879762D02*
X51428571Y-55594048D01*
X50809523Y-55594048D01*
X65809523Y-54927381D02*
X65809523Y-55641667D01*
X65857143Y-55784524D01*
X65952381Y-55879762D01*
X66095238Y-55927381D01*
X66190476Y-55927381D01*
X64809523Y-55927381D02*
X65380952Y-55927381D01*
X65095238Y-55927381D02*
X65095238Y-54927381D01*
X65190476Y-55070238D01*
X65285714Y-55165476D01*
X65380952Y-55213095D01*
X63904761Y-54927381D02*
X64380952Y-54927381D01*
X64428571Y-55403571D01*
X64380952Y-55355952D01*
X64285714Y-55308333D01*
X64047618Y-55308333D01*
X63952380Y-55355952D01*
X63904761Y-55403571D01*
X63857142Y-55498810D01*
X63857142Y-55736905D01*
X63904761Y-55832143D01*
X63952380Y-55879762D01*
X64047618Y-55927381D01*
X64285714Y-55927381D01*
X64380952Y-55879762D01*
X64428571Y-55832143D01*
X78809523Y-54927381D02*
X78809523Y-55641667D01*
X78857143Y-55784524D01*
X78952381Y-55879762D01*
X79095238Y-55927381D01*
X79190476Y-55927381D01*
X77809523Y-55927381D02*
X78380952Y-55927381D01*
X78095238Y-55927381D02*
X78095238Y-54927381D01*
X78190476Y-55070238D01*
X78285714Y-55165476D01*
X78380952Y-55213095D01*
X76952380Y-54927381D02*
X77142857Y-54927381D01*
X77238095Y-54975000D01*
X77285714Y-55022619D01*
X77380952Y-55165476D01*
X77428571Y-55355952D01*
X77428571Y-55736905D01*
X77380952Y-55832143D01*
X77333333Y-55879762D01*
X77238095Y-55927381D01*
X77047618Y-55927381D01*
X76952380Y-55879762D01*
X76904761Y-55832143D01*
X76857142Y-55736905D01*
X76857142Y-55498810D01*
X76904761Y-55403571D01*
X76952380Y-55355952D01*
X77047618Y-55308333D01*
X77238095Y-55308333D01*
X77333333Y-55355952D01*
X77380952Y-55403571D01*
X77428571Y-55498810D01*
X91809523Y-54927381D02*
X91809523Y-55641667D01*
X91857143Y-55784524D01*
X91952381Y-55879762D01*
X92095238Y-55927381D01*
X92190476Y-55927381D01*
X90809523Y-55927381D02*
X91380952Y-55927381D01*
X91095238Y-55927381D02*
X91095238Y-54927381D01*
X91190476Y-55070238D01*
X91285714Y-55165476D01*
X91380952Y-55213095D01*
X90476190Y-54927381D02*
X89809523Y-54927381D01*
X90238095Y-55927381D01*
X104809523Y-54927381D02*
X104809523Y-55641667D01*
X104857143Y-55784524D01*
X104952381Y-55879762D01*
X105095238Y-55927381D01*
X105190476Y-55927381D01*
X103809523Y-55927381D02*
X104380952Y-55927381D01*
X104095238Y-55927381D02*
X104095238Y-54927381D01*
X104190476Y-55070238D01*
X104285714Y-55165476D01*
X104380952Y-55213095D01*
X103238095Y-55355952D02*
X103333333Y-55308333D01*
X103380952Y-55260714D01*
X103428571Y-55165476D01*
X103428571Y-55117857D01*
X103380952Y-55022619D01*
X103333333Y-54975000D01*
X103238095Y-54927381D01*
X103047618Y-54927381D01*
X102952380Y-54975000D01*
X102904761Y-55022619D01*
X102857142Y-55117857D01*
X102857142Y-55165476D01*
X102904761Y-55260714D01*
X102952380Y-55308333D01*
X103047618Y-55355952D01*
X103238095Y-55355952D01*
X103333333Y-55403571D01*
X103380952Y-55451190D01*
X103428571Y-55546429D01*
X103428571Y-55736905D01*
X103380952Y-55832143D01*
X103333333Y-55879762D01*
X103238095Y-55927381D01*
X103047618Y-55927381D01*
X102952380Y-55879762D01*
X102904761Y-55832143D01*
X102857142Y-55736905D01*
X102857142Y-55546429D01*
X102904761Y-55451190D01*
X102952380Y-55403571D01*
X103047618Y-55355952D01*
X39809523Y-67927381D02*
X39809523Y-68641667D01*
X39857143Y-68784524D01*
X39952381Y-68879762D01*
X40095238Y-68927381D01*
X40190476Y-68927381D01*
X38809523Y-68927381D02*
X39380952Y-68927381D01*
X39095238Y-68927381D02*
X39095238Y-67927381D01*
X39190476Y-68070238D01*
X39285714Y-68165476D01*
X39380952Y-68213095D01*
X38333333Y-68927381D02*
X38142857Y-68927381D01*
X38047618Y-68879762D01*
X37999999Y-68832143D01*
X37904761Y-68689286D01*
X37857142Y-68498810D01*
X37857142Y-68117857D01*
X37904761Y-68022619D01*
X37952380Y-67975000D01*
X38047618Y-67927381D01*
X38238095Y-67927381D01*
X38333333Y-67975000D01*
X38380952Y-68022619D01*
X38428571Y-68117857D01*
X38428571Y-68355952D01*
X38380952Y-68451190D01*
X38333333Y-68498810D01*
X38238095Y-68546429D01*
X38047618Y-68546429D01*
X37952380Y-68498810D01*
X37904761Y-68451190D01*
X37857142Y-68355952D01*
X52809523Y-68290380D02*
X52809523Y-69004666D01*
X52857143Y-69147523D01*
X52952381Y-69242761D01*
X53095238Y-69290380D01*
X53190476Y-69290380D01*
X52380952Y-68385618D02*
X52333333Y-68337999D01*
X52238095Y-68290380D01*
X51999999Y-68290380D01*
X51904761Y-68337999D01*
X51857142Y-68385618D01*
X51809523Y-68480856D01*
X51809523Y-68576094D01*
X51857142Y-68718951D01*
X52428571Y-69290380D01*
X51809523Y-69290380D01*
X51190476Y-68290380D02*
X51095237Y-68290380D01*
X50999999Y-68337999D01*
X50952380Y-68385618D01*
X50904761Y-68480856D01*
X50857142Y-68671332D01*
X50857142Y-68909428D01*
X50904761Y-69099904D01*
X50952380Y-69195142D01*
X50999999Y-69242761D01*
X51095237Y-69290380D01*
X51190476Y-69290380D01*
X51285714Y-69242761D01*
X51333333Y-69195142D01*
X51380952Y-69099904D01*
X51428571Y-68909428D01*
X51428571Y-68671332D01*
X51380952Y-68480856D01*
X51333333Y-68385618D01*
X51285714Y-68337999D01*
X51190476Y-68290380D01*
X65809523Y-67927381D02*
X65809523Y-68641667D01*
X65857143Y-68784524D01*
X65952381Y-68879762D01*
X66095238Y-68927381D01*
X66190476Y-68927381D01*
X65380952Y-68022619D02*
X65333333Y-67975000D01*
X65238095Y-67927381D01*
X64999999Y-67927381D01*
X64904761Y-67975000D01*
X64857142Y-68022619D01*
X64809523Y-68117857D01*
X64809523Y-68213095D01*
X64857142Y-68355952D01*
X65428571Y-68927381D01*
X64809523Y-68927381D01*
X63857142Y-68927381D02*
X64428571Y-68927381D01*
X64142857Y-68927381D02*
X64142857Y-67927381D01*
X64238095Y-68070238D01*
X64333333Y-68165476D01*
X64428571Y-68213095D01*
X78809523Y-67927381D02*
X78809523Y-68641667D01*
X78857143Y-68784524D01*
X78952381Y-68879762D01*
X79095238Y-68927381D01*
X79190476Y-68927381D01*
X78380952Y-68022619D02*
X78333333Y-67975000D01*
X78238095Y-67927381D01*
X77999999Y-67927381D01*
X77904761Y-67975000D01*
X77857142Y-68022619D01*
X77809523Y-68117857D01*
X77809523Y-68213095D01*
X77857142Y-68355952D01*
X78428571Y-68927381D01*
X77809523Y-68927381D01*
X77428571Y-68022619D02*
X77380952Y-67975000D01*
X77285714Y-67927381D01*
X77047618Y-67927381D01*
X76952380Y-67975000D01*
X76904761Y-68022619D01*
X76857142Y-68117857D01*
X76857142Y-68213095D01*
X76904761Y-68355952D01*
X77476190Y-68927381D01*
X76857142Y-68927381D01*
X91809523Y-67927381D02*
X91809523Y-68641667D01*
X91857143Y-68784524D01*
X91952381Y-68879762D01*
X92095238Y-68927381D01*
X92190476Y-68927381D01*
X91380952Y-68022619D02*
X91333333Y-67975000D01*
X91238095Y-67927381D01*
X90999999Y-67927381D01*
X90904761Y-67975000D01*
X90857142Y-68022619D01*
X90809523Y-68117857D01*
X90809523Y-68213095D01*
X90857142Y-68355952D01*
X91428571Y-68927381D01*
X90809523Y-68927381D01*
X90476190Y-67927381D02*
X89857142Y-67927381D01*
X90190476Y-68308333D01*
X90047618Y-68308333D01*
X89952380Y-68355952D01*
X89904761Y-68403571D01*
X89857142Y-68498810D01*
X89857142Y-68736905D01*
X89904761Y-68832143D01*
X89952380Y-68879762D01*
X90047618Y-68927381D01*
X90333333Y-68927381D01*
X90428571Y-68879762D01*
X90476190Y-68832143D01*
X104809523Y-67927381D02*
X104809523Y-68641667D01*
X104857143Y-68784524D01*
X104952381Y-68879762D01*
X105095238Y-68927381D01*
X105190476Y-68927381D01*
X104380952Y-68022619D02*
X104333333Y-67975000D01*
X104238095Y-67927381D01*
X103999999Y-67927381D01*
X103904761Y-67975000D01*
X103857142Y-68022619D01*
X103809523Y-68117857D01*
X103809523Y-68213095D01*
X103857142Y-68355952D01*
X104428571Y-68927381D01*
X103809523Y-68927381D01*
X102952380Y-68260714D02*
X102952380Y-68927381D01*
X103190476Y-67879762D02*
X103428571Y-68594048D01*
X102809523Y-68594048D01*
X39809523Y-80927381D02*
X39809523Y-81641667D01*
X39857143Y-81784524D01*
X39952381Y-81879762D01*
X40095238Y-81927381D01*
X40190476Y-81927381D01*
X39380952Y-81022619D02*
X39333333Y-80975000D01*
X39238095Y-80927381D01*
X38999999Y-80927381D01*
X38904761Y-80975000D01*
X38857142Y-81022619D01*
X38809523Y-81117857D01*
X38809523Y-81213095D01*
X38857142Y-81355952D01*
X39428571Y-81927381D01*
X38809523Y-81927381D01*
X37904761Y-80927381D02*
X38380952Y-80927381D01*
X38428571Y-81403571D01*
X38380952Y-81355952D01*
X38285714Y-81308333D01*
X38047618Y-81308333D01*
X37952380Y-81355952D01*
X37904761Y-81403571D01*
X37857142Y-81498810D01*
X37857142Y-81736905D01*
X37904761Y-81832143D01*
X37952380Y-81879762D01*
X38047618Y-81927381D01*
X38285714Y-81927381D01*
X38380952Y-81879762D01*
X38428571Y-81832143D01*
X52809523Y-80927381D02*
X52809523Y-81641667D01*
X52857143Y-81784524D01*
X52952381Y-81879762D01*
X53095238Y-81927381D01*
X53190476Y-81927381D01*
X52380952Y-81022619D02*
X52333333Y-80975000D01*
X52238095Y-80927381D01*
X51999999Y-80927381D01*
X51904761Y-80975000D01*
X51857142Y-81022619D01*
X51809523Y-81117857D01*
X51809523Y-81213095D01*
X51857142Y-81355952D01*
X52428571Y-81927381D01*
X51809523Y-81927381D01*
X50952380Y-80927381D02*
X51142857Y-80927381D01*
X51238095Y-80975000D01*
X51285714Y-81022619D01*
X51380952Y-81165476D01*
X51428571Y-81355952D01*
X51428571Y-81736905D01*
X51380952Y-81832143D01*
X51333333Y-81879762D01*
X51238095Y-81927381D01*
X51047618Y-81927381D01*
X50952380Y-81879762D01*
X50904761Y-81832143D01*
X50857142Y-81736905D01*
X50857142Y-81498810D01*
X50904761Y-81403571D01*
X50952380Y-81355952D01*
X51047618Y-81308333D01*
X51238095Y-81308333D01*
X51333333Y-81355952D01*
X51380952Y-81403571D01*
X51428571Y-81498810D01*
X65809523Y-80927381D02*
X65809523Y-81641667D01*
X65857143Y-81784524D01*
X65952381Y-81879762D01*
X66095238Y-81927381D01*
X66190476Y-81927381D01*
X65380952Y-81022619D02*
X65333333Y-80975000D01*
X65238095Y-80927381D01*
X64999999Y-80927381D01*
X64904761Y-80975000D01*
X64857142Y-81022619D01*
X64809523Y-81117857D01*
X64809523Y-81213095D01*
X64857142Y-81355952D01*
X65428571Y-81927381D01*
X64809523Y-81927381D01*
X64476190Y-80927381D02*
X63809523Y-80927381D01*
X64238095Y-81927381D01*
X78809523Y-80927381D02*
X78809523Y-81641667D01*
X78857143Y-81784524D01*
X78952381Y-81879762D01*
X79095238Y-81927381D01*
X79190476Y-81927381D01*
X78380952Y-81022619D02*
X78333333Y-80975000D01*
X78238095Y-80927381D01*
X77999999Y-80927381D01*
X77904761Y-80975000D01*
X77857142Y-81022619D01*
X77809523Y-81117857D01*
X77809523Y-81213095D01*
X77857142Y-81355952D01*
X78428571Y-81927381D01*
X77809523Y-81927381D01*
X77238095Y-81355952D02*
X77333333Y-81308333D01*
X77380952Y-81260714D01*
X77428571Y-81165476D01*
X77428571Y-81117857D01*
X77380952Y-81022619D01*
X77333333Y-80975000D01*
X77238095Y-80927381D01*
X77047618Y-80927381D01*
X76952380Y-80975000D01*
X76904761Y-81022619D01*
X76857142Y-81117857D01*
X76857142Y-81165476D01*
X76904761Y-81260714D01*
X76952380Y-81308333D01*
X77047618Y-81355952D01*
X77238095Y-81355952D01*
X77333333Y-81403571D01*
X77380952Y-81451190D01*
X77428571Y-81546429D01*
X77428571Y-81736905D01*
X77380952Y-81832143D01*
X77333333Y-81879762D01*
X77238095Y-81927381D01*
X77047618Y-81927381D01*
X76952380Y-81879762D01*
X76904761Y-81832143D01*
X76857142Y-81736905D01*
X76857142Y-81546429D01*
X76904761Y-81451190D01*
X76952380Y-81403571D01*
X77047618Y-81355952D01*
X91809523Y-80927381D02*
X91809523Y-81641667D01*
X91857143Y-81784524D01*
X91952381Y-81879762D01*
X92095238Y-81927381D01*
X92190476Y-81927381D01*
X91380952Y-81022619D02*
X91333333Y-80975000D01*
X91238095Y-80927381D01*
X90999999Y-80927381D01*
X90904761Y-80975000D01*
X90857142Y-81022619D01*
X90809523Y-81117857D01*
X90809523Y-81213095D01*
X90857142Y-81355952D01*
X91428571Y-81927381D01*
X90809523Y-81927381D01*
X90333333Y-81927381D02*
X90142857Y-81927381D01*
X90047618Y-81879762D01*
X89999999Y-81832143D01*
X89904761Y-81689286D01*
X89857142Y-81498810D01*
X89857142Y-81117857D01*
X89904761Y-81022619D01*
X89952380Y-80975000D01*
X90047618Y-80927381D01*
X90238095Y-80927381D01*
X90333333Y-80975000D01*
X90380952Y-81022619D01*
X90428571Y-81117857D01*
X90428571Y-81355952D01*
X90380952Y-81451190D01*
X90333333Y-81498810D01*
X90238095Y-81546429D01*
X90047618Y-81546429D01*
X89952380Y-81498810D01*
X89904761Y-81451190D01*
X89857142Y-81355952D01*
X104809523Y-80927381D02*
X104809523Y-81641667D01*
X104857143Y-81784524D01*
X104952381Y-81879762D01*
X105095238Y-81927381D01*
X105190476Y-81927381D01*
X104428571Y-80927381D02*
X103809523Y-80927381D01*
X104142857Y-81308333D01*
X103999999Y-81308333D01*
X103904761Y-81355952D01*
X103857142Y-81403571D01*
X103809523Y-81498810D01*
X103809523Y-81736905D01*
X103857142Y-81832143D01*
X103904761Y-81879762D01*
X103999999Y-81927381D01*
X104285714Y-81927381D01*
X104380952Y-81879762D01*
X104428571Y-81832143D01*
X103190476Y-80927381D02*
X103095237Y-80927381D01*
X102999999Y-80975000D01*
X102952380Y-81022619D01*
X102904761Y-81117857D01*
X102857142Y-81308333D01*
X102857142Y-81546429D01*
X102904761Y-81736905D01*
X102952380Y-81832143D01*
X102999999Y-81879762D01*
X103095237Y-81927381D01*
X103190476Y-81927381D01*
X103285714Y-81879762D01*
X103333333Y-81832143D01*
X103380952Y-81736905D01*
X103428571Y-81546429D01*
X103428571Y-81308333D01*
X103380952Y-81117857D01*
X103333333Y-81022619D01*
X103285714Y-80975000D01*
X103190476Y-80927381D01*
X39809523Y-93927381D02*
X39809523Y-94641667D01*
X39857143Y-94784524D01*
X39952381Y-94879762D01*
X40095238Y-94927381D01*
X40190476Y-94927381D01*
X39428571Y-93927381D02*
X38809523Y-93927381D01*
X39142857Y-94308333D01*
X38999999Y-94308333D01*
X38904761Y-94355952D01*
X38857142Y-94403571D01*
X38809523Y-94498810D01*
X38809523Y-94736905D01*
X38857142Y-94832143D01*
X38904761Y-94879762D01*
X38999999Y-94927381D01*
X39285714Y-94927381D01*
X39380952Y-94879762D01*
X39428571Y-94832143D01*
X37857142Y-94927381D02*
X38428571Y-94927381D01*
X38142857Y-94927381D02*
X38142857Y-93927381D01*
X38238095Y-94070238D01*
X38333333Y-94165476D01*
X38428571Y-94213095D01*
X52809523Y-93927381D02*
X52809523Y-94641667D01*
X52857143Y-94784524D01*
X52952381Y-94879762D01*
X53095238Y-94927381D01*
X53190476Y-94927381D01*
X52428571Y-93927381D02*
X51809523Y-93927381D01*
X52142857Y-94308333D01*
X51999999Y-94308333D01*
X51904761Y-94355952D01*
X51857142Y-94403571D01*
X51809523Y-94498810D01*
X51809523Y-94736905D01*
X51857142Y-94832143D01*
X51904761Y-94879762D01*
X51999999Y-94927381D01*
X52285714Y-94927381D01*
X52380952Y-94879762D01*
X52428571Y-94832143D01*
X51428571Y-94022619D02*
X51380952Y-93975000D01*
X51285714Y-93927381D01*
X51047618Y-93927381D01*
X50952380Y-93975000D01*
X50904761Y-94022619D01*
X50857142Y-94117857D01*
X50857142Y-94213095D01*
X50904761Y-94355952D01*
X51476190Y-94927381D01*
X50857142Y-94927381D01*
X65809523Y-93927381D02*
X65809523Y-94641667D01*
X65857143Y-94784524D01*
X65952381Y-94879762D01*
X66095238Y-94927381D01*
X66190476Y-94927381D01*
X65428571Y-93927381D02*
X64809523Y-93927381D01*
X65142857Y-94308333D01*
X64999999Y-94308333D01*
X64904761Y-94355952D01*
X64857142Y-94403571D01*
X64809523Y-94498810D01*
X64809523Y-94736905D01*
X64857142Y-94832143D01*
X64904761Y-94879762D01*
X64999999Y-94927381D01*
X65285714Y-94927381D01*
X65380952Y-94879762D01*
X65428571Y-94832143D01*
X64476190Y-93927381D02*
X63857142Y-93927381D01*
X64190476Y-94308333D01*
X64047618Y-94308333D01*
X63952380Y-94355952D01*
X63904761Y-94403571D01*
X63857142Y-94498810D01*
X63857142Y-94736905D01*
X63904761Y-94832143D01*
X63952380Y-94879762D01*
X64047618Y-94927381D01*
X64333333Y-94927381D01*
X64428571Y-94879762D01*
X64476190Y-94832143D01*
X78809523Y-93927381D02*
X78809523Y-94641667D01*
X78857143Y-94784524D01*
X78952381Y-94879762D01*
X79095238Y-94927381D01*
X79190476Y-94927381D01*
X78428571Y-93927381D02*
X77809523Y-93927381D01*
X78142857Y-94308333D01*
X77999999Y-94308333D01*
X77904761Y-94355952D01*
X77857142Y-94403571D01*
X77809523Y-94498810D01*
X77809523Y-94736905D01*
X77857142Y-94832143D01*
X77904761Y-94879762D01*
X77999999Y-94927381D01*
X78285714Y-94927381D01*
X78380952Y-94879762D01*
X78428571Y-94832143D01*
X76952380Y-94260714D02*
X76952380Y-94927381D01*
X77190476Y-93879762D02*
X77428571Y-94594048D01*
X76809523Y-94594048D01*
X91809523Y-93927381D02*
X91809523Y-94641667D01*
X91857143Y-94784524D01*
X91952381Y-94879762D01*
X92095238Y-94927381D01*
X92190476Y-94927381D01*
X91428571Y-93927381D02*
X90809523Y-93927381D01*
X91142857Y-94308333D01*
X90999999Y-94308333D01*
X90904761Y-94355952D01*
X90857142Y-94403571D01*
X90809523Y-94498810D01*
X90809523Y-94736905D01*
X90857142Y-94832143D01*
X90904761Y-94879762D01*
X90999999Y-94927381D01*
X91285714Y-94927381D01*
X91380952Y-94879762D01*
X91428571Y-94832143D01*
X89904761Y-93927381D02*
X90380952Y-93927381D01*
X90428571Y-94403571D01*
X90380952Y-94355952D01*
X90285714Y-94308333D01*
X90047618Y-94308333D01*
X89952380Y-94355952D01*
X89904761Y-94403571D01*
X89857142Y-94498810D01*
X89857142Y-94736905D01*
X89904761Y-94832143D01*
X89952380Y-94879762D01*
X90047618Y-94927381D01*
X90285714Y-94927381D01*
X90380952Y-94879762D01*
X90428571Y-94832143D01*
X104809523Y-93927381D02*
X104809523Y-94641667D01*
X104857143Y-94784524D01*
X104952381Y-94879762D01*
X105095238Y-94927381D01*
X105190476Y-94927381D01*
X104428571Y-93927381D02*
X103809523Y-93927381D01*
X104142857Y-94308333D01*
X103999999Y-94308333D01*
X103904761Y-94355952D01*
X103857142Y-94403571D01*
X103809523Y-94498810D01*
X103809523Y-94736905D01*
X103857142Y-94832143D01*
X103904761Y-94879762D01*
X103999999Y-94927381D01*
X104285714Y-94927381D01*
X104380952Y-94879762D01*
X104428571Y-94832143D01*
X102952380Y-93927381D02*
X103142857Y-93927381D01*
X103238095Y-93975000D01*
X103285714Y-94022619D01*
X103380952Y-94165476D01*
X103428571Y-94355952D01*
X103428571Y-94736905D01*
X103380952Y-94832143D01*
X103333333Y-94879762D01*
X103238095Y-94927381D01*
X103047618Y-94927381D01*
X102952380Y-94879762D01*
X102904761Y-94832143D01*
X102857142Y-94736905D01*
X102857142Y-94498810D01*
X102904761Y-94403571D01*
X102952380Y-94355952D01*
X103047618Y-94308333D01*
X103238095Y-94308333D01*
X103333333Y-94355952D01*
X103380952Y-94403571D01*
X103428571Y-94498810D01*
X149953981Y-151279477D02*
X150668267Y-151279477D01*
X150811124Y-151231857D01*
X150906362Y-151136619D01*
X150953981Y-150993762D01*
X150953981Y-150898524D01*
X149953981Y-151660429D02*
X149953981Y-152279477D01*
X150334933Y-151946143D01*
X150334933Y-152089001D01*
X150382552Y-152184239D01*
X150430171Y-152231858D01*
X150525410Y-152279477D01*
X150763505Y-152279477D01*
X150858743Y-152231858D01*
X150906362Y-152184239D01*
X150953981Y-152089001D01*
X150953981Y-151803286D01*
X150906362Y-151708048D01*
X150858743Y-151660429D01*
X149953981Y-152612810D02*
X149953981Y-153279477D01*
X150953981Y-152850905D01*
X209089523Y-156087381D02*
X209089523Y-156801667D01*
X209137143Y-156944524D01*
X209232381Y-157039762D01*
X209375238Y-157087381D01*
X209470476Y-157087381D01*
X208708571Y-156087381D02*
X208089523Y-156087381D01*
X208422857Y-156468333D01*
X208279999Y-156468333D01*
X208184761Y-156515952D01*
X208137142Y-156563571D01*
X208089523Y-156658810D01*
X208089523Y-156896905D01*
X208137142Y-156992143D01*
X208184761Y-157039762D01*
X208279999Y-157087381D01*
X208565714Y-157087381D01*
X208660952Y-157039762D01*
X208708571Y-156992143D01*
X207518095Y-156515952D02*
X207613333Y-156468333D01*
X207660952Y-156420714D01*
X207708571Y-156325476D01*
X207708571Y-156277857D01*
X207660952Y-156182619D01*
X207613333Y-156135000D01*
X207518095Y-156087381D01*
X207327618Y-156087381D01*
X207232380Y-156135000D01*
X207184761Y-156182619D01*
X207137142Y-156277857D01*
X207137142Y-156325476D01*
X207184761Y-156420714D01*
X207232380Y-156468333D01*
X207327618Y-156515952D01*
X207518095Y-156515952D01*
X207613333Y-156563571D01*
X207660952Y-156611190D01*
X207708571Y-156706429D01*
X207708571Y-156896905D01*
X207660952Y-156992143D01*
X207613333Y-157039762D01*
X207518095Y-157087381D01*
X207327618Y-157087381D01*
X207232380Y-157039762D01*
X207184761Y-156992143D01*
X207137142Y-156896905D01*
X207137142Y-156706429D01*
X207184761Y-156611190D01*
X207232380Y-156563571D01*
X207327618Y-156515952D01*
X211629523Y-21432381D02*
X211629523Y-22146667D01*
X211677143Y-22289524D01*
X211772381Y-22384762D01*
X211915238Y-22432381D01*
X212010476Y-22432381D01*
X211248571Y-21432381D02*
X210629523Y-21432381D01*
X210962857Y-21813333D01*
X210819999Y-21813333D01*
X210724761Y-21860952D01*
X210677142Y-21908571D01*
X210629523Y-22003810D01*
X210629523Y-22241905D01*
X210677142Y-22337143D01*
X210724761Y-22384762D01*
X210819999Y-22432381D01*
X211105714Y-22432381D01*
X211200952Y-22384762D01*
X211248571Y-22337143D01*
X210153333Y-22432381D02*
X209962857Y-22432381D01*
X209867618Y-22384762D01*
X209819999Y-22337143D01*
X209724761Y-22194286D01*
X209677142Y-22003810D01*
X209677142Y-21622857D01*
X209724761Y-21527619D01*
X209772380Y-21480000D01*
X209867618Y-21432381D01*
X210058095Y-21432381D01*
X210153333Y-21480000D01*
X210200952Y-21527619D01*
X210248571Y-21622857D01*
X210248571Y-21860952D01*
X210200952Y-21956190D01*
X210153333Y-22003810D01*
X210058095Y-22051429D01*
X209867618Y-22051429D01*
X209772380Y-22003810D01*
X209724761Y-21956190D01*
X209677142Y-21860952D01*
X26209523Y-21432381D02*
X26209523Y-22146667D01*
X26257143Y-22289524D01*
X26352381Y-22384762D01*
X26495238Y-22432381D01*
X26590476Y-22432381D01*
X25304761Y-21765714D02*
X25304761Y-22432381D01*
X25542857Y-21384762D02*
X25780952Y-22099048D01*
X25161904Y-22099048D01*
X24590476Y-21432381D02*
X24495237Y-21432381D01*
X24399999Y-21480000D01*
X24352380Y-21527619D01*
X24304761Y-21622857D01*
X24257142Y-21813333D01*
X24257142Y-22051429D01*
X24304761Y-22241905D01*
X24352380Y-22337143D01*
X24399999Y-22384762D01*
X24495237Y-22432381D01*
X24590476Y-22432381D01*
X24685714Y-22384762D01*
X24733333Y-22337143D01*
X24780952Y-22241905D01*
X24828571Y-22051429D01*
X24828571Y-21813333D01*
X24780952Y-21622857D01*
X24733333Y-21527619D01*
X24685714Y-21480000D01*
X24590476Y-21432381D01*
X26463523Y-166212381D02*
X26463523Y-166926667D01*
X26511143Y-167069524D01*
X26606381Y-167164762D01*
X26749238Y-167212381D01*
X26844476Y-167212381D01*
X25558761Y-166545714D02*
X25558761Y-167212381D01*
X25796857Y-166164762D02*
X26034952Y-166879048D01*
X25415904Y-166879048D01*
X24511142Y-167212381D02*
X25082571Y-167212381D01*
X24796857Y-167212381D02*
X24796857Y-166212381D01*
X24892095Y-166355238D01*
X24987333Y-166450476D01*
X25082571Y-166498095D01*
X211629523Y-166212381D02*
X211629523Y-166926667D01*
X211677143Y-167069524D01*
X211772381Y-167164762D01*
X211915238Y-167212381D01*
X212010476Y-167212381D01*
X210724761Y-166545714D02*
X210724761Y-167212381D01*
X210962857Y-166164762D02*
X211200952Y-166879048D01*
X210581904Y-166879048D01*
X210248571Y-166307619D02*
X210200952Y-166260000D01*
X210105714Y-166212381D01*
X209867618Y-166212381D01*
X209772380Y-166260000D01*
X209724761Y-166307619D01*
X209677142Y-166402857D01*
X209677142Y-166498095D01*
X209724761Y-166640952D01*
X210296190Y-167212381D01*
X209677142Y-167212381D01*
X183895857Y-161992571D02*
X183895857Y-163206857D01*
X183824429Y-163349714D01*
X183753000Y-163421143D01*
X183610143Y-163492571D01*
X183324429Y-163492571D01*
X183181571Y-163421143D01*
X183110143Y-163349714D01*
X183038714Y-163206857D01*
X183038714Y-161992571D01*
X181538714Y-163492571D02*
X182395857Y-163492571D01*
X181967285Y-163492571D02*
X181967285Y-161992571D01*
X182110142Y-162206857D01*
X182253000Y-162349714D01*
X182395857Y-162421143D01*
D14*
X176599905Y-130060857D02*
X177399905Y-130327524D01*
X176599905Y-130594191D01*
X176980857Y-131127524D02*
X177018952Y-131241810D01*
X177057048Y-131279905D01*
X177133238Y-131318000D01*
X177247524Y-131318000D01*
X177323714Y-131279905D01*
X177361810Y-131241810D01*
X177399905Y-131165619D01*
X177399905Y-130860857D01*
X176599905Y-130860857D01*
X176599905Y-131127524D01*
X176638000Y-131203714D01*
X176676095Y-131241810D01*
X176752286Y-131279905D01*
X176828476Y-131279905D01*
X176904667Y-131241810D01*
X176942762Y-131203714D01*
X176980857Y-131127524D01*
X176980857Y-130860857D01*
X177399905Y-132003714D02*
X176980857Y-132003714D01*
X176904667Y-131965619D01*
X176866571Y-131889429D01*
X176866571Y-131737048D01*
X176904667Y-131660857D01*
X177361810Y-132003714D02*
X177399905Y-131927524D01*
X177399905Y-131737048D01*
X177361810Y-131660857D01*
X177285619Y-131622762D01*
X177209429Y-131622762D01*
X177133238Y-131660857D01*
X177095143Y-131737048D01*
X177095143Y-131927524D01*
X177057048Y-132003714D01*
X176866571Y-132270381D02*
X176866571Y-132575143D01*
X176599905Y-132384667D02*
X177285619Y-132384667D01*
X177361810Y-132422762D01*
X177399905Y-132498953D01*
X177399905Y-132575143D01*
X179266905Y-130010048D02*
X179266905Y-130505286D01*
X179571667Y-130238619D01*
X179571667Y-130352905D01*
X179609762Y-130429095D01*
X179647857Y-130467191D01*
X179724048Y-130505286D01*
X179914524Y-130505286D01*
X179990714Y-130467191D01*
X180028810Y-130429095D01*
X180066905Y-130352905D01*
X180066905Y-130124333D01*
X180028810Y-130048143D01*
X179990714Y-130010048D01*
X179990714Y-130848143D02*
X180028810Y-130886238D01*
X180066905Y-130848143D01*
X180028810Y-130810048D01*
X179990714Y-130848143D01*
X180066905Y-130848143D01*
X179266905Y-131152905D02*
X179266905Y-131648143D01*
X179571667Y-131381476D01*
X179571667Y-131495762D01*
X179609762Y-131571952D01*
X179647857Y-131610048D01*
X179724048Y-131648143D01*
X179914524Y-131648143D01*
X179990714Y-131610048D01*
X180028810Y-131571952D01*
X180066905Y-131495762D01*
X180066905Y-131267190D01*
X180028810Y-131191000D01*
X179990714Y-131152905D01*
X179266905Y-131876714D02*
X180066905Y-132143381D01*
X179266905Y-132410048D01*
X181845000Y-130638524D02*
X181806905Y-130562333D01*
X181806905Y-130448048D01*
X181845000Y-130333762D01*
X181921190Y-130257571D01*
X181997381Y-130219476D01*
X182149762Y-130181381D01*
X182264048Y-130181381D01*
X182416429Y-130219476D01*
X182492619Y-130257571D01*
X182568810Y-130333762D01*
X182606905Y-130448048D01*
X182606905Y-130524238D01*
X182568810Y-130638524D01*
X182530714Y-130676619D01*
X182264048Y-130676619D01*
X182264048Y-130524238D01*
X185146905Y-130137047D02*
X184346905Y-130137047D01*
X184346905Y-130441809D01*
X184385000Y-130518000D01*
X184423095Y-130556095D01*
X184499286Y-130594190D01*
X184613571Y-130594190D01*
X184689762Y-130556095D01*
X184727857Y-130518000D01*
X184765952Y-130441809D01*
X184765952Y-130137047D01*
X185146905Y-130937047D02*
X184613571Y-130937047D01*
X184765952Y-130937047D02*
X184689762Y-130975142D01*
X184651667Y-131013238D01*
X184613571Y-131089428D01*
X184613571Y-131165619D01*
X185146905Y-131546571D02*
X185108810Y-131470380D01*
X185070714Y-131432285D01*
X184994524Y-131394190D01*
X184765952Y-131394190D01*
X184689762Y-131432285D01*
X184651667Y-131470380D01*
X184613571Y-131546571D01*
X184613571Y-131660857D01*
X184651667Y-131737047D01*
X184689762Y-131775142D01*
X184765952Y-131813238D01*
X184994524Y-131813238D01*
X185070714Y-131775142D01*
X185108810Y-131737047D01*
X185146905Y-131660857D01*
X185146905Y-131546571D01*
X184613571Y-132498952D02*
X185261190Y-132498952D01*
X185337381Y-132460857D01*
X185375476Y-132422762D01*
X185413571Y-132346571D01*
X185413571Y-132232286D01*
X185375476Y-132156095D01*
X185108810Y-132498952D02*
X185146905Y-132422762D01*
X185146905Y-132270381D01*
X185108810Y-132194190D01*
X185070714Y-132156095D01*
X184994524Y-132118000D01*
X184765952Y-132118000D01*
X184689762Y-132156095D01*
X184651667Y-132194190D01*
X184613571Y-132270381D01*
X184613571Y-132422762D01*
X184651667Y-132498952D01*
X187458333Y-130111619D02*
X187458333Y-130492571D01*
X187686905Y-130035428D02*
X186886905Y-130302095D01*
X187686905Y-130568762D01*
X187686905Y-131254476D02*
X187686905Y-130797333D01*
X187686905Y-131025904D02*
X186886905Y-131025904D01*
X187001190Y-130949714D01*
X187077381Y-130873523D01*
X187115476Y-130797333D01*
X187153571Y-131940190D02*
X187686905Y-131940190D01*
X186848810Y-131749714D02*
X187420238Y-131559238D01*
X187420238Y-132054476D01*
X175812476Y-161525000D02*
X175888667Y-161486905D01*
X176002952Y-161486905D01*
X176117238Y-161525000D01*
X176193429Y-161601190D01*
X176231524Y-161677381D01*
X176269619Y-161829762D01*
X176269619Y-161944048D01*
X176231524Y-162096429D01*
X176193429Y-162172619D01*
X176117238Y-162248810D01*
X176002952Y-162286905D01*
X175926762Y-162286905D01*
X175812476Y-162248810D01*
X175774381Y-162210714D01*
X175774381Y-161944048D01*
X175926762Y-161944048D01*
X188759952Y-156279905D02*
X188264714Y-156279905D01*
X188531381Y-156584667D01*
X188417095Y-156584667D01*
X188340905Y-156622762D01*
X188302809Y-156660857D01*
X188264714Y-156737048D01*
X188264714Y-156927524D01*
X188302809Y-157003714D01*
X188340905Y-157041810D01*
X188417095Y-157079905D01*
X188645667Y-157079905D01*
X188721857Y-157041810D01*
X188759952Y-157003714D01*
X187921857Y-157003714D02*
X187883762Y-157041810D01*
X187921857Y-157079905D01*
X187959952Y-157041810D01*
X187921857Y-157003714D01*
X187921857Y-157079905D01*
X187617095Y-156279905D02*
X187121857Y-156279905D01*
X187388524Y-156584667D01*
X187274238Y-156584667D01*
X187198048Y-156622762D01*
X187159952Y-156660857D01*
X187121857Y-156737048D01*
X187121857Y-156927524D01*
X187159952Y-157003714D01*
X187198048Y-157041810D01*
X187274238Y-157079905D01*
X187502810Y-157079905D01*
X187579000Y-157041810D01*
X187617095Y-157003714D01*
X186893286Y-156279905D02*
X186626619Y-157079905D01*
X186359952Y-156279905D01*
X188734523Y-159518333D02*
X188353571Y-159518333D01*
X188810714Y-159746905D02*
X188544047Y-158946905D01*
X188277380Y-159746905D01*
X187591666Y-158985000D02*
X187667857Y-158946905D01*
X187782142Y-158946905D01*
X187896428Y-158985000D01*
X187972619Y-159061190D01*
X188010714Y-159137381D01*
X188048809Y-159289762D01*
X188048809Y-159404048D01*
X188010714Y-159556429D01*
X187972619Y-159632619D01*
X187896428Y-159708810D01*
X187782142Y-159746905D01*
X187705952Y-159746905D01*
X187591666Y-159708810D01*
X187553571Y-159670714D01*
X187553571Y-159404048D01*
X187705952Y-159404048D01*
X187210714Y-159746905D02*
X187210714Y-158946905D01*
X186753571Y-159746905D01*
X186753571Y-158946905D01*
X186372619Y-159746905D02*
X186372619Y-158946905D01*
X186182143Y-158946905D01*
X186067857Y-158985000D01*
X185991666Y-159061190D01*
X185953571Y-159137381D01*
X185915476Y-159289762D01*
X185915476Y-159404048D01*
X185953571Y-159556429D01*
X185991666Y-159632619D01*
X186067857Y-159708810D01*
X186182143Y-159746905D01*
X186372619Y-159746905D01*
X188779048Y-161613905D02*
X188512381Y-162413905D01*
X188245714Y-161613905D01*
X187979048Y-162413905D02*
X187979048Y-161880571D01*
X187979048Y-161613905D02*
X188017143Y-161652000D01*
X187979048Y-161690095D01*
X187940953Y-161652000D01*
X187979048Y-161613905D01*
X187979048Y-161690095D01*
X187598096Y-161880571D02*
X187598096Y-162413905D01*
X187598096Y-161956762D02*
X187560001Y-161918667D01*
X187483810Y-161880571D01*
X187369524Y-161880571D01*
X187293334Y-161918667D01*
X187255239Y-161994857D01*
X187255239Y-162413905D01*
X186245381Y-149358333D02*
X185864429Y-149358333D01*
X186321572Y-149586905D02*
X186054905Y-148786905D01*
X185788238Y-149586905D01*
X185102524Y-149586905D02*
X185559667Y-149586905D01*
X185331096Y-149586905D02*
X185331096Y-148786905D01*
X185407286Y-148901190D01*
X185483477Y-148977381D01*
X185559667Y-149015476D01*
X184340619Y-149586905D02*
X184797762Y-149586905D01*
X184569191Y-149586905D02*
X184569191Y-148786905D01*
X184645381Y-148901190D01*
X184721572Y-148977381D01*
X184797762Y-149015476D01*
X186245381Y-151898333D02*
X185864429Y-151898333D01*
X186321572Y-152126905D02*
X186054905Y-151326905D01*
X185788238Y-152126905D01*
X185102524Y-152126905D02*
X185559667Y-152126905D01*
X185331096Y-152126905D02*
X185331096Y-151326905D01*
X185407286Y-151441190D01*
X185483477Y-151517381D01*
X185559667Y-151555476D01*
X184607286Y-151326905D02*
X184531095Y-151326905D01*
X184454905Y-151365000D01*
X184416810Y-151403095D01*
X184378714Y-151479286D01*
X184340619Y-151631667D01*
X184340619Y-151822143D01*
X184378714Y-151974524D01*
X184416810Y-152050714D01*
X184454905Y-152088810D01*
X184531095Y-152126905D01*
X184607286Y-152126905D01*
X184683476Y-152088810D01*
X184721572Y-152050714D01*
X184759667Y-151974524D01*
X184797762Y-151822143D01*
X184797762Y-151631667D01*
X184759667Y-151479286D01*
X184721572Y-151403095D01*
X184683476Y-151365000D01*
X184607286Y-151326905D01*
X186080238Y-154438333D02*
X185699286Y-154438333D01*
X186156429Y-154666905D02*
X185889762Y-153866905D01*
X185623095Y-154666905D01*
X184899286Y-154666905D02*
X185165953Y-154285952D01*
X185356429Y-154666905D02*
X185356429Y-153866905D01*
X185051667Y-153866905D01*
X184975476Y-153905000D01*
X184937381Y-153943095D01*
X184899286Y-154019286D01*
X184899286Y-154133571D01*
X184937381Y-154209762D01*
X184975476Y-154247857D01*
X185051667Y-154285952D01*
X185356429Y-154285952D01*
X184556429Y-154247857D02*
X184289762Y-154247857D01*
X184175476Y-154666905D02*
X184556429Y-154666905D01*
X184556429Y-153866905D01*
X184175476Y-153866905D01*
X183565952Y-154247857D02*
X183832619Y-154247857D01*
X183832619Y-154666905D02*
X183832619Y-153866905D01*
X183451666Y-153866905D01*
D13*
X208037619Y-27844762D02*
X207990000Y-27749524D01*
X207894762Y-27654286D01*
X207751905Y-27511429D01*
X207704286Y-27416190D01*
X207704286Y-27320952D01*
X207942381Y-27368571D02*
X207894762Y-27273333D01*
X207799524Y-27178095D01*
X207609048Y-27130476D01*
X207275714Y-27130476D01*
X207085238Y-27178095D01*
X206990000Y-27273333D01*
X206942381Y-27368571D01*
X206942381Y-27559048D01*
X206990000Y-27654286D01*
X207085238Y-27749524D01*
X207275714Y-27797143D01*
X207609048Y-27797143D01*
X207799524Y-27749524D01*
X207894762Y-27654286D01*
X207942381Y-27559048D01*
X207942381Y-27368571D01*
X207942381Y-28749524D02*
X207942381Y-28178095D01*
X207942381Y-28463809D02*
X206942381Y-28463809D01*
X207085238Y-28368571D01*
X207180476Y-28273333D01*
X207228095Y-28178095D01*
X208037619Y-45624762D02*
X207990000Y-45529524D01*
X207894762Y-45434286D01*
X207751905Y-45291429D01*
X207704286Y-45196190D01*
X207704286Y-45100952D01*
X207942381Y-45148571D02*
X207894762Y-45053333D01*
X207799524Y-44958095D01*
X207609048Y-44910476D01*
X207275714Y-44910476D01*
X207085238Y-44958095D01*
X206990000Y-45053333D01*
X206942381Y-45148571D01*
X206942381Y-45339048D01*
X206990000Y-45434286D01*
X207085238Y-45529524D01*
X207275714Y-45577143D01*
X207609048Y-45577143D01*
X207799524Y-45529524D01*
X207894762Y-45434286D01*
X207942381Y-45339048D01*
X207942381Y-45148571D01*
X207037619Y-45958095D02*
X206990000Y-46005714D01*
X206942381Y-46100952D01*
X206942381Y-46339048D01*
X206990000Y-46434286D01*
X207037619Y-46481905D01*
X207132857Y-46529524D01*
X207228095Y-46529524D01*
X207370952Y-46481905D01*
X207942381Y-45910476D01*
X207942381Y-46529524D01*
X207868719Y-63404762D02*
X207821100Y-63309524D01*
X207725862Y-63214286D01*
X207583005Y-63071429D01*
X207535386Y-62976190D01*
X207535386Y-62880952D01*
X207773481Y-62928571D02*
X207725862Y-62833333D01*
X207630624Y-62738095D01*
X207440148Y-62690476D01*
X207106814Y-62690476D01*
X206916338Y-62738095D01*
X206821100Y-62833333D01*
X206773481Y-62928571D01*
X206773481Y-63119048D01*
X206821100Y-63214286D01*
X206916338Y-63309524D01*
X207106814Y-63357143D01*
X207440148Y-63357143D01*
X207630624Y-63309524D01*
X207725862Y-63214286D01*
X207773481Y-63119048D01*
X207773481Y-62928571D01*
X206773481Y-63690476D02*
X206773481Y-64309524D01*
X207154433Y-63976190D01*
X207154433Y-64119048D01*
X207202052Y-64214286D01*
X207249671Y-64261905D01*
X207344910Y-64309524D01*
X207583005Y-64309524D01*
X207678243Y-64261905D01*
X207725862Y-64214286D01*
X207773481Y-64119048D01*
X207773481Y-63833333D01*
X207725862Y-63738095D01*
X207678243Y-63690476D01*
X207868719Y-81184762D02*
X207821100Y-81089524D01*
X207725862Y-80994286D01*
X207583005Y-80851429D01*
X207535386Y-80756190D01*
X207535386Y-80660952D01*
X207773481Y-80708571D02*
X207725862Y-80613333D01*
X207630624Y-80518095D01*
X207440148Y-80470476D01*
X207106814Y-80470476D01*
X206916338Y-80518095D01*
X206821100Y-80613333D01*
X206773481Y-80708571D01*
X206773481Y-80899048D01*
X206821100Y-80994286D01*
X206916338Y-81089524D01*
X207106814Y-81137143D01*
X207440148Y-81137143D01*
X207630624Y-81089524D01*
X207725862Y-80994286D01*
X207773481Y-80899048D01*
X207773481Y-80708571D01*
X207106814Y-81994286D02*
X207773481Y-81994286D01*
X206725862Y-81756190D02*
X207440148Y-81518095D01*
X207440148Y-82137143D01*
X208037619Y-98964762D02*
X207990000Y-98869524D01*
X207894762Y-98774286D01*
X207751905Y-98631429D01*
X207704286Y-98536190D01*
X207704286Y-98440952D01*
X207942381Y-98488571D02*
X207894762Y-98393333D01*
X207799524Y-98298095D01*
X207609048Y-98250476D01*
X207275714Y-98250476D01*
X207085238Y-98298095D01*
X206990000Y-98393333D01*
X206942381Y-98488571D01*
X206942381Y-98679048D01*
X206990000Y-98774286D01*
X207085238Y-98869524D01*
X207275714Y-98917143D01*
X207609048Y-98917143D01*
X207799524Y-98869524D01*
X207894762Y-98774286D01*
X207942381Y-98679048D01*
X207942381Y-98488571D01*
X206942381Y-99821905D02*
X206942381Y-99345714D01*
X207418571Y-99298095D01*
X207370952Y-99345714D01*
X207323333Y-99440952D01*
X207323333Y-99679048D01*
X207370952Y-99774286D01*
X207418571Y-99821905D01*
X207513810Y-99869524D01*
X207751905Y-99869524D01*
X207847143Y-99821905D01*
X207894762Y-99774286D01*
X207942381Y-99679048D01*
X207942381Y-99440952D01*
X207894762Y-99345714D01*
X207847143Y-99298095D01*
X208037619Y-116744762D02*
X207990000Y-116649524D01*
X207894762Y-116554286D01*
X207751905Y-116411429D01*
X207704286Y-116316190D01*
X207704286Y-116220952D01*
X207942381Y-116268571D02*
X207894762Y-116173333D01*
X207799524Y-116078095D01*
X207609048Y-116030476D01*
X207275714Y-116030476D01*
X207085238Y-116078095D01*
X206990000Y-116173333D01*
X206942381Y-116268571D01*
X206942381Y-116459048D01*
X206990000Y-116554286D01*
X207085238Y-116649524D01*
X207275714Y-116697143D01*
X207609048Y-116697143D01*
X207799524Y-116649524D01*
X207894762Y-116554286D01*
X207942381Y-116459048D01*
X207942381Y-116268571D01*
X206942381Y-117554286D02*
X206942381Y-117363809D01*
X206990000Y-117268571D01*
X207037619Y-117220952D01*
X207180476Y-117125714D01*
X207370952Y-117078095D01*
X207751905Y-117078095D01*
X207847143Y-117125714D01*
X207894762Y-117173333D01*
X207942381Y-117268571D01*
X207942381Y-117459048D01*
X207894762Y-117554286D01*
X207847143Y-117601905D01*
X207751905Y-117649524D01*
X207513810Y-117649524D01*
X207418571Y-117601905D01*
X207370952Y-117554286D01*
X207323333Y-117459048D01*
X207323333Y-117268571D01*
X207370952Y-117173333D01*
X207418571Y-117125714D01*
X207513810Y-117078095D01*
X35655238Y-157237619D02*
X35750476Y-157190000D01*
X35845714Y-157094762D01*
X35988571Y-156951905D01*
X36083810Y-156904286D01*
X36179048Y-156904286D01*
X36131429Y-157142381D02*
X36226667Y-157094762D01*
X36321905Y-156999524D01*
X36369524Y-156809048D01*
X36369524Y-156475714D01*
X36321905Y-156285238D01*
X36226667Y-156190000D01*
X36131429Y-156142381D01*
X35940952Y-156142381D01*
X35845714Y-156190000D01*
X35750476Y-156285238D01*
X35702857Y-156475714D01*
X35702857Y-156809048D01*
X35750476Y-156999524D01*
X35845714Y-157094762D01*
X35940952Y-157142381D01*
X36131429Y-157142381D01*
X35369524Y-156142381D02*
X34702857Y-156142381D01*
X35131429Y-157142381D01*
X53435238Y-157237619D02*
X53530476Y-157190000D01*
X53625714Y-157094762D01*
X53768571Y-156951905D01*
X53863810Y-156904286D01*
X53959048Y-156904286D01*
X53911429Y-157142381D02*
X54006667Y-157094762D01*
X54101905Y-156999524D01*
X54149524Y-156809048D01*
X54149524Y-156475714D01*
X54101905Y-156285238D01*
X54006667Y-156190000D01*
X53911429Y-156142381D01*
X53720952Y-156142381D01*
X53625714Y-156190000D01*
X53530476Y-156285238D01*
X53482857Y-156475714D01*
X53482857Y-156809048D01*
X53530476Y-156999524D01*
X53625714Y-157094762D01*
X53720952Y-157142381D01*
X53911429Y-157142381D01*
X52911429Y-156570952D02*
X53006667Y-156523333D01*
X53054286Y-156475714D01*
X53101905Y-156380476D01*
X53101905Y-156332857D01*
X53054286Y-156237619D01*
X53006667Y-156190000D01*
X52911429Y-156142381D01*
X52720952Y-156142381D01*
X52625714Y-156190000D01*
X52578095Y-156237619D01*
X52530476Y-156332857D01*
X52530476Y-156380476D01*
X52578095Y-156475714D01*
X52625714Y-156523333D01*
X52720952Y-156570952D01*
X52911429Y-156570952D01*
X53006667Y-156618571D01*
X53054286Y-156666190D01*
X53101905Y-156761429D01*
X53101905Y-156951905D01*
X53054286Y-157047143D01*
X53006667Y-157094762D01*
X52911429Y-157142381D01*
X52720952Y-157142381D01*
X52625714Y-157094762D01*
X52578095Y-157047143D01*
X52530476Y-156951905D01*
X52530476Y-156761429D01*
X52578095Y-156666190D01*
X52625714Y-156618571D01*
X52720952Y-156570952D01*
X71215238Y-157237619D02*
X71310476Y-157190000D01*
X71405714Y-157094762D01*
X71548571Y-156951905D01*
X71643810Y-156904286D01*
X71739048Y-156904286D01*
X71691429Y-157142381D02*
X71786667Y-157094762D01*
X71881905Y-156999524D01*
X71929524Y-156809048D01*
X71929524Y-156475714D01*
X71881905Y-156285238D01*
X71786667Y-156190000D01*
X71691429Y-156142381D01*
X71500952Y-156142381D01*
X71405714Y-156190000D01*
X71310476Y-156285238D01*
X71262857Y-156475714D01*
X71262857Y-156809048D01*
X71310476Y-156999524D01*
X71405714Y-157094762D01*
X71500952Y-157142381D01*
X71691429Y-157142381D01*
X70786667Y-157142381D02*
X70596191Y-157142381D01*
X70500952Y-157094762D01*
X70453333Y-157047143D01*
X70358095Y-156904286D01*
X70310476Y-156713810D01*
X70310476Y-156332857D01*
X70358095Y-156237619D01*
X70405714Y-156190000D01*
X70500952Y-156142381D01*
X70691429Y-156142381D01*
X70786667Y-156190000D01*
X70834286Y-156237619D01*
X70881905Y-156332857D01*
X70881905Y-156570952D01*
X70834286Y-156666190D01*
X70786667Y-156713810D01*
X70691429Y-156761429D01*
X70500952Y-156761429D01*
X70405714Y-156713810D01*
X70358095Y-156666190D01*
X70310476Y-156570952D01*
X89471428Y-157237619D02*
X89566666Y-157190000D01*
X89661904Y-157094762D01*
X89804761Y-156951905D01*
X89900000Y-156904286D01*
X89995238Y-156904286D01*
X89947619Y-157142381D02*
X90042857Y-157094762D01*
X90138095Y-156999524D01*
X90185714Y-156809048D01*
X90185714Y-156475714D01*
X90138095Y-156285238D01*
X90042857Y-156190000D01*
X89947619Y-156142381D01*
X89757142Y-156142381D01*
X89661904Y-156190000D01*
X89566666Y-156285238D01*
X89519047Y-156475714D01*
X89519047Y-156809048D01*
X89566666Y-156999524D01*
X89661904Y-157094762D01*
X89757142Y-157142381D01*
X89947619Y-157142381D01*
X88566666Y-157142381D02*
X89138095Y-157142381D01*
X88852381Y-157142381D02*
X88852381Y-156142381D01*
X88947619Y-156285238D01*
X89042857Y-156380476D01*
X89138095Y-156428095D01*
X87947619Y-156142381D02*
X87852380Y-156142381D01*
X87757142Y-156190000D01*
X87709523Y-156237619D01*
X87661904Y-156332857D01*
X87614285Y-156523333D01*
X87614285Y-156761429D01*
X87661904Y-156951905D01*
X87709523Y-157047143D01*
X87757142Y-157094762D01*
X87852380Y-157142381D01*
X87947619Y-157142381D01*
X88042857Y-157094762D01*
X88090476Y-157047143D01*
X88138095Y-156951905D01*
X88185714Y-156761429D01*
X88185714Y-156523333D01*
X88138095Y-156332857D01*
X88090476Y-156237619D01*
X88042857Y-156190000D01*
X87947619Y-156142381D01*
X107251428Y-157237619D02*
X107346666Y-157190000D01*
X107441904Y-157094762D01*
X107584761Y-156951905D01*
X107680000Y-156904286D01*
X107775238Y-156904286D01*
X107727619Y-157142381D02*
X107822857Y-157094762D01*
X107918095Y-156999524D01*
X107965714Y-156809048D01*
X107965714Y-156475714D01*
X107918095Y-156285238D01*
X107822857Y-156190000D01*
X107727619Y-156142381D01*
X107537142Y-156142381D01*
X107441904Y-156190000D01*
X107346666Y-156285238D01*
X107299047Y-156475714D01*
X107299047Y-156809048D01*
X107346666Y-156999524D01*
X107441904Y-157094762D01*
X107537142Y-157142381D01*
X107727619Y-157142381D01*
X106346666Y-157142381D02*
X106918095Y-157142381D01*
X106632381Y-157142381D02*
X106632381Y-156142381D01*
X106727619Y-156285238D01*
X106822857Y-156380476D01*
X106918095Y-156428095D01*
X105394285Y-157142381D02*
X105965714Y-157142381D01*
X105680000Y-157142381D02*
X105680000Y-156142381D01*
X105775238Y-156285238D01*
X105870476Y-156380476D01*
X105965714Y-156428095D01*
X125031428Y-157237619D02*
X125126666Y-157190000D01*
X125221904Y-157094762D01*
X125364761Y-156951905D01*
X125460000Y-156904286D01*
X125555238Y-156904286D01*
X125507619Y-157142381D02*
X125602857Y-157094762D01*
X125698095Y-156999524D01*
X125745714Y-156809048D01*
X125745714Y-156475714D01*
X125698095Y-156285238D01*
X125602857Y-156190000D01*
X125507619Y-156142381D01*
X125317142Y-156142381D01*
X125221904Y-156190000D01*
X125126666Y-156285238D01*
X125079047Y-156475714D01*
X125079047Y-156809048D01*
X125126666Y-156999524D01*
X125221904Y-157094762D01*
X125317142Y-157142381D01*
X125507619Y-157142381D01*
X124126666Y-157142381D02*
X124698095Y-157142381D01*
X124412381Y-157142381D02*
X124412381Y-156142381D01*
X124507619Y-156285238D01*
X124602857Y-156380476D01*
X124698095Y-156428095D01*
X123745714Y-156237619D02*
X123698095Y-156190000D01*
X123602857Y-156142381D01*
X123364761Y-156142381D01*
X123269523Y-156190000D01*
X123221904Y-156237619D01*
X123174285Y-156332857D01*
X123174285Y-156428095D01*
X123221904Y-156570952D01*
X123793333Y-157142381D01*
X123174285Y-157142381D01*
M02*
