M48
METRIC,LZ
T1C0.400
T2C0.762
T3C1.000
T4C1.100
T5C1.500
T6C1.650
T7C3.200
%
G90
G05
T1
X139294Y-156261
X139382Y-162488
T2
X035825Y-035825
X035825Y-048825
X035825Y-061825
X035825Y-074825
X035825Y-087825
X035825Y-100825
X042175Y-042175
X042175Y-055175
X042175Y-068175
X042175Y-081175
X042175Y-094175
X042175Y-107175
X048825Y-035825
X048825Y-048825
X048825Y-061825
X048825Y-075188
X048825Y-087825
X048825Y-100825
X055175Y-042175
X055175Y-055175
X055175Y-068175
X055175Y-081538
X055175Y-094175
X055175Y-107175
X061825Y-035825
X061825Y-048825
X061825Y-061825
X061825Y-074825
X061825Y-087825
X061825Y-100825
X068175Y-042175
X068175Y-055175
X068175Y-068175
X068175Y-081175
X068175Y-094175
X068175Y-107175
X074825Y-035825
X074825Y-048825
X074825Y-061825
X074825Y-074825
X074825Y-087825
X074825Y-100825
X081175Y-042175
X081175Y-055175
X081175Y-068175
X081175Y-081175
X081175Y-094175
X081175Y-107175
X087825Y-035825
X087825Y-048825
X087825Y-061825
X087825Y-074825
X087825Y-087825
X087825Y-100825
X094175Y-042175
X094175Y-055175
X094175Y-068175
X094175Y-081175
X094175Y-094175
X094175Y-107175
X100825Y-035825
X100825Y-048825
X100825Y-061825
X100825Y-074825
X100825Y-087825
X100825Y-100825
X107175Y-042175
X107175Y-055175
X107175Y-068175
X107175Y-081175
X107175Y-094175
X107175Y-107175
T3
X174625Y-128905
X174625Y-131445
X174625Y-133985
X174625Y-136525
X174625Y-139065
X174625Y-141605
X174625Y-144145
X174625Y-146685
X174625Y-149225
X174625Y-151765
X174625Y-154305
X174625Y-156845
X174625Y-159385
X174625Y-161925
X177165Y-128905
X179705Y-128905
X182245Y-128905
X184785Y-128905
X187325Y-128905
X187325Y-149225
X187325Y-151765
X187325Y-154305
X189865Y-128905
X189865Y-131445
X189865Y-133985
X189865Y-136525
X189865Y-139065
X189865Y-141605
X189865Y-144145
X189865Y-146685
X189865Y-149225
X189865Y-151765
X189865Y-154305
X189865Y-156845
X189865Y-159385
X189865Y-161925
X20701Y-141605
X20701Y-144145
X20701Y-146685
X20701Y-149225
X20701Y-151765
X20701Y-154305
X20955Y-141605
X20955Y-144145
X20955Y-146685
X20955Y-149225
X20955Y-151765
X20955Y-154305
T4
X12446Y-02794
X12446Y-0381
X12446Y-04318
X12446Y-05334
X12446Y-05842
X12446Y-06858
X12446Y-07366
X12446Y-08382
X12446Y-0889
X12446Y-09906
X12446Y-10414
X12446Y-1143
X13208Y-02794
X13208Y-0381
X13208Y-04318
X13208Y-05334
X13208Y-05842
X13208Y-06858
X13208Y-07366
X13208Y-08382
X13208Y-0889
X13208Y-09906
X13208Y-10414
X13208Y-1143
X1397Y-02794
X1397Y-0381
X1397Y-04318
X1397Y-05334
X1397Y-05842
X1397Y-06858
X1397Y-07366
X1397Y-08382
X1397Y-0889
X1397Y-09906
X1397Y-10414
X1397Y-1143
X14732Y-02794
X14732Y-0381
X14732Y-04318
X14732Y-05334
X14732Y-05842
X14732Y-06858
X14732Y-07366
X14732Y-08382
X14732Y-0889
X14732Y-09906
X14732Y-10414
X14732Y-1143
X15494Y-02794
X15494Y-0381
X15494Y-04318
X15494Y-05334
X15494Y-05842
X15494Y-06858
X15494Y-07366
X15494Y-08382
X15494Y-0889
X15494Y-09906
X15494Y-10414
X15494Y-1143
X16256Y-02794
X16256Y-0381
X16256Y-04318
X16256Y-05334
X16256Y-05842
X16256Y-06858
X16256Y-07366
X16256Y-08382
X16256Y-0889
X16256Y-09906
X16256Y-10414
X16256Y-1143
T5
X03011Y-12954
X03556Y-12954
X04101Y-12954
X04789Y-12954
X05334Y-12954
X05879Y-12954
X06567Y-12954
X07112Y-12954
X07657Y-12954
X08345Y-12954
X0889Y-12954
X09435Y-12954
X10123Y-12954
X10668Y-12954
X11213Y-12954
X11901Y-12954
X12446Y-12954
X12991Y-12954
X180171Y-05805
X180171Y-0635
X180171Y-06895
X180171Y-07583
X180171Y-08128
X180171Y-08673
X18034Y-02249
X18034Y-02794
X18034Y-03339
X18034Y-04027
X18034Y-04572
X18034Y-05117
X18034Y-09361
X18034Y-09906
X18034Y-10451
X18034Y-11139
X18034Y-11684
X18034Y-12229
T6
X14478Y-12748
X14478Y-13208
T7
X0254Y-01778
X025654Y-16256
X21082Y-01778
X21082Y-16256
T0
M30
