G04 #@! TF.FileFunction,Copper,L2,Bot,Signal*
%FSLAX46Y46*%
G04 Gerber Fmt 4.6, Leading zero omitted, Abs format (unit mm)*
G04 Created by KiCad (PCBNEW 4.0.7) date 06/06/18 10:15:49*
%MOMM*%
%LPD*%
G01*
G04 APERTURE LIST*
%ADD10C,0.100000*%
%ADD11R,1.700000X1.700000*%
%ADD12O,1.700000X1.700000*%
%ADD13C,6.400000*%
%ADD14R,2.200000X2.200000*%
%ADD15O,2.200000X2.200000*%
%ADD16C,2.400000*%
%ADD17R,2.000000X2.400000*%
%ADD18C,2.500000*%
%ADD19C,1.524000*%
%ADD20R,1.800000X1.800000*%
%ADD21O,1.800000X1.800000*%
%ADD22C,0.600000*%
%ADD23C,1.000000*%
%ADD24C,1.200000*%
%ADD25C,2.000000*%
%ADD26C,0.300000*%
%ADD27C,0.254000*%
G04 APERTURE END LIST*
D10*
D11*
X182760000Y-140120000D03*
D12*
X185300000Y-140120000D03*
X182760000Y-137580000D03*
X185300000Y-137580000D03*
X182760000Y-135040000D03*
X185300000Y-135040000D03*
X182760000Y-132500000D03*
X185300000Y-132500000D03*
X182760000Y-129960000D03*
X185300000Y-129960000D03*
X182760000Y-127420000D03*
X185300000Y-127420000D03*
D13*
X191000000Y-151000000D03*
D14*
X124460000Y-27940000D03*
D15*
X124460000Y-38100000D03*
D14*
X132080000Y-27940000D03*
D15*
X132080000Y-38100000D03*
D14*
X139700000Y-27940000D03*
D15*
X139700000Y-38100000D03*
D14*
X147320000Y-27940000D03*
D15*
X147320000Y-38100000D03*
D14*
X154940000Y-27940000D03*
D15*
X154940000Y-38100000D03*
D14*
X162560000Y-27940000D03*
D15*
X162560000Y-38100000D03*
D14*
X124460000Y-43180000D03*
D15*
X124460000Y-53340000D03*
D14*
X132080000Y-43180000D03*
D15*
X132080000Y-53340000D03*
D14*
X139700000Y-43180000D03*
D15*
X139700000Y-53340000D03*
D14*
X147320000Y-43180000D03*
D15*
X147320000Y-53340000D03*
D14*
X154940000Y-43180000D03*
D15*
X154940000Y-53340000D03*
D14*
X162560000Y-43180000D03*
D15*
X162560000Y-53340000D03*
D14*
X124460000Y-58420000D03*
D15*
X124460000Y-68580000D03*
D14*
X132080000Y-58420000D03*
D15*
X132080000Y-68580000D03*
D14*
X139700000Y-58420000D03*
D15*
X139700000Y-68580000D03*
D14*
X147320000Y-58420000D03*
D15*
X147320000Y-68580000D03*
D14*
X154940000Y-58420000D03*
D15*
X154940000Y-68580000D03*
D14*
X162560000Y-58420000D03*
D15*
X162560000Y-68580000D03*
D14*
X124460000Y-73660000D03*
D15*
X124460000Y-83820000D03*
D14*
X132080000Y-73660000D03*
D15*
X132080000Y-83820000D03*
D14*
X139700000Y-73660000D03*
D15*
X139700000Y-83820000D03*
D14*
X147320000Y-73660000D03*
D15*
X147320000Y-83820000D03*
D14*
X154940000Y-73660000D03*
D15*
X154940000Y-83820000D03*
D14*
X162560000Y-73660000D03*
D15*
X162560000Y-83820000D03*
D14*
X124460000Y-88900000D03*
D15*
X124460000Y-99060000D03*
D14*
X132080000Y-88900000D03*
D15*
X132080000Y-99060000D03*
D14*
X139700000Y-88900000D03*
D15*
X139700000Y-99060000D03*
D14*
X147320000Y-88900000D03*
D15*
X147320000Y-99060000D03*
D14*
X154940000Y-88900000D03*
D15*
X154940000Y-99060000D03*
D14*
X162560000Y-88900000D03*
D15*
X162560000Y-99060000D03*
D14*
X124460000Y-104140000D03*
D15*
X124460000Y-114300000D03*
D14*
X132080000Y-104140000D03*
D15*
X132080000Y-114300000D03*
D14*
X139700000Y-104140000D03*
D15*
X139700000Y-114300000D03*
D14*
X147320000Y-104140000D03*
D15*
X147320000Y-114300000D03*
D14*
X154940000Y-104140000D03*
D15*
X154940000Y-114300000D03*
D14*
X162560000Y-104140000D03*
D15*
X162560000Y-114300000D03*
D16*
X137958600Y-145548000D03*
D17*
X143458600Y-150048000D03*
X132458600Y-150048000D03*
X143458600Y-143848000D03*
X132458600Y-143848000D03*
D16*
X137958600Y-150048000D03*
D13*
X191000000Y-19000000D03*
X29000000Y-19000000D03*
X29000000Y-151000000D03*
D18*
X140716000Y-123444000D03*
X140716000Y-128044000D03*
D19*
X32800000Y-37050000D03*
X43400000Y-26450000D03*
X46135000Y-37050000D03*
X56735000Y-26450000D03*
X59470000Y-37050000D03*
X70070000Y-26450000D03*
X72805000Y-37050000D03*
X83405000Y-26450000D03*
X86140000Y-37050000D03*
X96740000Y-26450000D03*
X99475000Y-37050000D03*
X110075000Y-26450000D03*
X32800000Y-50385000D03*
X43400000Y-39785000D03*
X46135000Y-50385000D03*
X56735000Y-39785000D03*
X59470000Y-50385000D03*
X70070000Y-39785000D03*
X72805000Y-50385000D03*
X83405000Y-39785000D03*
X86140000Y-50385000D03*
X96740000Y-39785000D03*
X99475000Y-50385000D03*
X110075000Y-39785000D03*
X32800000Y-63720000D03*
X43400000Y-53120000D03*
X46135000Y-63720000D03*
X56735000Y-53120000D03*
X59470000Y-63720000D03*
X70070000Y-53120000D03*
X72805000Y-63720000D03*
X83405000Y-53120000D03*
X86140000Y-63720000D03*
X96740000Y-53120000D03*
X99475000Y-63720000D03*
X110075000Y-53120000D03*
X32800000Y-77055000D03*
X43400000Y-66455000D03*
X46135000Y-77055000D03*
X56735000Y-66455000D03*
X59470000Y-77055000D03*
X70070000Y-66455000D03*
X72805000Y-77055000D03*
X83405000Y-66455000D03*
X86140000Y-77055000D03*
X96740000Y-66455000D03*
X99475000Y-77055000D03*
X110075000Y-66455000D03*
X32800000Y-90390000D03*
X43400000Y-79790000D03*
X46135000Y-90390000D03*
X56735000Y-79790000D03*
X59470000Y-90390000D03*
X70070000Y-79790000D03*
X72805000Y-90390000D03*
X83405000Y-79790000D03*
X86140000Y-90390000D03*
X96740000Y-79790000D03*
X99475000Y-90390000D03*
X110075000Y-79790000D03*
X32800000Y-103725000D03*
X43400000Y-93125000D03*
X46135000Y-103725000D03*
X56735000Y-93125000D03*
X59470000Y-103725000D03*
X70070000Y-93125000D03*
X72805000Y-103725000D03*
X83405000Y-93125000D03*
X86140000Y-103725000D03*
X96740000Y-93125000D03*
X99475000Y-103725000D03*
X110075000Y-93125000D03*
D20*
X171450000Y-30480000D03*
D21*
X171450000Y-27940000D03*
X171450000Y-25400000D03*
D20*
X171450000Y-45720000D03*
D21*
X171450000Y-43180000D03*
X171450000Y-40640000D03*
D20*
X171450000Y-60960000D03*
D21*
X171450000Y-58420000D03*
X171450000Y-55880000D03*
D20*
X171300000Y-76200000D03*
D21*
X171300000Y-73660000D03*
X171300000Y-71120000D03*
D20*
X171300000Y-91440000D03*
D21*
X171300000Y-88900000D03*
X171300000Y-86360000D03*
D20*
X171450000Y-106680000D03*
D21*
X171450000Y-104140000D03*
X171450000Y-101600000D03*
D20*
X33940000Y-114300000D03*
D21*
X36480000Y-114300000D03*
X39020000Y-114300000D03*
D20*
X47275000Y-114300000D03*
D21*
X49815000Y-114300000D03*
X52355000Y-114300000D03*
D20*
X60610000Y-114300000D03*
D21*
X63150000Y-114300000D03*
X65690000Y-114300000D03*
D20*
X73945000Y-114300000D03*
D21*
X76485000Y-114300000D03*
X79025000Y-114300000D03*
D20*
X87280000Y-114150000D03*
D21*
X89820000Y-114150000D03*
X92360000Y-114150000D03*
D20*
X100615000Y-114300000D03*
D21*
X103155000Y-114300000D03*
X105695000Y-114300000D03*
D11*
X153030000Y-151520000D03*
D12*
X153030000Y-148980000D03*
X153030000Y-146440000D03*
X153030000Y-143900000D03*
X153030000Y-141360000D03*
X153030000Y-138820000D03*
X153030000Y-136280000D03*
X153030000Y-133740000D03*
X153030000Y-131200000D03*
X153030000Y-128660000D03*
X153030000Y-126120000D03*
X153030000Y-123580000D03*
X153030000Y-121040000D03*
D11*
X168270000Y-141350000D03*
D12*
X168270000Y-138810000D03*
X168270000Y-136270000D03*
X168270000Y-133730000D03*
X168270000Y-131190000D03*
X168270000Y-128650000D03*
X168270000Y-126110000D03*
X168270000Y-123570000D03*
X168270000Y-121030000D03*
D22*
X132458600Y-150450010D03*
X132370600Y-143820800D03*
D23*
X154940000Y-27940000D02*
X162560000Y-27940000D01*
X147320000Y-27940000D02*
X154940000Y-27940000D01*
X139700000Y-27940000D02*
X147320000Y-27940000D01*
X132080000Y-27940000D02*
X139700000Y-27940000D01*
X124460000Y-27940000D02*
X132080000Y-27940000D01*
D24*
X43400000Y-26450000D02*
X47879000Y-21971000D01*
X122047000Y-27178000D02*
X122047000Y-35687000D01*
X47879000Y-21971000D02*
X116840000Y-21971000D01*
X116840000Y-21971000D02*
X122047000Y-27178000D01*
X122047000Y-35687000D02*
X124460000Y-38100000D01*
D23*
X154940000Y-43180000D02*
X162560000Y-43180000D01*
X147320000Y-43180000D02*
X154940000Y-43180000D01*
X139700000Y-43180000D02*
X147320000Y-43180000D01*
X132080000Y-43180000D02*
X139700000Y-43180000D01*
X124460000Y-43180000D02*
X132080000Y-43180000D01*
D24*
X49018989Y-23371011D02*
X43400000Y-28990000D01*
X43400000Y-28990000D02*
X43400000Y-39785000D01*
X120015000Y-28321000D02*
X115065011Y-23371011D01*
X115065011Y-23371011D02*
X49018989Y-23371011D01*
X124460000Y-53340000D02*
X120015000Y-48895000D01*
X120015000Y-48895000D02*
X120015000Y-28321000D01*
D23*
X132080000Y-58420000D02*
X124460000Y-58420000D01*
X139700000Y-58420000D02*
X132080000Y-58420000D01*
X147320000Y-58420000D02*
X139700000Y-58420000D01*
X154940000Y-58420000D02*
X147320000Y-58420000D01*
X162560000Y-58420000D02*
X154940000Y-58420000D01*
D24*
X118263044Y-62383044D02*
X124460000Y-68580000D01*
X114485108Y-24771022D02*
X118263044Y-28548958D01*
X43400000Y-42096762D02*
X48084999Y-37411763D01*
X48084999Y-37411763D02*
X48084999Y-30274001D01*
X48084999Y-30274001D02*
X53587978Y-24771022D01*
X53587978Y-24771022D02*
X114485108Y-24771022D01*
X43400000Y-53120000D02*
X43400000Y-42096762D01*
X118263044Y-28548958D02*
X118263044Y-62383044D01*
D23*
X154940000Y-73660000D02*
X162560000Y-73660000D01*
X147320000Y-73660000D02*
X154940000Y-73660000D01*
X139700000Y-73660000D02*
X147320000Y-73660000D01*
X132080000Y-73660000D02*
X139700000Y-73660000D01*
X124460000Y-73660000D02*
X132080000Y-73660000D01*
D24*
X43400000Y-66455000D02*
X43400000Y-55431762D01*
X43400000Y-55431762D02*
X47697001Y-51134761D01*
X47697001Y-51134761D02*
X47697001Y-40931997D01*
X47697001Y-40931997D02*
X55172999Y-33455999D01*
X55172999Y-33455999D02*
X55190001Y-33455999D01*
X55190001Y-33455999D02*
X57277000Y-31369000D01*
X57277000Y-31369000D02*
X57404000Y-31369000D01*
X57404000Y-31369000D02*
X60452000Y-28321000D01*
X60452000Y-28321000D02*
X115570000Y-28321000D01*
X115570000Y-28321000D02*
X116863034Y-29614034D01*
X116863034Y-29614034D02*
X116863034Y-76223034D01*
X116863034Y-76223034D02*
X124460000Y-83820000D01*
D23*
X154940000Y-88900000D02*
X162560000Y-88900000D01*
X147320000Y-88900000D02*
X154940000Y-88900000D01*
X139700000Y-88900000D02*
X147320000Y-88900000D01*
X132080000Y-88900000D02*
X139700000Y-88900000D01*
X124460000Y-88900000D02*
X132080000Y-88900000D01*
D24*
X55172999Y-49723999D02*
X55172999Y-39035239D01*
X55172999Y-39035239D02*
X59108237Y-35100001D01*
X59108237Y-35100001D02*
X99748003Y-35100001D01*
X99748003Y-35100001D02*
X115463024Y-50815022D01*
X115463024Y-50815022D02*
X115463024Y-90063024D01*
X115463024Y-90063024D02*
X124460000Y-99060000D01*
X43400000Y-79790000D02*
X43400000Y-68766762D01*
X43400000Y-68766762D02*
X48084999Y-64081763D01*
X48084999Y-64081763D02*
X48084999Y-56811999D01*
X48084999Y-56811999D02*
X55172999Y-49723999D01*
D23*
X154940000Y-104140000D02*
X162560000Y-104140000D01*
X147320000Y-104140000D02*
X154940000Y-104140000D01*
X139700000Y-104140000D02*
X147320000Y-104140000D01*
X132080000Y-104140000D02*
X139700000Y-104140000D01*
X124460000Y-104140000D02*
X132080000Y-104140000D01*
D24*
X46135000Y-103725000D02*
X46135000Y-108080000D01*
X46135000Y-108080000D02*
X52355000Y-114300000D01*
X52135000Y-114080000D02*
X52355000Y-114300000D01*
X46101000Y-103759000D02*
X46101000Y-90424000D01*
X59470000Y-103725000D02*
X59470000Y-108080000D01*
X59470000Y-108080000D02*
X65690000Y-114300000D01*
X65470000Y-114080000D02*
X65690000Y-114300000D01*
X59470000Y-90390000D02*
X59470000Y-103725000D01*
X59470000Y-77055000D02*
X59470000Y-90390000D01*
X59470000Y-63720000D02*
X59470000Y-77055000D01*
X59470000Y-50385000D02*
X59470000Y-63720000D01*
X59470000Y-37050000D02*
X59470000Y-50385000D01*
X72805000Y-103725000D02*
X72805000Y-108080000D01*
X72805000Y-108080000D02*
X79025000Y-114300000D01*
X78805000Y-114080000D02*
X79025000Y-114300000D01*
X72805000Y-50385000D02*
X72805000Y-37050000D01*
X72805000Y-63720000D02*
X72805000Y-50385000D01*
X72805000Y-77055000D02*
X72805000Y-63720000D01*
X72805000Y-90390000D02*
X72805000Y-77055000D01*
X72805000Y-103725000D02*
X72805000Y-90390000D01*
X86140000Y-103725000D02*
X86140000Y-107930000D01*
X86140000Y-107930000D02*
X92360000Y-114150000D01*
X92140000Y-113930000D02*
X92360000Y-114150000D01*
X86140000Y-50385000D02*
X86140000Y-37050000D01*
X86140000Y-63720000D02*
X86140000Y-50385000D01*
X86140000Y-77055000D02*
X86140000Y-63720000D01*
X86140000Y-90390000D02*
X86140000Y-77055000D01*
X86140000Y-103725000D02*
X86140000Y-90390000D01*
X99475000Y-103725000D02*
X99475000Y-108080000D01*
X99475000Y-108080000D02*
X105695000Y-114300000D01*
X105475000Y-114080000D02*
X105695000Y-114300000D01*
X99475000Y-90390000D02*
X99475000Y-103725000D01*
X99475000Y-77055000D02*
X99475000Y-90390000D01*
X99475000Y-63720000D02*
X99475000Y-77055000D01*
X99475000Y-50385000D02*
X99475000Y-63720000D01*
X99475000Y-37050000D02*
X99475000Y-50385000D01*
D25*
X132458600Y-150450010D02*
X132458600Y-143848000D01*
D26*
X132458600Y-150025746D02*
X132458600Y-150450010D01*
X132392854Y-149960000D02*
X132458600Y-150025746D01*
X132370600Y-149960000D02*
X132392854Y-149960000D01*
X182760000Y-137580000D02*
X172046000Y-137580000D01*
X172046000Y-137580000D02*
X168275000Y-141351000D01*
X168275000Y-138811000D02*
X172046000Y-135040000D01*
X172046000Y-135040000D02*
X182760000Y-135040000D01*
X168275000Y-128651000D02*
X170706001Y-126219999D01*
X170706001Y-126219999D02*
X184099999Y-126219999D01*
X184099999Y-126219999D02*
X185300000Y-127420000D01*
X168275000Y-136271000D02*
X172046000Y-132500000D01*
X172046000Y-132500000D02*
X182760000Y-132500000D01*
X168275000Y-126111000D02*
X169224999Y-125161001D01*
X169224999Y-125161001D02*
X184817003Y-125161001D01*
X184817003Y-125161001D02*
X186500001Y-126843999D01*
X186500001Y-126843999D02*
X186500001Y-128759999D01*
X186500001Y-128759999D02*
X185300000Y-129960000D01*
X168275000Y-133731000D02*
X172046000Y-129960000D01*
X172046000Y-129960000D02*
X182760000Y-129960000D01*
X168275000Y-123571000D02*
X183934122Y-123571000D01*
X183934122Y-123571000D02*
X187000011Y-126636889D01*
X187000011Y-126636889D02*
X187000011Y-130035991D01*
X187000011Y-130035991D02*
X185300000Y-131736002D01*
X185300000Y-131736002D02*
X185300000Y-132500000D01*
X168275000Y-131191000D02*
X172046000Y-127420000D01*
X172046000Y-127420000D02*
X182760000Y-127420000D01*
X168275000Y-121031000D02*
X182101242Y-121031000D01*
X182101242Y-121031000D02*
X187500021Y-126429779D01*
X187500021Y-126429779D02*
X187500021Y-132839979D01*
X187500021Y-132839979D02*
X185300000Y-135040000D01*
X153035000Y-133731000D02*
X148883950Y-129579950D01*
X166639980Y-107680020D02*
X166639980Y-36490020D01*
X166639980Y-36490020D02*
X171450000Y-31680000D01*
X148883950Y-129579950D02*
X148883950Y-116088688D01*
X148883950Y-116088688D02*
X154736638Y-110236000D01*
X154736638Y-110236000D02*
X164084000Y-110236000D01*
X164084000Y-110236000D02*
X166639980Y-107680020D01*
X171450000Y-31680000D02*
X171450000Y-30480000D01*
X167139990Y-108704010D02*
X167139990Y-51230010D01*
X167139990Y-51230010D02*
X171450000Y-46920000D01*
X171450000Y-46920000D02*
X171450000Y-45720000D01*
X154427758Y-111252000D02*
X164592000Y-111252000D01*
X164592000Y-111252000D02*
X167139990Y-108704010D01*
X153035000Y-131191000D02*
X149383960Y-127539960D01*
X149383960Y-127539960D02*
X149383960Y-116295798D01*
X149383960Y-116295798D02*
X154427758Y-111252000D01*
X167640000Y-109020880D02*
X167640000Y-65970000D01*
X167640000Y-65970000D02*
X171450000Y-62160000D01*
X171450000Y-62160000D02*
X171450000Y-60960000D01*
X164892890Y-111767990D02*
X167640000Y-109020880D01*
X154618888Y-111767990D02*
X164892890Y-111767990D01*
X153035000Y-128651000D02*
X149883970Y-125499970D01*
X149883970Y-125499970D02*
X149883970Y-116502908D01*
X149883970Y-116502908D02*
X154618888Y-111767990D01*
X168656000Y-108712000D02*
X168656000Y-80044000D01*
X168656000Y-80044000D02*
X171300000Y-77400000D01*
X171300000Y-77400000D02*
X171300000Y-76200000D01*
X154825998Y-112268000D02*
X165100000Y-112268000D01*
X165100000Y-112268000D02*
X168656000Y-108712000D01*
X153035000Y-126111000D02*
X150383980Y-123459980D01*
X150383980Y-123459980D02*
X150383980Y-116710018D01*
X150383980Y-116710018D02*
X154825998Y-112268000D01*
X153035000Y-123571000D02*
X150883990Y-121419990D01*
X150883990Y-121419990D02*
X150883990Y-118010888D01*
X150883990Y-118010888D02*
X152554888Y-116339990D01*
X164584010Y-116339990D02*
X169672000Y-111252000D01*
X152554888Y-116339990D02*
X164584010Y-116339990D01*
X169672000Y-111252000D02*
X169672000Y-92456000D01*
X169672000Y-92456000D02*
X171196000Y-90932000D01*
X171196000Y-90932000D02*
X171300000Y-91036000D01*
X171300000Y-91036000D02*
X171300000Y-91440000D01*
X171450000Y-110181122D02*
X171450000Y-106680000D01*
X153035000Y-121031000D02*
X151384001Y-119380001D01*
X164791122Y-116840000D02*
X171450000Y-110181122D01*
X152761999Y-116840001D02*
X164791122Y-116840000D01*
X151384001Y-119380001D02*
X151384001Y-118217999D01*
X151384001Y-118217999D02*
X152761999Y-116840001D01*
D25*
X143400000Y-143700000D02*
X143400000Y-130728000D01*
X143400000Y-130728000D02*
X140716000Y-128044000D01*
X143458600Y-143848000D02*
X143458600Y-150048000D01*
D23*
X143343400Y-143770000D02*
X143357000Y-143756400D01*
D27*
G36*
X49193182Y-112884736D02*
X48776974Y-113162837D01*
X48639090Y-112948559D01*
X48426890Y-112803569D01*
X48175000Y-112752560D01*
X46375000Y-112752560D01*
X46139683Y-112796838D01*
X45923559Y-112935910D01*
X45778569Y-113148110D01*
X45727560Y-113400000D01*
X45727560Y-115200000D01*
X45771838Y-115435317D01*
X45910910Y-115651441D01*
X46123110Y-115796431D01*
X46375000Y-115847440D01*
X48175000Y-115847440D01*
X48410317Y-115803162D01*
X48626441Y-115664090D01*
X48771431Y-115451890D01*
X48774719Y-115435656D01*
X49197509Y-115718155D01*
X49784928Y-115835000D01*
X49845072Y-115835000D01*
X50432491Y-115718155D01*
X50930481Y-115385409D01*
X51085000Y-115154155D01*
X51239519Y-115385409D01*
X51737509Y-115718155D01*
X52324928Y-115835000D01*
X52385072Y-115835000D01*
X52972491Y-115718155D01*
X53470481Y-115385409D01*
X53803227Y-114887419D01*
X53920072Y-114300000D01*
X53803227Y-113712581D01*
X53470481Y-113214591D01*
X52972491Y-112881845D01*
X52611617Y-112810063D01*
X49928554Y-110127000D01*
X59770446Y-110127000D01*
X62558240Y-112914794D01*
X62242424Y-113062034D01*
X62119156Y-113196538D01*
X62113162Y-113164683D01*
X61974090Y-112948559D01*
X61761890Y-112803569D01*
X61510000Y-112752560D01*
X59710000Y-112752560D01*
X59474683Y-112796838D01*
X59258559Y-112935910D01*
X59113569Y-113148110D01*
X59062560Y-113400000D01*
X59062560Y-115200000D01*
X59106838Y-115435317D01*
X59245910Y-115651441D01*
X59458110Y-115796431D01*
X59710000Y-115847440D01*
X61510000Y-115847440D01*
X61745317Y-115803162D01*
X61961441Y-115664090D01*
X62106431Y-115451890D01*
X62116766Y-115400854D01*
X62242424Y-115537966D01*
X62785258Y-115791046D01*
X63023000Y-115670997D01*
X63023000Y-114427000D01*
X63003000Y-114427000D01*
X63003000Y-114173000D01*
X63023000Y-114173000D01*
X63023000Y-114153000D01*
X63277000Y-114153000D01*
X63277000Y-114173000D01*
X63297000Y-114173000D01*
X63297000Y-114427000D01*
X63277000Y-114427000D01*
X63277000Y-115670997D01*
X63514742Y-115791046D01*
X64057576Y-115537966D01*
X64415499Y-115147418D01*
X64574519Y-115385409D01*
X65072509Y-115718155D01*
X65659928Y-115835000D01*
X65720072Y-115835000D01*
X66307491Y-115718155D01*
X66805481Y-115385409D01*
X67138227Y-114887419D01*
X67255072Y-114300000D01*
X67138227Y-113712581D01*
X66805481Y-113214591D01*
X66307491Y-112881845D01*
X65946617Y-112810063D01*
X63263554Y-110127000D01*
X73105446Y-110127000D01*
X75893240Y-112914794D01*
X75577424Y-113062034D01*
X75454156Y-113196538D01*
X75448162Y-113164683D01*
X75309090Y-112948559D01*
X75096890Y-112803569D01*
X74845000Y-112752560D01*
X73045000Y-112752560D01*
X72809683Y-112796838D01*
X72593559Y-112935910D01*
X72448569Y-113148110D01*
X72397560Y-113400000D01*
X72397560Y-115200000D01*
X72441838Y-115435317D01*
X72580910Y-115651441D01*
X72793110Y-115796431D01*
X73045000Y-115847440D01*
X74845000Y-115847440D01*
X75080317Y-115803162D01*
X75296441Y-115664090D01*
X75441431Y-115451890D01*
X75451766Y-115400854D01*
X75577424Y-115537966D01*
X76120258Y-115791046D01*
X76358000Y-115670997D01*
X76358000Y-114427000D01*
X76338000Y-114427000D01*
X76338000Y-114173000D01*
X76358000Y-114173000D01*
X76358000Y-114153000D01*
X76612000Y-114153000D01*
X76612000Y-114173000D01*
X76632000Y-114173000D01*
X76632000Y-114427000D01*
X76612000Y-114427000D01*
X76612000Y-115670997D01*
X76849742Y-115791046D01*
X77392576Y-115537966D01*
X77750499Y-115147418D01*
X77909519Y-115385409D01*
X78407509Y-115718155D01*
X78994928Y-115835000D01*
X79055072Y-115835000D01*
X79642491Y-115718155D01*
X80140481Y-115385409D01*
X80473227Y-114887419D01*
X80590072Y-114300000D01*
X80473227Y-113712581D01*
X80140481Y-113214591D01*
X79642491Y-112881845D01*
X79281617Y-112810063D01*
X76598554Y-110127000D01*
X86590446Y-110127000D01*
X89228240Y-112764794D01*
X88912424Y-112912034D01*
X88789156Y-113046538D01*
X88783162Y-113014683D01*
X88644090Y-112798559D01*
X88431890Y-112653569D01*
X88180000Y-112602560D01*
X86380000Y-112602560D01*
X86144683Y-112646838D01*
X85928559Y-112785910D01*
X85783569Y-112998110D01*
X85732560Y-113250000D01*
X85732560Y-115050000D01*
X85776838Y-115285317D01*
X85915910Y-115501441D01*
X86128110Y-115646431D01*
X86380000Y-115697440D01*
X88180000Y-115697440D01*
X88415317Y-115653162D01*
X88631441Y-115514090D01*
X88776431Y-115301890D01*
X88786766Y-115250854D01*
X88912424Y-115387966D01*
X89455258Y-115641046D01*
X89693000Y-115520997D01*
X89693000Y-114277000D01*
X89673000Y-114277000D01*
X89673000Y-114023000D01*
X89693000Y-114023000D01*
X89693000Y-114003000D01*
X89947000Y-114003000D01*
X89947000Y-114023000D01*
X89967000Y-114023000D01*
X89967000Y-114277000D01*
X89947000Y-114277000D01*
X89947000Y-115520997D01*
X90184742Y-115641046D01*
X90727576Y-115387966D01*
X91085499Y-114997418D01*
X91244519Y-115235409D01*
X91742509Y-115568155D01*
X92329928Y-115685000D01*
X92390072Y-115685000D01*
X92977491Y-115568155D01*
X93475481Y-115235409D01*
X93808227Y-114737419D01*
X93925072Y-114150000D01*
X93808227Y-113562581D01*
X93475481Y-113064591D01*
X92977491Y-112731845D01*
X92616617Y-112660063D01*
X90083554Y-110127000D01*
X99775446Y-110127000D01*
X102563240Y-112914794D01*
X102247424Y-113062034D01*
X102124156Y-113196538D01*
X102118162Y-113164683D01*
X101979090Y-112948559D01*
X101766890Y-112803569D01*
X101515000Y-112752560D01*
X99715000Y-112752560D01*
X99479683Y-112796838D01*
X99263559Y-112935910D01*
X99118569Y-113148110D01*
X99067560Y-113400000D01*
X99067560Y-115200000D01*
X99111838Y-115435317D01*
X99250910Y-115651441D01*
X99463110Y-115796431D01*
X99715000Y-115847440D01*
X101515000Y-115847440D01*
X101750317Y-115803162D01*
X101966441Y-115664090D01*
X102111431Y-115451890D01*
X102121766Y-115400854D01*
X102247424Y-115537966D01*
X102790258Y-115791046D01*
X103028000Y-115670997D01*
X103028000Y-114427000D01*
X103008000Y-114427000D01*
X103008000Y-114173000D01*
X103028000Y-114173000D01*
X103028000Y-114153000D01*
X103282000Y-114153000D01*
X103282000Y-114173000D01*
X103302000Y-114173000D01*
X103302000Y-114427000D01*
X103282000Y-114427000D01*
X103282000Y-115670997D01*
X103519742Y-115791046D01*
X104062576Y-115537966D01*
X104420499Y-115147418D01*
X104579519Y-115385409D01*
X105077509Y-115718155D01*
X105664928Y-115835000D01*
X105725072Y-115835000D01*
X106312491Y-115718155D01*
X106810481Y-115385409D01*
X107143227Y-114887419D01*
X107260072Y-114300000D01*
X107253311Y-114266009D01*
X122725000Y-114266009D01*
X122725000Y-114333991D01*
X122857069Y-114997947D01*
X123233170Y-115560821D01*
X123796044Y-115936922D01*
X124460000Y-116068991D01*
X125123956Y-115936922D01*
X125686830Y-115560821D01*
X126062931Y-114997947D01*
X126195000Y-114333991D01*
X126195000Y-114266009D01*
X130345000Y-114266009D01*
X130345000Y-114333991D01*
X130477069Y-114997947D01*
X130853170Y-115560821D01*
X131416044Y-115936922D01*
X132080000Y-116068991D01*
X132743956Y-115936922D01*
X133306830Y-115560821D01*
X133682931Y-114997947D01*
X133815000Y-114333991D01*
X133815000Y-114266009D01*
X137965000Y-114266009D01*
X137965000Y-114333991D01*
X138097069Y-114997947D01*
X138473170Y-115560821D01*
X139036044Y-115936922D01*
X139700000Y-116068991D01*
X140363956Y-115936922D01*
X140926830Y-115560821D01*
X141302931Y-114997947D01*
X141435000Y-114333991D01*
X141435000Y-114266009D01*
X141302931Y-113602053D01*
X140926830Y-113039179D01*
X140363956Y-112663078D01*
X139700000Y-112531009D01*
X139036044Y-112663078D01*
X138473170Y-113039179D01*
X138097069Y-113602053D01*
X137965000Y-114266009D01*
X133815000Y-114266009D01*
X133682931Y-113602053D01*
X133306830Y-113039179D01*
X132743956Y-112663078D01*
X132080000Y-112531009D01*
X131416044Y-112663078D01*
X130853170Y-113039179D01*
X130477069Y-113602053D01*
X130345000Y-114266009D01*
X126195000Y-114266009D01*
X126062931Y-113602053D01*
X125686830Y-113039179D01*
X125123956Y-112663078D01*
X124460000Y-112531009D01*
X123796044Y-112663078D01*
X123233170Y-113039179D01*
X122857069Y-113602053D01*
X122725000Y-114266009D01*
X107253311Y-114266009D01*
X107143227Y-113712581D01*
X106810481Y-113214591D01*
X106312491Y-112881845D01*
X105951617Y-112810063D01*
X103268554Y-110127000D01*
X153735480Y-110127000D01*
X148937431Y-114925049D01*
X149055000Y-114333991D01*
X149055000Y-114266009D01*
X148922931Y-113602053D01*
X148546830Y-113039179D01*
X147983956Y-112663078D01*
X147320000Y-112531009D01*
X146656044Y-112663078D01*
X146093170Y-113039179D01*
X145717069Y-113602053D01*
X145585000Y-114266009D01*
X145585000Y-114333991D01*
X145717069Y-114997947D01*
X146093170Y-115560821D01*
X146656044Y-115936922D01*
X147320000Y-116068991D01*
X147983956Y-115936922D01*
X148151392Y-115825044D01*
X148131506Y-115925018D01*
X148098950Y-116088688D01*
X148098950Y-123538391D01*
X142372674Y-127117314D01*
X142314957Y-126977628D01*
X141785161Y-126446907D01*
X141092595Y-126159328D01*
X140342695Y-126158674D01*
X139649628Y-126445043D01*
X139118907Y-126974839D01*
X138831328Y-127667405D01*
X138830674Y-128417305D01*
X139117043Y-129110372D01*
X139142684Y-129136058D01*
X129963576Y-134873000D01*
X25710000Y-134873000D01*
X25710000Y-130960000D01*
X34048275Y-130960000D01*
X34229822Y-131872700D01*
X34746825Y-132646450D01*
X35520575Y-133163453D01*
X36433275Y-133345000D01*
X36526725Y-133345000D01*
X37439425Y-133163453D01*
X38213175Y-132646450D01*
X38730178Y-131872700D01*
X38911725Y-130960000D01*
X47383275Y-130960000D01*
X47564822Y-131872700D01*
X48081825Y-132646450D01*
X48855575Y-133163453D01*
X49768275Y-133345000D01*
X49861725Y-133345000D01*
X50774425Y-133163453D01*
X51548175Y-132646450D01*
X52065178Y-131872700D01*
X52246725Y-130960000D01*
X60718275Y-130960000D01*
X60899822Y-131872700D01*
X61416825Y-132646450D01*
X62190575Y-133163453D01*
X63103275Y-133345000D01*
X63196725Y-133345000D01*
X64109425Y-133163453D01*
X64883175Y-132646450D01*
X65400178Y-131872700D01*
X65581725Y-130960000D01*
X74053275Y-130960000D01*
X74234822Y-131872700D01*
X74751825Y-132646450D01*
X75525575Y-133163453D01*
X76438275Y-133345000D01*
X76531725Y-133345000D01*
X77444425Y-133163453D01*
X78218175Y-132646450D01*
X78735178Y-131872700D01*
X78916725Y-130960000D01*
X78886889Y-130810000D01*
X87388275Y-130810000D01*
X87569822Y-131722700D01*
X88086825Y-132496450D01*
X88860575Y-133013453D01*
X89773275Y-133195000D01*
X89866725Y-133195000D01*
X90779425Y-133013453D01*
X91553175Y-132496450D01*
X92070178Y-131722700D01*
X92221888Y-130960000D01*
X100723275Y-130960000D01*
X100904822Y-131872700D01*
X101421825Y-132646450D01*
X102195575Y-133163453D01*
X103108275Y-133345000D01*
X103201725Y-133345000D01*
X104114425Y-133163453D01*
X104888175Y-132646450D01*
X105405178Y-131872700D01*
X105586725Y-130960000D01*
X105405178Y-130047300D01*
X104888175Y-129273550D01*
X104114425Y-128756547D01*
X103201725Y-128575000D01*
X103108275Y-128575000D01*
X102195575Y-128756547D01*
X101421825Y-129273550D01*
X100904822Y-130047300D01*
X100723275Y-130960000D01*
X92221888Y-130960000D01*
X92251725Y-130810000D01*
X92070178Y-129897300D01*
X91553175Y-129123550D01*
X90779425Y-128606547D01*
X89866725Y-128425000D01*
X89773275Y-128425000D01*
X88860575Y-128606547D01*
X88086825Y-129123550D01*
X87569822Y-129897300D01*
X87388275Y-130810000D01*
X78886889Y-130810000D01*
X78735178Y-130047300D01*
X78218175Y-129273550D01*
X77444425Y-128756547D01*
X76531725Y-128575000D01*
X76438275Y-128575000D01*
X75525575Y-128756547D01*
X74751825Y-129273550D01*
X74234822Y-130047300D01*
X74053275Y-130960000D01*
X65581725Y-130960000D01*
X65400178Y-130047300D01*
X64883175Y-129273550D01*
X64109425Y-128756547D01*
X63196725Y-128575000D01*
X63103275Y-128575000D01*
X62190575Y-128756547D01*
X61416825Y-129273550D01*
X60899822Y-130047300D01*
X60718275Y-130960000D01*
X52246725Y-130960000D01*
X52065178Y-130047300D01*
X51548175Y-129273550D01*
X50774425Y-128756547D01*
X49861725Y-128575000D01*
X49768275Y-128575000D01*
X48855575Y-128756547D01*
X48081825Y-129273550D01*
X47564822Y-130047300D01*
X47383275Y-130960000D01*
X38911725Y-130960000D01*
X38730178Y-130047300D01*
X38213175Y-129273550D01*
X37439425Y-128756547D01*
X36526725Y-128575000D01*
X36433275Y-128575000D01*
X35520575Y-128756547D01*
X34746825Y-129273550D01*
X34229822Y-130047300D01*
X34048275Y-130960000D01*
X25710000Y-130960000D01*
X25710000Y-124777320D01*
X139562285Y-124777320D01*
X139691533Y-125070123D01*
X140391806Y-125338388D01*
X141141435Y-125318250D01*
X141740467Y-125070123D01*
X141869715Y-124777320D01*
X140716000Y-123623605D01*
X139562285Y-124777320D01*
X25710000Y-124777320D01*
X25710000Y-123119806D01*
X138821612Y-123119806D01*
X138841750Y-123869435D01*
X139089877Y-124468467D01*
X139382680Y-124597715D01*
X140536395Y-123444000D01*
X140895605Y-123444000D01*
X142049320Y-124597715D01*
X142342123Y-124468467D01*
X142610388Y-123768194D01*
X142590250Y-123018565D01*
X142342123Y-122419533D01*
X142049320Y-122290285D01*
X140895605Y-123444000D01*
X140536395Y-123444000D01*
X139382680Y-122290285D01*
X139089877Y-122419533D01*
X138821612Y-123119806D01*
X25710000Y-123119806D01*
X25710000Y-122110680D01*
X139562285Y-122110680D01*
X140716000Y-123264395D01*
X141869715Y-122110680D01*
X141740467Y-121817877D01*
X141040194Y-121549612D01*
X140290565Y-121569750D01*
X139691533Y-121817877D01*
X139562285Y-122110680D01*
X25710000Y-122110680D01*
X25710000Y-113400000D01*
X32392560Y-113400000D01*
X32392560Y-115200000D01*
X32436838Y-115435317D01*
X32575910Y-115651441D01*
X32788110Y-115796431D01*
X33040000Y-115847440D01*
X34840000Y-115847440D01*
X35075317Y-115803162D01*
X35291441Y-115664090D01*
X35436431Y-115451890D01*
X35446766Y-115400854D01*
X35572424Y-115537966D01*
X36115258Y-115791046D01*
X36353000Y-115670997D01*
X36353000Y-114427000D01*
X36333000Y-114427000D01*
X36333000Y-114173000D01*
X36353000Y-114173000D01*
X36353000Y-112929003D01*
X36607000Y-112929003D01*
X36607000Y-114173000D01*
X36627000Y-114173000D01*
X36627000Y-114427000D01*
X36607000Y-114427000D01*
X36607000Y-115670997D01*
X36844742Y-115791046D01*
X37387576Y-115537966D01*
X37745499Y-115147418D01*
X37904519Y-115385409D01*
X38402509Y-115718155D01*
X38989928Y-115835000D01*
X39050072Y-115835000D01*
X39637491Y-115718155D01*
X40135481Y-115385409D01*
X40468227Y-114887419D01*
X40585072Y-114300000D01*
X40468227Y-113712581D01*
X40135481Y-113214591D01*
X39637491Y-112881845D01*
X39050072Y-112765000D01*
X38989928Y-112765000D01*
X38402509Y-112881845D01*
X37904519Y-113214591D01*
X37745499Y-113452582D01*
X37387576Y-113062034D01*
X36844742Y-112808954D01*
X36607000Y-112929003D01*
X36353000Y-112929003D01*
X36115258Y-112808954D01*
X35572424Y-113062034D01*
X35449156Y-113196538D01*
X35443162Y-113164683D01*
X35304090Y-112948559D01*
X35091890Y-112803569D01*
X34840000Y-112752560D01*
X33040000Y-112752560D01*
X32804683Y-112796838D01*
X32588559Y-112935910D01*
X32443569Y-113148110D01*
X32392560Y-113400000D01*
X25710000Y-113400000D01*
X25710000Y-110127000D01*
X46435446Y-110127000D01*
X49193182Y-112884736D01*
X49193182Y-112884736D01*
G37*
X49193182Y-112884736D02*
X48776974Y-113162837D01*
X48639090Y-112948559D01*
X48426890Y-112803569D01*
X48175000Y-112752560D01*
X46375000Y-112752560D01*
X46139683Y-112796838D01*
X45923559Y-112935910D01*
X45778569Y-113148110D01*
X45727560Y-113400000D01*
X45727560Y-115200000D01*
X45771838Y-115435317D01*
X45910910Y-115651441D01*
X46123110Y-115796431D01*
X46375000Y-115847440D01*
X48175000Y-115847440D01*
X48410317Y-115803162D01*
X48626441Y-115664090D01*
X48771431Y-115451890D01*
X48774719Y-115435656D01*
X49197509Y-115718155D01*
X49784928Y-115835000D01*
X49845072Y-115835000D01*
X50432491Y-115718155D01*
X50930481Y-115385409D01*
X51085000Y-115154155D01*
X51239519Y-115385409D01*
X51737509Y-115718155D01*
X52324928Y-115835000D01*
X52385072Y-115835000D01*
X52972491Y-115718155D01*
X53470481Y-115385409D01*
X53803227Y-114887419D01*
X53920072Y-114300000D01*
X53803227Y-113712581D01*
X53470481Y-113214591D01*
X52972491Y-112881845D01*
X52611617Y-112810063D01*
X49928554Y-110127000D01*
X59770446Y-110127000D01*
X62558240Y-112914794D01*
X62242424Y-113062034D01*
X62119156Y-113196538D01*
X62113162Y-113164683D01*
X61974090Y-112948559D01*
X61761890Y-112803569D01*
X61510000Y-112752560D01*
X59710000Y-112752560D01*
X59474683Y-112796838D01*
X59258559Y-112935910D01*
X59113569Y-113148110D01*
X59062560Y-113400000D01*
X59062560Y-115200000D01*
X59106838Y-115435317D01*
X59245910Y-115651441D01*
X59458110Y-115796431D01*
X59710000Y-115847440D01*
X61510000Y-115847440D01*
X61745317Y-115803162D01*
X61961441Y-115664090D01*
X62106431Y-115451890D01*
X62116766Y-115400854D01*
X62242424Y-115537966D01*
X62785258Y-115791046D01*
X63023000Y-115670997D01*
X63023000Y-114427000D01*
X63003000Y-114427000D01*
X63003000Y-114173000D01*
X63023000Y-114173000D01*
X63023000Y-114153000D01*
X63277000Y-114153000D01*
X63277000Y-114173000D01*
X63297000Y-114173000D01*
X63297000Y-114427000D01*
X63277000Y-114427000D01*
X63277000Y-115670997D01*
X63514742Y-115791046D01*
X64057576Y-115537966D01*
X64415499Y-115147418D01*
X64574519Y-115385409D01*
X65072509Y-115718155D01*
X65659928Y-115835000D01*
X65720072Y-115835000D01*
X66307491Y-115718155D01*
X66805481Y-115385409D01*
X67138227Y-114887419D01*
X67255072Y-114300000D01*
X67138227Y-113712581D01*
X66805481Y-113214591D01*
X66307491Y-112881845D01*
X65946617Y-112810063D01*
X63263554Y-110127000D01*
X73105446Y-110127000D01*
X75893240Y-112914794D01*
X75577424Y-113062034D01*
X75454156Y-113196538D01*
X75448162Y-113164683D01*
X75309090Y-112948559D01*
X75096890Y-112803569D01*
X74845000Y-112752560D01*
X73045000Y-112752560D01*
X72809683Y-112796838D01*
X72593559Y-112935910D01*
X72448569Y-113148110D01*
X72397560Y-113400000D01*
X72397560Y-115200000D01*
X72441838Y-115435317D01*
X72580910Y-115651441D01*
X72793110Y-115796431D01*
X73045000Y-115847440D01*
X74845000Y-115847440D01*
X75080317Y-115803162D01*
X75296441Y-115664090D01*
X75441431Y-115451890D01*
X75451766Y-115400854D01*
X75577424Y-115537966D01*
X76120258Y-115791046D01*
X76358000Y-115670997D01*
X76358000Y-114427000D01*
X76338000Y-114427000D01*
X76338000Y-114173000D01*
X76358000Y-114173000D01*
X76358000Y-114153000D01*
X76612000Y-114153000D01*
X76612000Y-114173000D01*
X76632000Y-114173000D01*
X76632000Y-114427000D01*
X76612000Y-114427000D01*
X76612000Y-115670997D01*
X76849742Y-115791046D01*
X77392576Y-115537966D01*
X77750499Y-115147418D01*
X77909519Y-115385409D01*
X78407509Y-115718155D01*
X78994928Y-115835000D01*
X79055072Y-115835000D01*
X79642491Y-115718155D01*
X80140481Y-115385409D01*
X80473227Y-114887419D01*
X80590072Y-114300000D01*
X80473227Y-113712581D01*
X80140481Y-113214591D01*
X79642491Y-112881845D01*
X79281617Y-112810063D01*
X76598554Y-110127000D01*
X86590446Y-110127000D01*
X89228240Y-112764794D01*
X88912424Y-112912034D01*
X88789156Y-113046538D01*
X88783162Y-113014683D01*
X88644090Y-112798559D01*
X88431890Y-112653569D01*
X88180000Y-112602560D01*
X86380000Y-112602560D01*
X86144683Y-112646838D01*
X85928559Y-112785910D01*
X85783569Y-112998110D01*
X85732560Y-113250000D01*
X85732560Y-115050000D01*
X85776838Y-115285317D01*
X85915910Y-115501441D01*
X86128110Y-115646431D01*
X86380000Y-115697440D01*
X88180000Y-115697440D01*
X88415317Y-115653162D01*
X88631441Y-115514090D01*
X88776431Y-115301890D01*
X88786766Y-115250854D01*
X88912424Y-115387966D01*
X89455258Y-115641046D01*
X89693000Y-115520997D01*
X89693000Y-114277000D01*
X89673000Y-114277000D01*
X89673000Y-114023000D01*
X89693000Y-114023000D01*
X89693000Y-114003000D01*
X89947000Y-114003000D01*
X89947000Y-114023000D01*
X89967000Y-114023000D01*
X89967000Y-114277000D01*
X89947000Y-114277000D01*
X89947000Y-115520997D01*
X90184742Y-115641046D01*
X90727576Y-115387966D01*
X91085499Y-114997418D01*
X91244519Y-115235409D01*
X91742509Y-115568155D01*
X92329928Y-115685000D01*
X92390072Y-115685000D01*
X92977491Y-115568155D01*
X93475481Y-115235409D01*
X93808227Y-114737419D01*
X93925072Y-114150000D01*
X93808227Y-113562581D01*
X93475481Y-113064591D01*
X92977491Y-112731845D01*
X92616617Y-112660063D01*
X90083554Y-110127000D01*
X99775446Y-110127000D01*
X102563240Y-112914794D01*
X102247424Y-113062034D01*
X102124156Y-113196538D01*
X102118162Y-113164683D01*
X101979090Y-112948559D01*
X101766890Y-112803569D01*
X101515000Y-112752560D01*
X99715000Y-112752560D01*
X99479683Y-112796838D01*
X99263559Y-112935910D01*
X99118569Y-113148110D01*
X99067560Y-113400000D01*
X99067560Y-115200000D01*
X99111838Y-115435317D01*
X99250910Y-115651441D01*
X99463110Y-115796431D01*
X99715000Y-115847440D01*
X101515000Y-115847440D01*
X101750317Y-115803162D01*
X101966441Y-115664090D01*
X102111431Y-115451890D01*
X102121766Y-115400854D01*
X102247424Y-115537966D01*
X102790258Y-115791046D01*
X103028000Y-115670997D01*
X103028000Y-114427000D01*
X103008000Y-114427000D01*
X103008000Y-114173000D01*
X103028000Y-114173000D01*
X103028000Y-114153000D01*
X103282000Y-114153000D01*
X103282000Y-114173000D01*
X103302000Y-114173000D01*
X103302000Y-114427000D01*
X103282000Y-114427000D01*
X103282000Y-115670997D01*
X103519742Y-115791046D01*
X104062576Y-115537966D01*
X104420499Y-115147418D01*
X104579519Y-115385409D01*
X105077509Y-115718155D01*
X105664928Y-115835000D01*
X105725072Y-115835000D01*
X106312491Y-115718155D01*
X106810481Y-115385409D01*
X107143227Y-114887419D01*
X107260072Y-114300000D01*
X107253311Y-114266009D01*
X122725000Y-114266009D01*
X122725000Y-114333991D01*
X122857069Y-114997947D01*
X123233170Y-115560821D01*
X123796044Y-115936922D01*
X124460000Y-116068991D01*
X125123956Y-115936922D01*
X125686830Y-115560821D01*
X126062931Y-114997947D01*
X126195000Y-114333991D01*
X126195000Y-114266009D01*
X130345000Y-114266009D01*
X130345000Y-114333991D01*
X130477069Y-114997947D01*
X130853170Y-115560821D01*
X131416044Y-115936922D01*
X132080000Y-116068991D01*
X132743956Y-115936922D01*
X133306830Y-115560821D01*
X133682931Y-114997947D01*
X133815000Y-114333991D01*
X133815000Y-114266009D01*
X137965000Y-114266009D01*
X137965000Y-114333991D01*
X138097069Y-114997947D01*
X138473170Y-115560821D01*
X139036044Y-115936922D01*
X139700000Y-116068991D01*
X140363956Y-115936922D01*
X140926830Y-115560821D01*
X141302931Y-114997947D01*
X141435000Y-114333991D01*
X141435000Y-114266009D01*
X141302931Y-113602053D01*
X140926830Y-113039179D01*
X140363956Y-112663078D01*
X139700000Y-112531009D01*
X139036044Y-112663078D01*
X138473170Y-113039179D01*
X138097069Y-113602053D01*
X137965000Y-114266009D01*
X133815000Y-114266009D01*
X133682931Y-113602053D01*
X133306830Y-113039179D01*
X132743956Y-112663078D01*
X132080000Y-112531009D01*
X131416044Y-112663078D01*
X130853170Y-113039179D01*
X130477069Y-113602053D01*
X130345000Y-114266009D01*
X126195000Y-114266009D01*
X126062931Y-113602053D01*
X125686830Y-113039179D01*
X125123956Y-112663078D01*
X124460000Y-112531009D01*
X123796044Y-112663078D01*
X123233170Y-113039179D01*
X122857069Y-113602053D01*
X122725000Y-114266009D01*
X107253311Y-114266009D01*
X107143227Y-113712581D01*
X106810481Y-113214591D01*
X106312491Y-112881845D01*
X105951617Y-112810063D01*
X103268554Y-110127000D01*
X153735480Y-110127000D01*
X148937431Y-114925049D01*
X149055000Y-114333991D01*
X149055000Y-114266009D01*
X148922931Y-113602053D01*
X148546830Y-113039179D01*
X147983956Y-112663078D01*
X147320000Y-112531009D01*
X146656044Y-112663078D01*
X146093170Y-113039179D01*
X145717069Y-113602053D01*
X145585000Y-114266009D01*
X145585000Y-114333991D01*
X145717069Y-114997947D01*
X146093170Y-115560821D01*
X146656044Y-115936922D01*
X147320000Y-116068991D01*
X147983956Y-115936922D01*
X148151392Y-115825044D01*
X148131506Y-115925018D01*
X148098950Y-116088688D01*
X148098950Y-123538391D01*
X142372674Y-127117314D01*
X142314957Y-126977628D01*
X141785161Y-126446907D01*
X141092595Y-126159328D01*
X140342695Y-126158674D01*
X139649628Y-126445043D01*
X139118907Y-126974839D01*
X138831328Y-127667405D01*
X138830674Y-128417305D01*
X139117043Y-129110372D01*
X139142684Y-129136058D01*
X129963576Y-134873000D01*
X25710000Y-134873000D01*
X25710000Y-130960000D01*
X34048275Y-130960000D01*
X34229822Y-131872700D01*
X34746825Y-132646450D01*
X35520575Y-133163453D01*
X36433275Y-133345000D01*
X36526725Y-133345000D01*
X37439425Y-133163453D01*
X38213175Y-132646450D01*
X38730178Y-131872700D01*
X38911725Y-130960000D01*
X47383275Y-130960000D01*
X47564822Y-131872700D01*
X48081825Y-132646450D01*
X48855575Y-133163453D01*
X49768275Y-133345000D01*
X49861725Y-133345000D01*
X50774425Y-133163453D01*
X51548175Y-132646450D01*
X52065178Y-131872700D01*
X52246725Y-130960000D01*
X60718275Y-130960000D01*
X60899822Y-131872700D01*
X61416825Y-132646450D01*
X62190575Y-133163453D01*
X63103275Y-133345000D01*
X63196725Y-133345000D01*
X64109425Y-133163453D01*
X64883175Y-132646450D01*
X65400178Y-131872700D01*
X65581725Y-130960000D01*
X74053275Y-130960000D01*
X74234822Y-131872700D01*
X74751825Y-132646450D01*
X75525575Y-133163453D01*
X76438275Y-133345000D01*
X76531725Y-133345000D01*
X77444425Y-133163453D01*
X78218175Y-132646450D01*
X78735178Y-131872700D01*
X78916725Y-130960000D01*
X78886889Y-130810000D01*
X87388275Y-130810000D01*
X87569822Y-131722700D01*
X88086825Y-132496450D01*
X88860575Y-133013453D01*
X89773275Y-133195000D01*
X89866725Y-133195000D01*
X90779425Y-133013453D01*
X91553175Y-132496450D01*
X92070178Y-131722700D01*
X92221888Y-130960000D01*
X100723275Y-130960000D01*
X100904822Y-131872700D01*
X101421825Y-132646450D01*
X102195575Y-133163453D01*
X103108275Y-133345000D01*
X103201725Y-133345000D01*
X104114425Y-133163453D01*
X104888175Y-132646450D01*
X105405178Y-131872700D01*
X105586725Y-130960000D01*
X105405178Y-130047300D01*
X104888175Y-129273550D01*
X104114425Y-128756547D01*
X103201725Y-128575000D01*
X103108275Y-128575000D01*
X102195575Y-128756547D01*
X101421825Y-129273550D01*
X100904822Y-130047300D01*
X100723275Y-130960000D01*
X92221888Y-130960000D01*
X92251725Y-130810000D01*
X92070178Y-129897300D01*
X91553175Y-129123550D01*
X90779425Y-128606547D01*
X89866725Y-128425000D01*
X89773275Y-128425000D01*
X88860575Y-128606547D01*
X88086825Y-129123550D01*
X87569822Y-129897300D01*
X87388275Y-130810000D01*
X78886889Y-130810000D01*
X78735178Y-130047300D01*
X78218175Y-129273550D01*
X77444425Y-128756547D01*
X76531725Y-128575000D01*
X76438275Y-128575000D01*
X75525575Y-128756547D01*
X74751825Y-129273550D01*
X74234822Y-130047300D01*
X74053275Y-130960000D01*
X65581725Y-130960000D01*
X65400178Y-130047300D01*
X64883175Y-129273550D01*
X64109425Y-128756547D01*
X63196725Y-128575000D01*
X63103275Y-128575000D01*
X62190575Y-128756547D01*
X61416825Y-129273550D01*
X60899822Y-130047300D01*
X60718275Y-130960000D01*
X52246725Y-130960000D01*
X52065178Y-130047300D01*
X51548175Y-129273550D01*
X50774425Y-128756547D01*
X49861725Y-128575000D01*
X49768275Y-128575000D01*
X48855575Y-128756547D01*
X48081825Y-129273550D01*
X47564822Y-130047300D01*
X47383275Y-130960000D01*
X38911725Y-130960000D01*
X38730178Y-130047300D01*
X38213175Y-129273550D01*
X37439425Y-128756547D01*
X36526725Y-128575000D01*
X36433275Y-128575000D01*
X35520575Y-128756547D01*
X34746825Y-129273550D01*
X34229822Y-130047300D01*
X34048275Y-130960000D01*
X25710000Y-130960000D01*
X25710000Y-124777320D01*
X139562285Y-124777320D01*
X139691533Y-125070123D01*
X140391806Y-125338388D01*
X141141435Y-125318250D01*
X141740467Y-125070123D01*
X141869715Y-124777320D01*
X140716000Y-123623605D01*
X139562285Y-124777320D01*
X25710000Y-124777320D01*
X25710000Y-123119806D01*
X138821612Y-123119806D01*
X138841750Y-123869435D01*
X139089877Y-124468467D01*
X139382680Y-124597715D01*
X140536395Y-123444000D01*
X140895605Y-123444000D01*
X142049320Y-124597715D01*
X142342123Y-124468467D01*
X142610388Y-123768194D01*
X142590250Y-123018565D01*
X142342123Y-122419533D01*
X142049320Y-122290285D01*
X140895605Y-123444000D01*
X140536395Y-123444000D01*
X139382680Y-122290285D01*
X139089877Y-122419533D01*
X138821612Y-123119806D01*
X25710000Y-123119806D01*
X25710000Y-122110680D01*
X139562285Y-122110680D01*
X140716000Y-123264395D01*
X141869715Y-122110680D01*
X141740467Y-121817877D01*
X141040194Y-121549612D01*
X140290565Y-121569750D01*
X139691533Y-121817877D01*
X139562285Y-122110680D01*
X25710000Y-122110680D01*
X25710000Y-113400000D01*
X32392560Y-113400000D01*
X32392560Y-115200000D01*
X32436838Y-115435317D01*
X32575910Y-115651441D01*
X32788110Y-115796431D01*
X33040000Y-115847440D01*
X34840000Y-115847440D01*
X35075317Y-115803162D01*
X35291441Y-115664090D01*
X35436431Y-115451890D01*
X35446766Y-115400854D01*
X35572424Y-115537966D01*
X36115258Y-115791046D01*
X36353000Y-115670997D01*
X36353000Y-114427000D01*
X36333000Y-114427000D01*
X36333000Y-114173000D01*
X36353000Y-114173000D01*
X36353000Y-112929003D01*
X36607000Y-112929003D01*
X36607000Y-114173000D01*
X36627000Y-114173000D01*
X36627000Y-114427000D01*
X36607000Y-114427000D01*
X36607000Y-115670997D01*
X36844742Y-115791046D01*
X37387576Y-115537966D01*
X37745499Y-115147418D01*
X37904519Y-115385409D01*
X38402509Y-115718155D01*
X38989928Y-115835000D01*
X39050072Y-115835000D01*
X39637491Y-115718155D01*
X40135481Y-115385409D01*
X40468227Y-114887419D01*
X40585072Y-114300000D01*
X40468227Y-113712581D01*
X40135481Y-113214591D01*
X39637491Y-112881845D01*
X39050072Y-112765000D01*
X38989928Y-112765000D01*
X38402509Y-112881845D01*
X37904519Y-113214591D01*
X37745499Y-113452582D01*
X37387576Y-113062034D01*
X36844742Y-112808954D01*
X36607000Y-112929003D01*
X36353000Y-112929003D01*
X36115258Y-112808954D01*
X35572424Y-113062034D01*
X35449156Y-113196538D01*
X35443162Y-113164683D01*
X35304090Y-112948559D01*
X35091890Y-112803569D01*
X34840000Y-112752560D01*
X33040000Y-112752560D01*
X32804683Y-112796838D01*
X32588559Y-112935910D01*
X32443569Y-113148110D01*
X32392560Y-113400000D01*
X25710000Y-113400000D01*
X25710000Y-110127000D01*
X46435446Y-110127000D01*
X49193182Y-112884736D01*
M02*
