G04 #@! TF.FileFunction,Soldermask,Top*
%FSLAX46Y46*%
G04 Gerber Fmt 4.6, Leading zero omitted, Abs format (unit mm)*
G04 Created by KiCad (PCBNEW 4.0.6) date 04/26/18 13:40:25*
%MOMM*%
%LPD*%
G01*
G04 APERTURE LIST*
%ADD10C,0.100000*%
%ADD11R,2.600000X2.600000*%
%ADD12O,2.600000X2.600000*%
%ADD13C,5.600000*%
%ADD14C,1.924000*%
%ADD15C,2.800000*%
%ADD16R,2.100000X2.100000*%
%ADD17O,2.100000X2.100000*%
%ADD18C,6.800000*%
%ADD19C,2.300000*%
%ADD20C,2.900000*%
%ADD21O,4.000000X4.000000*%
%ADD22R,4.900000X2.900000*%
%ADD23O,4.900000X2.900000*%
%ADD24R,2.900000X4.900000*%
%ADD25O,2.900000X4.900000*%
G04 APERTURE END LIST*
D10*
D11*
X124460000Y-27940000D03*
D12*
X124460000Y-38100000D03*
D11*
X132080000Y-27940000D03*
D12*
X132080000Y-38100000D03*
D11*
X139700000Y-27940000D03*
D12*
X139700000Y-38100000D03*
D11*
X147320000Y-27940000D03*
D12*
X147320000Y-38100000D03*
D11*
X154940000Y-27940000D03*
D12*
X154940000Y-38100000D03*
D11*
X162560000Y-27940000D03*
D12*
X162560000Y-38100000D03*
D11*
X124460000Y-43180000D03*
D12*
X124460000Y-53340000D03*
D11*
X132080000Y-43180000D03*
D12*
X132080000Y-53340000D03*
D11*
X139700000Y-43180000D03*
D12*
X139700000Y-53340000D03*
D11*
X147320000Y-43180000D03*
D12*
X147320000Y-53340000D03*
D11*
X154940000Y-43180000D03*
D12*
X154940000Y-53340000D03*
D11*
X162560000Y-43180000D03*
D12*
X162560000Y-53340000D03*
D11*
X124460000Y-58420000D03*
D12*
X124460000Y-68580000D03*
D11*
X132080000Y-58420000D03*
D12*
X132080000Y-68580000D03*
D11*
X139700000Y-58420000D03*
D12*
X139700000Y-68580000D03*
D11*
X147320000Y-58420000D03*
D12*
X147320000Y-68580000D03*
D11*
X154940000Y-58420000D03*
D12*
X154940000Y-68580000D03*
D11*
X162560000Y-58420000D03*
D12*
X162560000Y-68580000D03*
D11*
X124460000Y-73660000D03*
D12*
X124460000Y-83820000D03*
D11*
X132080000Y-73660000D03*
D12*
X132080000Y-83820000D03*
D11*
X139700000Y-73660000D03*
D12*
X139700000Y-83820000D03*
D11*
X147320000Y-73660000D03*
D12*
X147320000Y-83820000D03*
D11*
X154940000Y-73660000D03*
D12*
X154940000Y-83820000D03*
D11*
X162560000Y-73660000D03*
D12*
X162560000Y-83820000D03*
D11*
X124460000Y-88900000D03*
D12*
X124460000Y-99060000D03*
D11*
X132080000Y-88900000D03*
D12*
X132080000Y-99060000D03*
D11*
X139700000Y-88900000D03*
D12*
X139700000Y-99060000D03*
D11*
X147320000Y-88900000D03*
D12*
X147320000Y-99060000D03*
D11*
X154940000Y-88900000D03*
D12*
X154940000Y-99060000D03*
D11*
X162560000Y-88900000D03*
D12*
X162560000Y-99060000D03*
D11*
X124460000Y-104140000D03*
D12*
X124460000Y-114300000D03*
D11*
X132080000Y-104140000D03*
D12*
X132080000Y-114300000D03*
D11*
X139700000Y-104140000D03*
D12*
X139700000Y-114300000D03*
D11*
X147320000Y-104140000D03*
D12*
X147320000Y-114300000D03*
D11*
X154940000Y-104140000D03*
D12*
X154940000Y-114300000D03*
D11*
X162560000Y-104140000D03*
D12*
X162560000Y-114300000D03*
D13*
X39000000Y-39000000D03*
D14*
X35825000Y-35825000D03*
X42175000Y-42175000D03*
D13*
X52000000Y-39000000D03*
D14*
X48825000Y-35825000D03*
X55175000Y-42175000D03*
D13*
X65000000Y-39000000D03*
D14*
X61825000Y-35825000D03*
X68175000Y-42175000D03*
D13*
X78000000Y-39000000D03*
D14*
X74825000Y-35825000D03*
X81175000Y-42175000D03*
D13*
X91000000Y-39000000D03*
D14*
X87825000Y-35825000D03*
X94175000Y-42175000D03*
D13*
X104000000Y-39000000D03*
D14*
X100825000Y-35825000D03*
X107175000Y-42175000D03*
D13*
X39000000Y-52000000D03*
D14*
X35825000Y-48825000D03*
X42175000Y-55175000D03*
D13*
X52000000Y-52000000D03*
D14*
X48825000Y-48825000D03*
X55175000Y-55175000D03*
D13*
X65000000Y-52000000D03*
D14*
X61825000Y-48825000D03*
X68175000Y-55175000D03*
D13*
X78000000Y-52000000D03*
D14*
X74825000Y-48825000D03*
X81175000Y-55175000D03*
D13*
X91000000Y-52000000D03*
D14*
X87825000Y-48825000D03*
X94175000Y-55175000D03*
D13*
X104000000Y-52000000D03*
D14*
X100825000Y-48825000D03*
X107175000Y-55175000D03*
D13*
X39000000Y-65000000D03*
D14*
X35825000Y-61825000D03*
X42175000Y-68175000D03*
D13*
X52000000Y-65000000D03*
D14*
X48825000Y-61825000D03*
X55175000Y-68175000D03*
D13*
X65000000Y-65000000D03*
D14*
X61825000Y-61825000D03*
X68175000Y-68175000D03*
D13*
X78000000Y-65000000D03*
D14*
X74825000Y-61825000D03*
X81175000Y-68175000D03*
D13*
X91000000Y-65000000D03*
D14*
X87825000Y-61825000D03*
X94175000Y-68175000D03*
D13*
X104000000Y-65000000D03*
D14*
X100825000Y-61825000D03*
X107175000Y-68175000D03*
D13*
X39000000Y-78000000D03*
D14*
X35825000Y-74825000D03*
X42175000Y-81175000D03*
D13*
X52000000Y-78362999D03*
D14*
X48825000Y-75187999D03*
X55175000Y-81537999D03*
D13*
X65000000Y-78000000D03*
D14*
X61825000Y-74825000D03*
X68175000Y-81175000D03*
D13*
X78000000Y-78000000D03*
D14*
X74825000Y-74825000D03*
X81175000Y-81175000D03*
D13*
X91000000Y-78000000D03*
D14*
X87825000Y-74825000D03*
X94175000Y-81175000D03*
D13*
X104000000Y-78000000D03*
D14*
X100825000Y-74825000D03*
X107175000Y-81175000D03*
D13*
X39000000Y-91000000D03*
D14*
X35825000Y-87825000D03*
X42175000Y-94175000D03*
D13*
X52000000Y-91000000D03*
D14*
X48825000Y-87825000D03*
X55175000Y-94175000D03*
D13*
X65000000Y-91000000D03*
D14*
X61825000Y-87825000D03*
X68175000Y-94175000D03*
D13*
X78000000Y-91000000D03*
D14*
X74825000Y-87825000D03*
X81175000Y-94175000D03*
D13*
X91000000Y-91000000D03*
D14*
X87825000Y-87825000D03*
X94175000Y-94175000D03*
D13*
X104000000Y-91000000D03*
D14*
X100825000Y-87825000D03*
X107175000Y-94175000D03*
D13*
X39000000Y-104000000D03*
D14*
X35825000Y-100825000D03*
X42175000Y-107175000D03*
D13*
X52000000Y-104000000D03*
D14*
X48825000Y-100825000D03*
X55175000Y-107175000D03*
D13*
X65000000Y-104000000D03*
D14*
X61825000Y-100825000D03*
X68175000Y-107175000D03*
D13*
X78000000Y-104000000D03*
D14*
X74825000Y-100825000D03*
X81175000Y-107175000D03*
D13*
X91000000Y-104000000D03*
D14*
X87825000Y-100825000D03*
X94175000Y-107175000D03*
D13*
X104000000Y-104000000D03*
D14*
X100825000Y-100825000D03*
X107175000Y-107175000D03*
D15*
X144881600Y-157988000D03*
X144881600Y-162488000D03*
D16*
X207010000Y-154305000D03*
D17*
X209550000Y-154305000D03*
X207010000Y-151765000D03*
X209550000Y-151765000D03*
X207010000Y-149225000D03*
X209550000Y-149225000D03*
X207010000Y-146685000D03*
X209550000Y-146685000D03*
X207010000Y-144145000D03*
X209550000Y-144145000D03*
X207010000Y-141605000D03*
X209550000Y-141605000D03*
D18*
X210820000Y-17780000D03*
X25400000Y-17780000D03*
X25654000Y-162560000D03*
X210820000Y-162560000D03*
D19*
X187325000Y-154305000D03*
X187325000Y-151765000D03*
X187325000Y-149225000D03*
X177165000Y-128905000D03*
X179705000Y-128905000D03*
X182245000Y-128905000D03*
X187325000Y-128905000D03*
X184785000Y-128905000D03*
X174625000Y-159385000D03*
X174625000Y-156845000D03*
X174625000Y-154305000D03*
X174625000Y-151765000D03*
X174625000Y-149225000D03*
X174625000Y-146685000D03*
X174625000Y-144145000D03*
X174625000Y-141605000D03*
X174625000Y-139065000D03*
X174625000Y-136525000D03*
X174625000Y-133985000D03*
X174625000Y-131445000D03*
X174625000Y-128905000D03*
X189865000Y-128905000D03*
X189865000Y-131445000D03*
X189865000Y-133985000D03*
X189865000Y-136525000D03*
X189865000Y-139065000D03*
X189865000Y-141605000D03*
X189865000Y-144145000D03*
X189865000Y-146685000D03*
X189865000Y-149225000D03*
X189865000Y-151765000D03*
X189865000Y-154305000D03*
X189865000Y-156845000D03*
X189865000Y-159385000D03*
X189865000Y-161925000D03*
X174625000Y-161925000D03*
D20*
X144780000Y-127480000D03*
X144780000Y-132080000D03*
D21*
X200200000Y-27940000D03*
D22*
X180340000Y-33390000D03*
D23*
X180340000Y-27940000D03*
X180340000Y-22490000D03*
D21*
X200200000Y-45720000D03*
D22*
X180340000Y-51170000D03*
D23*
X180340000Y-45720000D03*
X180340000Y-40270000D03*
D21*
X200031100Y-63500000D03*
D22*
X180171100Y-68950000D03*
D23*
X180171100Y-63500000D03*
X180171100Y-58050000D03*
D21*
X200031100Y-81280000D03*
D22*
X180171100Y-86730000D03*
D23*
X180171100Y-81280000D03*
X180171100Y-75830000D03*
D21*
X200200000Y-99060000D03*
D22*
X180340000Y-104510000D03*
D23*
X180340000Y-99060000D03*
X180340000Y-93610000D03*
D21*
X200200000Y-116840000D03*
D22*
X180340000Y-122290000D03*
D23*
X180340000Y-116840000D03*
X180340000Y-111390000D03*
D21*
X35560000Y-149400000D03*
D24*
X30110000Y-129540000D03*
D25*
X35560000Y-129540000D03*
X41010000Y-129540000D03*
D21*
X53340000Y-149400000D03*
D24*
X47890000Y-129540000D03*
D25*
X53340000Y-129540000D03*
X58790000Y-129540000D03*
D21*
X71120000Y-149400000D03*
D24*
X65670000Y-129540000D03*
D25*
X71120000Y-129540000D03*
X76570000Y-129540000D03*
D21*
X88900000Y-149400000D03*
D24*
X83450000Y-129540000D03*
D25*
X88900000Y-129540000D03*
X94350000Y-129540000D03*
D21*
X106680000Y-149400000D03*
D24*
X101230000Y-129540000D03*
D25*
X106680000Y-129540000D03*
X112130000Y-129540000D03*
D21*
X124460000Y-149400000D03*
D24*
X119010000Y-129540000D03*
D25*
X124460000Y-129540000D03*
X129910000Y-129540000D03*
M02*
