G04 #@! TF.FileFunction,Copper,L1,Top,Signal*
%FSLAX46Y46*%
G04 Gerber Fmt 4.6, Leading zero omitted, Abs format (unit mm)*
G04 Created by KiCad (PCBNEW 4.0.7) date 06/06/18 10:15:49*
%MOMM*%
%LPD*%
G01*
G04 APERTURE LIST*
%ADD10C,0.100000*%
%ADD11R,1.700000X1.700000*%
%ADD12O,1.700000X1.700000*%
%ADD13C,6.400000*%
%ADD14R,2.200000X2.200000*%
%ADD15O,2.200000X2.200000*%
%ADD16C,2.400000*%
%ADD17C,2.500000*%
%ADD18C,1.524000*%
%ADD19R,1.800000X1.800000*%
%ADD20O,1.800000X1.800000*%
%ADD21C,0.600000*%
%ADD22C,1.000000*%
%ADD23C,1.200000*%
%ADD24C,0.300000*%
%ADD25C,0.254000*%
G04 APERTURE END LIST*
D10*
D11*
X182760000Y-140120000D03*
D12*
X185300000Y-140120000D03*
X182760000Y-137580000D03*
X185300000Y-137580000D03*
X182760000Y-135040000D03*
X185300000Y-135040000D03*
X182760000Y-132500000D03*
X185300000Y-132500000D03*
X182760000Y-129960000D03*
X185300000Y-129960000D03*
X182760000Y-127420000D03*
X185300000Y-127420000D03*
D13*
X191000000Y-151000000D03*
D14*
X124460000Y-27940000D03*
D15*
X124460000Y-38100000D03*
D14*
X132080000Y-27940000D03*
D15*
X132080000Y-38100000D03*
D14*
X139700000Y-27940000D03*
D15*
X139700000Y-38100000D03*
D14*
X147320000Y-27940000D03*
D15*
X147320000Y-38100000D03*
D14*
X154940000Y-27940000D03*
D15*
X154940000Y-38100000D03*
D14*
X162560000Y-27940000D03*
D15*
X162560000Y-38100000D03*
D14*
X124460000Y-43180000D03*
D15*
X124460000Y-53340000D03*
D14*
X132080000Y-43180000D03*
D15*
X132080000Y-53340000D03*
D14*
X139700000Y-43180000D03*
D15*
X139700000Y-53340000D03*
D14*
X147320000Y-43180000D03*
D15*
X147320000Y-53340000D03*
D14*
X154940000Y-43180000D03*
D15*
X154940000Y-53340000D03*
D14*
X162560000Y-43180000D03*
D15*
X162560000Y-53340000D03*
D14*
X124460000Y-58420000D03*
D15*
X124460000Y-68580000D03*
D14*
X132080000Y-58420000D03*
D15*
X132080000Y-68580000D03*
D14*
X139700000Y-58420000D03*
D15*
X139700000Y-68580000D03*
D14*
X147320000Y-58420000D03*
D15*
X147320000Y-68580000D03*
D14*
X154940000Y-58420000D03*
D15*
X154940000Y-68580000D03*
D14*
X162560000Y-58420000D03*
D15*
X162560000Y-68580000D03*
D14*
X124460000Y-73660000D03*
D15*
X124460000Y-83820000D03*
D14*
X132080000Y-73660000D03*
D15*
X132080000Y-83820000D03*
D14*
X139700000Y-73660000D03*
D15*
X139700000Y-83820000D03*
D14*
X147320000Y-73660000D03*
D15*
X147320000Y-83820000D03*
D14*
X154940000Y-73660000D03*
D15*
X154940000Y-83820000D03*
D14*
X162560000Y-73660000D03*
D15*
X162560000Y-83820000D03*
D14*
X124460000Y-88900000D03*
D15*
X124460000Y-99060000D03*
D14*
X132080000Y-88900000D03*
D15*
X132080000Y-99060000D03*
D14*
X139700000Y-88900000D03*
D15*
X139700000Y-99060000D03*
D14*
X147320000Y-88900000D03*
D15*
X147320000Y-99060000D03*
D14*
X154940000Y-88900000D03*
D15*
X154940000Y-99060000D03*
D14*
X162560000Y-88900000D03*
D15*
X162560000Y-99060000D03*
D14*
X124460000Y-104140000D03*
D15*
X124460000Y-114300000D03*
D14*
X132080000Y-104140000D03*
D15*
X132080000Y-114300000D03*
D14*
X139700000Y-104140000D03*
D15*
X139700000Y-114300000D03*
D14*
X147320000Y-104140000D03*
D15*
X147320000Y-114300000D03*
D14*
X154940000Y-104140000D03*
D15*
X154940000Y-114300000D03*
D14*
X162560000Y-104140000D03*
D15*
X162560000Y-114300000D03*
D16*
X137958600Y-145548000D03*
X137958600Y-150048000D03*
D13*
X191000000Y-19000000D03*
X29000000Y-19000000D03*
X29000000Y-151000000D03*
D17*
X140716000Y-123444000D03*
X140716000Y-128044000D03*
D18*
X32800000Y-37050000D03*
X43400000Y-26450000D03*
X46135000Y-37050000D03*
X56735000Y-26450000D03*
X59470000Y-37050000D03*
X70070000Y-26450000D03*
X72805000Y-37050000D03*
X83405000Y-26450000D03*
X86140000Y-37050000D03*
X96740000Y-26450000D03*
X99475000Y-37050000D03*
X110075000Y-26450000D03*
X32800000Y-50385000D03*
X43400000Y-39785000D03*
X46135000Y-50385000D03*
X56735000Y-39785000D03*
X59470000Y-50385000D03*
X70070000Y-39785000D03*
X72805000Y-50385000D03*
X83405000Y-39785000D03*
X86140000Y-50385000D03*
X96740000Y-39785000D03*
X99475000Y-50385000D03*
X110075000Y-39785000D03*
X32800000Y-63720000D03*
X43400000Y-53120000D03*
X46135000Y-63720000D03*
X56735000Y-53120000D03*
X59470000Y-63720000D03*
X70070000Y-53120000D03*
X72805000Y-63720000D03*
X83405000Y-53120000D03*
X86140000Y-63720000D03*
X96740000Y-53120000D03*
X99475000Y-63720000D03*
X110075000Y-53120000D03*
X32800000Y-77055000D03*
X43400000Y-66455000D03*
X46135000Y-77055000D03*
X56735000Y-66455000D03*
X59470000Y-77055000D03*
X70070000Y-66455000D03*
X72805000Y-77055000D03*
X83405000Y-66455000D03*
X86140000Y-77055000D03*
X96740000Y-66455000D03*
X99475000Y-77055000D03*
X110075000Y-66455000D03*
X32800000Y-90390000D03*
X43400000Y-79790000D03*
X46135000Y-90390000D03*
X56735000Y-79790000D03*
X59470000Y-90390000D03*
X70070000Y-79790000D03*
X72805000Y-90390000D03*
X83405000Y-79790000D03*
X86140000Y-90390000D03*
X96740000Y-79790000D03*
X99475000Y-90390000D03*
X110075000Y-79790000D03*
X32800000Y-103725000D03*
X43400000Y-93125000D03*
X46135000Y-103725000D03*
X56735000Y-93125000D03*
X59470000Y-103725000D03*
X70070000Y-93125000D03*
X72805000Y-103725000D03*
X83405000Y-93125000D03*
X86140000Y-103725000D03*
X96740000Y-93125000D03*
X99475000Y-103725000D03*
X110075000Y-93125000D03*
D19*
X171450000Y-30480000D03*
D20*
X171450000Y-27940000D03*
X171450000Y-25400000D03*
D19*
X171450000Y-45720000D03*
D20*
X171450000Y-43180000D03*
X171450000Y-40640000D03*
D19*
X171450000Y-60960000D03*
D20*
X171450000Y-58420000D03*
X171450000Y-55880000D03*
D19*
X171300000Y-76200000D03*
D20*
X171300000Y-73660000D03*
X171300000Y-71120000D03*
D19*
X171300000Y-91440000D03*
D20*
X171300000Y-88900000D03*
X171300000Y-86360000D03*
D19*
X171450000Y-106680000D03*
D20*
X171450000Y-104140000D03*
X171450000Y-101600000D03*
D19*
X33940000Y-114300000D03*
D20*
X36480000Y-114300000D03*
X39020000Y-114300000D03*
D19*
X47275000Y-114300000D03*
D20*
X49815000Y-114300000D03*
X52355000Y-114300000D03*
D19*
X60610000Y-114300000D03*
D20*
X63150000Y-114300000D03*
X65690000Y-114300000D03*
D19*
X73945000Y-114300000D03*
D20*
X76485000Y-114300000D03*
X79025000Y-114300000D03*
D19*
X87280000Y-114150000D03*
D20*
X89820000Y-114150000D03*
X92360000Y-114150000D03*
D19*
X100615000Y-114300000D03*
D20*
X103155000Y-114300000D03*
X105695000Y-114300000D03*
D11*
X153030000Y-151520000D03*
D12*
X153030000Y-148980000D03*
X153030000Y-146440000D03*
X153030000Y-143900000D03*
X153030000Y-141360000D03*
X153030000Y-138820000D03*
X153030000Y-136280000D03*
X153030000Y-133740000D03*
X153030000Y-131200000D03*
X153030000Y-128660000D03*
X153030000Y-126120000D03*
X153030000Y-123580000D03*
X153030000Y-121040000D03*
D11*
X168270000Y-141350000D03*
D12*
X168270000Y-138810000D03*
X168270000Y-136270000D03*
X168270000Y-133730000D03*
X168270000Y-131190000D03*
X168270000Y-128650000D03*
X168270000Y-126110000D03*
X168270000Y-123570000D03*
X168270000Y-121030000D03*
D21*
X132458600Y-150450010D03*
X132370600Y-143820800D03*
D22*
X162560000Y-27940000D02*
X171450000Y-27940000D01*
D23*
X56735000Y-26450000D02*
X58684999Y-28399999D01*
X58684999Y-28399999D02*
X81157087Y-28399999D01*
X81157087Y-28399999D02*
X87857089Y-35100001D01*
X87857089Y-35100001D02*
X95213239Y-35100001D01*
X95213239Y-35100001D02*
X95261240Y-35052000D01*
X130175000Y-36195000D02*
X132080000Y-38100000D01*
X95261240Y-35052000D02*
X100431238Y-35052000D01*
X100431238Y-35052000D02*
X102108000Y-36728762D01*
X102108000Y-36728762D02*
X120276760Y-36728762D01*
X120276760Y-36728762D02*
X120810522Y-36195000D01*
X120810522Y-36195000D02*
X130175000Y-36195000D01*
X70070000Y-26450000D02*
X81187002Y-26450000D01*
X106431002Y-35052000D02*
X119973608Y-35052000D01*
X81187002Y-26450000D02*
X82934012Y-28197010D01*
X94035098Y-28197010D02*
X98171000Y-32332912D01*
X82934012Y-28197010D02*
X94035098Y-28197010D01*
X136394989Y-34794989D02*
X139700000Y-38100000D01*
X98171000Y-32332912D02*
X98171000Y-32385000D01*
X103166999Y-35100001D02*
X106383001Y-35100001D01*
X119973608Y-35052000D02*
X120230619Y-34794989D01*
X98171000Y-32385000D02*
X100451998Y-32385000D01*
X100451998Y-32385000D02*
X103166999Y-35100001D01*
X106383001Y-35100001D02*
X106431002Y-35052000D01*
X120230619Y-34794989D02*
X136394989Y-34794989D01*
X83405000Y-26450000D02*
X83752000Y-26797000D01*
X94615000Y-26797000D02*
X96217999Y-28399999D01*
X83752000Y-26797000D02*
X94615000Y-26797000D01*
X96217999Y-28399999D02*
X106684087Y-28399999D01*
X122043990Y-25276010D02*
X140676012Y-25276010D01*
X106684087Y-28399999D02*
X107751097Y-29467010D01*
X117852990Y-29467010D02*
X122043990Y-25276010D01*
X107751097Y-29467010D02*
X117852990Y-29467010D01*
X140676012Y-25276010D02*
X147320000Y-31919998D01*
X147320000Y-31919998D02*
X147320000Y-38100000D01*
X96740000Y-26450000D02*
X96774000Y-26416000D01*
X96774000Y-26416000D02*
X106680000Y-26416000D01*
X106680000Y-26416000D02*
X108331000Y-28067000D01*
X108331000Y-28067000D02*
X110744000Y-28067000D01*
X110744000Y-28067000D02*
X114935000Y-23876000D01*
X114935000Y-23876000D02*
X146896002Y-23876000D01*
X146896002Y-23876000D02*
X154940000Y-31919998D01*
X154940000Y-31919998D02*
X154940000Y-38100000D01*
X162560000Y-31623000D02*
X162560000Y-36544366D01*
X153412990Y-22475990D02*
X162560000Y-31623000D01*
X114049010Y-22475990D02*
X153412990Y-22475990D01*
X110075000Y-26450000D02*
X114049010Y-22475990D01*
D22*
X162560000Y-36544366D02*
X162560000Y-38100000D01*
X162560000Y-43180000D02*
X171450000Y-43180000D01*
D23*
X79256012Y-41278010D02*
X79187021Y-41347001D01*
X79187021Y-41347001D02*
X58297001Y-41347001D01*
X58297001Y-41347001D02*
X56735000Y-39785000D01*
X132080000Y-53340000D02*
X128781010Y-50041010D01*
X128781010Y-50041010D02*
X101442772Y-50041010D01*
X101442772Y-50041010D02*
X99836763Y-48435001D01*
X99836763Y-48435001D02*
X86413003Y-48435001D01*
X86413003Y-48435001D02*
X79256012Y-41278010D01*
X70070000Y-39785000D02*
X70163000Y-39878000D01*
X70163000Y-39878000D02*
X80391000Y-39878000D01*
X96064088Y-44069000D02*
X98552000Y-44069000D01*
X80391000Y-39878000D02*
X82247999Y-41734999D01*
X82247999Y-41734999D02*
X93730087Y-41734999D01*
X93730087Y-41734999D02*
X96064088Y-44069000D01*
X98552000Y-44069000D02*
X103124000Y-48641000D01*
X103124000Y-48641000D02*
X135001000Y-48641000D01*
X135001000Y-48641000D02*
X139700000Y-53340000D01*
X83405000Y-39785000D02*
X83498000Y-39878000D01*
X83498000Y-39878000D02*
X93853000Y-39878000D01*
X93853000Y-39878000D02*
X95709999Y-41734999D01*
X95709999Y-41734999D02*
X106383001Y-41734999D01*
X106383001Y-41734999D02*
X111387012Y-46739010D01*
X111387012Y-46739010D02*
X140719010Y-46739010D01*
X140719010Y-46739010D02*
X147320000Y-53340000D01*
X96740000Y-39785000D02*
X96774000Y-39751000D01*
X112951001Y-41734999D02*
X116555002Y-45339000D01*
X96774000Y-39751000D02*
X107061000Y-39751000D01*
X107061000Y-39751000D02*
X109044999Y-41734999D01*
X109044999Y-41734999D02*
X112951001Y-41734999D01*
X116555002Y-45339000D02*
X146939000Y-45339000D01*
X146939000Y-45339000D02*
X154940000Y-53340000D01*
X110075000Y-39785000D02*
X110295000Y-40005000D01*
X110295000Y-40005000D02*
X155405002Y-40005000D01*
X155405002Y-40005000D02*
X162560000Y-47159998D01*
X162560000Y-47159998D02*
X162560000Y-53340000D01*
D22*
X162560000Y-58420000D02*
X171450000Y-58420000D01*
D23*
X58297001Y-54682001D02*
X56735000Y-53120000D01*
X132080000Y-68580000D02*
X128273011Y-64773011D01*
X86898106Y-61770001D02*
X79810106Y-54682001D01*
X100811087Y-61770001D02*
X86898106Y-61770001D01*
X103814097Y-64773011D02*
X100811087Y-61770001D01*
X128273011Y-64773011D02*
X103814097Y-64773011D01*
X79810106Y-54682001D02*
X58297001Y-54682001D01*
X70070000Y-53120000D02*
X80552001Y-53120000D01*
X94010325Y-54682001D02*
X95410336Y-56082012D01*
X80552001Y-53120000D02*
X82114002Y-54682001D01*
X82114002Y-54682001D02*
X94010325Y-54682001D01*
X97103012Y-56082012D02*
X104394000Y-63373000D01*
X95410336Y-56082012D02*
X97103012Y-56082012D01*
X113001154Y-63373000D02*
X113004165Y-63369989D01*
X104394000Y-63373000D02*
X113001154Y-63373000D01*
X113004165Y-63369989D02*
X134489989Y-63369989D01*
X134489989Y-63369989D02*
X139700000Y-68580000D01*
X95990239Y-54682001D02*
X106296091Y-54682001D01*
X140709978Y-61969978D02*
X147320000Y-68580000D01*
X113584068Y-61969978D02*
X140709978Y-61969978D01*
X106296091Y-54682001D02*
X113584068Y-61969978D01*
X94428238Y-53120000D02*
X95990239Y-54682001D01*
X83405000Y-53120000D02*
X94428238Y-53120000D01*
X146929969Y-60569969D02*
X154940000Y-68580000D01*
X96740000Y-53120000D02*
X106714004Y-53120000D01*
X114163972Y-60569968D02*
X146929969Y-60569969D01*
X106714004Y-53120000D02*
X114163972Y-60569968D01*
X110075000Y-53120000D02*
X112195001Y-55240001D01*
X112195001Y-55240001D02*
X155443001Y-55240001D01*
X155443001Y-55240001D02*
X159634001Y-59431001D01*
X159634001Y-59431001D02*
X159634001Y-65654001D01*
X159634001Y-65654001D02*
X162560000Y-68580000D01*
D22*
X162560000Y-73660000D02*
X171300000Y-73660000D01*
D23*
X56735000Y-66455000D02*
X67758238Y-66455000D01*
X69708237Y-68404999D02*
X79713001Y-68404999D01*
X67758238Y-66455000D02*
X69708237Y-68404999D01*
X79713001Y-68404999D02*
X86492002Y-75184000D01*
X86492002Y-75184000D02*
X101266084Y-75184000D01*
X101266084Y-75184000D02*
X102587096Y-76505012D01*
X102587096Y-76505012D02*
X109652012Y-76505012D01*
X109652012Y-76505012D02*
X111374999Y-78227999D01*
X111374999Y-78227999D02*
X111427086Y-78227999D01*
X111427086Y-78227999D02*
X115119086Y-81919999D01*
X115119086Y-81919999D02*
X130179999Y-81919999D01*
X130179999Y-81919999D02*
X132080000Y-83820000D01*
X134369010Y-78489010D02*
X139700000Y-83820000D01*
X93603086Y-68404999D02*
X98982076Y-73783989D01*
X82814999Y-68404999D02*
X93603086Y-68404999D01*
X98982076Y-73783989D02*
X101845988Y-73783990D01*
X70070000Y-66455000D02*
X80865000Y-66455000D01*
X113668011Y-78489010D02*
X134369010Y-78489010D01*
X101845988Y-73783990D02*
X103166999Y-75105001D01*
X110284002Y-75105001D02*
X113668011Y-78489010D01*
X80865000Y-66455000D02*
X82814999Y-68404999D01*
X103166999Y-75105001D02*
X110284002Y-75105001D01*
X83405000Y-66455000D02*
X93633000Y-66455000D01*
X93633000Y-66455000D02*
X95195001Y-68017001D01*
X95195001Y-68017001D02*
X106296089Y-68017001D01*
X115368088Y-77089000D02*
X140589000Y-77089000D01*
X106296089Y-68017001D02*
X115368088Y-77089000D01*
X140589000Y-77089000D02*
X147320000Y-83820000D01*
X130344998Y-75565000D02*
X146685000Y-75565000D01*
X146685000Y-75565000D02*
X154940000Y-83820000D01*
X125344001Y-70480001D02*
X125344001Y-70564003D01*
X125344001Y-70564003D02*
X130344998Y-75565000D01*
X106714000Y-66455000D02*
X110739001Y-70480001D01*
X110739001Y-70480001D02*
X125344001Y-70480001D01*
X96740000Y-66455000D02*
X106714000Y-66455000D01*
X110075000Y-66455000D02*
X127142998Y-66455000D01*
X162560000Y-77639998D02*
X162560000Y-83820000D01*
X127142998Y-66455000D02*
X131167999Y-70480001D01*
X155400003Y-70480001D02*
X162560000Y-77639998D01*
X131167999Y-70480001D02*
X155400003Y-70480001D01*
D22*
X162560000Y-88900000D02*
X171300000Y-88900000D01*
D23*
X111916263Y-91186000D02*
X117890262Y-97159999D01*
X117890262Y-97159999D02*
X130179999Y-97159999D01*
X130179999Y-97159999D02*
X132080000Y-99060000D01*
X80570088Y-81534000D02*
X87864087Y-88827999D01*
X87864087Y-88827999D02*
X101453087Y-88827999D01*
X101453087Y-88827999D02*
X103811088Y-91186000D01*
X103811088Y-91186000D02*
X111916263Y-91186000D01*
X56735000Y-79790000D02*
X58479000Y-81534000D01*
X58479000Y-81534000D02*
X80570088Y-81534000D01*
X70070000Y-79790000D02*
X80806000Y-79790000D01*
X80806000Y-79790000D02*
X82755999Y-81739999D01*
X94365087Y-81739999D02*
X95810088Y-83185000D01*
X82755999Y-81739999D02*
X94365087Y-81739999D01*
X95810088Y-83185000D02*
X97790000Y-83185000D01*
X97790000Y-83185000D02*
X104140000Y-89535000D01*
X104140000Y-89535000D02*
X112245175Y-89535000D01*
X134747000Y-94107000D02*
X139700000Y-99060000D01*
X112245175Y-89535000D02*
X116817175Y-94107000D01*
X116817175Y-94107000D02*
X134747000Y-94107000D01*
X83405000Y-79790000D02*
X83498000Y-79883000D01*
X83498000Y-79883000D02*
X94488000Y-79883000D01*
X94488000Y-79883000D02*
X95957001Y-81352001D01*
X95957001Y-81352001D02*
X106042088Y-81352001D01*
X106042088Y-81352001D02*
X117273087Y-92583000D01*
X117273087Y-92583000D02*
X140843000Y-92583000D01*
X140843000Y-92583000D02*
X147320000Y-99060000D01*
X96740000Y-79790000D02*
X106460000Y-79790000D01*
X106460000Y-79790000D02*
X117470001Y-90800001D01*
X117470001Y-90800001D02*
X146680001Y-90800001D01*
X146680001Y-90800001D02*
X154940000Y-99060000D01*
X110075000Y-79790000D02*
X116005001Y-85720001D01*
X116005001Y-85720001D02*
X155400003Y-85720001D01*
X155400003Y-85720001D02*
X162560000Y-92879998D01*
X162560000Y-92879998D02*
X162560000Y-99060000D01*
D22*
X162560000Y-104140000D02*
X171450000Y-104140000D01*
D23*
X43400000Y-93125000D02*
X45349999Y-95074999D01*
X45349999Y-95074999D02*
X67728325Y-95074999D01*
X67728325Y-95074999D02*
X85048326Y-112395000D01*
X85048326Y-112395000D02*
X122555000Y-112395000D01*
X122555000Y-112395000D02*
X124460000Y-114300000D01*
X56735000Y-93125000D02*
X67758238Y-93125000D01*
X67758238Y-93125000D02*
X69502238Y-94869000D01*
X69502238Y-94869000D02*
X80443088Y-94869000D01*
X80443088Y-94869000D02*
X96448098Y-110874010D01*
X96448098Y-110874010D02*
X128654010Y-110874010D01*
X128654010Y-110874010D02*
X132080000Y-114300000D01*
X70070000Y-93125000D02*
X80679000Y-93125000D01*
X80679000Y-93125000D02*
X82241001Y-94687001D01*
X82241001Y-94687001D02*
X94010326Y-94687001D01*
X94010326Y-94687001D02*
X101098326Y-101775001D01*
X101098326Y-101775001D02*
X111987089Y-101775001D01*
X111987089Y-101775001D02*
X119686088Y-109474000D01*
X119686088Y-109474000D02*
X134874000Y-109474000D01*
X134874000Y-109474000D02*
X139700000Y-114300000D01*
X83405000Y-93125000D02*
X94776000Y-93125000D01*
X94776000Y-93125000D02*
X94776000Y-93472762D01*
X94776000Y-93472762D02*
X96378237Y-95074999D01*
X96378237Y-95074999D02*
X107266999Y-95074999D01*
X107266999Y-95074999D02*
X120145010Y-107953010D01*
X120145010Y-107953010D02*
X140973010Y-107953010D01*
X140973010Y-107953010D02*
X147320000Y-114300000D01*
X121191238Y-106553000D02*
X147193000Y-106553000D01*
X147193000Y-106553000D02*
X154940000Y-114300000D01*
X96740000Y-93125000D02*
X107763238Y-93125000D01*
X107763238Y-93125000D02*
X121191238Y-106553000D01*
X110075000Y-93125000D02*
X119189999Y-102239999D01*
X119189999Y-102239999D02*
X156680001Y-102239999D01*
X156680001Y-102239999D02*
X162560000Y-108119998D01*
X162560000Y-108119998D02*
X162560000Y-114300000D01*
X32800000Y-103725000D02*
X32800000Y-108080000D01*
X32800000Y-108080000D02*
X39020000Y-114300000D01*
X38800000Y-114080000D02*
X39020000Y-114300000D01*
X32800000Y-50385000D02*
X32800000Y-37050000D01*
X32800000Y-63720000D02*
X32800000Y-50385000D01*
X32800000Y-77055000D02*
X32800000Y-63720000D01*
X32800000Y-90390000D02*
X32800000Y-77055000D01*
X32800000Y-103725000D02*
X32800000Y-90390000D01*
X46135000Y-77055000D02*
X46135000Y-90390000D01*
X46135000Y-63720000D02*
X46135000Y-77055000D01*
X46135000Y-50385000D02*
X46135000Y-63720000D01*
X46135000Y-37050000D02*
X46135000Y-50385000D01*
D24*
X153035000Y-148971000D02*
X152085001Y-148021001D01*
X152085001Y-148021001D02*
X63767999Y-148021001D01*
X63767999Y-148021001D02*
X33940000Y-118193002D01*
X33940000Y-118193002D02*
X33940000Y-115500000D01*
X33940000Y-115500000D02*
X33940000Y-114300000D01*
X153035000Y-146431000D02*
X152085001Y-147380999D01*
X152085001Y-147380999D02*
X76462997Y-147380999D01*
X76462997Y-147380999D02*
X47275000Y-118193002D01*
X47275000Y-118193002D02*
X47275000Y-115500000D01*
X47275000Y-115500000D02*
X47275000Y-114300000D01*
X73945000Y-114300000D02*
X73945000Y-115500000D01*
X73945000Y-115500000D02*
X86445000Y-128000000D01*
X86445000Y-128000000D02*
X96379878Y-128000000D01*
X96379878Y-128000000D02*
X109730878Y-141351000D01*
X109730878Y-141351000D02*
X151691498Y-141351000D01*
X151691498Y-141351000D02*
X153035000Y-141351000D01*
X153035000Y-138811000D02*
X107897998Y-138811000D01*
X107897998Y-138811000D02*
X87280000Y-118193002D01*
X87280000Y-118193002D02*
X87280000Y-115350000D01*
X87280000Y-115350000D02*
X87280000Y-114150000D01*
X100615000Y-114300000D02*
X100615000Y-115500000D01*
X100615000Y-115500000D02*
X121386000Y-136271000D01*
X121386000Y-136271000D02*
X151691498Y-136271000D01*
X151691498Y-136271000D02*
X153035000Y-136271000D01*
X153035000Y-143891000D02*
X133262402Y-143891000D01*
X133262402Y-143891000D02*
X132682601Y-144470801D01*
X132682601Y-144470801D02*
X95470801Y-144470801D01*
X95470801Y-144470801D02*
X70000000Y-119000000D01*
X70000000Y-119000000D02*
X64110000Y-119000000D01*
X64110000Y-119000000D02*
X60610000Y-115500000D01*
X60610000Y-115500000D02*
X60610000Y-114300000D01*
D25*
G36*
X188830485Y-15746950D02*
X187750741Y-16824811D01*
X187165667Y-18233825D01*
X187164336Y-19759482D01*
X187746950Y-21169515D01*
X188824811Y-22249259D01*
X190233825Y-22834333D01*
X191759482Y-22835664D01*
X193169515Y-22253050D01*
X194249259Y-21175189D01*
X194290000Y-21077074D01*
X194290000Y-148919911D01*
X194253050Y-148830485D01*
X193175189Y-147750741D01*
X191766175Y-147165667D01*
X190240518Y-147164336D01*
X188830485Y-147746950D01*
X187750741Y-148824811D01*
X187165667Y-150233825D01*
X187164336Y-151759482D01*
X187746950Y-153169515D01*
X188824811Y-154249259D01*
X188922926Y-154290000D01*
X130127000Y-154290000D01*
X130127000Y-148806001D01*
X136605419Y-148806001D01*
X136403870Y-149007199D01*
X136123919Y-149681395D01*
X136123282Y-150411403D01*
X136402055Y-151086086D01*
X136917799Y-151602730D01*
X137591995Y-151882681D01*
X138322003Y-151883318D01*
X138509732Y-151805750D01*
X151545000Y-151805750D01*
X151545000Y-152496310D01*
X151641673Y-152729699D01*
X151820302Y-152908327D01*
X152053691Y-153005000D01*
X152744250Y-153005000D01*
X152903000Y-152846250D01*
X152903000Y-151647000D01*
X153157000Y-151647000D01*
X153157000Y-152846250D01*
X153315750Y-153005000D01*
X154006309Y-153005000D01*
X154239698Y-152908327D01*
X154418327Y-152729699D01*
X154515000Y-152496310D01*
X154515000Y-151805750D01*
X154356250Y-151647000D01*
X153157000Y-151647000D01*
X152903000Y-151647000D01*
X151703750Y-151647000D01*
X151545000Y-151805750D01*
X138509732Y-151805750D01*
X138996686Y-151604545D01*
X139513330Y-151088801D01*
X139793281Y-150414605D01*
X139793918Y-149684597D01*
X139515145Y-149009914D01*
X139311587Y-148806001D01*
X151550518Y-148806001D01*
X151515907Y-148980000D01*
X151628946Y-149548285D01*
X151950853Y-150030054D01*
X151994777Y-150059403D01*
X151820302Y-150131673D01*
X151641673Y-150310301D01*
X151545000Y-150543690D01*
X151545000Y-151234250D01*
X151703750Y-151393000D01*
X152903000Y-151393000D01*
X152903000Y-151373000D01*
X153157000Y-151373000D01*
X153157000Y-151393000D01*
X154356250Y-151393000D01*
X154515000Y-151234250D01*
X154515000Y-150543690D01*
X154418327Y-150310301D01*
X154239698Y-150131673D01*
X154065223Y-150059403D01*
X154109147Y-150030054D01*
X154431054Y-149548285D01*
X154544093Y-148980000D01*
X154431054Y-148411715D01*
X154109147Y-147929946D01*
X153779974Y-147710000D01*
X154109147Y-147490054D01*
X154431054Y-147008285D01*
X154544093Y-146440000D01*
X154431054Y-145871715D01*
X154109147Y-145389946D01*
X153779974Y-145170000D01*
X154109147Y-144950054D01*
X154431054Y-144468285D01*
X154544093Y-143900000D01*
X154431054Y-143331715D01*
X154109147Y-142849946D01*
X153779974Y-142630000D01*
X154109147Y-142410054D01*
X154431054Y-141928285D01*
X154544093Y-141360000D01*
X154431054Y-140791715D01*
X154109147Y-140309946D01*
X153779974Y-140090000D01*
X154109147Y-139870054D01*
X154431054Y-139388285D01*
X154544093Y-138820000D01*
X154431054Y-138251715D01*
X154109147Y-137769946D01*
X153779974Y-137550000D01*
X154109147Y-137330054D01*
X154431054Y-136848285D01*
X154544093Y-136280000D01*
X154431054Y-135711715D01*
X154109147Y-135229946D01*
X153779974Y-135010000D01*
X154109147Y-134790054D01*
X154431054Y-134308285D01*
X154544093Y-133740000D01*
X154431054Y-133171715D01*
X154109147Y-132689946D01*
X153779974Y-132470000D01*
X154109147Y-132250054D01*
X154431054Y-131768285D01*
X154544093Y-131200000D01*
X154431054Y-130631715D01*
X154109147Y-130149946D01*
X153779974Y-129930000D01*
X154109147Y-129710054D01*
X154431054Y-129228285D01*
X154544093Y-128660000D01*
X154431054Y-128091715D01*
X154109147Y-127609946D01*
X153779974Y-127390000D01*
X154109147Y-127170054D01*
X154431054Y-126688285D01*
X154544093Y-126120000D01*
X154431054Y-125551715D01*
X154109147Y-125069946D01*
X153779974Y-124850000D01*
X154109147Y-124630054D01*
X154431054Y-124148285D01*
X154544093Y-123580000D01*
X154431054Y-123011715D01*
X154109147Y-122529946D01*
X153779974Y-122310000D01*
X154109147Y-122090054D01*
X154431054Y-121608285D01*
X154544093Y-121040000D01*
X154542104Y-121030000D01*
X166755907Y-121030000D01*
X166868946Y-121598285D01*
X167190853Y-122080054D01*
X167520026Y-122300000D01*
X167190853Y-122519946D01*
X166868946Y-123001715D01*
X166755907Y-123570000D01*
X166868946Y-124138285D01*
X167190853Y-124620054D01*
X167520026Y-124840000D01*
X167190853Y-125059946D01*
X166868946Y-125541715D01*
X166755907Y-126110000D01*
X166868946Y-126678285D01*
X167190853Y-127160054D01*
X167520026Y-127380000D01*
X167190853Y-127599946D01*
X166868946Y-128081715D01*
X166755907Y-128650000D01*
X166868946Y-129218285D01*
X167190853Y-129700054D01*
X167520026Y-129920000D01*
X167190853Y-130139946D01*
X166868946Y-130621715D01*
X166755907Y-131190000D01*
X166868946Y-131758285D01*
X167190853Y-132240054D01*
X167520026Y-132460000D01*
X167190853Y-132679946D01*
X166868946Y-133161715D01*
X166755907Y-133730000D01*
X166868946Y-134298285D01*
X167190853Y-134780054D01*
X167520026Y-135000000D01*
X167190853Y-135219946D01*
X166868946Y-135701715D01*
X166755907Y-136270000D01*
X166868946Y-136838285D01*
X167190853Y-137320054D01*
X167520026Y-137540000D01*
X167190853Y-137759946D01*
X166868946Y-138241715D01*
X166755907Y-138810000D01*
X166868946Y-139378285D01*
X167190853Y-139860054D01*
X167232452Y-139887850D01*
X167184683Y-139896838D01*
X166968559Y-140035910D01*
X166823569Y-140248110D01*
X166772560Y-140500000D01*
X166772560Y-142200000D01*
X166816838Y-142435317D01*
X166955910Y-142651441D01*
X167168110Y-142796431D01*
X167420000Y-142847440D01*
X169120000Y-142847440D01*
X169355317Y-142803162D01*
X169571441Y-142664090D01*
X169716431Y-142451890D01*
X169767440Y-142200000D01*
X169767440Y-140500000D01*
X169749706Y-140405750D01*
X181275000Y-140405750D01*
X181275000Y-141096310D01*
X181371673Y-141329699D01*
X181550302Y-141508327D01*
X181783691Y-141605000D01*
X182474250Y-141605000D01*
X182633000Y-141446250D01*
X182633000Y-140247000D01*
X181433750Y-140247000D01*
X181275000Y-140405750D01*
X169749706Y-140405750D01*
X169723162Y-140264683D01*
X169584090Y-140048559D01*
X169371890Y-139903569D01*
X169304459Y-139889914D01*
X169349147Y-139860054D01*
X169671054Y-139378285D01*
X169784093Y-138810000D01*
X169671054Y-138241715D01*
X169349147Y-137759946D01*
X169019974Y-137540000D01*
X169349147Y-137320054D01*
X169671054Y-136838285D01*
X169784093Y-136270000D01*
X169671054Y-135701715D01*
X169349147Y-135219946D01*
X169019974Y-135000000D01*
X169349147Y-134780054D01*
X169671054Y-134298285D01*
X169784093Y-133730000D01*
X169671054Y-133161715D01*
X169349147Y-132679946D01*
X169019974Y-132460000D01*
X169349147Y-132240054D01*
X169671054Y-131758285D01*
X169784093Y-131190000D01*
X169671054Y-130621715D01*
X169349147Y-130139946D01*
X169019974Y-129920000D01*
X169349147Y-129700054D01*
X169671054Y-129218285D01*
X169784093Y-128650000D01*
X169671054Y-128081715D01*
X169349147Y-127599946D01*
X169079839Y-127420000D01*
X181245907Y-127420000D01*
X181358946Y-127988285D01*
X181680853Y-128470054D01*
X182010026Y-128690000D01*
X181680853Y-128909946D01*
X181358946Y-129391715D01*
X181245907Y-129960000D01*
X181358946Y-130528285D01*
X181680853Y-131010054D01*
X182010026Y-131230000D01*
X181680853Y-131449946D01*
X181358946Y-131931715D01*
X181245907Y-132500000D01*
X181358946Y-133068285D01*
X181680853Y-133550054D01*
X182010026Y-133770000D01*
X181680853Y-133989946D01*
X181358946Y-134471715D01*
X181245907Y-135040000D01*
X181358946Y-135608285D01*
X181680853Y-136090054D01*
X182010026Y-136310000D01*
X181680853Y-136529946D01*
X181358946Y-137011715D01*
X181245907Y-137580000D01*
X181358946Y-138148285D01*
X181680853Y-138630054D01*
X181724777Y-138659403D01*
X181550302Y-138731673D01*
X181371673Y-138910301D01*
X181275000Y-139143690D01*
X181275000Y-139834250D01*
X181433750Y-139993000D01*
X182633000Y-139993000D01*
X182633000Y-139973000D01*
X182887000Y-139973000D01*
X182887000Y-139993000D01*
X182907000Y-139993000D01*
X182907000Y-140247000D01*
X182887000Y-140247000D01*
X182887000Y-141446250D01*
X183045750Y-141605000D01*
X183736309Y-141605000D01*
X183969698Y-141508327D01*
X184148327Y-141329699D01*
X184216903Y-141164142D01*
X184220853Y-141170054D01*
X184702622Y-141491961D01*
X185270907Y-141605000D01*
X185329093Y-141605000D01*
X185897378Y-141491961D01*
X186379147Y-141170054D01*
X186701054Y-140688285D01*
X186814093Y-140120000D01*
X186701054Y-139551715D01*
X186379147Y-139069946D01*
X186049974Y-138850000D01*
X186379147Y-138630054D01*
X186701054Y-138148285D01*
X186814093Y-137580000D01*
X186701054Y-137011715D01*
X186379147Y-136529946D01*
X186049974Y-136310000D01*
X186379147Y-136090054D01*
X186701054Y-135608285D01*
X186814093Y-135040000D01*
X186701054Y-134471715D01*
X186379147Y-133989946D01*
X186049974Y-133770000D01*
X186379147Y-133550054D01*
X186701054Y-133068285D01*
X186814093Y-132500000D01*
X186701054Y-131931715D01*
X186379147Y-131449946D01*
X186049974Y-131230000D01*
X186379147Y-131010054D01*
X186701054Y-130528285D01*
X186814093Y-129960000D01*
X186701054Y-129391715D01*
X186379147Y-128909946D01*
X186049974Y-128690000D01*
X186379147Y-128470054D01*
X186701054Y-127988285D01*
X186814093Y-127420000D01*
X186701054Y-126851715D01*
X186379147Y-126369946D01*
X185897378Y-126048039D01*
X185329093Y-125935000D01*
X185270907Y-125935000D01*
X184702622Y-126048039D01*
X184220853Y-126369946D01*
X184030000Y-126655578D01*
X183839147Y-126369946D01*
X183357378Y-126048039D01*
X182789093Y-125935000D01*
X182730907Y-125935000D01*
X182162622Y-126048039D01*
X181680853Y-126369946D01*
X181358946Y-126851715D01*
X181245907Y-127420000D01*
X169079839Y-127420000D01*
X169019974Y-127380000D01*
X169349147Y-127160054D01*
X169671054Y-126678285D01*
X169784093Y-126110000D01*
X169671054Y-125541715D01*
X169349147Y-125059946D01*
X169019974Y-124840000D01*
X169349147Y-124620054D01*
X169671054Y-124138285D01*
X169784093Y-123570000D01*
X169671054Y-123001715D01*
X169349147Y-122519946D01*
X169019974Y-122300000D01*
X169349147Y-122080054D01*
X169671054Y-121598285D01*
X169784093Y-121030000D01*
X169671054Y-120461715D01*
X169349147Y-119979946D01*
X168867378Y-119658039D01*
X168299093Y-119545000D01*
X168240907Y-119545000D01*
X167672622Y-119658039D01*
X167190853Y-119979946D01*
X166868946Y-120461715D01*
X166755907Y-121030000D01*
X154542104Y-121030000D01*
X154431054Y-120471715D01*
X154152323Y-120054563D01*
X161337587Y-115563773D01*
X161896044Y-115936922D01*
X162560000Y-116068991D01*
X163223956Y-115936922D01*
X163786830Y-115560821D01*
X164162931Y-114997947D01*
X164295000Y-114333991D01*
X164295000Y-114266009D01*
X164197586Y-113776274D01*
X170067310Y-110107696D01*
X170103906Y-110073024D01*
X170124130Y-110026845D01*
X170127000Y-110000000D01*
X170127000Y-108059517D01*
X170298110Y-108176431D01*
X170550000Y-108227440D01*
X172350000Y-108227440D01*
X172585317Y-108183162D01*
X172801441Y-108044090D01*
X172946431Y-107831890D01*
X172997440Y-107580000D01*
X172997440Y-105780000D01*
X172953162Y-105544683D01*
X172814090Y-105328559D01*
X172601890Y-105183569D01*
X172585656Y-105180281D01*
X172868155Y-104757491D01*
X172985000Y-104170072D01*
X172985000Y-104109928D01*
X172981688Y-104093275D01*
X185725000Y-104093275D01*
X185725000Y-104186725D01*
X185906547Y-105099425D01*
X186423550Y-105873175D01*
X187197300Y-106390178D01*
X188110000Y-106571725D01*
X189022700Y-106390178D01*
X189796450Y-105873175D01*
X190313453Y-105099425D01*
X190495000Y-104186725D01*
X190495000Y-104093275D01*
X190313453Y-103180575D01*
X189796450Y-102406825D01*
X189022700Y-101889822D01*
X188110000Y-101708275D01*
X187197300Y-101889822D01*
X186423550Y-102406825D01*
X185906547Y-103180575D01*
X185725000Y-104093275D01*
X172981688Y-104093275D01*
X172868155Y-103522509D01*
X172535409Y-103024519D01*
X172297418Y-102865499D01*
X172687966Y-102507576D01*
X172941046Y-101964742D01*
X172820997Y-101727000D01*
X171577000Y-101727000D01*
X171577000Y-101747000D01*
X171323000Y-101747000D01*
X171323000Y-101727000D01*
X171303000Y-101727000D01*
X171303000Y-101473000D01*
X171323000Y-101473000D01*
X171323000Y-100229622D01*
X171577000Y-100229622D01*
X171577000Y-101473000D01*
X172820997Y-101473000D01*
X172941046Y-101235258D01*
X172687966Y-100692424D01*
X172246417Y-100287760D01*
X171814740Y-100108964D01*
X171577000Y-100229622D01*
X171323000Y-100229622D01*
X171085260Y-100108964D01*
X170653583Y-100287760D01*
X170212034Y-100692424D01*
X170127000Y-100874814D01*
X170127000Y-92922007D01*
X170148110Y-92936431D01*
X170400000Y-92987440D01*
X172200000Y-92987440D01*
X172435317Y-92943162D01*
X172651441Y-92804090D01*
X172796431Y-92591890D01*
X172847440Y-92340000D01*
X172847440Y-90540000D01*
X172803162Y-90304683D01*
X172664090Y-90088559D01*
X172451890Y-89943569D01*
X172435656Y-89940281D01*
X172718155Y-89517491D01*
X172835000Y-88930072D01*
X172835000Y-88869928D01*
X172831688Y-88853275D01*
X185575000Y-88853275D01*
X185575000Y-88946725D01*
X185756547Y-89859425D01*
X186273550Y-90633175D01*
X187047300Y-91150178D01*
X187960000Y-91331725D01*
X188872700Y-91150178D01*
X189646450Y-90633175D01*
X190163453Y-89859425D01*
X190345000Y-88946725D01*
X190345000Y-88853275D01*
X190163453Y-87940575D01*
X189646450Y-87166825D01*
X188872700Y-86649822D01*
X187960000Y-86468275D01*
X187047300Y-86649822D01*
X186273550Y-87166825D01*
X185756547Y-87940575D01*
X185575000Y-88853275D01*
X172831688Y-88853275D01*
X172718155Y-88282509D01*
X172385409Y-87784519D01*
X172147418Y-87625499D01*
X172537966Y-87267576D01*
X172791046Y-86724742D01*
X172670997Y-86487000D01*
X171427000Y-86487000D01*
X171427000Y-86507000D01*
X171173000Y-86507000D01*
X171173000Y-86487000D01*
X171153000Y-86487000D01*
X171153000Y-86233000D01*
X171173000Y-86233000D01*
X171173000Y-84989622D01*
X171427000Y-84989622D01*
X171427000Y-86233000D01*
X172670997Y-86233000D01*
X172791046Y-85995258D01*
X172537966Y-85452424D01*
X172096417Y-85047760D01*
X171664740Y-84868964D01*
X171427000Y-84989622D01*
X171173000Y-84989622D01*
X170935260Y-84868964D01*
X170503583Y-85047760D01*
X170127000Y-85392885D01*
X170127000Y-77682007D01*
X170148110Y-77696431D01*
X170400000Y-77747440D01*
X172200000Y-77747440D01*
X172435317Y-77703162D01*
X172651441Y-77564090D01*
X172796431Y-77351890D01*
X172847440Y-77100000D01*
X172847440Y-75300000D01*
X172803162Y-75064683D01*
X172664090Y-74848559D01*
X172451890Y-74703569D01*
X172435656Y-74700281D01*
X172718155Y-74277491D01*
X172835000Y-73690072D01*
X172835000Y-73629928D01*
X172831688Y-73613275D01*
X185575000Y-73613275D01*
X185575000Y-73706725D01*
X185756547Y-74619425D01*
X186273550Y-75393175D01*
X187047300Y-75910178D01*
X187960000Y-76091725D01*
X188872700Y-75910178D01*
X189646450Y-75393175D01*
X190163453Y-74619425D01*
X190345000Y-73706725D01*
X190345000Y-73613275D01*
X190163453Y-72700575D01*
X189646450Y-71926825D01*
X188872700Y-71409822D01*
X187960000Y-71228275D01*
X187047300Y-71409822D01*
X186273550Y-71926825D01*
X185756547Y-72700575D01*
X185575000Y-73613275D01*
X172831688Y-73613275D01*
X172718155Y-73042509D01*
X172385409Y-72544519D01*
X172147418Y-72385499D01*
X172537966Y-72027576D01*
X172791046Y-71484742D01*
X172670997Y-71247000D01*
X171427000Y-71247000D01*
X171427000Y-71267000D01*
X171173000Y-71267000D01*
X171173000Y-71247000D01*
X171153000Y-71247000D01*
X171153000Y-70993000D01*
X171173000Y-70993000D01*
X171173000Y-69749622D01*
X171427000Y-69749622D01*
X171427000Y-70993000D01*
X172670997Y-70993000D01*
X172791046Y-70755258D01*
X172537966Y-70212424D01*
X172096417Y-69807760D01*
X171664740Y-69628964D01*
X171427000Y-69749622D01*
X171173000Y-69749622D01*
X170935260Y-69628964D01*
X170503583Y-69807760D01*
X170127000Y-70152885D01*
X170127000Y-62339517D01*
X170298110Y-62456431D01*
X170550000Y-62507440D01*
X172350000Y-62507440D01*
X172585317Y-62463162D01*
X172801441Y-62324090D01*
X172946431Y-62111890D01*
X172997440Y-61860000D01*
X172997440Y-60060000D01*
X172953162Y-59824683D01*
X172814090Y-59608559D01*
X172601890Y-59463569D01*
X172585656Y-59460281D01*
X172868155Y-59037491D01*
X172985000Y-58450072D01*
X172985000Y-58389928D01*
X172981688Y-58373275D01*
X185725000Y-58373275D01*
X185725000Y-58466725D01*
X185906547Y-59379425D01*
X186423550Y-60153175D01*
X187197300Y-60670178D01*
X188110000Y-60851725D01*
X189022700Y-60670178D01*
X189796450Y-60153175D01*
X190313453Y-59379425D01*
X190495000Y-58466725D01*
X190495000Y-58373275D01*
X190313453Y-57460575D01*
X189796450Y-56686825D01*
X189022700Y-56169822D01*
X188110000Y-55988275D01*
X187197300Y-56169822D01*
X186423550Y-56686825D01*
X185906547Y-57460575D01*
X185725000Y-58373275D01*
X172981688Y-58373275D01*
X172868155Y-57802509D01*
X172535409Y-57304519D01*
X172297418Y-57145499D01*
X172687966Y-56787576D01*
X172941046Y-56244742D01*
X172820997Y-56007000D01*
X171577000Y-56007000D01*
X171577000Y-56027000D01*
X171323000Y-56027000D01*
X171323000Y-56007000D01*
X171303000Y-56007000D01*
X171303000Y-55753000D01*
X171323000Y-55753000D01*
X171323000Y-54509622D01*
X171577000Y-54509622D01*
X171577000Y-55753000D01*
X172820997Y-55753000D01*
X172941046Y-55515258D01*
X172687966Y-54972424D01*
X172246417Y-54567760D01*
X171814740Y-54388964D01*
X171577000Y-54509622D01*
X171323000Y-54509622D01*
X171085260Y-54388964D01*
X170653583Y-54567760D01*
X170212034Y-54972424D01*
X170127000Y-55154814D01*
X170127000Y-47099517D01*
X170298110Y-47216431D01*
X170550000Y-47267440D01*
X172350000Y-47267440D01*
X172585317Y-47223162D01*
X172801441Y-47084090D01*
X172946431Y-46871890D01*
X172997440Y-46620000D01*
X172997440Y-44820000D01*
X172953162Y-44584683D01*
X172814090Y-44368559D01*
X172601890Y-44223569D01*
X172585656Y-44220281D01*
X172868155Y-43797491D01*
X172985000Y-43210072D01*
X172985000Y-43149928D01*
X172981688Y-43133275D01*
X185725000Y-43133275D01*
X185725000Y-43226725D01*
X185906547Y-44139425D01*
X186423550Y-44913175D01*
X187197300Y-45430178D01*
X188110000Y-45611725D01*
X189022700Y-45430178D01*
X189796450Y-44913175D01*
X190313453Y-44139425D01*
X190495000Y-43226725D01*
X190495000Y-43133275D01*
X190313453Y-42220575D01*
X189796450Y-41446825D01*
X189022700Y-40929822D01*
X188110000Y-40748275D01*
X187197300Y-40929822D01*
X186423550Y-41446825D01*
X185906547Y-42220575D01*
X185725000Y-43133275D01*
X172981688Y-43133275D01*
X172868155Y-42562509D01*
X172535409Y-42064519D01*
X172297418Y-41905499D01*
X172687966Y-41547576D01*
X172941046Y-41004742D01*
X172820997Y-40767000D01*
X171577000Y-40767000D01*
X171577000Y-40787000D01*
X171323000Y-40787000D01*
X171323000Y-40767000D01*
X171303000Y-40767000D01*
X171303000Y-40513000D01*
X171323000Y-40513000D01*
X171323000Y-39269622D01*
X171577000Y-39269622D01*
X171577000Y-40513000D01*
X172820997Y-40513000D01*
X172941046Y-40275258D01*
X172687966Y-39732424D01*
X172246417Y-39327760D01*
X171814740Y-39148964D01*
X171577000Y-39269622D01*
X171323000Y-39269622D01*
X171085260Y-39148964D01*
X170653583Y-39327760D01*
X170212034Y-39732424D01*
X170127000Y-39914814D01*
X170127000Y-31859517D01*
X170298110Y-31976431D01*
X170550000Y-32027440D01*
X172350000Y-32027440D01*
X172585317Y-31983162D01*
X172801441Y-31844090D01*
X172946431Y-31631890D01*
X172997440Y-31380000D01*
X172997440Y-29580000D01*
X172953162Y-29344683D01*
X172814090Y-29128559D01*
X172601890Y-28983569D01*
X172585656Y-28980281D01*
X172868155Y-28557491D01*
X172985000Y-27970072D01*
X172985000Y-27909928D01*
X172981688Y-27893275D01*
X185725000Y-27893275D01*
X185725000Y-27986725D01*
X185906547Y-28899425D01*
X186423550Y-29673175D01*
X187197300Y-30190178D01*
X188110000Y-30371725D01*
X189022700Y-30190178D01*
X189796450Y-29673175D01*
X190313453Y-28899425D01*
X190495000Y-27986725D01*
X190495000Y-27893275D01*
X190313453Y-26980575D01*
X189796450Y-26206825D01*
X189022700Y-25689822D01*
X188110000Y-25508275D01*
X187197300Y-25689822D01*
X186423550Y-26206825D01*
X185906547Y-26980575D01*
X185725000Y-27893275D01*
X172981688Y-27893275D01*
X172868155Y-27322509D01*
X172535409Y-26824519D01*
X172297418Y-26665499D01*
X172687966Y-26307576D01*
X172941046Y-25764742D01*
X172820997Y-25527000D01*
X171577000Y-25527000D01*
X171577000Y-25547000D01*
X171323000Y-25547000D01*
X171323000Y-25527000D01*
X171303000Y-25527000D01*
X171303000Y-25273000D01*
X171323000Y-25273000D01*
X171323000Y-24029622D01*
X171577000Y-24029622D01*
X171577000Y-25273000D01*
X172820997Y-25273000D01*
X172941046Y-25035258D01*
X172687966Y-24492424D01*
X172246417Y-24087760D01*
X171814740Y-23908964D01*
X171577000Y-24029622D01*
X171323000Y-24029622D01*
X171085260Y-23908964D01*
X170653583Y-24087760D01*
X170212034Y-24492424D01*
X170127000Y-24674814D01*
X170127000Y-15710000D01*
X188919911Y-15710000D01*
X188830485Y-15746950D01*
X188830485Y-15746950D01*
G37*
X188830485Y-15746950D02*
X187750741Y-16824811D01*
X187165667Y-18233825D01*
X187164336Y-19759482D01*
X187746950Y-21169515D01*
X188824811Y-22249259D01*
X190233825Y-22834333D01*
X191759482Y-22835664D01*
X193169515Y-22253050D01*
X194249259Y-21175189D01*
X194290000Y-21077074D01*
X194290000Y-148919911D01*
X194253050Y-148830485D01*
X193175189Y-147750741D01*
X191766175Y-147165667D01*
X190240518Y-147164336D01*
X188830485Y-147746950D01*
X187750741Y-148824811D01*
X187165667Y-150233825D01*
X187164336Y-151759482D01*
X187746950Y-153169515D01*
X188824811Y-154249259D01*
X188922926Y-154290000D01*
X130127000Y-154290000D01*
X130127000Y-148806001D01*
X136605419Y-148806001D01*
X136403870Y-149007199D01*
X136123919Y-149681395D01*
X136123282Y-150411403D01*
X136402055Y-151086086D01*
X136917799Y-151602730D01*
X137591995Y-151882681D01*
X138322003Y-151883318D01*
X138509732Y-151805750D01*
X151545000Y-151805750D01*
X151545000Y-152496310D01*
X151641673Y-152729699D01*
X151820302Y-152908327D01*
X152053691Y-153005000D01*
X152744250Y-153005000D01*
X152903000Y-152846250D01*
X152903000Y-151647000D01*
X153157000Y-151647000D01*
X153157000Y-152846250D01*
X153315750Y-153005000D01*
X154006309Y-153005000D01*
X154239698Y-152908327D01*
X154418327Y-152729699D01*
X154515000Y-152496310D01*
X154515000Y-151805750D01*
X154356250Y-151647000D01*
X153157000Y-151647000D01*
X152903000Y-151647000D01*
X151703750Y-151647000D01*
X151545000Y-151805750D01*
X138509732Y-151805750D01*
X138996686Y-151604545D01*
X139513330Y-151088801D01*
X139793281Y-150414605D01*
X139793918Y-149684597D01*
X139515145Y-149009914D01*
X139311587Y-148806001D01*
X151550518Y-148806001D01*
X151515907Y-148980000D01*
X151628946Y-149548285D01*
X151950853Y-150030054D01*
X151994777Y-150059403D01*
X151820302Y-150131673D01*
X151641673Y-150310301D01*
X151545000Y-150543690D01*
X151545000Y-151234250D01*
X151703750Y-151393000D01*
X152903000Y-151393000D01*
X152903000Y-151373000D01*
X153157000Y-151373000D01*
X153157000Y-151393000D01*
X154356250Y-151393000D01*
X154515000Y-151234250D01*
X154515000Y-150543690D01*
X154418327Y-150310301D01*
X154239698Y-150131673D01*
X154065223Y-150059403D01*
X154109147Y-150030054D01*
X154431054Y-149548285D01*
X154544093Y-148980000D01*
X154431054Y-148411715D01*
X154109147Y-147929946D01*
X153779974Y-147710000D01*
X154109147Y-147490054D01*
X154431054Y-147008285D01*
X154544093Y-146440000D01*
X154431054Y-145871715D01*
X154109147Y-145389946D01*
X153779974Y-145170000D01*
X154109147Y-144950054D01*
X154431054Y-144468285D01*
X154544093Y-143900000D01*
X154431054Y-143331715D01*
X154109147Y-142849946D01*
X153779974Y-142630000D01*
X154109147Y-142410054D01*
X154431054Y-141928285D01*
X154544093Y-141360000D01*
X154431054Y-140791715D01*
X154109147Y-140309946D01*
X153779974Y-140090000D01*
X154109147Y-139870054D01*
X154431054Y-139388285D01*
X154544093Y-138820000D01*
X154431054Y-138251715D01*
X154109147Y-137769946D01*
X153779974Y-137550000D01*
X154109147Y-137330054D01*
X154431054Y-136848285D01*
X154544093Y-136280000D01*
X154431054Y-135711715D01*
X154109147Y-135229946D01*
X153779974Y-135010000D01*
X154109147Y-134790054D01*
X154431054Y-134308285D01*
X154544093Y-133740000D01*
X154431054Y-133171715D01*
X154109147Y-132689946D01*
X153779974Y-132470000D01*
X154109147Y-132250054D01*
X154431054Y-131768285D01*
X154544093Y-131200000D01*
X154431054Y-130631715D01*
X154109147Y-130149946D01*
X153779974Y-129930000D01*
X154109147Y-129710054D01*
X154431054Y-129228285D01*
X154544093Y-128660000D01*
X154431054Y-128091715D01*
X154109147Y-127609946D01*
X153779974Y-127390000D01*
X154109147Y-127170054D01*
X154431054Y-126688285D01*
X154544093Y-126120000D01*
X154431054Y-125551715D01*
X154109147Y-125069946D01*
X153779974Y-124850000D01*
X154109147Y-124630054D01*
X154431054Y-124148285D01*
X154544093Y-123580000D01*
X154431054Y-123011715D01*
X154109147Y-122529946D01*
X153779974Y-122310000D01*
X154109147Y-122090054D01*
X154431054Y-121608285D01*
X154544093Y-121040000D01*
X154542104Y-121030000D01*
X166755907Y-121030000D01*
X166868946Y-121598285D01*
X167190853Y-122080054D01*
X167520026Y-122300000D01*
X167190853Y-122519946D01*
X166868946Y-123001715D01*
X166755907Y-123570000D01*
X166868946Y-124138285D01*
X167190853Y-124620054D01*
X167520026Y-124840000D01*
X167190853Y-125059946D01*
X166868946Y-125541715D01*
X166755907Y-126110000D01*
X166868946Y-126678285D01*
X167190853Y-127160054D01*
X167520026Y-127380000D01*
X167190853Y-127599946D01*
X166868946Y-128081715D01*
X166755907Y-128650000D01*
X166868946Y-129218285D01*
X167190853Y-129700054D01*
X167520026Y-129920000D01*
X167190853Y-130139946D01*
X166868946Y-130621715D01*
X166755907Y-131190000D01*
X166868946Y-131758285D01*
X167190853Y-132240054D01*
X167520026Y-132460000D01*
X167190853Y-132679946D01*
X166868946Y-133161715D01*
X166755907Y-133730000D01*
X166868946Y-134298285D01*
X167190853Y-134780054D01*
X167520026Y-135000000D01*
X167190853Y-135219946D01*
X166868946Y-135701715D01*
X166755907Y-136270000D01*
X166868946Y-136838285D01*
X167190853Y-137320054D01*
X167520026Y-137540000D01*
X167190853Y-137759946D01*
X166868946Y-138241715D01*
X166755907Y-138810000D01*
X166868946Y-139378285D01*
X167190853Y-139860054D01*
X167232452Y-139887850D01*
X167184683Y-139896838D01*
X166968559Y-140035910D01*
X166823569Y-140248110D01*
X166772560Y-140500000D01*
X166772560Y-142200000D01*
X166816838Y-142435317D01*
X166955910Y-142651441D01*
X167168110Y-142796431D01*
X167420000Y-142847440D01*
X169120000Y-142847440D01*
X169355317Y-142803162D01*
X169571441Y-142664090D01*
X169716431Y-142451890D01*
X169767440Y-142200000D01*
X169767440Y-140500000D01*
X169749706Y-140405750D01*
X181275000Y-140405750D01*
X181275000Y-141096310D01*
X181371673Y-141329699D01*
X181550302Y-141508327D01*
X181783691Y-141605000D01*
X182474250Y-141605000D01*
X182633000Y-141446250D01*
X182633000Y-140247000D01*
X181433750Y-140247000D01*
X181275000Y-140405750D01*
X169749706Y-140405750D01*
X169723162Y-140264683D01*
X169584090Y-140048559D01*
X169371890Y-139903569D01*
X169304459Y-139889914D01*
X169349147Y-139860054D01*
X169671054Y-139378285D01*
X169784093Y-138810000D01*
X169671054Y-138241715D01*
X169349147Y-137759946D01*
X169019974Y-137540000D01*
X169349147Y-137320054D01*
X169671054Y-136838285D01*
X169784093Y-136270000D01*
X169671054Y-135701715D01*
X169349147Y-135219946D01*
X169019974Y-135000000D01*
X169349147Y-134780054D01*
X169671054Y-134298285D01*
X169784093Y-133730000D01*
X169671054Y-133161715D01*
X169349147Y-132679946D01*
X169019974Y-132460000D01*
X169349147Y-132240054D01*
X169671054Y-131758285D01*
X169784093Y-131190000D01*
X169671054Y-130621715D01*
X169349147Y-130139946D01*
X169019974Y-129920000D01*
X169349147Y-129700054D01*
X169671054Y-129218285D01*
X169784093Y-128650000D01*
X169671054Y-128081715D01*
X169349147Y-127599946D01*
X169079839Y-127420000D01*
X181245907Y-127420000D01*
X181358946Y-127988285D01*
X181680853Y-128470054D01*
X182010026Y-128690000D01*
X181680853Y-128909946D01*
X181358946Y-129391715D01*
X181245907Y-129960000D01*
X181358946Y-130528285D01*
X181680853Y-131010054D01*
X182010026Y-131230000D01*
X181680853Y-131449946D01*
X181358946Y-131931715D01*
X181245907Y-132500000D01*
X181358946Y-133068285D01*
X181680853Y-133550054D01*
X182010026Y-133770000D01*
X181680853Y-133989946D01*
X181358946Y-134471715D01*
X181245907Y-135040000D01*
X181358946Y-135608285D01*
X181680853Y-136090054D01*
X182010026Y-136310000D01*
X181680853Y-136529946D01*
X181358946Y-137011715D01*
X181245907Y-137580000D01*
X181358946Y-138148285D01*
X181680853Y-138630054D01*
X181724777Y-138659403D01*
X181550302Y-138731673D01*
X181371673Y-138910301D01*
X181275000Y-139143690D01*
X181275000Y-139834250D01*
X181433750Y-139993000D01*
X182633000Y-139993000D01*
X182633000Y-139973000D01*
X182887000Y-139973000D01*
X182887000Y-139993000D01*
X182907000Y-139993000D01*
X182907000Y-140247000D01*
X182887000Y-140247000D01*
X182887000Y-141446250D01*
X183045750Y-141605000D01*
X183736309Y-141605000D01*
X183969698Y-141508327D01*
X184148327Y-141329699D01*
X184216903Y-141164142D01*
X184220853Y-141170054D01*
X184702622Y-141491961D01*
X185270907Y-141605000D01*
X185329093Y-141605000D01*
X185897378Y-141491961D01*
X186379147Y-141170054D01*
X186701054Y-140688285D01*
X186814093Y-140120000D01*
X186701054Y-139551715D01*
X186379147Y-139069946D01*
X186049974Y-138850000D01*
X186379147Y-138630054D01*
X186701054Y-138148285D01*
X186814093Y-137580000D01*
X186701054Y-137011715D01*
X186379147Y-136529946D01*
X186049974Y-136310000D01*
X186379147Y-136090054D01*
X186701054Y-135608285D01*
X186814093Y-135040000D01*
X186701054Y-134471715D01*
X186379147Y-133989946D01*
X186049974Y-133770000D01*
X186379147Y-133550054D01*
X186701054Y-133068285D01*
X186814093Y-132500000D01*
X186701054Y-131931715D01*
X186379147Y-131449946D01*
X186049974Y-131230000D01*
X186379147Y-131010054D01*
X186701054Y-130528285D01*
X186814093Y-129960000D01*
X186701054Y-129391715D01*
X186379147Y-128909946D01*
X186049974Y-128690000D01*
X186379147Y-128470054D01*
X186701054Y-127988285D01*
X186814093Y-127420000D01*
X186701054Y-126851715D01*
X186379147Y-126369946D01*
X185897378Y-126048039D01*
X185329093Y-125935000D01*
X185270907Y-125935000D01*
X184702622Y-126048039D01*
X184220853Y-126369946D01*
X184030000Y-126655578D01*
X183839147Y-126369946D01*
X183357378Y-126048039D01*
X182789093Y-125935000D01*
X182730907Y-125935000D01*
X182162622Y-126048039D01*
X181680853Y-126369946D01*
X181358946Y-126851715D01*
X181245907Y-127420000D01*
X169079839Y-127420000D01*
X169019974Y-127380000D01*
X169349147Y-127160054D01*
X169671054Y-126678285D01*
X169784093Y-126110000D01*
X169671054Y-125541715D01*
X169349147Y-125059946D01*
X169019974Y-124840000D01*
X169349147Y-124620054D01*
X169671054Y-124138285D01*
X169784093Y-123570000D01*
X169671054Y-123001715D01*
X169349147Y-122519946D01*
X169019974Y-122300000D01*
X169349147Y-122080054D01*
X169671054Y-121598285D01*
X169784093Y-121030000D01*
X169671054Y-120461715D01*
X169349147Y-119979946D01*
X168867378Y-119658039D01*
X168299093Y-119545000D01*
X168240907Y-119545000D01*
X167672622Y-119658039D01*
X167190853Y-119979946D01*
X166868946Y-120461715D01*
X166755907Y-121030000D01*
X154542104Y-121030000D01*
X154431054Y-120471715D01*
X154152323Y-120054563D01*
X161337587Y-115563773D01*
X161896044Y-115936922D01*
X162560000Y-116068991D01*
X163223956Y-115936922D01*
X163786830Y-115560821D01*
X164162931Y-114997947D01*
X164295000Y-114333991D01*
X164295000Y-114266009D01*
X164197586Y-113776274D01*
X170067310Y-110107696D01*
X170103906Y-110073024D01*
X170124130Y-110026845D01*
X170127000Y-110000000D01*
X170127000Y-108059517D01*
X170298110Y-108176431D01*
X170550000Y-108227440D01*
X172350000Y-108227440D01*
X172585317Y-108183162D01*
X172801441Y-108044090D01*
X172946431Y-107831890D01*
X172997440Y-107580000D01*
X172997440Y-105780000D01*
X172953162Y-105544683D01*
X172814090Y-105328559D01*
X172601890Y-105183569D01*
X172585656Y-105180281D01*
X172868155Y-104757491D01*
X172985000Y-104170072D01*
X172985000Y-104109928D01*
X172981688Y-104093275D01*
X185725000Y-104093275D01*
X185725000Y-104186725D01*
X185906547Y-105099425D01*
X186423550Y-105873175D01*
X187197300Y-106390178D01*
X188110000Y-106571725D01*
X189022700Y-106390178D01*
X189796450Y-105873175D01*
X190313453Y-105099425D01*
X190495000Y-104186725D01*
X190495000Y-104093275D01*
X190313453Y-103180575D01*
X189796450Y-102406825D01*
X189022700Y-101889822D01*
X188110000Y-101708275D01*
X187197300Y-101889822D01*
X186423550Y-102406825D01*
X185906547Y-103180575D01*
X185725000Y-104093275D01*
X172981688Y-104093275D01*
X172868155Y-103522509D01*
X172535409Y-103024519D01*
X172297418Y-102865499D01*
X172687966Y-102507576D01*
X172941046Y-101964742D01*
X172820997Y-101727000D01*
X171577000Y-101727000D01*
X171577000Y-101747000D01*
X171323000Y-101747000D01*
X171323000Y-101727000D01*
X171303000Y-101727000D01*
X171303000Y-101473000D01*
X171323000Y-101473000D01*
X171323000Y-100229622D01*
X171577000Y-100229622D01*
X171577000Y-101473000D01*
X172820997Y-101473000D01*
X172941046Y-101235258D01*
X172687966Y-100692424D01*
X172246417Y-100287760D01*
X171814740Y-100108964D01*
X171577000Y-100229622D01*
X171323000Y-100229622D01*
X171085260Y-100108964D01*
X170653583Y-100287760D01*
X170212034Y-100692424D01*
X170127000Y-100874814D01*
X170127000Y-92922007D01*
X170148110Y-92936431D01*
X170400000Y-92987440D01*
X172200000Y-92987440D01*
X172435317Y-92943162D01*
X172651441Y-92804090D01*
X172796431Y-92591890D01*
X172847440Y-92340000D01*
X172847440Y-90540000D01*
X172803162Y-90304683D01*
X172664090Y-90088559D01*
X172451890Y-89943569D01*
X172435656Y-89940281D01*
X172718155Y-89517491D01*
X172835000Y-88930072D01*
X172835000Y-88869928D01*
X172831688Y-88853275D01*
X185575000Y-88853275D01*
X185575000Y-88946725D01*
X185756547Y-89859425D01*
X186273550Y-90633175D01*
X187047300Y-91150178D01*
X187960000Y-91331725D01*
X188872700Y-91150178D01*
X189646450Y-90633175D01*
X190163453Y-89859425D01*
X190345000Y-88946725D01*
X190345000Y-88853275D01*
X190163453Y-87940575D01*
X189646450Y-87166825D01*
X188872700Y-86649822D01*
X187960000Y-86468275D01*
X187047300Y-86649822D01*
X186273550Y-87166825D01*
X185756547Y-87940575D01*
X185575000Y-88853275D01*
X172831688Y-88853275D01*
X172718155Y-88282509D01*
X172385409Y-87784519D01*
X172147418Y-87625499D01*
X172537966Y-87267576D01*
X172791046Y-86724742D01*
X172670997Y-86487000D01*
X171427000Y-86487000D01*
X171427000Y-86507000D01*
X171173000Y-86507000D01*
X171173000Y-86487000D01*
X171153000Y-86487000D01*
X171153000Y-86233000D01*
X171173000Y-86233000D01*
X171173000Y-84989622D01*
X171427000Y-84989622D01*
X171427000Y-86233000D01*
X172670997Y-86233000D01*
X172791046Y-85995258D01*
X172537966Y-85452424D01*
X172096417Y-85047760D01*
X171664740Y-84868964D01*
X171427000Y-84989622D01*
X171173000Y-84989622D01*
X170935260Y-84868964D01*
X170503583Y-85047760D01*
X170127000Y-85392885D01*
X170127000Y-77682007D01*
X170148110Y-77696431D01*
X170400000Y-77747440D01*
X172200000Y-77747440D01*
X172435317Y-77703162D01*
X172651441Y-77564090D01*
X172796431Y-77351890D01*
X172847440Y-77100000D01*
X172847440Y-75300000D01*
X172803162Y-75064683D01*
X172664090Y-74848559D01*
X172451890Y-74703569D01*
X172435656Y-74700281D01*
X172718155Y-74277491D01*
X172835000Y-73690072D01*
X172835000Y-73629928D01*
X172831688Y-73613275D01*
X185575000Y-73613275D01*
X185575000Y-73706725D01*
X185756547Y-74619425D01*
X186273550Y-75393175D01*
X187047300Y-75910178D01*
X187960000Y-76091725D01*
X188872700Y-75910178D01*
X189646450Y-75393175D01*
X190163453Y-74619425D01*
X190345000Y-73706725D01*
X190345000Y-73613275D01*
X190163453Y-72700575D01*
X189646450Y-71926825D01*
X188872700Y-71409822D01*
X187960000Y-71228275D01*
X187047300Y-71409822D01*
X186273550Y-71926825D01*
X185756547Y-72700575D01*
X185575000Y-73613275D01*
X172831688Y-73613275D01*
X172718155Y-73042509D01*
X172385409Y-72544519D01*
X172147418Y-72385499D01*
X172537966Y-72027576D01*
X172791046Y-71484742D01*
X172670997Y-71247000D01*
X171427000Y-71247000D01*
X171427000Y-71267000D01*
X171173000Y-71267000D01*
X171173000Y-71247000D01*
X171153000Y-71247000D01*
X171153000Y-70993000D01*
X171173000Y-70993000D01*
X171173000Y-69749622D01*
X171427000Y-69749622D01*
X171427000Y-70993000D01*
X172670997Y-70993000D01*
X172791046Y-70755258D01*
X172537966Y-70212424D01*
X172096417Y-69807760D01*
X171664740Y-69628964D01*
X171427000Y-69749622D01*
X171173000Y-69749622D01*
X170935260Y-69628964D01*
X170503583Y-69807760D01*
X170127000Y-70152885D01*
X170127000Y-62339517D01*
X170298110Y-62456431D01*
X170550000Y-62507440D01*
X172350000Y-62507440D01*
X172585317Y-62463162D01*
X172801441Y-62324090D01*
X172946431Y-62111890D01*
X172997440Y-61860000D01*
X172997440Y-60060000D01*
X172953162Y-59824683D01*
X172814090Y-59608559D01*
X172601890Y-59463569D01*
X172585656Y-59460281D01*
X172868155Y-59037491D01*
X172985000Y-58450072D01*
X172985000Y-58389928D01*
X172981688Y-58373275D01*
X185725000Y-58373275D01*
X185725000Y-58466725D01*
X185906547Y-59379425D01*
X186423550Y-60153175D01*
X187197300Y-60670178D01*
X188110000Y-60851725D01*
X189022700Y-60670178D01*
X189796450Y-60153175D01*
X190313453Y-59379425D01*
X190495000Y-58466725D01*
X190495000Y-58373275D01*
X190313453Y-57460575D01*
X189796450Y-56686825D01*
X189022700Y-56169822D01*
X188110000Y-55988275D01*
X187197300Y-56169822D01*
X186423550Y-56686825D01*
X185906547Y-57460575D01*
X185725000Y-58373275D01*
X172981688Y-58373275D01*
X172868155Y-57802509D01*
X172535409Y-57304519D01*
X172297418Y-57145499D01*
X172687966Y-56787576D01*
X172941046Y-56244742D01*
X172820997Y-56007000D01*
X171577000Y-56007000D01*
X171577000Y-56027000D01*
X171323000Y-56027000D01*
X171323000Y-56007000D01*
X171303000Y-56007000D01*
X171303000Y-55753000D01*
X171323000Y-55753000D01*
X171323000Y-54509622D01*
X171577000Y-54509622D01*
X171577000Y-55753000D01*
X172820997Y-55753000D01*
X172941046Y-55515258D01*
X172687966Y-54972424D01*
X172246417Y-54567760D01*
X171814740Y-54388964D01*
X171577000Y-54509622D01*
X171323000Y-54509622D01*
X171085260Y-54388964D01*
X170653583Y-54567760D01*
X170212034Y-54972424D01*
X170127000Y-55154814D01*
X170127000Y-47099517D01*
X170298110Y-47216431D01*
X170550000Y-47267440D01*
X172350000Y-47267440D01*
X172585317Y-47223162D01*
X172801441Y-47084090D01*
X172946431Y-46871890D01*
X172997440Y-46620000D01*
X172997440Y-44820000D01*
X172953162Y-44584683D01*
X172814090Y-44368559D01*
X172601890Y-44223569D01*
X172585656Y-44220281D01*
X172868155Y-43797491D01*
X172985000Y-43210072D01*
X172985000Y-43149928D01*
X172981688Y-43133275D01*
X185725000Y-43133275D01*
X185725000Y-43226725D01*
X185906547Y-44139425D01*
X186423550Y-44913175D01*
X187197300Y-45430178D01*
X188110000Y-45611725D01*
X189022700Y-45430178D01*
X189796450Y-44913175D01*
X190313453Y-44139425D01*
X190495000Y-43226725D01*
X190495000Y-43133275D01*
X190313453Y-42220575D01*
X189796450Y-41446825D01*
X189022700Y-40929822D01*
X188110000Y-40748275D01*
X187197300Y-40929822D01*
X186423550Y-41446825D01*
X185906547Y-42220575D01*
X185725000Y-43133275D01*
X172981688Y-43133275D01*
X172868155Y-42562509D01*
X172535409Y-42064519D01*
X172297418Y-41905499D01*
X172687966Y-41547576D01*
X172941046Y-41004742D01*
X172820997Y-40767000D01*
X171577000Y-40767000D01*
X171577000Y-40787000D01*
X171323000Y-40787000D01*
X171323000Y-40767000D01*
X171303000Y-40767000D01*
X171303000Y-40513000D01*
X171323000Y-40513000D01*
X171323000Y-39269622D01*
X171577000Y-39269622D01*
X171577000Y-40513000D01*
X172820997Y-40513000D01*
X172941046Y-40275258D01*
X172687966Y-39732424D01*
X172246417Y-39327760D01*
X171814740Y-39148964D01*
X171577000Y-39269622D01*
X171323000Y-39269622D01*
X171085260Y-39148964D01*
X170653583Y-39327760D01*
X170212034Y-39732424D01*
X170127000Y-39914814D01*
X170127000Y-31859517D01*
X170298110Y-31976431D01*
X170550000Y-32027440D01*
X172350000Y-32027440D01*
X172585317Y-31983162D01*
X172801441Y-31844090D01*
X172946431Y-31631890D01*
X172997440Y-31380000D01*
X172997440Y-29580000D01*
X172953162Y-29344683D01*
X172814090Y-29128559D01*
X172601890Y-28983569D01*
X172585656Y-28980281D01*
X172868155Y-28557491D01*
X172985000Y-27970072D01*
X172985000Y-27909928D01*
X172981688Y-27893275D01*
X185725000Y-27893275D01*
X185725000Y-27986725D01*
X185906547Y-28899425D01*
X186423550Y-29673175D01*
X187197300Y-30190178D01*
X188110000Y-30371725D01*
X189022700Y-30190178D01*
X189796450Y-29673175D01*
X190313453Y-28899425D01*
X190495000Y-27986725D01*
X190495000Y-27893275D01*
X190313453Y-26980575D01*
X189796450Y-26206825D01*
X189022700Y-25689822D01*
X188110000Y-25508275D01*
X187197300Y-25689822D01*
X186423550Y-26206825D01*
X185906547Y-26980575D01*
X185725000Y-27893275D01*
X172981688Y-27893275D01*
X172868155Y-27322509D01*
X172535409Y-26824519D01*
X172297418Y-26665499D01*
X172687966Y-26307576D01*
X172941046Y-25764742D01*
X172820997Y-25527000D01*
X171577000Y-25527000D01*
X171577000Y-25547000D01*
X171323000Y-25547000D01*
X171323000Y-25527000D01*
X171303000Y-25527000D01*
X171303000Y-25273000D01*
X171323000Y-25273000D01*
X171323000Y-24029622D01*
X171577000Y-24029622D01*
X171577000Y-25273000D01*
X172820997Y-25273000D01*
X172941046Y-25035258D01*
X172687966Y-24492424D01*
X172246417Y-24087760D01*
X171814740Y-23908964D01*
X171577000Y-24029622D01*
X171323000Y-24029622D01*
X171085260Y-23908964D01*
X170653583Y-24087760D01*
X170212034Y-24492424D01*
X170127000Y-24674814D01*
X170127000Y-15710000D01*
X188919911Y-15710000D01*
X188830485Y-15746950D01*
M02*
